<svg width="222" height="234" viewBox="0 0 222 234" fill="none" xmlns="http://www.w3.org/2000/svg">
<g clip-path="url(#clip0_8_82)">
<path opacity="0.2" d="M110.603 8.66553C54.2382 8.66553 8.50806 53.2819 8.50806 108.319C8.50806 145.201 29.0441 177.404 59.5557 194.638V216.637C59.5557 218.935 60.452 221.139 62.0476 222.765C63.6431 224.39 65.8071 225.303 68.0636 225.303H153.143C155.399 225.303 157.563 224.39 159.159 222.765C160.755 221.139 161.651 218.935 161.651 216.637V194.638C192.162 177.404 212.698 145.201 212.698 108.319C212.698 53.2819 166.968 8.66553 110.603 8.66553ZM72.3176 147.313C68.1108 147.313 63.9985 146.043 60.5007 143.662C57.0029 141.282 54.2767 137.898 52.6668 133.94C51.0569 129.981 50.6357 125.625 51.4564 121.423C52.2771 117.221 54.3029 113.361 57.2775 110.331C60.2522 107.301 64.0421 105.238 68.168 104.402C72.294 103.566 76.5706 103.995 80.4572 105.635C84.3437 107.275 87.6656 110.051 90.0028 113.614C92.3399 117.176 93.5874 121.365 93.5874 125.65C93.5874 131.395 91.3465 136.905 87.3576 140.968C83.3687 145.031 77.9587 147.313 72.3176 147.313ZM148.889 147.313C144.682 147.313 140.57 146.043 137.072 143.662C133.574 141.282 130.848 137.898 129.238 133.94C127.628 129.981 127.207 125.625 128.028 121.423C128.849 117.221 130.874 113.361 133.849 110.331C136.824 107.301 140.613 105.238 144.739 104.402C148.865 103.566 153.142 103.995 157.029 105.635C160.915 107.275 164.237 110.051 166.574 113.614C168.911 117.176 170.159 121.365 170.159 125.65C170.159 131.395 167.918 136.905 163.929 140.968C159.94 145.031 154.53 147.313 148.889 147.313Z" fill="url(#paint0_linear_8_82)"/>
<path d="M72.3174 95.3203C66.4279 95.3203 60.6707 97.0991 55.7738 100.432C50.8768 103.764 47.0601 108.501 44.8063 114.043C42.5525 119.585 41.9628 125.683 43.1118 131.566C44.2608 137.45 47.0969 142.854 51.2613 147.095C55.4258 151.337 60.7317 154.226 66.508 155.396C72.2844 156.566 78.2717 155.966 83.7128 153.67C89.154 151.374 93.8047 147.487 97.0767 142.499C100.349 137.512 102.095 131.648 102.095 125.649C102.095 117.606 98.9579 109.891 93.3734 104.204C87.789 98.5157 80.2149 95.3203 72.3174 95.3203ZM72.3174 138.648C69.7933 138.648 67.326 137.885 65.2273 136.457C63.1286 135.029 61.4929 132.999 60.5269 130.624C59.561 128.249 59.3083 125.635 59.8007 123.114C60.2931 120.592 61.5086 118.276 63.2934 116.458C65.0782 114.641 67.3521 113.403 69.8277 112.901C72.3032 112.399 74.8692 112.657 77.2012 113.641C79.5331 114.625 81.5262 116.291 82.9285 118.428C84.3308 120.566 85.0793 123.079 85.0793 125.649C85.0793 129.097 83.7347 132.403 81.3414 134.841C78.9481 137.278 75.7021 138.648 72.3174 138.648ZM148.889 95.3203C142.999 95.3203 137.242 97.0991 132.345 100.432C127.448 103.764 123.632 108.501 121.378 114.043C119.124 119.585 118.534 125.683 119.683 131.566C120.832 137.45 123.668 142.854 127.833 147.095C131.997 151.337 137.303 154.226 143.079 155.396C148.856 156.566 154.843 155.966 160.284 153.67C165.725 151.374 170.376 147.487 173.648 142.499C176.92 137.512 178.667 131.648 178.667 125.649C178.667 117.606 175.529 109.891 169.945 104.204C164.36 98.5157 156.786 95.3203 148.889 95.3203ZM148.889 138.648C146.365 138.648 143.897 137.885 141.799 136.457C139.7 135.029 138.064 132.999 137.098 130.624C136.132 128.249 135.88 125.635 136.372 123.114C136.865 120.592 138.08 118.276 139.865 116.458C141.65 114.641 143.923 113.403 146.399 112.901C148.875 112.399 151.441 112.657 153.773 113.641C156.104 114.625 158.098 116.291 159.5 118.428C160.902 120.566 161.651 123.079 161.651 125.649C161.651 129.097 160.306 132.403 157.913 134.841C155.519 137.278 152.273 138.648 148.889 138.648ZM110.603 0C49.6119 0 0 48.5917 0 108.319C0 145.255 19.43 179.809 51.0476 199.609V216.637C51.0476 221.234 52.8403 225.642 56.0314 228.892C59.2225 232.142 63.5505 233.968 68.0634 233.968H153.143C157.656 233.968 161.984 232.142 165.175 228.892C168.366 225.642 170.159 221.234 170.159 216.637V199.609C201.776 179.809 221.206 145.255 221.206 108.319C221.206 48.5917 171.594 0 110.603 0ZM157.524 187.055C156.196 187.806 155.089 188.905 154.318 190.238C153.548 191.571 153.142 193.09 153.143 194.638V216.637H136.127V190.641C136.127 188.342 135.23 186.138 133.635 184.513C132.039 182.888 129.875 181.975 127.619 181.975C125.362 181.975 123.198 182.888 121.603 184.513C120.007 186.138 119.111 188.342 119.111 190.641V216.637H102.095V190.641C102.095 188.342 101.199 186.138 99.6032 184.513C98.0077 182.888 95.8437 181.975 93.5872 181.975C91.3308 181.975 89.1667 182.888 87.5712 184.513C85.9757 186.138 85.0793 188.342 85.0793 190.641V216.637H68.0634V194.638C68.0642 193.09 67.6582 191.571 66.8877 190.238C66.1172 188.905 65.0103 187.806 63.6818 187.055C34.8931 170.807 17.0159 140.641 17.0159 108.319C17.0159 58.1454 59.0025 17.331 110.603 17.331C162.204 17.331 204.19 58.1454 204.19 108.319C204.19 140.63 186.313 170.807 157.524 187.055Z" fill="url(#paint1_linear_8_82)"/>
<circle cx="149" cy="125" r="16.5" fill="#15FF01" stroke="black" stroke-width="3"/>
<circle cx="72" cy="125" r="16.5" fill="#15FF01" stroke="black" stroke-width="3"/>
<path d="M112.246 94C119.228 94 124.888 79.6731 124.888 62C124.888 44.3269 119.228 30 112.246 30C105.264 30 99.6042 44.3269 99.6042 62C99.6042 79.6731 105.264 94 112.246 94Z" stroke="url(#paint2_linear_8_82)" stroke-width="2" stroke-linecap="round" stroke-linejoin="round"/>
<path d="M142.16 78.0121C145.65 72.4118 135.083 60.7054 118.558 51.8651C102.033 43.0248 85.8078 40.3983 82.3183 45.9986C78.8288 51.5989 89.3961 63.3053 105.921 72.1456C122.446 80.9859 138.671 83.6124 142.16 78.0121Z" stroke="url(#paint3_linear_8_82)" stroke-width="2" stroke-linecap="round" stroke-linejoin="round"/>
<path d="M118.558 72.135C135.083 63.2947 145.65 51.5883 142.16 45.988C138.671 40.3876 122.446 43.0142 105.921 51.8544C89.3961 60.6947 78.8288 72.4012 82.3183 78.0015C85.8078 83.6018 102.033 80.9753 118.558 72.135Z" stroke="url(#paint4_linear_8_82)" stroke-width="2" stroke-linecap="round" stroke-linejoin="round"/>
</g>
<defs>
<linearGradient id="paint0_linear_8_82" x1="110.603" y1="8.66553" x2="110.603" y2="225.303" gradientUnits="userSpaceOnUse">
<stop stop-color="#FF5C00"/>
<stop offset="1" stop-color="#FF0000"/>
</linearGradient>
<linearGradient id="paint1_linear_8_82" x1="110.603" y1="0" x2="110.603" y2="233.968" gradientUnits="userSpaceOnUse">
<stop stop-color="#FF5C00"/>
<stop offset="1" stop-color="#FF0000"/>
</linearGradient>
<linearGradient id="paint2_linear_8_82" x1="112.246" y1="30" x2="112.246" y2="94" gradientUnits="userSpaceOnUse">
<stop stop-color="#FF5C00"/>
<stop offset="1" stop-color="#FF0000"/>
</linearGradient>
<linearGradient id="paint3_linear_8_82" x1="82.3183" y1="45.9986" x2="139.793" y2="81.8108" gradientUnits="userSpaceOnUse">
<stop stop-color="#FF5C00"/>
<stop offset="1" stop-color="#FF0000"/>
</linearGradient>
<linearGradient id="paint4_linear_8_82" x1="105.921" y1="51.8544" x2="117.168" y2="72.8783" gradientUnits="userSpaceOnUse">
<stop stop-color="#FF5C00"/>
<stop offset="1" stop-color="#FF0000"/>
</linearGradient>
<clipPath id="clip0_8_82">
<rect width="222" height="234" fill="white"/>
</clipPath>
</defs>
</svg>
