<svg width="222" height="234" viewBox="0 0 222 234" fill="none" xmlns="http://www.w3.org/2000/svg">
<path d="M72.3174 95.3203C66.4279 95.3203 60.6707 97.0991 55.7738 100.432C50.8768 103.764 47.0601 108.501 44.8063 114.043C42.5525 119.585 41.9628 125.683 43.1118 131.566C44.2608 137.45 47.0969 142.854 51.2613 147.095C55.4258 151.337 60.7317 154.226 66.508 155.396C72.2844 156.566 78.2717 155.966 83.7128 153.67C89.154 151.374 93.8047 147.487 97.0767 142.499C100.349 137.512 102.095 131.648 102.095 125.649C102.095 117.606 98.9579 109.891 93.3734 104.204C87.789 98.5157 80.215 95.3203 72.3174 95.3203ZM72.3174 138.648C69.7933 138.648 67.326 137.885 65.2273 136.457C63.1286 135.029 61.4929 132.999 60.5269 130.624C59.561 128.249 59.3083 125.635 59.8007 123.114C60.2931 120.592 61.5086 118.276 63.2934 116.458C65.0782 114.641 67.3521 113.403 69.8277 112.901C72.3032 112.399 74.8692 112.657 77.2012 113.641C79.5331 114.624 81.5262 116.291 82.9285 118.428C84.3308 120.566 85.0793 123.079 85.0793 125.649C85.0793 129.097 83.7347 132.403 81.3414 134.841C78.9481 137.278 75.7021 138.648 72.3174 138.648ZM148.889 95.3203C142.999 95.3203 137.242 97.0991 132.345 100.432C127.448 103.764 123.632 108.501 121.378 114.043C119.124 119.585 118.534 125.683 119.683 131.566C120.832 137.45 123.668 142.854 127.833 147.095C131.997 151.337 137.303 154.226 143.079 155.396C148.856 156.566 154.843 155.966 160.284 153.67C165.725 151.374 170.376 147.487 173.648 142.499C176.92 137.512 178.667 131.648 178.667 125.649C178.667 117.606 175.529 109.891 169.945 104.204C164.36 98.5157 156.786 95.3203 148.889 95.3203ZM148.889 138.648C146.365 138.648 143.897 137.885 141.799 136.457C139.7 135.029 138.064 132.999 137.098 130.624C136.132 128.249 135.88 125.635 136.372 123.114C136.864 120.592 138.08 118.276 139.865 116.458C141.65 114.641 143.923 113.403 146.399 112.901C148.875 112.399 151.441 112.657 153.773 113.641C156.104 114.624 158.098 116.291 159.5 118.428C160.902 120.566 161.651 123.079 161.651 125.649C161.651 129.097 160.306 132.403 157.913 134.841C155.519 137.278 152.273 138.648 148.889 138.648ZM110.603 0C49.6119 0 0 48.5917 0 108.319C0 145.255 19.43 179.809 51.0476 199.609V216.637C51.0476 221.234 52.8403 225.642 56.0314 228.892C59.2225 232.142 63.5505 233.968 68.0634 233.968H153.143C157.656 233.968 161.984 232.142 165.175 228.892C168.366 225.642 170.159 221.234 170.159 216.637V199.609C201.776 179.809 221.206 145.255 221.206 108.319C221.206 48.5917 171.594 0 110.603 0ZM157.524 187.055C156.196 187.806 155.089 188.905 154.318 190.238C153.548 191.571 153.142 193.09 153.143 194.638V216.637H136.127V190.641C136.127 188.342 135.23 186.138 133.635 184.513C132.039 182.888 129.875 181.975 127.619 181.975C125.362 181.975 123.198 182.888 121.603 184.513C120.007 186.138 119.111 188.342 119.111 190.641V216.637H102.095V190.641C102.095 188.342 101.199 186.138 99.6032 184.513C98.0077 182.888 95.8437 181.975 93.5872 181.975C91.3308 181.975 89.1667 182.888 87.5712 184.513C85.9757 186.138 85.0793 188.342 85.0793 190.641V216.637H68.0634V194.638C68.0642 193.09 67.6582 191.571 66.8877 190.238C66.1172 188.905 65.0103 187.806 63.6818 187.055C34.8931 170.807 17.0159 140.641 17.0159 108.319C17.0159 58.1454 59.0025 17.331 110.603 17.331C162.204 17.331 204.19 58.1454 204.19 108.319C204.19 140.63 186.313 170.807 157.524 187.055Z" fill="url(#paint0_linear_1_291)"/>
<path opacity="0.2" d="M113.095 0C56.7301 0 11 44.6164 11 99.653C11 136.535 31.536 168.739 62.0476 185.972V207.972C62.0476 210.27 62.944 212.474 64.5395 214.099C66.1351 215.724 68.2991 216.637 70.5555 216.637H155.635C157.891 216.637 160.055 215.724 161.651 214.099C163.246 212.474 164.143 210.27 164.143 207.972V185.972C194.654 168.739 215.19 136.535 215.19 99.653C215.19 44.6164 169.46 0 113.095 0ZM74.8095 138.648C70.6027 138.648 66.4904 137.377 62.9926 134.997C59.4948 132.616 56.7686 129.233 55.1587 125.274C53.5489 121.316 53.1277 116.96 53.9484 112.758C54.7691 108.555 56.7948 104.695 59.7695 101.665C62.7441 98.6357 66.534 96.5725 70.66 95.7366C74.7859 94.9007 79.0626 95.3297 82.9491 96.9693C86.8357 98.609 90.1576 101.386 92.4947 104.948C94.8319 108.511 96.0793 112.699 96.0793 116.984C96.0793 122.73 93.8384 128.24 89.8495 132.303C85.8607 136.365 80.4506 138.648 74.8095 138.648ZM151.381 138.648C147.174 138.648 143.062 137.377 139.564 134.997C136.066 132.616 133.34 129.233 131.73 125.274C130.12 121.316 129.699 116.96 130.52 112.758C131.34 108.555 133.366 104.695 136.341 101.665C139.315 98.6357 143.105 96.5725 147.231 95.7366C151.357 94.9007 155.634 95.3297 159.521 96.9693C163.407 98.609 166.729 101.386 169.066 104.948C171.403 108.511 172.651 112.699 172.651 116.984C172.651 122.73 170.41 128.24 166.421 132.303C162.432 136.365 157.022 138.648 151.381 138.648Z" fill="url(#paint1_linear_1_291)"/>
<circle cx="9" cy="9" r="8.5" transform="matrix(1 0 0 -1 64 134)" fill="#FF0000" stroke="#FF0000"/>
<circle cx="9" cy="9" r="8.5" transform="matrix(1 0 0 -1 142 134)" fill="#FF0000" stroke="#FF0000"/>
<path d="M127.151 46.1368C129.911 32.8327 123.84 28.6577 113.52 38.2879C103.806 29.1031 96.889 31.9977 99.8324 46.0811C86.2593 50.2083 87.1586 57.9774 99.9429 61.9458C97.0178 74.9159 102.482 79.6475 113.52 69.8503C124.226 79.5361 129.909 75.0012 126.986 61.8902C140.93 57.1215 139.679 50.2189 127.151 46.1368ZM125.275 45.6359C123.087 45.1381 120.971 44.7758 118.818 44.5782C117.683 42.9054 116.362 41.2343 114.844 39.6797C123.118 31.6745 127.995 34.1757 125.275 45.6359ZM103.917 56.4904C104.735 58.2532 105.811 59.8675 106.621 61.2221C105.303 61.0861 103.883 60.8796 102.371 60.6097C102.861 59.2273 103.377 57.8539 103.916 56.4904M103.806 51.7032C103.204 50.2453 102.654 48.8383 102.206 47.5283C103.766 47.202 105.295 46.9058 106.621 46.8046C105.634 48.3679 104.697 50.0024 103.806 51.7032ZM104.965 54.1525C106.315 51.4264 107.742 48.8387 109.325 46.5263C112.133 46.3634 114.912 46.3778 117.659 46.582C119.199 48.747 120.637 51.3345 122.019 54.1525C120.985 56.3078 119.516 58.7915 117.824 61.4448C114.999 61.6605 112.102 61.6307 109.159 61.4448C107.668 59.1402 106.267 56.7128 104.965 54.1525ZM123.067 56.4904C123.603 57.8021 124.098 59.139 124.557 60.4984C123.171 60.7928 121.771 61.0157 120.363 61.1664C121.308 59.6896 122.204 58.1217 123.067 56.4904ZM120.363 46.8047C121.868 47.0124 123.321 47.2718 124.723 47.584C124.257 48.9828 123.723 50.3576 123.122 51.7032C122.268 50.0039 121.351 48.3683 120.363 46.8046M116.113 44.3553C114.395 44.2872 112.646 44.2895 110.87 44.3553C111.648 43.3241 112.514 42.2471 113.464 41.1267C114.39 42.1348 115.268 43.22 116.113 44.3553ZM112.14 39.6794C110.622 41.234 109.3 42.8494 108.166 44.5222C106.013 44.7199 103.841 45.0822 101.654 45.5799C99.0598 33.9457 103.865 31.6741 112.14 39.6794ZM100.44 60.1088C88.9417 56.6204 89.4936 51.1838 100.329 47.9738C100.992 50.0024 101.794 52.0628 102.702 54.0413C101.82 56.0875 101.039 58.189 100.44 60.1088ZM101.874 62.4468C103.824 62.9292 105.891 63.1608 108.056 63.3931C109.358 65.2471 110.707 66.9707 112.14 68.4586C103.714 76.6044 99.0172 73.6449 101.874 62.4468M113.464 67.0671C112.466 66.0243 111.534 64.8427 110.65 63.5602C112.62 63.6021 114.524 63.6067 116.334 63.5602C115.468 64.8012 114.508 65.9736 113.464 67.0671ZM114.844 68.4587C116.381 66.7741 117.737 65.0663 118.928 63.3375C120.962 63.1866 123.022 62.8715 125.109 62.3913C127.993 74.3105 122.758 76.0704 114.844 68.4587ZM126.489 59.9977C125.898 58.0779 125.151 56.0877 124.282 54.0415C125.167 52.0836 125.941 50.0764 126.599 48.0296C137.178 51.2582 138.024 56.4165 126.489 59.9977Z" fill="url(#paint2_linear_1_291)"/>
<path opacity="0.2" d="M113.344 49.0493C110.757 49.0493 108.658 51.0971 108.658 53.6232C108.658 55.3161 109.601 56.7942 111.001 57.5851V58.5949C111.001 58.7004 111.042 58.8015 111.116 58.8761C111.189 58.9507 111.288 58.9926 111.392 58.9926H115.297C115.4 58.9926 115.5 58.9507 115.573 58.8761C115.646 58.8015 115.687 58.7004 115.687 58.5949V57.5851C117.088 56.7942 118.03 55.3161 118.03 53.6232C118.03 51.0971 115.931 49.0493 113.344 49.0493ZM111.587 55.413C111.394 55.413 111.205 55.3547 111.045 55.2455C110.884 55.1362 110.759 54.9809 110.685 54.7992C110.611 54.6175 110.592 54.4176 110.629 54.2247C110.667 54.0318 110.76 53.8547 110.897 53.7156C111.033 53.5765 111.207 53.4818 111.397 53.4435C111.586 53.4051 111.782 53.4248 111.961 53.5001C112.139 53.5753 112.291 53.7028 112.399 53.8663C112.506 54.0298 112.563 54.222 112.563 54.4187C112.563 54.6824 112.46 54.9353 112.277 55.1218C112.094 55.3083 111.846 55.413 111.587 55.413ZM115.101 55.413C114.908 55.413 114.72 55.3547 114.559 55.2455C114.399 55.1362 114.273 54.9809 114.2 54.7992C114.126 54.6175 114.106 54.4176 114.144 54.2247C114.182 54.0318 114.275 53.8547 114.411 53.7156C114.548 53.5765 114.722 53.4818 114.911 53.4435C115.1 53.4051 115.297 53.4248 115.475 53.5001C115.653 53.5753 115.806 53.7028 115.913 53.8663C116.02 54.0298 116.078 54.222 116.078 54.4187C116.078 54.6824 115.975 54.9353 115.792 55.1218C115.609 55.3083 115.36 55.413 115.101 55.413Z" fill="url(#paint3_linear_1_291)"/>
<path d="M111.587 53.0264C111.317 53.0264 111.052 53.1081 110.828 53.261C110.603 53.414 110.428 53.6314 110.324 53.8858C110.221 54.1401 110.194 54.42 110.246 54.6901C110.299 54.9601 110.429 55.2081 110.62 55.4028C110.812 55.5975 111.055 55.7301 111.32 55.7838C111.585 55.8375 111.86 55.8099 112.11 55.7046C112.36 55.5992 112.573 55.4208 112.723 55.1919C112.873 54.9629 112.954 54.6938 112.954 54.4185C112.954 54.0493 112.81 53.6952 112.553 53.4341C112.297 53.1731 111.949 53.0264 111.587 53.0264ZM111.587 55.0151C111.471 55.0151 111.358 54.9801 111.261 54.9145C111.165 54.849 111.09 54.7558 111.046 54.6468C111.001 54.5378 110.99 54.4178 111.012 54.3021C111.035 54.1864 111.091 54.0801 111.173 53.9966C111.255 53.9132 111.359 53.8564 111.473 53.8333C111.586 53.8103 111.704 53.8221 111.811 53.8673C111.918 53.9125 112.01 53.9889 112.074 54.087C112.138 54.1851 112.173 54.3005 112.173 54.4185C112.173 54.5767 112.111 54.7285 112.001 54.8403C111.891 54.9522 111.742 55.0151 111.587 55.0151ZM115.101 53.0264C114.831 53.0264 114.567 53.1081 114.342 53.261C114.117 53.414 113.942 53.6314 113.839 53.8858C113.735 54.1401 113.708 54.42 113.761 54.6901C113.814 54.9601 113.944 55.2081 114.135 55.4028C114.326 55.5975 114.57 55.7301 114.835 55.7838C115.1 55.8375 115.375 55.8099 115.624 55.7046C115.874 55.5992 116.088 55.4208 116.238 55.1919C116.388 54.9629 116.468 54.6938 116.468 54.4185C116.468 54.0493 116.324 53.6952 116.068 53.4341C115.811 53.1731 115.464 53.0264 115.101 53.0264ZM115.101 55.0151C114.985 55.0151 114.872 54.9801 114.776 54.9145C114.68 54.849 114.605 54.7558 114.56 54.6468C114.516 54.5378 114.504 54.4178 114.527 54.3021C114.549 54.1864 114.605 54.0801 114.687 53.9966C114.769 53.9132 114.873 53.8564 114.987 53.8333C115.101 53.8103 115.218 53.8221 115.325 53.8673C115.433 53.9125 115.524 53.9889 115.588 54.087C115.653 54.1851 115.687 54.3005 115.687 54.4185C115.687 54.5767 115.625 54.7285 115.516 54.8403C115.406 54.9522 115.257 55.0151 115.101 55.0151ZM113.344 48.6514C110.545 48.6514 108.268 50.8816 108.268 53.623C108.268 55.3184 109.159 56.9043 110.611 57.8131V58.5947C110.611 58.8056 110.693 59.008 110.839 59.1571C110.986 59.3063 111.184 59.3901 111.392 59.3901H115.297C115.504 59.3901 115.702 59.3063 115.849 59.1571C115.995 59.008 116.078 58.8056 116.078 58.5947V57.8131C117.529 56.9043 118.421 55.3184 118.421 53.623C118.421 50.8816 116.143 48.6514 113.344 48.6514ZM115.498 57.2369C115.437 57.2714 115.386 57.3218 115.351 57.383C115.315 57.4442 115.297 57.5139 115.297 57.5849V58.5947H114.516V57.4015C114.516 57.296 114.474 57.1948 114.401 57.1202C114.328 57.0456 114.229 57.0037 114.125 57.0037C114.022 57.0037 113.922 57.0456 113.849 57.1202C113.776 57.1948 113.735 57.296 113.735 57.4015V58.5947H112.954V57.4015C112.954 57.296 112.912 57.1948 112.839 57.1202C112.766 57.0456 112.667 57.0037 112.563 57.0037C112.46 57.0037 112.36 57.0456 112.287 57.1202C112.214 57.1948 112.173 57.296 112.173 57.4015V58.5947H111.392V57.5849C111.392 57.5139 111.373 57.4442 111.338 57.383C111.302 57.3218 111.251 57.2714 111.19 57.2369C109.869 56.4912 109.049 55.1066 109.049 53.623C109.049 51.3201 110.976 49.4468 113.344 49.4468C115.712 49.4468 117.64 51.3201 117.64 53.623C117.64 55.1061 116.819 56.4912 115.498 57.2369Z" fill="url(#paint4_linear_1_291)"/>
<defs>
<linearGradient id="paint0_linear_1_291" x1="110.603" y1="0" x2="110.603" y2="233.968" gradientUnits="userSpaceOnUse">
<stop stop-color="#33FF00"/>
<stop offset="1" stop-color="#10C900"/>
</linearGradient>
<linearGradient id="paint1_linear_1_291" x1="113.095" y1="0" x2="113.095" y2="216.637" gradientUnits="userSpaceOnUse">
<stop stop-color="#33FF00"/>
<stop offset="1" stop-color="#10C900"/>
</linearGradient>
<linearGradient id="paint2_linear_1_291" x1="103.939" y1="34.4278" x2="120.332" y2="73.0092" gradientUnits="userSpaceOnUse">
<stop stop-color="#A0FF26"/>
<stop offset="1" stop-color="#19D601"/>
</linearGradient>
<linearGradient id="paint3_linear_1_291" x1="113.344" y1="49.0493" x2="113.344" y2="58.9926" gradientUnits="userSpaceOnUse">
<stop stop-color="#33FF00"/>
<stop offset="1" stop-color="#10C900"/>
</linearGradient>
<linearGradient id="paint4_linear_1_291" x1="113.344" y1="48.6514" x2="113.344" y2="59.3901" gradientUnits="userSpaceOnUse">
<stop stop-color="#33FF00"/>
<stop offset="1" stop-color="#10C900"/>
</linearGradient>
</defs>
</svg>
