<svg width="661" height="640" viewBox="0 0 661 640" fill="none" xmlns="http://www.w3.org/2000/svg">
<path d="M330.05 491C381.106 491 422.495 386.235 422.495 257C422.495 127.765 381.106 23 330.05 23C278.995 23 237.606 127.765 237.606 257C237.606 386.235 278.995 491 330.05 491Z" stroke="url(#paint0_linear_6_26)" stroke-width="16" stroke-linecap="round" stroke-linejoin="round"/>
<path d="M548.797 374.088C574.314 333.136 497.041 247.533 376.203 182.888C255.364 118.243 136.72 99.037 111.203 139.989C85.6856 180.942 162.959 266.545 283.797 331.189C404.636 395.834 523.28 415.04 548.797 374.088Z" stroke="url(#paint1_linear_6_26)" stroke-width="16" stroke-linecap="round" stroke-linejoin="round"/>
<path d="M376.203 331.112C497.041 266.468 574.314 180.864 548.797 139.912C523.28 98.9598 404.636 118.166 283.797 182.811C162.959 247.455 85.6856 333.059 111.203 374.011C136.72 414.963 255.364 395.757 376.203 331.112Z" stroke="url(#paint2_linear_6_26)" stroke-width="16" stroke-linecap="round" stroke-linejoin="round"/>
<path d="M321.943 258.869C321.943 261.514 321.06 264.1 319.406 266.3C317.751 268.5 315.399 270.214 312.648 271.226C309.896 272.239 306.868 272.504 303.947 271.988C301.026 271.471 298.343 270.197 296.237 268.327C294.131 266.456 292.697 264.073 292.116 261.478C291.535 258.884 291.833 256.194 292.973 253.75C294.113 251.306 296.043 249.217 298.519 247.747C300.995 246.277 303.907 245.493 306.885 245.493C310.879 245.493 314.709 246.902 317.533 249.411C320.357 251.919 321.943 255.321 321.943 258.869ZM352.06 245.493C349.082 245.493 346.17 246.277 343.694 247.747C341.218 249.217 339.288 251.306 338.148 253.75C337.008 256.194 336.71 258.884 337.291 261.478C337.872 264.073 339.306 266.456 341.412 268.327C343.518 270.197 346.201 271.471 349.122 271.988C352.043 272.504 355.071 272.239 357.823 271.226C360.574 270.214 362.926 268.5 364.58 266.3C366.235 264.1 367.118 261.514 367.118 258.869C367.118 255.321 365.532 251.919 362.708 249.411C359.884 246.902 356.054 245.493 352.06 245.493ZM397.235 249.951C397.235 266.588 389.047 282.154 374.647 293.155V305.684C374.647 308.64 373.325 311.476 370.972 313.566C368.619 315.656 365.427 316.831 362.099 316.831H296.846C293.518 316.831 290.326 315.656 287.973 313.566C285.62 311.476 284.298 308.64 284.298 305.684V293.155C269.867 282.154 261.71 266.588 261.71 249.951C261.71 217.989 292.109 191.989 329.472 191.989C366.836 191.989 397.235 217.989 397.235 249.951ZM382.177 249.951C382.177 225.368 358.535 205.365 329.472 205.365C300.41 205.365 276.768 225.368 276.768 249.951C276.768 263.5 283.927 276.146 296.413 284.673C297.329 285.298 298.07 286.101 298.581 287.021C299.091 287.941 299.356 288.953 299.356 289.979V303.455H309.395V292.308C309.395 290.535 310.188 288.833 311.6 287.579C313.012 286.325 314.927 285.62 316.924 285.62C318.921 285.62 320.836 286.325 322.248 287.579C323.66 288.833 324.453 290.535 324.453 292.308V303.455H334.492V292.308C334.492 290.535 335.285 288.833 336.697 287.579C338.109 286.325 340.024 285.62 342.021 285.62C344.018 285.62 345.933 286.325 347.345 287.579C348.757 288.833 349.55 290.535 349.55 292.308V303.455H359.589V289.979C359.59 288.954 359.855 287.943 360.366 287.024C360.876 286.105 361.617 285.303 362.532 284.678C375.018 276.146 382.177 263.5 382.177 249.951Z" fill="url(#paint3_linear_6_26)"/>
<path d="M47.485 570.37C47.485 574.326 50.323 576.304 55.999 576.304C61.7323 576.304 64.599 574.527 64.599 570.972C64.599 569.08 63.6243 567.532 61.675 566.328C59.7256 565.124 57.3463 564.121 54.537 563.318C51.785 562.515 49.0043 561.598 46.195 560.566C43.443 559.477 41.0923 557.814 39.143 555.578C37.1936 553.285 36.219 550.447 36.219 547.064C36.219 532.673 45.4783 525.478 63.997 525.478C70.7623 525.478 75.865 526.768 79.305 529.348C82.8023 531.871 84.551 535.397 84.551 539.926C84.551 541.589 84.3216 543.194 83.863 544.742C83.4616 546.233 83.0316 547.293 82.573 547.924L81.885 548.956H66.663C67.9243 547.637 68.555 545.975 68.555 543.968C68.555 540.241 66.1183 538.378 61.245 538.378C55.1103 538.378 52.043 540.327 52.043 544.226C52.043 546.175 53.0176 547.723 54.967 548.87C56.9163 550.017 59.267 550.934 62.019 551.622C64.8283 552.253 67.6376 553.055 70.447 554.03C73.2563 555.005 75.6356 556.639 77.585 558.932C79.5343 561.168 80.509 564.092 80.509 567.704C80.509 574.985 78.3303 580.403 73.973 583.958C69.6156 587.455 62.9076 589.204 53.849 589.204C44.7903 589.204 38.5983 587.599 35.273 584.388C32.8076 581.98 31.575 578.655 31.575 574.412C31.575 572.807 31.747 571.058 32.091 569.166L32.349 567.79H47.829L47.657 568.822C47.5423 569.395 47.485 569.911 47.485 570.37ZM141.521 583.528C136.991 587.312 130.57 589.204 122.257 589.204C113.943 589.204 108.181 587.283 104.971 583.442C102.677 580.805 101.531 577.164 101.531 572.52C101.531 570.456 101.76 568.191 102.219 565.726L109.185 526.08H124.665L117.699 565.382C117.469 566.815 117.355 568.306 117.355 569.854C117.355 573.867 119.763 575.874 124.579 575.874C127.445 575.874 129.739 575.129 131.459 573.638C133.179 572.147 134.383 569.395 135.071 565.382L142.037 526.08H157.517L150.551 565.726C149.117 573.753 146.107 579.687 141.521 583.528ZM199.434 569.166H189.2L185.846 588H170.366L181.288 526.08H207.518C213.996 526.08 218.612 527.571 221.364 530.552C223.37 532.845 224.374 535.769 224.374 539.324C224.374 540.528 224.259 541.789 224.03 543.108L222.31 552.826C221.45 557.585 218.927 561.512 214.742 564.608C210.556 567.647 205.454 569.166 199.434 569.166ZM202.1 539.496H194.36L191.522 555.75H199.176C203.877 555.75 206.6 553.657 207.346 549.472L207.948 545.946C208.062 545.43 208.12 544.742 208.12 543.882C208.12 543.022 207.69 542.076 206.83 541.044C205.97 540.012 204.393 539.496 202.1 539.496ZM280.419 588H237.247L248.169 526.08H291.341L288.933 539.496H261.241L259.263 551.106H282.139L279.731 564.522H256.855L255.135 574.584H282.827L280.419 588ZM338.227 526.08C344.763 526.08 349.407 527.513 352.159 530.38C354.223 532.559 355.255 535.311 355.255 538.636C355.255 539.783 355.141 540.987 354.911 542.248L353.707 548.956C353.019 552.683 351.815 555.693 350.095 557.986C348.433 560.279 346.569 561.913 344.505 562.888L352.331 588H334.959L327.735 564.866H322.403L318.877 588H302.365L313.287 526.08H338.227ZM332.809 539.496H326.359L324.123 554.46H330.143C333.182 554.46 335.361 553.743 336.679 552.31C337.998 550.819 338.657 548.87 338.657 546.462C338.657 541.818 336.708 539.496 332.809 539.496ZM429.495 526.08L418.659 588H403.093L392.257 554.116L386.409 588H370.843L381.765 526.08H397.761L408.425 557.728L414.015 526.08H429.495ZM476.302 525.478C490.119 525.478 497.028 531.125 497.028 542.42C497.028 544.312 496.827 546.347 496.426 548.526L493.416 565.726C492.04 573.695 489.058 579.601 484.472 583.442C479.885 587.283 473.435 589.204 465.122 589.204C456.808 589.204 451.018 587.283 447.75 583.442C445.514 580.805 444.396 577.164 444.396 572.52C444.396 570.456 444.625 568.191 445.084 565.726L448.094 548.526C450.788 533.161 460.191 525.478 476.302 525.478ZM467.444 575.874C470.31 575.874 472.604 575.129 474.324 573.638C476.044 572.147 477.248 569.395 477.936 565.382L480.86 548.87C481.032 547.723 481.118 546.691 481.118 545.774C481.118 541.13 478.767 538.808 474.066 538.808C468.16 538.923 464.634 542.277 463.488 548.87L460.564 565.382C460.334 566.815 460.22 568.306 460.22 569.854C460.22 573.867 462.628 575.874 467.444 575.874ZM536.697 572.95L553.037 526.08H569.807L546.329 588H518.809L518.121 526.08H534.977L534.719 572.95H536.697ZM607.731 588L608.247 574.498H593.885L589.671 588H573.245L595.347 526.08H623.727L624.071 588H607.731ZM604.205 541.13L597.411 562.974H608.677L609.623 541.13H604.205Z" fill="url(#paint4_linear_6_26)"/>
<defs>
<linearGradient id="paint0_linear_6_26" x1="330.05" y1="23" x2="330.05" y2="491" gradientUnits="userSpaceOnUse">
<stop stop-color="#FF5C00"/>
<stop offset="1" stop-color="#FF0000"/>
</linearGradient>
<linearGradient id="paint1_linear_6_26" x1="111.203" y1="139.989" x2="531.489" y2="401.866" gradientUnits="userSpaceOnUse">
<stop stop-color="#FF5C00"/>
<stop offset="1" stop-color="#FF0000"/>
</linearGradient>
<linearGradient id="paint2_linear_6_26" x1="283.797" y1="182.811" x2="366.042" y2="336.548" gradientUnits="userSpaceOnUse">
<stop stop-color="#FF5C00"/>
<stop offset="1" stop-color="#FF0000"/>
</linearGradient>
<linearGradient id="paint3_linear_6_26" x1="329.472" y1="191.989" x2="329.472" y2="316.831" gradientUnits="userSpaceOnUse">
<stop stop-color="#FF5C00"/>
<stop offset="1" stop-color="#FF0000"/>
</linearGradient>
<linearGradient id="paint4_linear_6_26" x1="22" y1="552.5" x2="638" y2="552.5" gradientUnits="userSpaceOnUse">
<stop stop-color="#FF0000"/>
<stop offset="1" stop-color="#FF5C00"/>
</linearGradient>
</defs>
</svg>
