<svg width="428" height="374" viewBox="0 0 428 374" fill="none" xmlns="http://www.w3.org/2000/svg">
<g filter="url(#filter0_d_20_2)">
<path d="M344.182 114.803C367.666 1.5765 316 -33.9555 228.166 48.0032C145.499 -30.1653 86.6302 -5.53037 111.68 114.328C-3.83549 149.454 3.81764 215.574 112.62 249.348C87.7263 359.731 134.226 400 228.166 316.62C319.287 399.052 367.648 360.457 342.773 248.874C461.45 208.289 450.804 149.544 344.182 114.803ZM328.212 110.54C309.594 106.303 291.58 103.22 273.257 101.538C263.604 87.301 252.36 73.0793 239.439 59.8482C309.859 -8.28126 351.363 13.0063 328.212 110.54ZM146.439 202.919C153.405 217.921 162.565 231.66 169.454 243.188C158.236 242.03 146.151 240.273 133.286 237.976C137.459 226.211 141.844 214.523 146.438 202.919M145.498 162.176C140.373 149.769 135.697 137.794 131.877 126.645C145.157 123.868 158.171 121.348 169.453 120.486C161.056 133.791 153.08 147.701 145.498 162.176ZM155.361 183.021C166.847 159.82 178.997 137.798 192.468 118.118C216.369 116.731 240.017 116.854 263.393 118.591C276.503 137.017 288.739 159.039 300.499 183.021C291.699 201.364 279.203 222.502 264.802 245.083C240.757 246.919 216.102 246.665 191.059 245.083C178.366 225.47 166.446 204.811 155.361 183.021ZM309.423 202.919C313.984 214.082 318.199 225.46 322.105 237.029C310.31 239.534 298.395 241.432 286.408 242.714C294.451 230.146 302.08 216.801 309.423 202.919ZM286.408 120.487C299.215 122.255 311.587 124.462 323.514 127.119C319.549 139.024 315.003 150.724 309.893 162.176C302.623 147.714 294.817 133.794 286.408 120.486M250.242 99.6408C235.613 99.0617 220.732 99.0806 205.62 99.6408C212.236 90.865 219.609 81.6983 227.697 72.1637C235.577 80.7433 243.044 89.9785 250.242 99.6408ZM216.423 59.8458C203.502 73.077 192.259 86.825 182.605 101.062C164.283 102.744 145.798 105.827 127.181 110.063C105.104 11.0489 146.004 -8.28441 216.423 59.8458ZM116.847 233.713C18.9934 204.025 23.6903 157.756 115.908 130.436C121.549 147.701 128.378 165.236 136.105 182.075C128.597 199.489 121.95 217.374 116.847 233.713ZM129.059 253.611C145.655 257.717 163.243 259.688 181.666 261.665C192.751 277.443 204.23 292.113 216.424 304.776C144.716 374.101 104.742 348.914 129.059 253.611M227.697 292.933C219.199 284.058 211.265 274.001 203.742 263.087C220.513 263.443 236.711 263.483 252.121 263.087C244.745 273.649 236.58 283.626 227.697 292.933ZM239.439 304.776C252.523 290.439 264.056 275.904 274.197 261.192C291.505 259.907 309.041 257.225 326.803 253.139C351.341 354.579 306.787 369.557 239.439 304.776ZM338.545 232.768C333.514 216.429 327.161 199.491 319.758 182.076C327.293 165.414 333.879 148.331 339.484 130.911C429.511 158.389 436.712 202.29 338.545 232.768Z" fill="url(#paint0_linear_20_2)"/>
</g>
<g filter="url(#filter1_d_20_2)">
<path opacity="0.2" d="M228 139.778C205.982 139.778 188.119 157.207 188.119 178.705C188.119 193.112 196.141 205.692 208.06 212.424V221.017C208.06 221.915 208.41 222.776 209.033 223.411C209.656 224.046 210.502 224.402 211.383 224.402H244.617C245.499 224.402 246.344 224.046 246.967 223.411C247.59 222.776 247.941 221.915 247.941 221.017V212.424C259.859 205.692 267.881 193.112 267.881 178.705C267.881 157.207 250.018 139.778 228 139.778ZM213.045 193.938C211.401 193.938 209.795 193.441 208.429 192.511C207.062 191.582 205.997 190.26 205.369 188.714C204.74 187.167 204.575 185.466 204.896 183.824C205.216 182.183 206.008 180.675 207.17 179.491C208.332 178.308 209.812 177.502 211.424 177.175C213.036 176.849 214.706 177.016 216.224 177.657C217.742 178.297 219.04 179.382 219.953 180.774C220.866 182.165 221.353 183.801 221.353 185.475C221.353 187.72 220.478 189.872 218.92 191.459C217.362 193.046 215.248 193.938 213.045 193.938ZM242.955 193.938C241.312 193.938 239.706 193.441 238.339 192.511C236.973 191.582 235.908 190.26 235.279 188.714C234.65 187.167 234.486 185.466 234.807 183.824C235.127 182.183 235.918 180.675 237.08 179.491C238.242 178.308 239.723 177.502 241.335 177.175C242.946 176.849 244.617 177.016 246.135 177.657C247.653 178.297 248.951 179.382 249.864 180.774C250.777 182.165 251.264 183.801 251.264 185.475C251.264 187.72 250.389 189.872 248.83 191.459C247.272 193.046 245.159 193.938 242.955 193.938Z" fill="url(#paint1_linear_20_2)"/>
<path d="M213.045 173.628C210.744 173.628 208.495 174.322 206.582 175.624C204.669 176.926 203.179 178.776 202.298 180.941C201.418 183.106 201.187 185.488 201.636 187.786C202.085 190.084 203.193 192.195 204.82 193.852C206.446 195.509 208.519 196.637 210.775 197.095C213.032 197.552 215.371 197.317 217.496 196.42C219.621 195.524 221.438 194.005 222.716 192.057C223.994 190.109 224.677 187.818 224.677 185.475C224.677 182.333 223.451 179.319 221.27 177.098C219.088 174.876 216.13 173.628 213.045 173.628ZM213.045 190.552C212.059 190.552 211.095 190.255 210.275 189.697C209.455 189.139 208.816 188.346 208.439 187.418C208.062 186.49 207.963 185.469 208.155 184.484C208.348 183.499 208.822 182.595 209.52 181.885C210.217 181.175 211.105 180.691 212.072 180.495C213.039 180.299 214.041 180.4 214.952 180.784C215.863 181.168 216.642 181.819 217.19 182.654C217.737 183.489 218.03 184.471 218.03 185.475C218.03 186.822 217.505 188.113 216.57 189.065C215.635 190.017 214.367 190.552 213.045 190.552ZM242.955 173.628C240.655 173.628 238.406 174.322 236.493 175.624C234.58 176.926 233.089 178.776 232.209 180.941C231.328 183.106 231.098 185.488 231.547 187.786C231.996 190.084 233.104 192.195 234.73 193.852C236.357 195.509 238.43 196.637 240.686 197.095C242.942 197.552 245.281 197.317 247.407 196.42C249.532 195.524 251.349 194.005 252.627 192.057C253.905 190.109 254.587 187.818 254.587 185.475C254.587 182.333 253.362 179.319 251.18 177.098C248.999 174.876 246.04 173.628 242.955 173.628ZM242.955 190.552C241.969 190.552 241.006 190.255 240.186 189.697C239.366 189.139 238.727 188.346 238.35 187.418C237.972 186.49 237.874 185.469 238.066 184.484C238.258 183.499 238.733 182.595 239.43 181.885C240.128 181.175 241.016 180.691 241.983 180.495C242.95 180.299 243.952 180.4 244.863 180.784C245.774 181.168 246.553 181.819 247.1 182.654C247.648 183.489 247.94 184.471 247.94 185.475C247.94 186.822 247.415 188.113 246.48 189.065C245.545 190.017 244.277 190.552 242.955 190.552ZM228 136.393C204.175 136.393 184.796 155.374 184.796 178.705C184.796 193.133 192.385 206.631 204.736 214.365V221.017C204.736 222.812 205.436 224.534 206.683 225.804C207.929 227.074 209.62 227.787 211.383 227.787H244.617C246.38 227.787 248.071 227.074 249.317 225.804C250.564 224.534 251.264 222.812 251.264 221.017V214.365C263.614 206.631 271.204 193.133 271.204 178.705C271.204 155.374 251.825 136.393 228 136.393ZM246.329 209.462C245.81 209.755 245.377 210.184 245.076 210.705C244.775 211.226 244.617 211.819 244.617 212.423V221.017H237.97V210.862C237.97 209.964 237.62 209.103 236.997 208.469C236.374 207.834 235.528 207.477 234.647 207.477C233.765 207.477 232.92 207.834 232.297 208.469C231.674 209.103 231.323 209.964 231.323 210.862V221.017H224.677V210.862C224.677 209.964 224.326 209.103 223.703 208.469C223.08 207.834 222.235 207.477 221.353 207.477C220.472 207.477 219.626 207.834 219.003 208.469C218.38 209.103 218.03 209.964 218.03 210.862V221.017H211.383V212.423C211.383 211.819 211.225 211.226 210.924 210.705C210.623 210.184 210.19 209.755 209.671 209.462C198.426 203.115 191.442 191.331 191.442 178.705C191.442 159.106 207.844 143.163 228 143.163C248.156 143.163 264.557 159.106 264.557 178.705C264.557 191.327 257.574 203.115 246.329 209.462Z" fill="url(#paint2_linear_20_2)"/>
</g>
<defs>
<filter id="filter0_d_20_2" x="0.8" y="0.8" width="427.2" height="372.505" filterUnits="userSpaceOnUse" color-interpolation-filters="sRGB">
<feFlood flood-opacity="0" result="BackgroundImageFix"/>
<feColorMatrix in="SourceAlpha" type="matrix" values="0 0 0 0 0 0 0 0 0 0 0 0 0 0 0 0 0 0 127 0" result="hardAlpha"/>
<feOffset dx="-20" dy="5"/>
<feGaussianBlur stdDeviation="3.6"/>
<feComposite in2="hardAlpha" operator="out"/>
<feColorMatrix type="matrix" values="0 0 0 0 0 0 0 0 0 0 0 0 0 0 0 0 0 0 0.25 0"/>
<feBlend mode="normal" in2="BackgroundImageFix" result="effect1_dropShadow_20_2"/>
<feBlend mode="normal" in="SourceGraphic" in2="effect1_dropShadow_20_2" result="shape"/>
</filter>
<filter id="filter1_d_20_2" x="184.796" y="136.393" width="99.4087" height="109.394" filterUnits="userSpaceOnUse" color-interpolation-filters="sRGB">
<feFlood flood-opacity="0" result="BackgroundImageFix"/>
<feColorMatrix in="SourceAlpha" type="matrix" values="0 0 0 0 0 0 0 0 0 0 0 0 0 0 0 0 0 0 127 0" result="hardAlpha"/>
<feOffset dx="9" dy="14"/>
<feGaussianBlur stdDeviation="2"/>
<feComposite in2="hardAlpha" operator="out"/>
<feColorMatrix type="matrix" values="0 0 0 0 0 0 0 0 0 0 0 0 0 0 0 0 0 0 0.42 0"/>
<feBlend mode="normal" in2="BackgroundImageFix" result="effect1_dropShadow_20_2"/>
<feBlend mode="normal" in="SourceGraphic" in2="effect1_dropShadow_20_2" result="shape"/>
</filter>
<linearGradient id="paint0_linear_20_2" x1="146.632" y1="15.1512" x2="286.146" y2="343.504" gradientUnits="userSpaceOnUse">
<stop stop-color="#FF7A00"/>
<stop offset="1" stop-color="#FF0000"/>
</linearGradient>
<linearGradient id="paint1_linear_20_2" x1="211.549" y1="146.112" x2="255.05" y2="224.288" gradientUnits="userSpaceOnUse">
<stop stop-color="#FE0101"/>
<stop offset="1" stop-color="#FF4501"/>
</linearGradient>
<linearGradient id="paint2_linear_20_2" x1="210.178" y1="143.234" x2="257.082" y2="227.787" gradientUnits="userSpaceOnUse">
<stop stop-color="#FE0101"/>
<stop offset="1" stop-color="#FF4501"/>
</linearGradient>
</defs>
</svg>
