<svg width="120" height="115" viewBox="0 0 120 115" fill="none" xmlns="http://www.w3.org/2000/svg">
<path d="M105 0C108.978 0 112.794 1.58035 115.607 4.3934C118.42 7.20644 120 11.0218 120 15V110.948C120 111.69 119.78 112.415 119.367 113.032C118.954 113.648 118.368 114.129 117.683 114.412C116.997 114.696 116.242 114.769 115.515 114.624C114.787 114.478 114.119 114.12 113.595 113.595L92.1975 92.1975C90.7913 90.7909 88.884 90.0004 86.895 90H15C11.0218 90 7.20644 88.4196 4.3934 85.6066C1.58035 82.7936 0 78.9782 0 75V15C0 11.0218 1.58035 7.20644 4.3934 4.3934C7.20644 1.58035 11.0218 0 15 0L105 0Z" fill="#1CDB01"/>
<g filter="url(#filter0_d_15_35)">
<path d="M56.2245 59.62C55.3845 59.62 54.7078 59.3867 54.1945 58.92C53.6812 58.4067 53.4478 57.59 53.4945 56.47C53.6812 53.53 54.3812 50.9167 55.5945 48.63C56.8078 46.3433 58.8378 43.7767 61.6845 40.93C64.3445 38.3167 66.2578 36.1 67.4245 34.28C68.5912 32.46 69.1745 30.57 69.1745 28.61C69.1745 25.39 67.3778 23.78 63.7845 23.78C61.6378 23.78 60.0045 24.27 58.8845 25.25C57.7645 26.1833 57.2045 27.3733 57.2045 28.82L57.2745 31.69C57.2745 32.4833 56.9712 33.1833 56.3645 33.79C55.8045 34.35 54.8945 34.63 53.6345 34.63C52.1878 34.63 51.0678 34.21 50.2745 33.37C49.5278 32.4833 49.1545 31.2467 49.1545 29.66C49.1545 27.3267 49.7145 25.2033 50.8345 23.29C52.0012 21.33 53.7512 19.7667 56.0845 18.6C58.4178 17.4333 61.2878 16.85 64.6945 16.85C69.3145 16.85 72.8845 17.8533 75.4045 19.86C77.9712 21.82 79.2545 24.6667 79.2545 28.4C79.2545 31.34 78.5078 34 77.0145 36.38C75.5212 38.76 73.2812 41.2333 70.2945 43.8C67.7745 45.9467 65.8612 47.6967 64.5545 49.05C63.2478 50.4033 62.2912 51.5933 61.6845 52.62C61.1245 53.6 60.6578 54.7433 60.2845 56.05C59.9578 57.2633 59.4212 58.1733 58.6745 58.78C57.9745 59.34 57.1578 59.62 56.2245 59.62ZM53.5645 76.35C51.5112 76.35 49.9478 75.79 48.8745 74.67C47.8478 73.55 47.3345 72.08 47.3345 70.26C47.3345 68.16 47.9178 66.48 49.0845 65.22C50.2978 63.96 51.9778 63.33 54.1245 63.33C56.1778 63.33 57.7178 63.8433 58.7445 64.87C59.8178 65.85 60.3545 67.32 60.3545 69.28C60.3545 71.4267 59.7478 73.1533 58.5345 74.46C57.3212 75.72 55.6645 76.35 53.5645 76.35Z" fill="white"/>
</g>
<defs>
<filter id="filter0_d_15_35" x="43.3345" y="16.8496" width="39.9199" height="67.5" filterUnits="userSpaceOnUse" color-interpolation-filters="sRGB">
<feFlood flood-opacity="0" result="BackgroundImageFix"/>
<feColorMatrix in="SourceAlpha" type="matrix" values="0 0 0 0 0 0 0 0 0 0 0 0 0 0 0 0 0 0 127 0" result="hardAlpha"/>
<feOffset dy="4"/>
<feGaussianBlur stdDeviation="2"/>
<feComposite in2="hardAlpha" operator="out"/>
<feColorMatrix type="matrix" values="0 0 0 0 0 0 0 0 0 0 0 0 0 0 0 0 0 0 0.25 0"/>
<feBlend mode="normal" in2="BackgroundImageFix" result="effect1_dropShadow_15_35"/>
<feBlend mode="normal" in="SourceGraphic" in2="effect1_dropShadow_15_35" result="shape"/>
</filter>
</defs>
</svg>
