<svg width="222" height="222" viewBox="0 0 222 222" fill="none" xmlns="http://www.w3.org/2000/svg">
<circle cx="111" cy="111" r="100" fill="#14FF00" fill-opacity="0.25"/>
<path d="M198.958 161.043L208.97 212.745L163.46 199.944L198.958 161.043Z" fill="#15FF01" fill-opacity="0.25"/>
<path d="M111.032 8.87997C129.504 8.88546 147.629 13.9015 163.477 23.3938C179.324 32.8861 192.299 46.4991 201.021 62.783C209.744 79.0668 213.885 97.4115 213.006 115.863C212.126 134.315 206.258 152.182 196.026 167.562L213.152 213.12L155.796 202.749C141.988 209.498 126.834 213.042 111.464 213.119C96.095 213.195 80.9066 209.801 67.0316 203.19C53.1565 196.579 40.9526 186.921 31.3298 174.937C21.707 162.952 14.9134 148.951 11.4555 133.975C7.99766 119 7.96469 103.437 11.3591 88.4466C14.7535 73.4565 21.4877 59.426 31.0597 47.401C40.6316 35.3759 52.7944 25.6666 66.6414 18.9968C80.4883 12.327 95.6622 8.8688 111.032 8.87997Z" stroke="url(#paint0_linear_8_75)" stroke-width="13" stroke-linecap="round" stroke-linejoin="round"/>
<path d="M163.329 126.857C155.4 155.4 123.686 172.843 95.1429 164.914C77.7 158.571 63.4286 144.3 58.6715 126.857M146.679 87.2143C147.73 87.2143 148.738 86.7966 149.482 86.0532C150.225 85.3097 150.643 84.3014 150.643 83.25C150.643 82.1986 150.225 81.1903 149.482 80.4468C148.738 79.7034 147.73 79.2857 146.679 79.2857C145.627 79.2857 144.619 79.7034 143.875 80.4468C143.132 81.1903 142.714 82.1986 142.714 83.25C142.714 84.3014 143.132 85.3097 143.875 86.0532C144.619 86.7966 145.627 87.2143 146.679 87.2143ZM75.3215 87.2143C76.3729 87.2143 77.3812 86.7966 78.1246 86.0532C78.8681 85.3097 79.2858 84.3014 79.2858 83.25C79.2858 82.1986 78.8681 81.1903 78.1246 80.4468C77.3812 79.7034 76.3729 79.2857 75.3215 79.2857C74.2701 79.2857 73.2617 79.7034 72.5183 80.4468C71.7748 81.1903 71.3572 82.1986 71.3572 83.25C71.3572 84.3014 71.7748 85.3097 72.5183 86.0532C73.2617 86.7966 74.2701 87.2143 75.3215 87.2143Z" stroke="url(#paint1_linear_8_75)" stroke-width="13" stroke-linecap="round" stroke-linejoin="round"/>
<circle cx="146.5" cy="82.5" r="22.5" fill="#15FF01"/>
<circle cx="74.5" cy="82.5" r="22.5" fill="#15FF01"/>
<circle cx="75" cy="83" r="11" fill="black"/>
<circle cx="147" cy="83" r="11" fill="black"/>
<defs>
<linearGradient id="paint0_linear_8_75" x1="110.995" y1="8.87994" x2="110.995" y2="213.12" gradientUnits="userSpaceOnUse">
<stop stop-color="#14FF00"/>
<stop offset="1" stop-color="#11D100"/>
</linearGradient>
<linearGradient id="paint1_linear_8_75" x1="111" y1="79.2857" x2="111" y2="166.831" gradientUnits="userSpaceOnUse">
<stop stop-color="#14FF00"/>
<stop offset="1" stop-color="#11D100"/>
</linearGradient>
</defs>
</svg>
