<svg width="214" height="226" viewBox="0 0 214 226" fill="none" xmlns="http://www.w3.org/2000/svg">
<g filter="url(#filter0_d_87_215)">
<path opacity="0.2" d="M107 10.835C56.0386 10.835 14.6924 51.1742 14.6924 100.935C14.6924 134.281 33.2597 163.397 60.8463 178.979V198.869C60.8463 200.947 61.6567 202.94 63.0993 204.409C64.5419 205.878 66.4984 206.704 68.5386 206.704H145.462C147.502 206.704 149.458 205.878 150.901 204.409C152.344 202.94 153.154 200.947 153.154 198.869V178.979C180.741 163.397 199.308 134.281 199.308 100.935C199.308 51.1742 157.962 10.835 107 10.835ZM72.3847 136.191C68.5812 136.191 64.8632 135.042 61.7007 132.89C58.5382 130.738 56.0733 127.679 54.6178 124.1C53.1623 120.521 52.7814 116.582 53.5235 112.783C54.2655 108.983 56.097 105.493 58.7865 102.754C61.476 100.015 64.9026 98.1494 68.633 97.3936C72.3634 96.6379 76.2301 97.0258 79.744 98.5082C83.258 99.9907 86.2614 102.501 88.3745 105.722C90.4876 108.943 91.6155 112.73 91.6155 116.604C91.6155 121.799 89.5894 126.781 85.9829 130.454C82.3765 134.127 77.485 136.191 72.3847 136.191ZM141.616 136.191C137.812 136.191 134.094 135.042 130.931 132.89C127.769 130.738 125.304 127.679 123.849 124.1C122.393 120.521 122.012 116.582 122.754 112.783C123.496 108.983 125.328 105.493 128.017 102.754C130.707 100.015 134.133 98.1494 137.864 97.3936C141.594 96.6379 145.461 97.0258 148.975 98.5082C152.489 99.9907 155.492 102.501 157.605 105.722C159.718 108.943 160.846 112.73 160.846 116.604C160.846 121.799 158.82 126.781 155.214 130.454C151.607 134.127 146.716 136.191 141.616 136.191Z" fill="url(#paint0_linear_87_215)" stroke="#FF009D" stroke-opacity="0.95" stroke-width="5"/>
<path d="M72.3846 89.1823C67.0597 89.1823 61.8544 90.7906 57.427 93.8037C52.9995 96.8168 49.5487 101.1 47.5109 106.11C45.4732 111.121 44.94 116.634 45.9789 121.954C47.0177 127.273 49.5819 132.159 53.3471 135.994C57.1124 139.829 61.9096 142.441 67.1322 143.499C72.3547 144.557 77.7681 144.014 82.6876 141.938C87.6072 139.863 91.812 136.348 94.7703 131.839C97.7287 127.329 99.3077 122.027 99.3077 116.604C99.3077 109.331 96.4712 102.357 91.4221 97.2139C86.373 92.0714 79.5251 89.1823 72.3846 89.1823ZM72.3846 128.356C70.1025 128.356 67.8717 127.667 65.9742 126.376C64.0767 125.084 62.5978 123.249 61.7245 121.101C60.8511 118.954 60.6226 116.591 61.0679 114.311C61.5131 112.032 62.612 109.938 64.2257 108.294C65.8394 106.65 67.8953 105.531 70.1336 105.078C72.3718 104.624 74.6918 104.857 76.8002 105.746C78.9086 106.636 80.7106 108.142 81.9785 110.075C83.2464 112.007 83.9231 114.28 83.9231 116.604C83.9231 119.721 82.7074 122.71 80.5435 124.914C78.3797 127.118 75.4448 128.356 72.3846 128.356ZM141.615 89.1823C136.291 89.1823 131.085 90.7906 126.658 93.8037C122.23 96.8168 118.779 101.1 116.742 106.11C114.704 111.121 114.171 116.634 115.21 121.954C116.248 127.273 118.813 132.159 122.578 135.994C126.343 139.829 131.14 142.441 136.363 143.499C141.586 144.557 146.999 144.014 151.918 141.938C156.838 139.863 161.043 136.348 164.001 131.839C166.959 127.329 168.538 122.027 168.538 116.604C168.538 109.331 165.702 102.357 160.653 97.2139C155.604 92.0714 148.756 89.1823 141.615 89.1823ZM141.615 128.356C139.333 128.356 137.102 127.667 135.205 126.376C133.307 125.084 131.829 123.249 130.955 121.101C130.082 118.954 129.853 116.591 130.299 114.311C130.744 112.032 131.843 109.938 133.456 108.294C135.07 106.65 137.126 105.531 139.364 105.078C141.603 104.624 143.923 104.857 146.031 105.746C148.139 106.636 149.941 108.142 151.209 110.075C152.477 112.007 153.154 114.28 153.154 116.604C153.154 119.721 151.938 122.71 149.774 124.914C147.61 127.118 144.676 128.356 141.615 128.356ZM107 3C51.8558 3 7 46.9334 7 100.934C7 134.33 24.5673 165.571 53.1538 183.474V198.869C53.1538 203.025 54.7747 207.01 57.6599 209.949C60.5451 212.888 64.4582 214.538 68.5385 214.538H145.462C149.542 214.538 153.455 212.888 156.34 209.949C159.225 207.01 160.846 203.025 160.846 198.869V183.474C189.433 165.571 207 134.33 207 100.934C207 46.9334 162.144 3 107 3ZM149.423 172.123C148.222 172.801 147.221 173.795 146.525 175.001C145.828 176.206 145.461 177.58 145.462 178.978V198.869H130.077V175.365C130.077 173.287 129.266 171.294 127.824 169.825C126.381 168.355 124.425 167.53 122.385 167.53C120.344 167.53 118.388 168.355 116.945 169.825C115.503 171.294 114.692 173.287 114.692 175.365V198.869H99.3077V175.365C99.3077 173.287 98.4973 171.294 97.0547 169.825C95.6121 168.355 93.6555 167.53 91.6154 167.53C89.5753 167.53 87.6187 168.355 86.1761 169.825C84.7335 171.294 83.9231 173.287 83.9231 175.365V198.869H68.5385V178.978C68.5391 177.58 68.1721 176.206 67.4754 175.001C66.7788 173.795 65.778 172.801 64.5769 172.123C38.5481 157.433 22.3846 130.158 22.3846 100.934C22.3846 55.5712 60.3462 18.6695 107 18.6695C153.654 18.6695 191.615 55.5712 191.615 100.934C191.615 130.148 175.452 157.433 149.423 172.123Z" fill="url(#paint1_linear_87_215)" stroke="#FF009D" stroke-opacity="0.95" stroke-width="5"/>
<circle cx="141.5" cy="116.5" r="20.5" fill="#2AFF00" stroke="#FF009D" stroke-opacity="0.95" stroke-width="5"/>
<circle cx="142" cy="117" r="10" fill="#15D001" stroke="#FF009D" stroke-opacity="0.95" stroke-width="5"/>
<circle cx="71.5" cy="116.5" r="20.5" fill="#2AFF00" stroke="#FF009D" stroke-opacity="0.95" stroke-width="5"/>
<circle cx="72" cy="117" r="10" fill="#15D001" stroke="#FF009D" stroke-opacity="0.95" stroke-width="5"/>
</g>
<defs>
<filter id="filter0_d_87_215" x="0.5" y="0.5" width="213" height="224.538" filterUnits="userSpaceOnUse" color-interpolation-filters="sRGB">
<feFlood flood-opacity="0" result="BackgroundImageFix"/>
<feColorMatrix in="SourceAlpha" type="matrix" values="0 0 0 0 0 0 0 0 0 0 0 0 0 0 0 0 0 0 127 0" result="hardAlpha"/>
<feOffset dy="4"/>
<feGaussianBlur stdDeviation="2"/>
<feComposite in2="hardAlpha" operator="out"/>
<feColorMatrix type="matrix" values="0 0 0 0 0 0 0 0 0 0 0 0 0 0 0 0 0 0 0.25 0"/>
<feBlend mode="normal" in2="BackgroundImageFix" result="effect1_dropShadow_87_215"/>
<feBlend mode="normal" in="SourceGraphic" in2="effect1_dropShadow_87_215" result="shape"/>
</filter>
<linearGradient id="paint0_linear_87_215" x1="107" y1="10.835" x2="107" y2="206.704" gradientUnits="userSpaceOnUse">
<stop stop-color="#F25801"/>
<stop offset="1" stop-color="#FF0101"/>
</linearGradient>
<linearGradient id="paint1_linear_87_215" x1="107" y1="3" x2="107" y2="214.538" gradientUnits="userSpaceOnUse">
<stop stop-color="#F25801"/>
<stop offset="1" stop-color="#FF0101"/>
</linearGradient>
</defs>
</svg>
