<svg width="212" height="224" viewBox="0 0 212 224" fill="none" xmlns="http://www.w3.org/2000/svg">
<g filter="url(#filter0_d_87_219)">
<path opacity="0.2" d="M106 9.83496C55.0386 9.83496 13.6924 50.1742 13.6924 99.9347C13.6924 133.281 32.2597 162.397 59.8463 177.979V197.869C59.8463 199.947 60.6567 201.94 62.0993 203.409C63.5419 204.878 65.4984 205.704 67.5386 205.704H144.462C146.502 205.704 148.458 204.878 149.901 203.409C151.344 201.94 152.154 199.947 152.154 197.869V177.979C179.741 162.397 198.308 133.281 198.308 99.9347C198.308 50.1742 156.962 9.83496 106 9.83496ZM71.3847 135.191C67.5812 135.191 63.8632 134.042 60.7007 131.89C57.5382 129.738 55.0733 126.679 53.6178 123.1C52.1623 119.521 51.7814 115.582 52.5235 111.783C53.2655 107.983 55.097 104.493 57.7865 101.754C60.476 99.0149 63.9026 97.1494 67.633 96.3936C71.3634 95.6379 75.2301 96.0258 78.744 97.5082C82.258 98.9907 85.2614 101.501 87.3745 104.722C89.4876 107.943 90.6155 111.73 90.6155 115.604C90.6155 120.799 88.5894 125.781 84.9829 129.454C81.3765 133.127 76.485 135.191 71.3847 135.191ZM140.616 135.191C136.812 135.191 133.094 134.042 129.931 131.89C126.769 129.738 124.304 126.679 122.849 123.1C121.393 119.521 121.012 115.582 121.754 111.783C122.496 107.983 124.328 104.493 127.017 101.754C129.707 99.0149 133.133 97.1494 136.864 96.3936C140.594 95.6379 144.461 96.0258 147.975 97.5082C151.489 98.9907 154.492 101.501 156.605 104.722C158.718 107.943 159.846 111.73 159.846 115.604C159.846 120.799 157.82 125.781 154.214 129.454C150.607 133.127 145.716 135.191 140.616 135.191Z" fill="url(#paint0_linear_87_219)" stroke="#FF009D" stroke-opacity="0.95" stroke-width="4"/>
<path d="M71.3846 88.1823C66.0597 88.1823 60.8544 89.7906 56.427 92.8037C51.9995 95.8168 48.5487 100.1 46.5109 105.11C44.4732 110.121 43.94 115.634 44.9789 120.954C46.0177 126.273 48.5819 131.159 52.3471 134.994C56.1124 138.829 60.9096 141.441 66.1322 142.499C71.3547 143.557 76.7681 143.014 81.6876 140.938C86.6072 138.863 90.812 135.348 93.7703 130.839C96.7287 126.329 98.3077 121.027 98.3077 115.604C98.3077 108.331 95.4712 101.357 90.4221 96.2139C85.373 91.0714 78.5251 88.1823 71.3846 88.1823ZM71.3846 127.356C69.1025 127.356 66.8717 126.667 64.9742 125.376C63.0767 124.084 61.5978 122.249 60.7245 120.101C59.8511 117.954 59.6226 115.591 60.0679 113.311C60.5131 111.032 61.612 108.938 63.2257 107.294C64.8394 105.65 66.8953 104.531 69.1336 104.078C71.3718 103.624 73.6918 103.857 75.8002 104.746C77.9086 105.636 79.7106 107.142 80.9785 109.075C82.2464 111.007 82.9231 113.28 82.9231 115.604C82.9231 118.721 81.7074 121.71 79.5435 123.914C77.3797 126.118 74.4448 127.356 71.3846 127.356ZM140.615 88.1823C135.291 88.1823 130.085 89.7906 125.658 92.8037C121.23 95.8168 117.779 100.1 115.742 105.11C113.704 110.121 113.171 115.634 114.21 120.954C115.248 126.273 117.813 131.159 121.578 134.994C125.343 138.829 130.14 141.441 135.363 142.499C140.586 143.557 145.999 143.014 150.918 140.938C155.838 138.863 160.043 135.348 163.001 130.839C165.959 126.329 167.538 121.027 167.538 115.604C167.538 108.331 164.702 101.357 159.653 96.2139C154.604 91.0714 147.756 88.1823 140.615 88.1823ZM140.615 127.356C138.333 127.356 136.102 126.667 134.205 125.376C132.307 124.084 130.829 122.249 129.955 120.101C129.082 117.954 128.853 115.591 129.299 113.311C129.744 111.032 130.843 108.938 132.456 107.294C134.07 105.65 136.126 104.531 138.364 104.078C140.603 103.624 142.923 103.857 145.031 104.746C147.139 105.636 148.941 107.142 150.209 109.075C151.477 111.007 152.154 113.28 152.154 115.604C152.154 118.721 150.938 121.71 148.774 123.914C146.61 126.118 143.676 127.356 140.615 127.356ZM106 2C50.8558 2 6 45.9334 6 99.9345C6 133.33 23.5673 164.571 52.1538 182.474V197.869C52.1538 202.025 53.7747 206.01 56.6599 208.949C59.5451 211.888 63.4582 213.538 67.5385 213.538H144.462C148.542 213.538 152.455 211.888 155.34 208.949C158.225 206.01 159.846 202.025 159.846 197.869V182.474C188.433 164.571 206 133.33 206 99.9345C206 45.9334 161.144 2 106 2ZM148.423 171.123C147.222 171.801 146.221 172.795 145.525 174.001C144.828 175.206 144.461 176.58 144.462 177.978V197.869H129.077V174.365C129.077 172.287 128.266 170.294 126.824 168.825C125.381 167.355 123.425 166.53 121.385 166.53C119.344 166.53 117.388 167.355 115.945 168.825C114.503 170.294 113.692 172.287 113.692 174.365V197.869H98.3077V174.365C98.3077 172.287 97.4973 170.294 96.0547 168.825C94.6121 167.355 92.6555 166.53 90.6154 166.53C88.5753 166.53 86.6187 167.355 85.1761 168.825C83.7335 170.294 82.9231 172.287 82.9231 174.365V197.869H67.5385V177.978C67.5391 176.58 67.1721 175.206 66.4754 174.001C65.7788 172.795 64.778 171.801 63.5769 171.123C37.5481 156.433 21.3846 129.158 21.3846 99.9345C21.3846 54.5712 59.3462 17.6695 106 17.6695C152.654 17.6695 190.615 54.5712 190.615 99.9345C190.615 129.148 174.452 156.433 148.423 171.123Z" fill="url(#paint1_linear_87_219)" stroke="#FF009D" stroke-opacity="0.95" stroke-width="4"/>
<circle cx="140.5" cy="115.5" r="20.5" fill="#2AFF00" stroke="#FF009D" stroke-opacity="0.95" stroke-width="4"/>
<circle cx="141" cy="116" r="10" fill="#15D001" stroke="#FF009D" stroke-opacity="0.95" stroke-width="4"/>
<circle cx="70.5" cy="115.5" r="20.5" fill="#2AFF00" stroke="#FF009D" stroke-opacity="0.95" stroke-width="4"/>
<circle cx="71" cy="116" r="10" fill="#15D001" stroke="#FF009D" stroke-opacity="0.95" stroke-width="4"/>
</g>
<path d="M90.4435 54.7504C80.885 64.4654 83.733 71.2851 97.6681 68.7774C100.863 81.8003 108.268 83.1205 113.443 69.6483C127.128 73.5477 130.593 66.5096 121.974 56.2145C131.49 46.8711 129.457 39.9122 114.826 42.1707C111.066 28.1854 103.81 28.9192 99.1469 41.5605C84.7995 38 82.1016 44.4987 90.4435 54.7504ZM91.753 56.1927C93.3265 57.8015 94.9139 59.2576 96.6213 60.5946C96.6681 62.6213 96.8734 64.7482 97.3081 66.8841C85.9812 69.1342 83.23 64.3746 91.753 56.1927ZM115.658 58.6532C115.927 56.7222 115.897 54.7764 115.951 53.1944C116.988 54.0256 118.073 54.9716 119.2 56.0208C118.036 56.9197 116.855 57.7973 115.659 58.6533M113.149 62.7488C112.864 64.3052 112.563 65.79 112.229 67.1383C110.736 66.5651 109.286 65.9835 108.114 65.3482C109.795 64.5667 111.474 63.6983 113.149 62.7488ZM113.504 60.0541C110.884 61.6185 108.274 63.0238 105.683 64.1127C103.227 62.7234 100.892 61.2007 98.6877 59.5355C98.566 56.873 98.7607 53.9102 99.1277 50.7835C101.171 49.5287 103.759 48.2331 106.628 46.9164C109.127 48.2704 111.553 49.8703 113.932 51.6267C113.936 54.3801 113.798 57.1878 113.504 60.0541ZM99.5147 48.2426C99.776 46.8455 100.085 45.4493 100.437 44.0539C101.766 44.5592 103.067 45.1323 104.336 45.7709C102.737 46.5021 101.129 47.3366 99.5147 48.2426ZM96.5291 57.8776C95.3735 56.8845 94.2891 55.8756 93.2773 54.8506C94.4305 53.9246 95.6281 53.0561 96.8658 52.2482C96.6621 54.1451 96.5462 56.0224 96.529 57.8776M98.7798 62.2525C100.192 63.2443 101.667 64.193 103.2 65.1027C101.984 65.5494 100.668 65.9864 99.2579 66.4142C99.0253 65.061 98.8756 63.6693 98.7798 62.2525ZM99.5877 68.3544C101.713 67.8692 103.704 67.2256 105.57 66.4321C107.492 67.4358 109.52 68.3111 111.635 69.0807C107.497 80.2982 102.211 79.6008 99.5877 68.3544ZM120.556 57.4931C128.353 66.6842 124.932 70.9671 114.053 67.7828C114.597 65.7124 115.04 63.5393 115.351 61.3779C117.207 60.1325 119.007 58.7856 120.556 57.4931ZM120.618 54.7423C119.236 53.2755 117.62 51.9569 115.922 50.5842C115.831 48.3133 115.631 46.1271 115.232 44.0939C126.763 41.8075 129.114 46.8557 120.618 54.7422M113.359 44.5469C113.634 45.9688 113.778 47.4716 113.826 49.0333C112.187 47.9267 110.585 46.8882 109.034 45.9431C110.439 45.3681 111.885 44.9013 113.359 44.5469ZM112.953 42.6238C110.741 43.2082 108.67 43.9111 106.726 44.7207C104.93 43.7424 103.021 42.888 101.001 42.1582C105.05 30.5431 110.42 31.9054 112.953 42.6238ZM98.5368 43.4259C97.9915 45.3657 97.5389 47.4492 97.1598 49.6469C95.3491 50.8161 93.6056 52.0875 91.9377 53.4548C84.7756 44.9828 86.8665 40.1743 98.5368 43.4259Z" fill="url(#paint2_linear_87_219)"/>
<path opacity="0.2" d="M103.665 59.6899C105.846 61.0963 108.728 60.511 110.102 58.3816C111.022 56.9545 111.031 55.1961 110.28 53.7681L110.829 52.9169C110.887 52.8279 110.907 52.7203 110.886 52.6176C110.865 52.5149 110.804 52.4256 110.716 52.3693L107.424 50.2465C107.337 50.1902 107.231 50.1715 107.128 50.1946C107.026 50.2176 106.936 50.2805 106.879 50.3695L106.33 51.2207C104.72 51.1262 103.121 51.8598 102.201 53.2868C100.828 55.4163 101.484 58.2836 103.665 59.6899ZM108.606 55.2807C108.769 55.3856 108.896 55.5374 108.972 55.7168C109.048 55.8962 109.069 56.0951 109.032 56.2884C108.996 56.4818 108.904 56.6608 108.767 56.8029C108.63 56.945 108.456 57.0438 108.265 57.0869C108.074 57.1299 107.876 57.1151 107.696 57.0445C107.515 56.9739 107.36 56.8506 107.251 56.6902C107.141 56.5298 107.082 56.3395 107.081 56.1433C107.079 55.9471 107.135 55.754 107.242 55.5882C107.386 55.3659 107.61 55.2086 107.866 55.1509C108.121 55.0933 108.387 55.1399 108.606 55.2807ZM105.643 53.3701C105.806 53.4751 105.933 53.6269 106.009 53.8063C106.085 53.9856 106.106 54.1846 106.07 54.3779C106.033 54.5712 105.941 54.7503 105.804 54.8924C105.668 55.0345 105.493 55.1333 105.302 55.1763C105.112 55.2193 104.913 55.2046 104.733 55.134C104.552 55.0634 104.398 54.9401 104.288 54.7797C104.179 54.6192 104.12 54.4289 104.118 54.2328C104.116 54.0366 104.173 53.8434 104.28 53.6776C104.423 53.4553 104.647 53.2981 104.903 53.2404C105.159 53.1827 105.425 53.2294 105.643 53.3701Z" fill="url(#paint3_linear_87_219)"/>
<path d="M107.308 57.2917C107.536 57.4386 107.803 57.5135 108.076 57.5067C108.349 57.4999 108.614 57.4119 108.84 57.2537C109.065 57.0955 109.24 56.8743 109.343 56.618C109.445 56.3617 109.47 56.0818 109.415 55.8138C109.36 55.5458 109.226 55.3016 109.032 55.1122C108.838 54.9228 108.591 54.7967 108.323 54.7497C108.055 54.7028 107.779 54.7371 107.527 54.8485C107.276 54.9598 107.063 55.1431 106.913 55.3752C106.712 55.6864 106.641 56.0632 106.715 56.4226C106.789 56.782 107.003 57.0946 107.308 57.2917ZM108.389 55.6153C108.487 55.6783 108.563 55.7693 108.609 55.8769C108.655 55.9846 108.667 56.1039 108.645 56.2199C108.623 56.3359 108.568 56.4433 108.486 56.5286C108.404 56.6139 108.299 56.6732 108.185 56.699C108.07 56.7248 107.952 56.7159 107.843 56.6736C107.735 56.6312 107.642 56.5572 107.576 56.461C107.511 56.3647 107.475 56.2505 107.474 56.1328C107.473 56.0152 107.507 55.8992 107.571 55.7998C107.657 55.6664 107.792 55.572 107.945 55.5374C108.099 55.5028 108.258 55.5308 108.389 55.6153ZM104.346 55.3811C104.573 55.5281 104.841 55.6029 105.113 55.5962C105.386 55.5894 105.652 55.5014 105.877 55.3432C106.103 55.185 106.278 54.9637 106.38 54.7074C106.482 54.4511 106.507 54.1713 106.452 53.9033C106.397 53.6352 106.264 53.3911 106.069 53.2017C105.875 53.0123 105.628 52.8861 105.361 52.8392C105.093 52.7922 104.816 52.8266 104.565 52.9379C104.314 53.0493 104.1 53.2326 103.95 53.4647C103.75 53.7759 103.678 54.1527 103.753 54.5121C103.827 54.8715 104.04 55.1841 104.346 55.3811ZM105.427 53.7047C105.524 53.7677 105.601 53.8588 105.646 53.9664C105.692 54.074 105.705 54.1934 105.683 54.3094C105.661 54.4254 105.605 54.5328 105.523 54.6181C105.441 54.7034 105.337 54.7626 105.222 54.7884C105.108 54.8142 104.989 54.8054 104.881 54.763C104.772 54.7207 104.679 54.6467 104.614 54.5504C104.548 54.4542 104.513 54.34 104.512 54.2223C104.511 54.1046 104.544 53.9887 104.609 53.8892C104.695 53.7559 104.829 53.6615 104.983 53.6269C105.136 53.5923 105.296 53.6203 105.427 53.7047ZM103.449 60.0245C105.808 61.5463 108.94 60.9041 110.431 58.5932C111.352 57.164 111.463 55.3423 110.733 53.7873L111.158 53.1284C111.273 52.9506 111.314 52.7353 111.271 52.5299C111.229 52.3246 111.107 52.1459 110.932 52.0333L107.64 49.9105C107.466 49.7979 107.253 49.7606 107.048 49.8067C106.844 49.8528 106.664 49.9787 106.55 50.1565L106.125 50.8153C104.407 50.7926 102.793 51.6447 101.872 53.0738C100.382 55.3848 101.089 58.5027 103.449 60.0245ZM106.3 51.6163C106.371 51.6204 106.441 51.6055 106.504 51.5732C106.567 51.5408 106.621 51.4921 106.659 51.4323L107.208 50.5811L107.866 51.0056L107.218 52.0115C107.16 52.1004 107.14 52.208 107.161 52.3107C107.182 52.4134 107.243 52.5027 107.331 52.559C107.418 52.6153 107.525 52.634 107.627 52.6109C107.729 52.5879 107.819 52.525 107.876 52.436L108.525 51.4302L109.183 51.8548L108.534 52.8606C108.477 52.9495 108.457 53.0572 108.478 53.1599C108.499 53.2625 108.56 53.3519 108.647 53.4082C108.735 53.4645 108.841 53.4831 108.944 53.4601C109.046 53.437 109.136 53.3741 109.193 53.2852L109.841 52.2793L110.5 52.7039L109.951 53.5551C109.912 53.6149 109.89 53.6838 109.887 53.7546C109.883 53.8255 109.899 53.8956 109.931 53.9578C110.64 55.3047 110.579 56.918 109.772 58.1686C108.52 60.1099 105.878 60.6414 103.881 59.354C101.885 58.0665 101.278 55.4397 102.53 53.4984C103.336 52.2482 104.781 51.5267 106.3 51.6163Z" fill="url(#paint4_linear_87_219)"/>
<defs>
<filter id="filter0_d_87_219" x="0" y="0" width="212" height="223.538" filterUnits="userSpaceOnUse" color-interpolation-filters="sRGB">
<feFlood flood-opacity="0" result="BackgroundImageFix"/>
<feColorMatrix in="SourceAlpha" type="matrix" values="0 0 0 0 0 0 0 0 0 0 0 0 0 0 0 0 0 0 127 0" result="hardAlpha"/>
<feOffset dy="4"/>
<feGaussianBlur stdDeviation="2"/>
<feComposite in2="hardAlpha" operator="out"/>
<feColorMatrix type="matrix" values="0 0 0 0 0 0 0 0 0 0 0 0 0 0 0 0 0 0 0.25 0"/>
<feBlend mode="normal" in2="BackgroundImageFix" result="effect1_dropShadow_87_219"/>
<feBlend mode="normal" in="SourceGraphic" in2="effect1_dropShadow_87_219" result="shape"/>
</filter>
<linearGradient id="paint0_linear_87_219" x1="106" y1="9.83496" x2="106" y2="205.704" gradientUnits="userSpaceOnUse">
<stop stop-color="#F25801"/>
<stop offset="1" stop-color="#FF0101"/>
</linearGradient>
<linearGradient id="paint1_linear_87_219" x1="106" y1="2" x2="106" y2="213.538" gradientUnits="userSpaceOnUse">
<stop stop-color="#F25801"/>
<stop offset="1" stop-color="#FF0101"/>
</linearGradient>
<linearGradient id="paint2_linear_87_219" x1="103.646" y1="77.2393" x2="110.8" y2="35.8044" gradientUnits="userSpaceOnUse">
<stop stop-color="#FF37D4"/>
<stop offset="1" stop-color="#FF34BB"/>
</linearGradient>
<linearGradient id="paint3_linear_87_219" x1="106.602" y1="61.5839" x2="106.098" y2="49.4153" gradientUnits="userSpaceOnUse">
<stop stop-color="#FF006A"/>
<stop offset="0.939556" stop-color="#E3009B"/>
</linearGradient>
<linearGradient id="paint4_linear_87_219" x1="106.63" y1="62.0764" x2="106.105" y2="48.9201" gradientUnits="userSpaceOnUse">
<stop stop-color="#FF006A"/>
<stop offset="0.939556" stop-color="#E3009B"/>
</linearGradient>
</defs>
</svg>
