<svg width="200" height="212" viewBox="0 0 200 212" fill="none" xmlns="http://www.w3.org/2000/svg">
<path opacity="0.2" d="M100 7.83496C49.0386 7.83496 7.69238 48.1742 7.69238 97.9347C7.69238 131.281 26.2597 160.397 53.8463 175.979V195.869C53.8463 197.947 54.6567 199.94 56.0993 201.409C57.5419 202.878 59.4984 203.704 61.5386 203.704H138.462C140.502 203.704 142.458 202.878 143.901 201.409C145.344 199.94 146.154 197.947 146.154 195.869V175.979C173.741 160.397 192.308 131.281 192.308 97.9347C192.308 48.1742 150.962 7.83496 100 7.83496ZM65.3847 133.191C61.5812 133.191 57.8632 132.042 54.7007 129.89C51.5382 127.738 49.0733 124.679 47.6178 121.1C46.1623 117.521 45.7814 113.582 46.5235 109.783C47.2655 105.983 49.097 102.493 51.7865 99.7542C54.476 97.0149 57.9026 95.1494 61.633 94.3936C65.3634 93.6379 69.2301 94.0258 72.744 95.5082C76.258 96.9907 79.2614 99.5012 81.3745 102.722C83.4876 105.943 84.6155 109.73 84.6155 113.604C84.6155 118.799 82.5894 123.781 78.9829 127.454C75.3765 131.127 70.485 133.191 65.3847 133.191ZM134.616 133.191C130.812 133.191 127.094 132.042 123.931 129.89C120.769 127.738 118.304 124.679 116.849 121.1C115.393 117.521 115.012 113.582 115.754 109.783C116.496 105.983 118.328 102.493 121.017 99.7542C123.707 97.0149 127.133 95.1494 130.864 94.3936C134.594 93.6379 138.461 94.0258 141.975 95.5082C145.489 96.9907 148.492 99.5012 150.605 102.722C152.718 105.943 153.846 109.73 153.846 113.604C153.846 118.799 151.82 123.781 148.214 127.454C144.607 131.127 139.716 133.191 134.616 133.191Z" fill="url(#paint0_linear_6_10)"/>
<path d="M65.3846 86.1823C60.0597 86.1823 54.8544 87.7906 50.427 90.8037C45.9995 93.8168 42.5487 98.0995 40.5109 103.11C38.4732 108.121 37.94 113.634 38.9789 118.954C40.0177 124.273 42.5819 129.159 46.3471 132.994C50.1124 136.829 54.9096 139.441 60.1322 140.499C65.3547 141.557 70.7681 141.014 75.6876 138.938C80.6072 136.863 84.812 133.348 87.7703 128.839C90.7287 124.329 92.3077 119.027 92.3077 113.604C92.3077 106.331 89.4712 99.3565 84.4221 94.2139C79.373 89.0714 72.5251 86.1823 65.3846 86.1823ZM65.3846 125.356C63.1025 125.356 60.8717 124.667 58.9742 123.376C57.0767 122.084 55.5978 120.249 54.7245 118.101C53.8511 115.954 53.6226 113.591 54.0679 111.311C54.5131 109.032 55.612 106.938 57.2257 105.294C58.8394 103.65 60.8953 102.531 63.1336 102.078C65.3718 101.624 67.6918 101.857 69.8002 102.746C71.9086 103.636 73.7106 105.142 74.9785 107.075C76.2464 109.007 76.9231 111.28 76.9231 113.604C76.9231 116.721 75.7074 119.71 73.5435 121.914C71.3797 124.118 68.4448 125.356 65.3846 125.356ZM134.615 86.1823C129.291 86.1823 124.085 87.7906 119.658 90.8037C115.23 93.8168 111.779 98.0995 109.742 103.11C107.704 108.121 107.171 113.634 108.21 118.954C109.248 124.273 111.813 129.159 115.578 132.994C119.343 136.829 124.14 139.441 129.363 140.499C134.586 141.557 139.999 141.014 144.918 138.938C149.838 136.863 154.043 133.348 157.001 128.839C159.959 124.329 161.538 119.027 161.538 113.604C161.538 106.331 158.702 99.3565 153.653 94.2139C148.604 89.0714 141.756 86.1823 134.615 86.1823ZM134.615 125.356C132.333 125.356 130.102 124.667 128.205 123.376C126.307 122.084 124.829 120.249 123.955 118.101C123.082 115.954 122.853 113.591 123.299 111.311C123.744 109.032 124.843 106.938 126.456 105.294C128.07 103.65 130.126 102.531 132.364 102.078C134.603 101.624 136.923 101.857 139.031 102.746C141.139 103.636 142.941 105.142 144.209 107.075C145.477 109.007 146.154 111.28 146.154 113.604C146.154 116.721 144.938 119.71 142.774 121.914C140.61 124.118 137.676 125.356 134.615 125.356ZM100 0C44.8558 0 0 43.9334 0 97.9345C0 131.33 17.5673 162.571 46.1538 180.474V195.869C46.1538 200.025 47.7747 204.01 50.6599 206.949C53.5451 209.888 57.4582 211.538 61.5385 211.538H138.462C142.542 211.538 146.455 209.888 149.34 206.949C152.225 204.01 153.846 200.025 153.846 195.869V180.474C182.433 162.571 200 131.33 200 97.9345C200 43.9334 155.144 0 100 0ZM142.423 169.123C141.222 169.801 140.221 170.795 139.525 172.001C138.828 173.206 138.461 174.58 138.462 175.978V195.869H123.077V172.365C123.077 170.287 122.266 168.294 120.824 166.825C119.381 165.355 117.425 164.53 115.385 164.53C113.344 164.53 111.388 165.355 109.945 166.825C108.503 168.294 107.692 170.287 107.692 172.365V195.869H92.3077V172.365C92.3077 170.287 91.4973 168.294 90.0547 166.825C88.6121 165.355 86.6555 164.53 84.6154 164.53C82.5753 164.53 80.6187 165.355 79.1761 166.825C77.7335 168.294 76.9231 170.287 76.9231 172.365V195.869H61.5385V175.978C61.5391 174.58 61.1721 173.206 60.4754 172.001C59.7788 170.795 58.778 169.801 57.5769 169.123C31.5481 154.433 15.3846 127.158 15.3846 97.9345C15.3846 52.5712 53.3462 15.6695 100 15.6695C146.654 15.6695 184.615 52.5712 184.615 97.9345C184.615 127.148 168.452 154.433 142.423 169.123Z" fill="url(#paint1_linear_6_10)"/>
<defs>
<linearGradient id="paint0_linear_6_10" x1="100" y1="7.83496" x2="100" y2="203.704" gradientUnits="userSpaceOnUse">
<stop stop-color="#F25801"/>
<stop offset="1" stop-color="#FF0101"/>
</linearGradient>
<linearGradient id="paint1_linear_6_10" x1="100" y1="0" x2="100" y2="211.538" gradientUnits="userSpaceOnUse">
<stop stop-color="#F25801"/>
<stop offset="1" stop-color="#FF0101"/>
</linearGradient>
</defs>
</svg>
