<svg width="200" height="212" viewBox="0 0 200 212" fill="none" xmlns="http://www.w3.org/2000/svg">
<path opacity="0.2" d="M100 7.83496C49.0386 7.83496 7.69238 48.1742 7.69238 97.9347C7.69238 131.281 26.2597 160.397 53.8463 175.979V195.869C53.8463 197.947 54.6567 199.94 56.0993 201.409C57.5419 202.878 59.4984 203.704 61.5386 203.704H138.462C140.502 203.704 142.458 202.878 143.901 201.409C145.344 199.94 146.154 197.947 146.154 195.869V175.979C173.741 160.397 192.308 131.281 192.308 97.9347C192.308 48.1742 150.962 7.83496 100 7.83496ZM65.3847 133.191C61.5812 133.191 57.8632 132.042 54.7007 129.89C51.5382 127.738 49.0733 124.679 47.6178 121.1C46.1623 117.521 45.7814 113.582 46.5235 109.783C47.2655 105.983 49.097 102.493 51.7865 99.7541C54.476 97.0149 57.9026 95.1494 61.633 94.3936C65.3634 93.6379 69.2301 94.0258 72.744 95.5082C76.258 96.9907 79.2614 99.5012 81.3745 102.722C83.4876 105.943 84.6155 109.73 84.6155 113.604C84.6155 118.799 82.5894 123.781 78.9829 127.454C75.3765 131.127 70.485 133.191 65.3847 133.191ZM134.616 133.191C130.812 133.191 127.094 132.042 123.931 129.89C120.769 127.738 118.304 124.679 116.849 121.1C115.393 117.521 115.012 113.582 115.754 109.783C116.496 105.983 118.328 102.493 121.017 99.7541C123.707 97.0149 127.133 95.1494 130.864 94.3936C134.594 93.6379 138.461 94.0258 141.975 95.5082C145.489 96.9907 148.492 99.5012 150.605 102.722C152.718 105.943 153.846 109.73 153.846 113.604C153.846 118.799 151.82 123.781 148.214 127.454C144.607 131.127 139.716 133.191 134.616 133.191Z" fill="url(#paint0_linear_87_214)"/>
<path d="M65.3846 86.1823C60.0597 86.1823 54.8544 87.7906 50.427 90.8037C45.9995 93.8168 42.5487 98.0995 40.5109 103.11C38.4732 108.121 37.94 113.634 38.9789 118.954C40.0177 124.273 42.5819 129.159 46.3471 132.994C50.1124 136.829 54.9096 139.441 60.1322 140.499C65.3547 141.557 70.7681 141.014 75.6876 138.938C80.6072 136.863 84.812 133.348 87.7703 128.839C90.7287 124.329 92.3077 119.027 92.3077 113.604C92.3077 106.331 89.4712 99.3565 84.4221 94.2139C79.373 89.0714 72.5251 86.1823 65.3846 86.1823ZM65.3846 125.356C63.1025 125.356 60.8717 124.667 58.9742 123.376C57.0767 122.084 55.5978 120.249 54.7245 118.101C53.8511 115.954 53.6226 113.591 54.0679 111.311C54.5131 109.032 55.612 106.938 57.2257 105.294C58.8394 103.65 60.8953 102.531 63.1336 102.078C65.3718 101.624 67.6918 101.857 69.8002 102.746C71.9086 103.636 73.7106 105.142 74.9785 107.075C76.2464 109.007 76.9231 111.28 76.9231 113.604C76.9231 116.721 75.7074 119.71 73.5435 121.914C71.3797 124.118 68.4448 125.356 65.3846 125.356ZM134.615 86.1823C129.291 86.1823 124.085 87.7906 119.658 90.8037C115.23 93.8168 111.779 98.0995 109.742 103.11C107.704 108.121 107.171 113.634 108.21 118.954C109.248 124.273 111.813 129.159 115.578 132.994C119.343 136.829 124.14 139.441 129.363 140.499C134.586 141.557 139.999 141.014 144.918 138.938C149.838 136.863 154.043 133.348 157.001 128.839C159.959 124.329 161.538 119.027 161.538 113.604C161.538 106.331 158.702 99.3565 153.653 94.2139C148.604 89.0714 141.756 86.1823 134.615 86.1823ZM134.615 125.356C132.333 125.356 130.102 124.667 128.205 123.376C126.307 122.084 124.829 120.249 123.955 118.101C123.082 115.954 122.853 113.591 123.299 111.311C123.744 109.032 124.843 106.938 126.456 105.294C128.07 103.65 130.126 102.531 132.364 102.078C134.603 101.624 136.923 101.857 139.031 102.746C141.139 103.636 142.941 105.142 144.209 107.075C145.477 109.007 146.154 111.28 146.154 113.604C146.154 116.721 144.938 119.71 142.774 121.914C140.61 124.118 137.676 125.356 134.615 125.356ZM100 0C44.8558 0 0 43.9334 0 97.9345C0 131.33 17.5673 162.571 46.1538 180.474V195.869C46.1538 200.025 47.7747 204.01 50.6599 206.949C53.5451 209.888 57.4582 211.538 61.5385 211.538H138.462C142.542 211.538 146.455 209.888 149.34 206.949C152.225 204.01 153.846 200.025 153.846 195.869V180.474C182.433 162.571 200 131.33 200 97.9345C200 43.9334 155.144 0 100 0ZM142.423 169.123C141.222 169.801 140.221 170.795 139.525 172.001C138.828 173.206 138.461 174.58 138.462 175.978V195.869H123.077V172.365C123.077 170.287 122.266 168.294 120.824 166.825C119.381 165.355 117.425 164.53 115.385 164.53C113.344 164.53 111.388 165.355 109.945 166.825C108.503 168.294 107.692 170.287 107.692 172.365V195.869H92.3077V172.365C92.3077 170.287 91.4973 168.294 90.0547 166.825C88.6121 165.355 86.6555 164.53 84.6154 164.53C82.5753 164.53 80.6187 165.355 79.1761 166.825C77.7335 168.294 76.9231 170.287 76.9231 172.365V195.869H61.5385V175.978C61.5391 174.58 61.1721 173.206 60.4754 172.001C59.7788 170.795 58.778 169.801 57.5769 169.123C31.5481 154.433 15.3846 127.158 15.3846 97.9345C15.3846 52.5712 53.3462 15.6695 100 15.6695C146.654 15.6695 184.615 52.5712 184.615 97.9345C184.615 127.148 168.452 154.433 142.423 169.123Z" fill="url(#paint1_linear_87_214)"/>
<circle cx="134.5" cy="113.5" r="20" fill="#2AFF00" stroke="#FF0000"/>
<circle cx="135" cy="114" r="10" fill="#15D001"/>
<circle cx="64.5" cy="113.5" r="20" fill="#2AFF00" stroke="#FF0000"/>
<circle cx="65" cy="114" r="10" fill="#15D001"/>
<path d="M86.4435 57.7504C76.885 67.4654 79.733 74.2851 93.6681 71.7774C96.8633 84.8003 104.268 86.1205 109.443 72.6483C123.128 76.5477 126.593 69.5096 117.974 59.2145C127.49 49.8711 125.457 42.9122 110.826 45.1707C107.066 31.1854 99.8102 31.9192 95.1469 44.5605C80.7995 41 78.1016 47.4987 86.4435 57.7504ZM87.753 59.1927C89.3265 60.8015 90.9139 62.2576 92.6213 63.5946C92.6681 65.6213 92.8734 67.7482 93.3081 69.8841C81.9812 72.1342 79.23 67.3746 87.753 59.1927ZM111.658 61.6532C111.927 59.7222 111.897 57.7764 111.951 56.1944C112.988 57.0256 114.073 57.9716 115.2 59.0208C114.036 59.9197 112.855 60.7973 111.659 61.6533M109.149 65.7488C108.864 67.3052 108.563 68.79 108.229 70.1383C106.736 69.5651 105.286 68.9835 104.114 68.3482C105.795 67.5667 107.474 66.6983 109.149 65.7488ZM109.504 63.0541C106.884 64.6185 104.274 66.0238 101.683 67.1127C99.2265 65.7234 96.8921 64.2007 94.6877 62.5355C94.566 59.873 94.7607 56.9102 95.1277 53.7835C97.171 52.5287 99.759 51.2331 102.628 49.9164C105.127 51.2704 107.553 52.8703 109.932 54.6267C109.936 57.3801 109.798 60.1878 109.504 63.0541ZM95.5147 51.2426C95.776 49.8455 96.0853 48.4493 96.4374 47.0539C97.7657 47.5592 99.0671 48.1323 100.336 48.7709C98.7369 49.5021 97.1289 50.3366 95.5147 51.2426ZM92.5291 60.8776C91.3735 59.8845 90.2891 58.8756 89.2773 57.8506C90.4305 56.9246 91.6281 56.0561 92.8658 55.2482C92.6621 57.1451 92.5462 59.0224 92.529 60.8776M94.7798 65.2525C96.1918 66.2443 97.667 67.193 99.1996 68.1027C97.9838 68.5494 96.6679 68.9864 95.2579 69.4142C95.0253 68.061 94.8756 66.6693 94.7798 65.2525ZM95.5877 71.3544C97.7127 70.8692 99.7044 70.2256 101.57 69.4321C103.492 70.4358 105.52 71.3111 107.635 72.0807C103.497 83.2982 98.211 82.6008 95.5877 71.3544ZM116.556 60.4931C124.353 69.6842 120.932 73.9671 110.053 70.7828C110.597 68.7124 111.04 66.5393 111.351 64.3779C113.207 63.1325 115.007 61.7856 116.556 60.4931ZM116.618 57.7423C115.236 56.2755 113.62 54.9569 111.922 53.5842C111.831 51.3133 111.631 49.1271 111.232 47.0939C122.763 44.8075 125.114 49.8557 116.618 57.7422M109.359 47.5469C109.634 48.9688 109.778 50.4716 109.826 52.0333C108.187 50.9267 106.585 49.8882 105.034 48.9431C106.439 48.3681 107.885 47.9013 109.359 47.5469ZM108.953 45.6238C106.741 46.2082 104.67 46.9111 102.726 47.7207C100.93 46.7424 99.0215 45.888 97.001 45.1582C101.05 33.5431 106.42 34.9054 108.953 45.6238ZM94.5368 46.4259C93.9915 48.3657 93.5389 50.4492 93.1598 52.6469C91.3491 53.8161 89.6056 55.0875 87.9377 56.4548C80.7756 47.9828 82.8665 43.1743 94.5368 46.4259Z" fill="url(#paint2_linear_87_214)"/>
<path opacity="0.2" d="M99.665 62.6899C101.846 64.0963 104.728 63.511 106.102 61.3816C107.022 59.9545 107.031 58.1961 106.28 56.7681L106.829 55.9169C106.887 55.8279 106.907 55.7203 106.886 55.6176C106.865 55.5149 106.804 55.4256 106.716 55.3693L103.424 53.2465C103.337 53.1902 103.231 53.1715 103.128 53.1946C103.026 53.2176 102.936 53.2805 102.879 53.3695L102.33 54.2207C100.72 54.1262 99.1215 54.8598 98.2012 56.2868C96.828 58.4163 97.4841 61.2836 99.665 62.6899ZM104.606 58.2807C104.769 58.3856 104.896 58.5374 104.972 58.7168C105.048 58.8962 105.069 59.0951 105.032 59.2884C104.996 59.4818 104.904 59.6608 104.767 59.8029C104.63 59.945 104.456 60.0438 104.265 60.0869C104.074 60.1299 103.876 60.1151 103.696 60.0445C103.515 59.9739 103.36 59.8506 103.251 59.6902C103.141 59.5298 103.082 59.3395 103.081 59.1433C103.079 58.9471 103.135 58.754 103.242 58.5882C103.386 58.3659 103.61 58.2086 103.866 58.1509C104.121 58.0933 104.387 58.1399 104.606 58.2807ZM101.643 56.3701C101.806 56.4751 101.933 56.6269 102.009 56.8063C102.085 56.9856 102.106 57.1846 102.07 57.3779C102.033 57.5712 101.941 57.7503 101.804 57.8924C101.668 58.0345 101.493 58.1333 101.302 58.1763C101.112 58.2193 100.913 58.2046 100.733 58.134C100.552 58.0634 100.398 57.9401 100.288 57.7797C100.179 57.6192 100.12 57.4289 100.118 57.2328C100.116 57.0366 100.173 56.8434 100.28 56.6776C100.423 56.4553 100.647 56.2981 100.903 56.2404C101.159 56.1827 101.425 56.2294 101.643 56.3701Z" fill="url(#paint3_linear_87_214)"/>
<path d="M103.308 60.2917C103.536 60.4386 103.803 60.5135 104.076 60.5067C104.349 60.4999 104.614 60.4119 104.84 60.2537C105.065 60.0955 105.24 59.8743 105.343 59.618C105.445 59.3617 105.47 59.0818 105.415 58.8138C105.36 58.5458 105.226 58.3016 105.032 58.1122C104.838 57.9228 104.591 57.7967 104.323 57.7497C104.055 57.7028 103.779 57.7371 103.527 57.8485C103.276 57.9598 103.063 58.1431 102.913 58.3752C102.712 58.6864 102.641 59.0632 102.715 59.4226C102.789 59.782 103.003 60.0946 103.308 60.2917ZM104.389 58.6153C104.487 58.6783 104.563 58.7693 104.609 58.8769C104.655 58.9846 104.667 59.1039 104.645 59.2199C104.623 59.3359 104.568 59.4433 104.486 59.5286C104.404 59.6139 104.299 59.6732 104.185 59.699C104.07 59.7248 103.952 59.7159 103.843 59.6736C103.735 59.6312 103.642 59.5572 103.576 59.461C103.511 59.3647 103.475 59.2505 103.474 59.1328C103.473 59.0152 103.507 58.8992 103.571 58.7998C103.657 58.6664 103.792 58.572 103.945 58.5374C104.099 58.5028 104.258 58.5308 104.389 58.6153ZM100.346 58.3811C100.573 58.5281 100.841 58.6029 101.113 58.5962C101.386 58.5894 101.652 58.5014 101.877 58.3432C102.103 58.185 102.278 57.9637 102.38 57.7074C102.482 57.4511 102.507 57.1713 102.452 56.9033C102.397 56.6352 102.264 56.3911 102.069 56.2017C101.875 56.0123 101.628 55.8861 101.361 55.8392C101.093 55.7922 100.816 55.8266 100.565 55.9379C100.314 56.0493 100.1 56.2326 99.9502 56.4647C99.7495 56.7759 99.6784 57.1527 99.7526 57.5121C99.8267 57.8715 100.04 58.1841 100.346 58.3811ZM101.427 56.7047C101.524 56.7677 101.601 56.8588 101.646 56.9664C101.692 57.074 101.705 57.1934 101.683 57.3094C101.661 57.4254 101.605 57.5328 101.523 57.6181C101.441 57.7034 101.337 57.7626 101.222 57.7884C101.108 57.8142 100.989 57.8054 100.881 57.763C100.772 57.7207 100.679 57.6467 100.614 57.5504C100.548 57.4542 100.513 57.34 100.512 57.2223C100.511 57.1046 100.544 56.9887 100.609 56.8892C100.695 56.7559 100.829 56.6615 100.983 56.6269C101.136 56.5923 101.296 56.6203 101.427 56.7047ZM99.4486 63.0245C101.808 64.5463 104.94 63.9041 106.431 61.5932C107.352 60.164 107.463 58.3423 106.733 56.7873L107.158 56.1284C107.273 55.9506 107.314 55.7353 107.271 55.5299C107.229 55.3246 107.107 55.1459 106.932 55.0333L103.64 52.9105C103.466 52.7979 103.253 52.7606 103.048 52.8067C102.844 52.8528 102.664 52.9787 102.55 53.1565L102.125 53.8153C100.407 53.7926 98.7935 54.6447 97.8719 56.0738C96.3816 58.3848 97.0888 61.5027 99.4486 63.0245ZM102.3 54.6163C102.371 54.6204 102.441 54.6055 102.504 54.5732C102.567 54.5408 102.621 54.4921 102.659 54.4323L103.208 53.5811L103.866 54.0056L103.218 55.0115C103.16 55.1004 103.14 55.208 103.161 55.3107C103.182 55.4134 103.243 55.5027 103.331 55.559C103.418 55.6153 103.525 55.634 103.627 55.6109C103.729 55.5879 103.819 55.525 103.876 55.436L104.525 54.4302L105.183 54.8548L104.534 55.8606C104.477 55.9495 104.457 56.0572 104.478 56.1599C104.499 56.2625 104.56 56.3519 104.647 56.4082C104.735 56.4645 104.841 56.4831 104.944 56.4601C105.046 56.437 105.136 56.3741 105.193 56.2852L105.841 55.2793L106.5 55.7039L105.951 56.5551C105.912 56.6149 105.89 56.6838 105.887 56.7546C105.883 56.8255 105.899 56.8956 105.931 56.9578C106.64 58.3047 106.579 59.918 105.772 61.1686C104.52 63.1099 101.878 63.6414 99.881 62.354C97.8845 61.0665 97.2784 58.4397 98.5302 56.4984C99.3364 55.2482 100.781 54.5267 102.3 54.6163Z" fill="url(#paint4_linear_87_214)"/>
<defs>
<linearGradient id="paint0_linear_87_214" x1="100" y1="7.83496" x2="100" y2="203.704" gradientUnits="userSpaceOnUse">
<stop stop-color="#F25801"/>
<stop offset="1" stop-color="#FF0101"/>
</linearGradient>
<linearGradient id="paint1_linear_87_214" x1="100" y1="0" x2="100" y2="211.538" gradientUnits="userSpaceOnUse">
<stop stop-color="#F25801"/>
<stop offset="1" stop-color="#FF0101"/>
</linearGradient>
<linearGradient id="paint2_linear_87_214" x1="99.6457" y1="80.2393" x2="106.8" y2="38.8044" gradientUnits="userSpaceOnUse">
<stop stop-color="#FF0000"/>
<stop offset="1" stop-color="#FF5C00"/>
</linearGradient>
<linearGradient id="paint3_linear_87_214" x1="102.602" y1="64.5839" x2="102.098" y2="52.4153" gradientUnits="userSpaceOnUse">
<stop stop-color="#F20101"/>
<stop offset="0.939556" stop-color="#FD0000"/>
</linearGradient>
<linearGradient id="paint4_linear_87_214" x1="102.63" y1="65.0764" x2="102.105" y2="51.9201" gradientUnits="userSpaceOnUse">
<stop stop-color="#F20101"/>
<stop offset="0.939556" stop-color="#FD0000"/>
</linearGradient>
</defs>
</svg>
