<svg width="218" height="230" viewBox="0 0 218 230" fill="none" xmlns="http://www.w3.org/2000/svg">
<g filter="url(#filter0_d_87_217)">
<path opacity="0.2" d="M109 10.335C56.7156 10.335 14.1924 51.7364 14.1924 102.935C14.1924 136.725 32.7264 166.259 60.3463 182.425V200.869C60.3463 203.595 61.4092 206.219 63.3154 208.161C65.2231 210.104 67.8204 211.204 70.5386 211.204H147.462C150.18 211.204 152.777 210.104 154.685 208.161C156.591 206.219 157.654 203.595 157.654 200.869V182.425C185.274 166.259 203.808 136.725 203.808 102.935C203.808 51.7364 161.285 10.335 109 10.335ZM74.3847 135.691C71.086 135.691 67.8575 134.695 65.1072 132.823C62.3564 130.951 60.2055 128.285 58.9336 125.158C57.6616 122.03 57.328 118.586 57.9771 115.262C58.6261 111.939 60.227 108.892 62.5704 106.506C64.9133 104.119 67.8928 102.5 71.1294 101.844C74.3657 101.188 77.7208 101.524 80.7723 102.812C83.8243 104.099 86.4403 106.283 88.2842 109.094C90.1284 111.905 91.1155 115.215 91.1155 118.604C91.1155 123.151 89.3419 127.502 86.199 130.703C83.0577 133.902 78.807 135.691 74.3847 135.691ZM143.616 135.691C140.317 135.691 137.088 134.695 134.338 132.823C131.587 130.951 129.436 128.285 128.164 125.158C126.892 122.03 126.559 118.586 127.208 115.262C127.857 111.939 129.458 108.892 131.801 106.506C134.144 104.119 137.124 102.5 140.36 101.844C143.597 101.188 146.952 101.524 150.003 102.812C153.055 104.099 155.671 106.283 157.515 109.094C159.359 111.905 160.346 115.215 160.346 118.604C160.346 123.151 158.573 127.502 155.43 130.703C152.289 133.902 148.038 135.691 143.616 135.691Z" fill="url(#paint0_linear_87_217)" stroke="#33FF00" stroke-width="5"/>
<path d="M150.194 171.946L150.194 171.946C148.6 172.846 147.278 174.161 146.36 175.75C145.443 177.337 144.961 179.143 144.962 180.978C144.962 180.979 144.962 180.979 144.962 180.98V198.369H134.577V177.365C134.577 174.638 133.514 172.015 131.608 170.073C129.7 168.13 127.103 167.03 124.385 167.03C121.666 167.03 119.069 168.13 117.161 170.073C115.255 172.015 114.192 174.638 114.192 177.365V198.369H103.808V177.365C103.808 174.638 102.745 172.015 100.839 170.073C98.9308 168.13 96.3335 167.03 93.6154 167.03C90.8973 167.03 88.2999 168.13 86.3922 170.073C84.486 172.015 83.4231 174.638 83.4231 177.365V198.369H73.0385V180.98C73.0385 180.979 73.0385 180.979 73.0385 180.978C73.0391 179.143 72.5575 177.337 71.64 175.75C70.7222 174.161 69.4001 172.846 67.8065 171.946L67.8057 171.946C42.5402 157.687 26.8846 131.231 26.8846 102.934C26.8846 59.018 63.6599 23.1695 109 23.1695C154.34 23.1695 191.115 59.018 191.115 102.934C191.115 131.222 175.46 157.687 150.194 171.946ZM74.3846 88.6823C68.555 88.6823 62.8601 90.4433 58.0204 93.7369C53.1813 97.0302 49.4165 101.706 47.1951 107.168C44.9739 112.63 44.3934 118.638 45.5252 124.433C46.657 130.228 49.4519 135.558 53.5632 139.745C57.675 143.933 62.9194 146.791 68.6358 147.949C74.3524 149.107 80.2774 148.512 85.6594 146.242C91.0409 143.971 95.6331 140.13 98.8607 135.21C102.088 130.291 103.808 124.512 103.808 118.604C103.808 110.683 100.719 103.077 95.206 97.4625C89.6918 91.8461 82.2031 88.6823 74.3846 88.6823ZM74.3846 127.856C72.6073 127.856 70.866 127.32 69.3807 126.309C67.8949 125.298 66.73 123.855 66.0403 122.16C65.3504 120.463 65.1693 118.594 65.5215 116.79C65.8737 114.987 66.742 113.337 68.0096 112.045C69.2767 110.755 70.8855 109.881 72.63 109.528C74.3741 109.175 76.1825 109.355 77.8284 110.05C79.4748 110.744 80.8895 111.924 81.8882 113.446C82.8872 114.969 83.4231 116.764 83.4231 118.604C83.4231 121.072 82.4599 123.431 80.7596 125.163C79.0609 126.893 76.7668 127.856 74.3846 127.856ZM143.615 88.6823C137.786 88.6823 132.091 90.4433 127.251 93.7369C122.412 97.0302 118.647 101.706 116.426 107.168C114.205 112.63 113.624 118.638 114.756 124.433C115.888 130.228 118.683 135.558 122.794 139.745C126.906 143.933 132.15 146.791 137.867 147.949C143.583 149.107 149.508 148.512 154.89 146.242C160.272 143.971 164.864 140.13 168.091 135.21C171.319 130.291 173.038 124.512 173.038 118.604C173.038 110.683 169.949 103.077 164.437 97.4625C158.923 91.8461 151.434 88.6823 143.615 88.6823ZM143.615 127.856C141.838 127.856 140.097 127.32 138.612 126.309C137.126 125.298 135.961 123.855 135.271 122.16C134.581 120.463 134.4 118.594 134.752 116.79C135.104 114.987 135.973 113.337 137.24 112.045C138.507 110.755 140.116 109.881 141.861 109.528C143.605 109.175 145.413 109.355 147.059 110.05C148.706 110.744 150.12 111.924 151.119 113.446C152.118 114.969 152.654 116.764 152.654 118.604C152.654 121.072 151.691 123.431 149.99 125.163C148.292 126.893 145.998 127.856 143.615 127.856ZM109 2.5C52.5244 2.5 6.5 47.5038 6.5 102.934C6.5 136.75 24.0459 168.383 52.6538 186.847V200.869C52.6538 205.673 54.5272 210.29 57.876 213.7C61.2263 217.113 65.7802 219.038 70.5385 219.038H147.462C152.22 219.038 156.774 217.113 160.124 213.7C163.473 210.29 165.346 205.673 165.346 200.869V186.847C193.954 168.383 211.5 136.75 211.5 102.934C211.5 47.5038 165.476 2.5 109 2.5Z" fill="url(#paint1_linear_87_217)" stroke="#33FF00" stroke-width="5"/>
<circle cx="143.5" cy="118.5" r="23" fill="#2AFF00" stroke="#33FF00" stroke-width="5"/>
<circle cx="144" cy="119" r="12.5" fill="#15D001" stroke="#33FF00" stroke-width="5"/>
<circle cx="73.5" cy="118.5" r="23" fill="#2AFF00" stroke="#33FF00" stroke-width="5"/>
<circle cx="74" cy="119" r="12.5" fill="#15D001" stroke="#33FF00" stroke-width="5"/>
</g>
<path d="M122.833 62.3777C125.643 48.8297 119.461 44.5781 108.951 54.3848C99.0593 45.0316 92.0154 47.9793 95.0127 62.321C81.1907 66.5239 82.1065 74.4355 95.1252 78.4767C92.1465 91.6847 97.7105 96.503 108.951 86.5261C119.854 96.3896 125.641 91.7715 122.664 78.42C136.864 73.5639 135.591 66.5347 122.833 62.3777ZM120.922 61.8676C118.694 61.3607 116.539 60.9918 114.346 60.7905C113.191 59.087 111.846 57.3853 110.3 55.8022C118.726 47.6501 123.692 50.1973 120.922 61.8676ZM99.1718 72.9212C100.005 74.7164 101.101 76.3603 101.926 77.7397C100.583 77.6012 99.1374 77.3909 97.598 77.1161C98.0973 75.7083 98.622 74.3098 99.1717 72.9212M99.0592 68.0462C98.446 66.5616 97.8865 65.1287 97.4294 63.7948C99.0184 63.4625 100.576 63.1609 101.926 63.0578C100.921 64.6497 99.9665 66.3142 99.0592 68.0462ZM100.239 70.5404C101.614 67.7643 103.068 65.1292 104.679 62.7744C107.539 62.6084 110.369 62.6231 113.166 62.8311C114.735 65.0358 116.199 67.6708 117.606 70.5404C116.553 72.7352 115.058 75.2645 113.335 77.9664C110.457 78.1861 107.507 78.1558 104.511 77.9664C102.992 75.6196 101.566 73.1477 100.239 70.5404ZM118.674 72.9212C119.219 74.257 119.724 75.6184 120.191 77.0027C118.78 77.3025 117.354 77.5295 115.92 77.683C116.882 76.1791 117.795 74.5824 118.674 72.9212ZM115.92 63.0579C117.452 63.2694 118.933 63.5336 120.36 63.8514C119.885 65.2759 119.341 66.6759 118.73 68.0462C117.86 66.3157 116.926 64.6501 115.92 63.0578M111.592 60.5636C109.842 60.4943 108.061 60.4965 106.253 60.5636C107.045 59.5135 107.927 58.4166 108.895 57.2758C109.838 58.3024 110.731 59.4074 111.592 60.5636ZM107.546 55.8019C106 57.3851 104.654 59.0301 103.499 60.7336C101.307 60.9349 99.0951 61.3038 96.8675 61.8106C94.2259 49.9631 99.1197 47.6498 107.546 55.8019ZM95.631 76.606C83.9223 73.0536 84.4843 67.5173 95.5186 64.2484C96.1936 66.3142 97.0107 68.4124 97.9353 70.4272C97.037 72.5109 96.2415 74.6509 95.631 76.606ZM97.0922 78.9868C99.078 79.4781 101.182 79.7139 103.387 79.9505C104.713 81.8385 106.087 83.5937 107.546 85.1089C98.9657 93.4041 94.1825 90.3903 97.0922 78.9869M108.895 83.6919C107.878 82.6299 106.929 81.4267 106.028 80.1207C108.035 80.1633 109.973 80.168 111.817 80.1207C110.935 81.3844 109.958 82.5783 108.895 83.6919ZM110.3 85.109C111.865 83.3935 113.245 81.6544 114.459 79.8939C116.53 79.7402 118.628 79.4193 120.753 78.9303C123.689 91.0681 118.358 92.8603 110.3 85.109ZM122.158 76.4928C121.556 74.5378 120.796 72.5111 119.91 70.4274C120.812 68.4336 121.6 66.3896 122.271 64.3052C133.043 67.593 133.904 72.846 122.158 76.4928Z" fill="url(#paint2_linear_87_217)"/>
<path opacity="0.2" d="M108.835 65.4395C106.201 65.4395 104.063 67.5248 104.063 70.0973C104.063 71.8211 105.023 73.3263 106.449 74.1318V75.1601C106.449 75.2675 106.491 75.3705 106.566 75.4465C106.641 75.5224 106.742 75.5651 106.847 75.5651H110.824C110.929 75.5651 111.03 75.5224 111.105 75.4465C111.18 75.3705 111.221 75.2675 111.221 75.1601V74.1318C112.648 73.3263 113.607 71.8211 113.607 70.0973C113.607 67.5248 111.47 65.4395 108.835 65.4395ZM107.046 71.9199C106.849 71.9199 106.657 71.8605 106.494 71.7492C106.33 71.638 106.203 71.4798 106.127 71.2948C106.052 71.1098 106.033 70.9062 106.071 70.7098C106.109 70.5133 106.204 70.3329 106.343 70.1913C106.482 70.0497 106.659 69.9533 106.852 69.9142C107.045 69.8751 107.245 69.8952 107.426 69.9718C107.608 70.0485 107.763 70.1782 107.873 70.3448C107.982 70.5113 108.04 70.707 108.04 70.9073C108.04 71.1759 107.935 71.4334 107.749 71.6233C107.562 71.8132 107.31 71.9199 107.046 71.9199ZM110.625 71.9199C110.428 71.9199 110.236 71.8605 110.073 71.7492C109.909 71.638 109.782 71.4798 109.706 71.2948C109.631 71.1098 109.611 70.9062 109.65 70.7098C109.688 70.5133 109.783 70.3329 109.922 70.1913C110.061 70.0497 110.238 69.9533 110.431 69.9142C110.624 69.8751 110.824 69.8952 111.005 69.9718C111.187 70.0485 111.342 70.1782 111.452 70.3448C111.561 70.5113 111.619 70.707 111.619 70.9073C111.619 71.1759 111.514 71.4334 111.328 71.6233C111.141 71.8132 110.889 71.9199 110.625 71.9199Z" fill="url(#paint3_linear_87_217)"/>
<path d="M107.046 69.4895C106.771 69.4895 106.502 69.5726 106.273 69.7284C106.044 69.8841 105.866 70.1055 105.76 70.3646C105.655 70.6236 105.627 70.9086 105.681 71.1836C105.735 71.4586 105.867 71.7112 106.062 71.9095C106.257 72.1077 106.505 72.2427 106.775 72.2974C107.045 72.3521 107.324 72.324 107.579 72.2167C107.833 72.1095 108.05 71.9278 108.203 71.6946C108.356 71.4615 108.438 71.1874 108.438 70.9071C108.438 70.5311 108.291 70.1705 108.03 69.9047C107.769 69.6388 107.415 69.4895 107.046 69.4895ZM107.046 71.5146C106.928 71.5146 106.813 71.479 106.715 71.4122C106.617 71.3455 106.54 71.2506 106.495 71.1396C106.45 71.0285 106.438 70.9064 106.461 70.7885C106.484 70.6707 106.541 70.5624 106.624 70.4775C106.708 70.3925 106.814 70.3346 106.93 70.3112C107.045 70.2878 107.165 70.2998 107.274 70.3458C107.383 70.3918 107.477 70.4696 107.542 70.5695C107.608 70.6694 107.643 70.7869 107.643 70.9071C107.643 71.0682 107.58 71.2227 107.468 71.3367C107.356 71.4506 107.204 71.5146 107.046 71.5146ZM110.625 69.4895C110.35 69.4895 110.081 69.5726 109.852 69.7284C109.623 69.8841 109.445 70.1055 109.339 70.3646C109.234 70.6236 109.206 70.9086 109.26 71.1836C109.314 71.4586 109.446 71.7112 109.641 71.9095C109.836 72.1077 110.084 72.2427 110.354 72.2974C110.624 72.3521 110.903 72.324 111.158 72.2167C111.412 72.1095 111.629 71.9278 111.782 71.6946C111.935 71.4615 112.017 71.1874 112.017 70.9071C112.017 70.5311 111.87 70.1705 111.609 69.9047C111.348 69.6388 110.994 69.4895 110.625 69.4895ZM110.625 71.5146C110.507 71.5146 110.392 71.479 110.294 71.4122C110.196 71.3455 110.119 71.2506 110.074 71.1396C110.029 71.0285 110.017 70.9064 110.04 70.7885C110.063 70.6707 110.12 70.5624 110.203 70.4775C110.287 70.3925 110.393 70.3346 110.509 70.3112C110.624 70.2878 110.744 70.2998 110.853 70.3458C110.962 70.3918 111.056 70.4696 111.121 70.5695C111.187 70.6694 111.222 70.7869 111.222 70.9071C111.222 71.0682 111.159 71.2227 111.047 71.3367C110.935 71.4506 110.783 71.5146 110.625 71.5146ZM108.836 65.0342C105.985 65.0342 103.666 67.3054 103.666 70.097C103.666 71.8234 104.574 73.4385 106.052 74.364V75.1598C106.052 75.3747 106.136 75.5807 106.285 75.7326C106.434 75.8845 106.636 75.9699 106.847 75.9699H110.824C111.035 75.9699 111.237 75.8845 111.386 75.7326C111.535 75.5807 111.619 75.3747 111.619 75.1598V74.364C113.097 73.4385 114.005 71.8234 114.005 70.097C114.005 67.3054 111.686 65.0342 108.836 65.0342ZM111.029 73.7772C110.967 73.8123 110.915 73.8636 110.879 73.9259C110.843 73.9883 110.824 74.0593 110.824 74.1316V75.1598H110.029V73.9448C110.029 73.8373 109.987 73.7343 109.912 73.6584C109.838 73.5824 109.736 73.5397 109.631 73.5397C109.525 73.5397 109.424 73.5824 109.35 73.6584C109.275 73.7343 109.233 73.8373 109.233 73.9448V75.1598H108.438V73.9448C108.438 73.8373 108.396 73.7343 108.321 73.6584C108.247 73.5824 108.146 73.5397 108.04 73.5397C107.935 73.5397 107.834 73.5824 107.759 73.6584C107.685 73.7343 107.643 73.8373 107.643 73.9448V75.1598H106.847V74.1316C106.847 74.0593 106.828 73.9883 106.792 73.9259C106.756 73.8636 106.705 73.8123 106.643 73.7772C105.297 73.0178 104.461 71.6078 104.461 70.097C104.461 67.7519 106.424 65.8442 108.836 65.8442C111.247 65.8442 113.21 67.7519 113.21 70.097C113.21 71.6072 112.374 73.0178 111.029 73.7772Z" fill="url(#paint4_linear_87_217)"/>
<defs>
<filter id="filter0_d_87_217" x="0" y="0" width="218" height="229.538" filterUnits="userSpaceOnUse" color-interpolation-filters="sRGB">
<feFlood flood-opacity="0" result="BackgroundImageFix"/>
<feColorMatrix in="SourceAlpha" type="matrix" values="0 0 0 0 0 0 0 0 0 0 0 0 0 0 0 0 0 0 127 0" result="hardAlpha"/>
<feOffset dy="4"/>
<feGaussianBlur stdDeviation="2"/>
<feComposite in2="hardAlpha" operator="out"/>
<feColorMatrix type="matrix" values="0 0 0 0 0 0 0 0 0 0 0 0 0 0 0 0 0 0 0.25 0"/>
<feBlend mode="normal" in2="BackgroundImageFix" result="effect1_dropShadow_87_217"/>
<feBlend mode="normal" in="SourceGraphic" in2="effect1_dropShadow_87_217" result="shape"/>
</filter>
<linearGradient id="paint0_linear_87_217" x1="109" y1="12.835" x2="109" y2="208.704" gradientUnits="userSpaceOnUse">
<stop stop-color="#F25801"/>
<stop offset="1" stop-color="#FF0101"/>
</linearGradient>
<linearGradient id="paint1_linear_87_217" x1="109" y1="5" x2="109" y2="216.538" gradientUnits="userSpaceOnUse">
<stop stop-color="#F25801"/>
<stop offset="1" stop-color="#FF0101"/>
</linearGradient>
<linearGradient id="paint2_linear_87_217" x1="99.1949" y1="50.454" x2="115.888" y2="89.743" gradientUnits="userSpaceOnUse">
<stop stop-color="#33FF00"/>
<stop offset="1" stop-color="#1E1E1E"/>
</linearGradient>
<linearGradient id="paint3_linear_87_217" x1="105.287" y1="65.4395" x2="112.413" y2="75.5445" gradientUnits="userSpaceOnUse">
<stop stop-color="#15D001"/>
<stop offset="0.939556" stop-color="#15D001"/>
</linearGradient>
<linearGradient id="paint4_linear_87_217" x1="104.992" y1="65.0342" x2="112.679" y2="75.9699" gradientUnits="userSpaceOnUse">
<stop stop-color="#15D001"/>
<stop offset="0.939556" stop-color="#15D001"/>
</linearGradient>
</defs>
</svg>
