<svg width="200" height="212" viewBox="0 0 200 212" fill="none" xmlns="http://www.w3.org/2000/svg">
<path opacity="0.2" d="M100 7.83496C49.0386 7.83496 7.69238 48.1742 7.69238 97.9347C7.69238 131.281 26.2597 160.397 53.8463 175.979V195.869C53.8463 197.947 54.6567 199.94 56.0993 201.409C57.5419 202.878 59.4984 203.704 61.5386 203.704H138.462C140.502 203.704 142.458 202.878 143.901 201.409C145.344 199.94 146.154 197.947 146.154 195.869V175.979C173.741 160.397 192.308 131.281 192.308 97.9347C192.308 48.1742 150.962 7.83496 100 7.83496ZM65.3847 133.191C61.5812 133.191 57.8632 132.042 54.7007 129.89C51.5382 127.738 49.0733 124.679 47.6178 121.1C46.1623 117.521 45.7814 113.582 46.5235 109.783C47.2655 105.983 49.097 102.493 51.7865 99.7541C54.476 97.0149 57.9026 95.1494 61.633 94.3936C65.3634 93.6379 69.2301 94.0258 72.744 95.5082C76.258 96.9907 79.2614 99.5012 81.3745 102.722C83.4876 105.943 84.6155 109.73 84.6155 113.604C84.6155 118.799 82.5894 123.781 78.9829 127.454C75.3765 131.127 70.485 133.191 65.3847 133.191ZM134.616 133.191C130.812 133.191 127.094 132.042 123.931 129.89C120.769 127.738 118.304 124.679 116.849 121.1C115.393 117.521 115.012 113.582 115.754 109.783C116.496 105.983 118.328 102.493 121.017 99.7541C123.707 97.0149 127.133 95.1494 130.864 94.3936C134.594 93.6379 138.461 94.0258 141.975 95.5082C145.489 96.9907 148.492 99.5012 150.605 102.722C152.718 105.943 153.846 109.73 153.846 113.604C153.846 118.799 151.82 123.781 148.214 127.454C144.607 131.127 139.716 133.191 134.616 133.191Z" fill="url(#paint0_linear_87_211)"/>
<path d="M65.3846 86.1823C60.0597 86.1823 54.8544 87.7906 50.427 90.8037C45.9995 93.8168 42.5487 98.0995 40.5109 103.11C38.4732 108.121 37.94 113.634 38.9789 118.954C40.0177 124.273 42.5819 129.159 46.3471 132.994C50.1124 136.829 54.9096 139.441 60.1322 140.499C65.3547 141.557 70.7681 141.014 75.6876 138.938C80.6072 136.863 84.812 133.348 87.7703 128.839C90.7287 124.329 92.3077 119.027 92.3077 113.604C92.3077 106.331 89.4712 99.3565 84.4221 94.2139C79.373 89.0714 72.5251 86.1823 65.3846 86.1823ZM65.3846 125.356C63.1025 125.356 60.8717 124.667 58.9742 123.376C57.0767 122.084 55.5978 120.249 54.7245 118.101C53.8511 115.954 53.6226 113.591 54.0679 111.311C54.5131 109.032 55.612 106.938 57.2257 105.294C58.8394 103.65 60.8953 102.531 63.1336 102.078C65.3718 101.624 67.6918 101.857 69.8002 102.746C71.9086 103.636 73.7106 105.142 74.9785 107.075C76.2464 109.007 76.9231 111.28 76.9231 113.604C76.9231 116.721 75.7074 119.71 73.5435 121.914C71.3797 124.118 68.4448 125.356 65.3846 125.356ZM134.615 86.1823C129.29 86.1823 124.085 87.7906 119.658 90.8037C115.23 93.8168 111.779 98.0995 109.742 103.11C107.704 108.121 107.171 113.634 108.21 118.954C109.248 124.273 111.813 129.159 115.578 132.994C119.343 136.829 124.14 139.441 129.363 140.499C134.586 141.557 139.999 141.014 144.918 138.938C149.838 136.863 154.043 133.348 157.001 128.839C159.959 124.329 161.538 119.027 161.538 113.604C161.538 106.331 158.702 99.3565 153.653 94.2139C148.604 89.0714 141.756 86.1823 134.615 86.1823ZM134.615 125.356C132.333 125.356 130.102 124.667 128.205 123.376C126.307 122.084 124.829 120.249 123.955 118.101C123.082 115.954 122.853 113.591 123.299 111.311C123.744 109.032 124.843 106.938 126.456 105.294C128.07 103.65 130.126 102.531 132.364 102.078C134.603 101.624 136.923 101.857 139.031 102.746C141.139 103.636 142.941 105.142 144.209 107.075C145.477 109.007 146.154 111.28 146.154 113.604C146.154 116.721 144.938 119.71 142.774 121.914C140.61 124.118 137.676 125.356 134.615 125.356ZM100 0C44.8558 0 0 43.9334 0 97.9345C0 131.33 17.5673 162.571 46.1538 180.474V195.869C46.1538 200.025 47.7747 204.01 50.6599 206.949C53.5451 209.888 57.4582 211.538 61.5385 211.538H138.462C142.542 211.538 146.455 209.888 149.34 206.949C152.225 204.01 153.846 200.025 153.846 195.869V180.474C182.433 162.571 200 131.33 200 97.9345C200 43.9334 155.144 0 100 0ZM142.423 169.123C141.222 169.801 140.221 170.795 139.525 172.001C138.828 173.206 138.461 174.58 138.462 175.978V195.869H123.077V172.365C123.077 170.287 122.266 168.294 120.824 166.825C119.381 165.355 117.425 164.53 115.385 164.53C113.344 164.53 111.388 165.355 109.945 166.825C108.503 168.294 107.692 170.287 107.692 172.365V195.869H92.3077V172.365C92.3077 170.287 91.4973 168.294 90.0547 166.825C88.6121 165.355 86.6555 164.53 84.6154 164.53C82.5753 164.53 80.6187 165.355 79.1761 166.825C77.7335 168.294 76.9231 170.287 76.9231 172.365V195.869H61.5385V175.978C61.5391 174.58 61.1721 173.206 60.4754 172.001C59.7788 170.795 58.778 169.801 57.5769 169.123C31.5481 154.433 15.3846 127.158 15.3846 97.9345C15.3846 52.5712 53.3462 15.6695 100 15.6695C146.654 15.6695 184.615 52.5712 184.615 97.9345C184.615 127.148 168.452 154.433 142.423 169.123Z" fill="url(#paint1_linear_87_211)"/>
<circle cx="65.5" cy="112.5" r="20" fill="#2AFF00" stroke="#FF0000"/>
<circle cx="66" cy="113" r="10" fill="#15D001"/>
<path d="M84.4435 55.7504C74.885 65.4654 77.733 72.2851 91.6681 69.7774C94.8633 82.8003 102.268 84.1205 107.443 70.6483C121.128 74.5477 124.593 67.5096 115.974 57.2145C125.49 47.8711 123.457 40.9122 108.826 43.1707C105.066 29.1854 97.8102 29.9192 93.1469 42.5605C78.7995 39 76.1016 45.4987 84.4435 55.7504ZM85.753 57.1927C87.3265 58.8015 88.9139 60.2576 90.6213 61.5946C90.6681 63.6213 90.8734 65.7482 91.3081 67.8841C79.9812 70.1342 77.23 65.3746 85.753 57.1927ZM109.658 59.6532C109.927 57.7222 109.897 55.7764 109.951 54.1944C110.988 55.0256 112.073 55.9716 113.2 57.0208C112.036 57.9197 110.855 58.7973 109.659 59.6533M107.149 63.7488C106.864 65.3052 106.563 66.79 106.229 68.1383C104.736 67.5651 103.286 66.9835 102.114 66.3482C103.795 65.5667 105.474 64.6983 107.149 63.7488ZM107.504 61.0541C104.884 62.6185 102.274 64.0238 99.6826 65.1127C97.2265 63.7234 94.8921 62.2007 92.6877 60.5355C92.566 57.873 92.7607 54.9102 93.1277 51.7835C95.171 50.5287 97.759 49.2331 100.628 47.9164C103.127 49.2704 105.553 50.8703 107.932 52.6267C107.936 55.3801 107.798 58.1878 107.504 61.0541ZM93.5147 49.2426C93.776 47.8455 94.0853 46.4493 94.4374 45.0539C95.7657 45.5592 97.0671 46.1323 98.3364 46.7709C96.7369 47.5021 95.1289 48.3366 93.5147 49.2426ZM90.5291 58.8776C89.3735 57.8845 88.2891 56.8756 87.2773 55.8506C88.4305 54.9246 89.6281 54.0561 90.8658 53.2482C90.6621 55.1451 90.5462 57.0224 90.529 58.8776M92.7798 63.2525C94.1918 64.2443 95.667 65.193 97.1996 66.1027C95.9838 66.5494 94.6679 66.9864 93.2579 67.4142C93.0253 66.061 92.8756 64.6693 92.7798 63.2525ZM93.5877 69.3544C95.7127 68.8692 97.7044 68.2256 99.57 67.4321C101.492 68.4358 103.52 69.3111 105.635 70.0807C101.497 81.2982 96.211 80.6008 93.5877 69.3544ZM114.556 58.4931C122.353 67.6842 118.932 71.9671 108.053 68.7828C108.597 66.7124 109.04 64.5393 109.351 62.3779C111.207 61.1325 113.007 59.7856 114.556 58.4931ZM114.618 55.7423C113.236 54.2755 111.62 52.9569 109.922 51.5842C109.831 49.3133 109.631 47.1271 109.232 45.0939C120.763 42.8075 123.114 47.8557 114.618 55.7422M107.359 45.5469C107.634 46.9688 107.778 48.4716 107.826 50.0333C106.187 48.9267 104.585 47.8882 103.034 46.9431C104.439 46.3681 105.885 45.9013 107.359 45.5469ZM106.953 43.6238C104.741 44.2082 102.67 44.9111 100.726 45.7207C98.9297 44.7424 97.0215 43.888 95.001 43.1582C99.05 31.5431 104.42 32.9054 106.953 43.6238ZM92.5368 44.4259C91.9915 46.3657 91.5389 48.4492 91.1598 50.6469C89.3491 51.8161 87.6056 53.0875 85.9377 54.4548C78.7756 45.9828 80.8665 41.1743 92.5368 44.4259Z" fill="url(#paint2_linear_87_211)"/>
<path opacity="0.2" d="M97.665 60.6899C99.8459 62.0963 102.728 61.511 104.102 59.3816C105.022 57.9545 105.031 56.1961 104.28 54.7681L104.829 53.9169C104.887 53.8279 104.907 53.7203 104.886 53.6176C104.865 53.5149 104.804 53.4256 104.716 53.3693L101.424 51.2465C101.337 51.1902 101.231 51.1715 101.128 51.1946C101.026 51.2176 100.936 51.2805 100.879 51.3695L100.33 52.2207C98.7196 52.1262 97.1215 52.8598 96.2012 54.2868C94.828 56.4163 95.4841 59.2836 97.665 60.6899ZM102.606 56.2807C102.769 56.3856 102.896 56.5374 102.972 56.7168C103.048 56.8962 103.069 57.0951 103.032 57.2884C102.996 57.4818 102.904 57.6608 102.767 57.8029C102.63 57.945 102.456 58.0438 102.265 58.0869C102.074 58.1299 101.876 58.1151 101.696 58.0445C101.515 57.9739 101.36 57.8506 101.251 57.6902C101.141 57.5298 101.082 57.3395 101.081 57.1433C101.079 56.9471 101.135 56.754 101.242 56.5882C101.386 56.3659 101.61 56.2086 101.866 56.1509C102.121 56.0933 102.387 56.1399 102.606 56.2807ZM99.6431 54.3701C99.8058 54.4751 99.9333 54.6269 100.009 54.8063C100.085 54.9856 100.106 55.1846 100.07 55.3779C100.033 55.5712 99.9408 55.7503 99.8042 55.8924C99.6676 56.0345 99.4929 56.1333 99.3023 56.1763C99.1116 56.2193 98.9134 56.2046 98.7329 56.134C98.5525 56.0634 98.3977 55.9401 98.2882 55.7797C98.1788 55.6192 98.1195 55.4289 98.118 55.2328C98.1164 55.0366 98.1727 54.8434 98.2796 54.6776C98.4229 54.4553 98.6471 54.2981 98.9028 54.2404C99.1585 54.1827 99.4248 54.2294 99.6431 54.3701Z" fill="url(#paint3_linear_87_211)"/>
<path d="M101.308 58.2917C101.536 58.4386 101.803 58.5135 102.076 58.5067C102.349 58.4999 102.614 58.4119 102.84 58.2537C103.065 58.0955 103.24 57.8743 103.343 57.618C103.445 57.3617 103.47 57.0818 103.415 56.8138C103.36 56.5458 103.226 56.3016 103.032 56.1122C102.838 55.9228 102.591 55.7967 102.323 55.7497C102.055 55.7028 101.779 55.7371 101.527 55.8485C101.276 55.9598 101.063 56.1431 100.913 56.3752C100.712 56.6864 100.641 57.0632 100.715 57.4226C100.789 57.782 101.003 58.0946 101.308 58.2917ZM102.389 56.6153C102.487 56.6783 102.563 56.7693 102.609 56.8769C102.655 56.9846 102.667 57.1039 102.645 57.2199C102.623 57.3359 102.568 57.4433 102.486 57.5286C102.404 57.6139 102.299 57.6732 102.185 57.699C102.07 57.7248 101.952 57.7159 101.843 57.6736C101.735 57.6312 101.642 57.5572 101.576 57.461C101.511 57.3647 101.475 57.2505 101.474 57.1328C101.473 57.0152 101.507 56.8992 101.571 56.7998C101.657 56.6664 101.792 56.572 101.945 56.5374C102.099 56.5028 102.258 56.5308 102.389 56.6153ZM98.3456 56.3811C98.5735 56.5281 98.8406 56.6029 99.1133 56.5962C99.3859 56.5894 99.6517 56.5014 99.8772 56.3432C100.103 56.185 100.278 55.9637 100.38 55.7074C100.482 55.4511 100.507 55.1713 100.452 54.9033C100.397 54.6352 100.264 54.3911 100.069 54.2017C99.875 54.0123 99.6284 53.8861 99.3606 53.8392C99.0928 53.7922 98.8159 53.8266 98.5648 53.9379C98.3138 54.0493 98.0999 54.2326 97.9502 54.4647C97.7495 54.7759 97.6784 55.1527 97.7526 55.5121C97.8267 55.8715 98.0401 56.1841 98.3456 56.3811ZM99.4267 54.7047C99.5243 54.7677 99.6008 54.8588 99.6464 54.9664C99.6919 55.074 99.7046 55.1934 99.6827 55.3094C99.6608 55.4254 99.6053 55.5328 99.5234 55.6181C99.4414 55.7034 99.3366 55.7626 99.2222 55.7884C99.1078 55.8142 98.9889 55.8054 98.8806 55.763C98.7723 55.7207 98.6795 55.6467 98.6138 55.5504C98.5481 55.4542 98.5125 55.34 98.5116 55.2223C98.5107 55.1046 98.5444 54.9887 98.6086 54.8892C98.6946 54.7559 98.8291 54.6615 98.9825 54.6269C99.136 54.5923 99.2957 54.6203 99.4267 54.7047ZM97.4486 61.0245C99.8085 62.5463 102.94 61.9041 104.431 59.5932C105.352 58.164 105.463 56.3423 104.733 54.7873L105.158 54.1284C105.273 53.9506 105.314 53.7353 105.271 53.5299C105.229 53.3246 105.107 53.1459 104.932 53.0333L101.64 50.9105C101.466 50.7979 101.253 50.7606 101.048 50.8067C100.844 50.8528 100.664 50.9787 100.55 51.1565L100.125 51.8153C98.4074 51.7926 96.7935 52.6447 95.8719 54.0738C94.3816 56.3848 95.0888 59.5027 97.4486 61.0245ZM100.3 52.6163C100.371 52.6204 100.441 52.6055 100.504 52.5732C100.567 52.5408 100.621 52.4921 100.659 52.4323L101.208 51.5811L101.866 52.0056L101.218 53.0115C101.16 53.1004 101.14 53.208 101.161 53.3107C101.182 53.4134 101.243 53.5027 101.331 53.559C101.418 53.6153 101.525 53.634 101.627 53.6109C101.729 53.5879 101.819 53.525 101.876 53.436L102.525 52.4302L103.183 52.8548L102.534 53.8606C102.477 53.9495 102.457 54.0572 102.478 54.1599C102.499 54.2625 102.56 54.3519 102.647 54.4082C102.735 54.4645 102.841 54.4831 102.944 54.4601C103.046 54.437 103.136 54.3741 103.193 54.2852L103.841 53.2793L104.5 53.7039L103.951 54.5551C103.912 54.6149 103.89 54.6838 103.887 54.7546C103.883 54.8255 103.899 54.8956 103.931 54.9578C104.64 56.3047 104.579 57.918 103.772 59.1686C102.52 61.1099 99.8776 61.6414 97.881 60.354C95.8845 59.0665 95.2784 56.4397 96.5302 54.4984C97.3364 53.2482 98.7811 52.5267 100.3 52.6163Z" fill="url(#paint4_linear_87_211)"/>
<defs>
<linearGradient id="paint0_linear_87_211" x1="100" y1="7.83496" x2="100" y2="203.704" gradientUnits="userSpaceOnUse">
<stop stop-color="#F25801"/>
<stop offset="1" stop-color="#FF0101"/>
</linearGradient>
<linearGradient id="paint1_linear_87_211" x1="100" y1="0" x2="100" y2="211.538" gradientUnits="userSpaceOnUse">
<stop stop-color="#F25801"/>
<stop offset="1" stop-color="#FF0101"/>
</linearGradient>
<linearGradient id="paint2_linear_87_211" x1="97.6457" y1="78.2393" x2="104.8" y2="36.8044" gradientUnits="userSpaceOnUse">
<stop stop-color="#FF0000"/>
<stop offset="1" stop-color="#FF5C00"/>
</linearGradient>
<linearGradient id="paint3_linear_87_211" x1="100.602" y1="62.5839" x2="100.098" y2="50.4153" gradientUnits="userSpaceOnUse">
<stop stop-color="#F20101"/>
<stop offset="0.939556" stop-color="#FD0000"/>
</linearGradient>
<linearGradient id="paint4_linear_87_211" x1="100.63" y1="63.0764" x2="100.105" y2="49.9201" gradientUnits="userSpaceOnUse">
<stop stop-color="#F20101"/>
<stop offset="0.939556" stop-color="#FD0000"/>
</linearGradient>
</defs>
</svg>
