<svg width="218" height="230" viewBox="0 0 218 230" fill="none" xmlns="http://www.w3.org/2000/svg">
<g filter="url(#filter0_d_87_216)">
<path opacity="0.2" d="M109 10.335C56.7156 10.335 14.1924 51.7364 14.1924 102.935C14.1924 136.725 32.7264 166.259 60.3463 182.425V200.869C60.3463 203.595 61.4092 206.219 63.3154 208.161C65.2231 210.104 67.8204 211.204 70.5386 211.204H147.462C150.18 211.204 152.777 210.104 154.685 208.161C156.591 206.219 157.654 203.595 157.654 200.869V182.425C185.274 166.259 203.808 136.725 203.808 102.935C203.808 51.7364 161.285 10.335 109 10.335ZM74.3847 135.691C71.086 135.691 67.8575 134.695 65.1072 132.823C62.3564 130.951 60.2055 128.285 58.9336 125.158C57.6616 122.03 57.328 118.586 57.9771 115.262C58.6261 111.939 60.227 108.892 62.5704 106.506C64.9133 104.119 67.8928 102.5 71.1294 101.844C74.3657 101.188 77.7208 101.524 80.7723 102.812C83.8243 104.099 86.4403 106.283 88.2842 109.094C90.1284 111.905 91.1155 115.215 91.1155 118.604C91.1155 123.151 89.3419 127.502 86.199 130.703C83.0577 133.902 78.807 135.691 74.3847 135.691ZM143.616 135.691C140.317 135.691 137.088 134.695 134.338 132.823C131.587 130.951 129.436 128.285 128.164 125.158C126.892 122.03 126.559 118.586 127.208 115.262C127.857 111.939 129.458 108.892 131.801 106.506C134.144 104.119 137.124 102.5 140.36 101.844C143.597 101.188 146.952 101.524 150.003 102.812C153.055 104.099 155.671 106.283 157.515 109.094C159.359 111.905 160.346 115.215 160.346 118.604C160.346 123.151 158.573 127.502 155.43 130.703C152.289 133.902 148.038 135.691 143.616 135.691Z" fill="url(#paint0_linear_87_216)" stroke="#33FF00" stroke-width="5"/>
<path d="M150.194 171.946L150.194 171.946C148.6 172.846 147.278 174.161 146.36 175.75C145.443 177.337 144.961 179.143 144.962 180.978C144.962 180.979 144.962 180.979 144.962 180.98V198.369H134.577V177.365C134.577 174.638 133.514 172.015 131.608 170.073C129.7 168.13 127.103 167.03 124.385 167.03C121.666 167.03 119.069 168.13 117.161 170.073C115.255 172.015 114.192 174.638 114.192 177.365V198.369H103.808V177.365C103.808 174.638 102.745 172.015 100.839 170.073C98.9308 168.13 96.3335 167.03 93.6154 167.03C90.8973 167.03 88.2999 168.13 86.3922 170.073C84.486 172.015 83.4231 174.638 83.4231 177.365V198.369H73.0385V180.98C73.0385 180.979 73.0385 180.979 73.0385 180.978C73.0391 179.143 72.5575 177.337 71.64 175.75C70.7222 174.161 69.4001 172.846 67.8065 171.946L67.8057 171.946C42.5402 157.687 26.8846 131.231 26.8846 102.934C26.8846 59.018 63.6599 23.1695 109 23.1695C154.34 23.1695 191.115 59.018 191.115 102.934C191.115 131.222 175.46 157.687 150.194 171.946ZM74.3846 88.6823C68.555 88.6823 62.8601 90.4433 58.0204 93.7369C53.1813 97.0302 49.4165 101.706 47.1951 107.168C44.9739 112.63 44.3934 118.638 45.5252 124.433C46.657 130.228 49.4519 135.558 53.5632 139.745C57.675 143.933 62.9194 146.791 68.6358 147.949C74.3524 149.107 80.2774 148.512 85.6594 146.242C91.0409 143.971 95.6331 140.13 98.8607 135.21C102.088 130.291 103.808 124.512 103.808 118.604C103.808 110.683 100.719 103.077 95.206 97.4625C89.6918 91.8461 82.2031 88.6823 74.3846 88.6823ZM74.3846 127.856C72.6073 127.856 70.866 127.32 69.3807 126.309C67.8949 125.298 66.73 123.855 66.0403 122.16C65.3504 120.463 65.1693 118.594 65.5215 116.79C65.8737 114.987 66.742 113.337 68.0096 112.045C69.2767 110.755 70.8855 109.881 72.63 109.528C74.3741 109.175 76.1825 109.355 77.8284 110.05C79.4748 110.744 80.8895 111.924 81.8882 113.446C82.8872 114.969 83.4231 116.764 83.4231 118.604C83.4231 121.072 82.4599 123.431 80.7596 125.163C79.0609 126.893 76.7668 127.856 74.3846 127.856ZM143.615 88.6823C137.786 88.6823 132.091 90.4433 127.251 93.7369C122.412 97.0302 118.647 101.706 116.426 107.168C114.205 112.63 113.624 118.638 114.756 124.433C115.888 130.228 118.683 135.558 122.794 139.745C126.906 143.933 132.15 146.791 137.867 147.949C143.583 149.107 149.508 148.512 154.89 146.242C160.272 143.971 164.864 140.13 168.091 135.21C171.319 130.291 173.038 124.512 173.038 118.604C173.038 110.683 169.949 103.077 164.437 97.4625C158.923 91.8461 151.434 88.6823 143.615 88.6823ZM143.615 127.856C141.838 127.856 140.097 127.32 138.612 126.309C137.126 125.298 135.961 123.855 135.271 122.16C134.581 120.463 134.4 118.594 134.752 116.79C135.104 114.987 135.973 113.337 137.24 112.045C138.507 110.755 140.116 109.881 141.861 109.528C143.605 109.175 145.413 109.355 147.059 110.05C148.706 110.744 150.12 111.924 151.119 113.446C152.118 114.969 152.654 116.764 152.654 118.604C152.654 121.072 151.691 123.431 149.99 125.163C148.292 126.893 145.998 127.856 143.615 127.856ZM109 2.5C52.5244 2.5 6.5 47.5038 6.5 102.934C6.5 136.75 24.0459 168.383 52.6538 186.847V200.869C52.6538 205.673 54.5272 210.29 57.876 213.7C61.2263 217.113 65.7802 219.038 70.5385 219.038H147.462C152.22 219.038 156.774 217.113 160.124 213.7C163.473 210.29 165.346 205.673 165.346 200.869V186.847C193.954 168.383 211.5 136.75 211.5 102.934C211.5 47.5038 165.476 2.5 109 2.5Z" fill="url(#paint1_linear_87_216)" stroke="#33FF00" stroke-width="5"/>
<circle cx="143.5" cy="118.5" r="23" fill="#2AFF00" stroke="#33FF00" stroke-width="5"/>
<circle cx="144" cy="119" r="12.5" fill="#15D001" stroke="#33FF00" stroke-width="5"/>
<circle cx="73.5" cy="118.5" r="23" fill="#2AFF00" stroke="#33FF00" stroke-width="5"/>
<circle cx="74" cy="119" r="12.5" fill="#15D001" stroke="#33FF00" stroke-width="5"/>
</g>
<defs>
<filter id="filter0_d_87_216" x="0" y="0" width="218" height="229.538" filterUnits="userSpaceOnUse" color-interpolation-filters="sRGB">
<feFlood flood-opacity="0" result="BackgroundImageFix"/>
<feColorMatrix in="SourceAlpha" type="matrix" values="0 0 0 0 0 0 0 0 0 0 0 0 0 0 0 0 0 0 127 0" result="hardAlpha"/>
<feOffset dy="4"/>
<feGaussianBlur stdDeviation="2"/>
<feComposite in2="hardAlpha" operator="out"/>
<feColorMatrix type="matrix" values="0 0 0 0 0 0 0 0 0 0 0 0 0 0 0 0 0 0 0.25 0"/>
<feBlend mode="normal" in2="BackgroundImageFix" result="effect1_dropShadow_87_216"/>
<feBlend mode="normal" in="SourceGraphic" in2="effect1_dropShadow_87_216" result="shape"/>
</filter>
<linearGradient id="paint0_linear_87_216" x1="109" y1="12.835" x2="109" y2="208.704" gradientUnits="userSpaceOnUse">
<stop stop-color="#F25801"/>
<stop offset="1" stop-color="#FF0101"/>
</linearGradient>
<linearGradient id="paint1_linear_87_216" x1="109" y1="5" x2="109" y2="216.538" gradientUnits="userSpaceOnUse">
<stop stop-color="#F25801"/>
<stop offset="1" stop-color="#FF0101"/>
</linearGradient>
</defs>
</svg>
