<svg width="100" height="90" viewBox="0 0 100 90" fill="none" xmlns="http://www.w3.org/2000/svg">
<path d="M79.0455 27.9506C84.9166 -0.355877 72 -9.23888 50.0416 11.2508C29.3748 -8.29132 14.6575 -2.13259 20.9201 27.832C-7.95887 36.6134 -6.04559 53.1434 21.155 61.5869C14.9316 89.1828 26.5566 99.25 50.0416 78.4049C72.8219 99.013 84.9121 89.3643 78.6931 61.4685C108.363 51.3224 105.701 36.636 79.0455 27.9506ZM75.0531 26.8849C70.3986 25.8258 65.8949 25.055 61.3142 24.6344C58.9009 21.0752 56.09 17.5198 52.8597 14.2121C70.4648 -2.82032 80.8408 2.50157 75.0531 26.8849ZM29.6097 49.9796C31.3513 53.7303 33.6412 57.1649 35.3634 60.047C32.5589 59.7576 29.5378 59.3183 26.3216 58.744C27.3648 55.8027 28.4609 52.8807 29.6095 49.9796M29.3746 39.7941C28.0933 36.6922 26.9244 33.6984 25.9693 30.9113C29.2892 30.2171 32.5427 29.5869 35.3632 29.3716C33.264 32.6977 31.2701 36.1753 29.3746 39.7941ZM31.8404 45.0053C34.7119 39.2051 37.7494 33.6994 41.1169 28.7794C47.0923 28.4327 53.0043 28.4634 58.8482 28.8978C62.1258 33.5042 65.1847 39.0097 68.1248 45.0053C65.9248 49.591 62.8008 54.8756 59.2006 60.5208C53.1892 60.9798 47.0255 60.9163 40.7648 60.5208C37.5916 55.6175 34.6115 50.4528 31.8404 45.0053ZM70.3558 49.9796C71.4961 52.7705 72.5498 55.6149 73.5263 58.5073C70.5774 59.1335 67.5987 59.6079 64.6019 59.9286C66.6127 56.7865 68.5199 53.4503 70.3558 49.9796ZM64.6019 29.3718C67.8037 29.8136 70.8967 30.3656 73.8785 31.0297C72.8873 34.006 71.7508 36.931 70.4732 39.7941C68.6556 36.1784 66.7043 32.6985 64.6021 29.3716M55.5605 24.1602C51.9033 24.0154 48.183 24.0201 44.405 24.1602C46.0589 21.9663 47.9023 19.6746 49.9242 17.2909C51.8943 19.4358 53.7611 21.7446 55.5605 24.1602ZM47.1058 14.2115C43.8755 17.5192 41.0648 20.9563 38.6513 24.5154C34.0707 24.936 29.4495 25.7068 24.7952 26.7657C19.2761 2.01222 29.5009 -2.8211 47.1058 14.2115ZM22.2118 57.6783C-2.25164 50.2562 -1.07742 38.6889 21.9769 31.8591C23.3872 36.1753 25.0945 40.559 27.0263 44.7687C25.1494 49.1223 23.4874 53.5936 22.2118 57.6783ZM25.2648 62.6527C29.4138 63.6792 33.8107 64.1719 38.4166 64.6662C41.1876 68.6108 44.0576 72.2781 47.106 75.4439C29.1791 92.7753 19.1855 86.4785 25.2648 62.6529M49.9242 72.4832C47.7998 70.2644 45.8164 67.7504 43.9355 65.0218C48.1283 65.1108 52.1777 65.1206 56.0302 65.0218C54.1863 67.6621 52.145 70.1565 49.9242 72.4832ZM52.8597 75.4441C56.1306 71.8597 59.014 68.2261 61.5492 64.548C65.8761 64.2269 70.2601 63.5563 74.7008 62.5347C80.8351 87.8947 69.6969 91.6392 52.8597 75.4441ZM77.6363 57.4419C76.3785 53.3572 74.7902 49.1227 72.9394 44.7691C74.8232 40.6034 76.4697 36.3327 77.8711 31.9778C100.378 38.8471 102.178 49.8224 77.6363 57.4419Z" fill="url(#paint0_linear_92_32)"/>
<path opacity="0.2" d="M49.9995 34.1948C44.4951 34.1948 40.0293 38.5519 40.0293 43.9266C40.0293 47.5284 42.0348 50.6732 45.0144 52.3562V54.5045C45.0144 54.729 45.1019 54.9442 45.2578 55.1029C45.4136 55.2616 45.6249 55.3508 45.8453 55.3508H54.1538C54.3742 55.3508 54.5855 55.2616 54.7413 55.1029C54.8971 54.9442 54.9846 54.729 54.9846 54.5045V52.3562C57.9643 50.6732 59.9698 47.5284 59.9698 43.9266C59.9698 38.5519 55.5039 34.1948 49.9995 34.1948ZM46.2607 47.7346C45.8499 47.7346 45.4483 47.6106 45.1067 47.3781C44.7651 47.1456 44.4989 46.8152 44.3417 46.4286C44.1845 46.0421 44.1433 45.6167 44.2235 45.2063C44.3036 44.7959 44.5014 44.419 44.7919 44.1231C45.0824 43.8272 45.4525 43.6257 45.8555 43.5441C46.2584 43.4625 46.676 43.5044 47.0556 43.6645C47.4351 43.8246 47.7595 44.0958 47.9878 44.4437C48.216 44.7916 48.3378 45.2006 48.3378 45.619C48.3378 46.1801 48.119 46.7182 47.7294 47.115C47.3399 47.5117 46.8116 47.7346 46.2607 47.7346ZM53.7384 47.7346C53.3276 47.7346 52.926 47.6106 52.5844 47.3781C52.2428 47.1456 51.9766 46.8152 51.8193 46.4286C51.6621 46.0421 51.621 45.6167 51.7011 45.2063C51.7813 44.7959 51.9791 44.419 52.2696 44.1231C52.5601 43.8272 52.9302 43.6257 53.3331 43.5441C53.7361 43.4625 54.1537 43.5044 54.5333 43.6645C54.9128 43.8246 55.2372 44.0958 55.4654 44.4437C55.6937 44.7916 55.8155 45.2006 55.8155 45.619C55.8155 46.1801 55.5967 46.7182 55.2071 47.115C54.8176 47.5117 54.2893 47.7346 53.7384 47.7346Z" fill="url(#paint1_linear_92_32)"/>
<path d="M46.2605 42.6573C45.6853 42.6573 45.1231 42.831 44.6449 43.1564C44.1667 43.4819 43.794 43.9444 43.5739 44.4856C43.3538 45.0268 43.2962 45.6224 43.4084 46.1969C43.5206 46.7715 43.7975 47.2992 44.2042 47.7134C44.6109 48.1276 45.1291 48.4097 45.6932 48.524C46.2573 48.6383 46.842 48.5796 47.3733 48.3555C47.9047 48.1313 48.3589 47.7517 48.6784 47.2646C48.9979 46.7775 49.1685 46.2049 49.1685 45.6191C49.1685 44.8336 48.8621 44.0802 48.3167 43.5248C47.7714 42.9693 47.0317 42.6573 46.2605 42.6573ZM46.2605 46.8884C46.014 46.8884 45.773 46.814 45.5681 46.6745C45.3631 46.535 45.2034 46.3368 45.1091 46.1049C45.0147 45.8729 44.9901 45.6177 45.0382 45.3715C45.0862 45.1252 45.2049 44.899 45.3792 44.7215C45.5535 44.544 45.7756 44.4231 46.0174 44.3741C46.2591 44.3251 46.5097 44.3503 46.7374 44.4464C46.9651 44.5424 47.1598 44.7051 47.2967 44.9139C47.4337 45.1226 47.5068 45.368 47.5068 45.6191C47.5068 45.9557 47.3755 46.2786 47.1417 46.5167C46.908 46.7547 46.591 46.8884 46.2605 46.8884ZM53.7382 42.6573C53.163 42.6573 52.6008 42.831 52.1226 43.1564C51.6444 43.4819 51.2716 43.9444 51.0515 44.4856C50.8314 45.0268 50.7738 45.6224 50.8861 46.1969C50.9983 46.7715 51.2752 47.2992 51.6819 47.7134C52.0886 48.1276 52.6067 48.4097 53.1708 48.524C53.7349 48.6383 54.3196 48.5796 54.851 48.3555C55.3824 48.1313 55.8365 47.7517 56.1561 47.2646C56.4756 46.7775 56.6461 46.2049 56.6461 45.6191C56.6461 44.8336 56.3398 44.0802 55.7944 43.5248C55.2491 42.9693 54.5094 42.6573 53.7382 42.6573ZM53.7382 46.8884C53.4917 46.8884 53.2507 46.814 53.0458 46.6745C52.8408 46.535 52.6811 46.3368 52.5867 46.1049C52.4924 45.8729 52.4677 45.6177 52.5158 45.3715C52.5639 45.1252 52.6826 44.899 52.8569 44.7215C53.0312 44.544 53.2533 44.4231 53.495 44.3741C53.7368 44.3251 53.9874 44.3503 54.2151 44.4464C54.4428 44.5424 54.6375 44.7051 54.7744 44.9139C54.9113 45.1226 54.9844 45.368 54.9844 45.6191C54.9844 45.9557 54.8531 46.2786 54.6194 46.5167C54.3857 46.7547 54.0687 46.8884 53.7382 46.8884ZM49.9993 33.3486C44.0432 33.3486 39.1982 38.0939 39.1982 43.9266C39.1982 47.5337 41.0957 50.9081 44.1834 52.8417V54.5046C44.1834 54.9535 44.3584 55.384 44.6701 55.7014C44.9817 56.0188 45.4044 56.1971 45.8451 56.1971H54.1536C54.5943 56.1971 55.017 56.0188 55.3286 55.7014C55.6402 55.384 55.8153 54.9535 55.8153 54.5046V52.8417C58.9029 50.9081 60.8004 47.5337 60.8004 43.9266C60.8004 38.0939 55.9555 33.3486 49.9993 33.3486ZM54.5815 51.6157C54.4517 51.689 54.3436 51.7963 54.2684 51.9266C54.1932 52.0568 54.1535 52.2051 54.1536 52.3562V54.5046H52.4919V51.9659C52.4919 51.7414 52.4043 51.5262 52.2485 51.3675C52.0927 51.2088 51.8814 51.1196 51.661 51.1196C51.4407 51.1196 51.2293 51.2088 51.0735 51.3675C50.9177 51.5262 50.8302 51.7414 50.8302 51.9659V54.5046H49.1685V51.9659C49.1685 51.7414 49.0809 51.5262 48.9251 51.3675C48.7693 51.2088 48.558 51.1196 48.3376 51.1196C48.1173 51.1196 47.9059 51.2088 47.7501 51.3675C47.5943 51.5262 47.5068 51.7414 47.5068 51.9659V54.5046H45.8451V52.3562C45.8451 52.2051 45.8055 52.0568 45.7302 51.9266C45.655 51.7963 45.5469 51.689 45.4172 51.6157C42.6058 50.0291 40.8599 47.0831 40.8599 43.9266C40.8599 39.0269 44.9602 35.0411 49.9993 35.0411C55.0384 35.0411 59.1387 39.0269 59.1387 43.9266C59.1387 47.082 57.3929 50.0291 54.5815 51.6157Z" fill="url(#paint2_linear_92_32)"/>
<path d="M54.4586 51.398L54.4585 51.3981C54.2895 51.4935 54.1493 51.633 54.0519 51.8015C53.9546 51.9699 53.9035 52.1614 53.9036 52.3562C53.9036 52.3562 53.9036 52.3563 53.9036 52.3563V54.2546H52.7419V51.9659C52.7419 51.6766 52.6291 51.3983 52.4269 51.1923C52.2246 50.9863 51.9492 50.8696 51.661 50.8696C51.3729 50.8696 51.0975 50.9863 50.8951 51.1923C50.693 51.3983 50.5802 51.6766 50.5802 51.9659V54.2546H49.4185V51.9659C49.4185 51.6766 49.3057 51.3983 49.1035 51.1923C48.9012 50.9863 48.6258 50.8696 48.3376 50.8696C48.0495 50.8696 47.7741 50.9863 47.5717 51.1923C47.3695 51.3983 47.2568 51.6766 47.2568 51.9659V54.2546H46.0951V52.3563C46.0951 52.3563 46.0951 52.3562 46.0951 52.3562C46.0951 52.1614 46.044 51.9699 45.9467 51.8015C45.8493 51.633 45.7091 51.4935 45.5401 51.3981L45.54 51.398C42.805 49.8544 41.1099 46.9904 41.1099 43.9266C41.1099 39.1716 45.0916 35.2911 49.9993 35.2911C54.9071 35.2911 58.8887 39.1716 58.8887 43.9266C58.8887 46.9893 57.1936 49.8544 54.4586 51.398ZM46.2605 42.4073C45.6349 42.4073 45.0237 42.5962 44.5042 42.9497C43.9849 43.3032 43.5807 43.8051 43.3423 44.3915C43.1038 44.9778 43.0415 45.6227 43.163 46.2448C43.2845 46.867 43.5845 47.4391 44.0258 47.8886C44.4672 48.3381 45.0301 48.6447 45.6435 48.769C46.257 48.8933 46.8929 48.8295 47.4705 48.5858C48.0481 48.3421 48.541 47.9298 48.8874 47.4017C49.2338 46.8737 49.4185 46.2533 49.4185 45.6191C49.4185 44.7687 49.0868 43.9523 48.4951 43.3496C47.9033 42.7468 47.0995 42.4073 46.2605 42.4073ZM46.2605 46.6384C46.0645 46.6384 45.8725 46.5793 45.7087 46.4678C45.545 46.3564 45.4166 46.1975 45.3407 46.0107C45.2647 45.8238 45.2447 45.618 45.2835 45.4194C45.3223 45.2208 45.4179 45.0389 45.5576 44.8967C45.6973 44.7544 45.8746 44.6581 46.067 44.6191C46.2593 44.5802 46.4588 44.6001 46.6402 44.6767C46.8218 44.7533 46.9777 44.8833 47.0877 45.051C47.1978 45.2188 47.2568 45.4165 47.2568 45.6191C47.2568 45.8909 47.1507 46.1507 46.9633 46.3415C46.7761 46.5322 46.5232 46.6384 46.2605 46.6384ZM53.7382 42.4073C53.1125 42.4073 52.5014 42.5962 51.9819 42.9497C51.4625 43.3032 51.0584 43.8051 50.82 44.3915C50.5815 44.9778 50.5192 45.6227 50.6407 46.2448C50.7622 46.867 51.0622 47.4391 51.5035 47.8886C51.9449 48.3381 52.5077 48.6447 53.1212 48.769C53.7347 48.8933 54.3706 48.8295 54.9482 48.5858C55.5257 48.3421 56.0186 47.9298 56.3651 47.4017C56.7115 46.8737 56.8961 46.2533 56.8961 45.6191C56.8961 44.7687 56.5645 43.9523 55.9728 43.3496C55.3809 42.7468 54.5772 42.4073 53.7382 42.4073ZM53.7382 46.6384C53.5421 46.6384 53.3501 46.5793 53.1864 46.4678C53.0226 46.3564 52.8943 46.1975 52.8183 46.0107C52.7423 45.8238 52.7224 45.618 52.7612 45.4194C52.8 45.2208 52.8956 45.0389 53.0353 44.8967C53.1749 44.7544 53.3523 44.6581 53.5447 44.6191C53.737 44.5802 53.9364 44.6001 54.1179 44.6767C54.2994 44.7533 54.4553 44.8833 54.5654 45.051C54.6754 45.2188 54.7344 45.4165 54.7344 45.6191C54.7344 45.8909 54.6284 46.1507 54.441 46.3415C54.2538 46.5322 54.0009 46.6384 53.7382 46.6384ZM49.9993 33.0986C43.91 33.0986 38.9482 37.951 38.9482 43.9266C38.9482 47.5757 40.8436 50.9893 43.9334 52.9791V54.5046C43.9334 55.0183 44.1337 55.5119 44.4917 55.8765C44.8498 56.2413 45.3366 56.4471 45.8451 56.4471H54.1536C54.6621 56.4471 55.1488 56.2413 55.507 55.8765C55.865 55.5119 56.0653 55.0183 56.0653 54.5046V52.9791C59.1551 50.9893 61.0504 47.5757 61.0504 43.9266C61.0504 37.951 56.0886 33.0986 49.9993 33.0986Z" stroke="white" stroke-opacity="0.14" stroke-width="0.5"/>
<defs>
<linearGradient id="paint0_linear_92_32" x1="15.2844" y1="102.468" x2="57.6366" y2="-31.243" gradientUnits="userSpaceOnUse">
<stop stop-color="#D85700"/>
<stop offset="0.125" stop-color="#FF5C00"/>
<stop offset="0.25" stop-color="#FFCF26"/>
<stop offset="0.375" stop-color="#40FF00"/>
<stop offset="0.5" stop-color="#00CCFF"/>
<stop offset="0.625" stop-color="#4800FF"/>
<stop offset="0.75" stop-color="#A600FF"/>
<stop offset="0.875" stop-color="#FF0084"/>
</linearGradient>
<linearGradient id="paint1_linear_92_32" x1="43.0771" y1="58.4091" x2="54.5158" y2="27.9355" gradientUnits="userSpaceOnUse">
<stop stop-color="#D85700"/>
<stop offset="0.125" stop-color="#FF5C00"/>
<stop offset="0.25" stop-color="#FFCF26"/>
<stop offset="0.375" stop-color="#40FF00"/>
<stop offset="0.5" stop-color="#00CCFF"/>
<stop offset="0.625" stop-color="#4800FF"/>
<stop offset="0.75" stop-color="#A600FF"/>
<stop offset="0.875" stop-color="#FF0084"/>
</linearGradient>
<linearGradient id="paint2_linear_92_32" x1="40.5" y1="33" x2="55.7934" y2="47.5972" gradientUnits="userSpaceOnUse">
<stop stop-color="#FF5C00"/>
<stop offset="0.166667" stop-color="#FFCF26"/>
<stop offset="0.333333" stop-color="#40FF00"/>
<stop offset="0.5" stop-color="#00CCFF"/>
<stop offset="0.666667" stop-color="#3329FD"/>
<stop offset="0.833333" stop-color="#A600FF"/>
<stop offset="1" stop-color="#FF0084"/>
</linearGradient>
</defs>
</svg>
