<svg width="100" height="90" viewBox="0 0 100 90" fill="none" xmlns="http://www.w3.org/2000/svg">
<path d="M78.8007 27.8999L78.7552 28.119L78.968 28.1883C85.6165 30.3547 90.7511 32.8899 94.2542 35.6223C97.76 38.3568 99.602 41.2637 99.7414 44.1738C99.8806 47.0789 98.3262 50.0689 94.8528 52.9807C91.3795 55.8925 86.0149 58.7005 78.6122 61.232L78.4004 61.3044L78.4491 61.5229C80.0002 68.4802 80.4052 74.2819 79.7957 78.7476C79.1858 83.2165 77.5664 86.3104 75.1054 87.9163C72.6492 89.519 69.2871 89.6829 65.0896 88.1408C60.8915 86.5986 55.892 83.3604 50.2093 78.2196L50.0431 78.0693L49.8756 78.218C44.0164 83.4185 38.9137 86.6754 34.66 88.2168C30.4066 89.758 27.0374 89.5733 24.5959 87.953C22.1492 86.3293 20.5654 83.2191 19.9884 78.756C19.4118 74.2966 19.8467 68.5246 21.3989 61.6419L21.4497 61.4166L21.2291 61.3481C14.4473 59.243 9.25962 56.6389 5.73918 53.7911C2.21725 50.9422 0.387558 47.8702 0.257482 44.8255C0.127604 41.7854 1.68946 38.7002 5.1096 35.8146C8.5309 32.928 13.791 30.2611 20.9928 28.0712L21.2115 28.0047L21.1648 27.7809C19.6027 20.3069 19.354 14.3389 20.1679 9.89684C20.9818 5.45512 22.8505 2.57132 25.4974 1.19831C28.1475 -0.176348 31.6462 -0.0725235 35.7977 1.6151C39.9472 3.3019 44.7163 6.55935 49.8698 11.4324L50.0404 11.5938L50.2121 11.4336C55.689 6.32302 60.5863 3.05946 64.7519 1.46901C68.9173 -0.121332 72.319 -0.0286376 74.8494 1.51554C77.3829 3.06172 79.1094 6.1033 79.8316 10.5581C80.5534 15.0106 80.2649 20.8404 78.8007 27.8999ZM74.9976 27.1286L75.2391 27.1836L75.2963 26.9426C76.7467 20.8323 77.1898 15.8958 76.7511 12.1934C76.3128 8.49541 74.9869 5.97962 72.8496 4.79876C70.7139 3.61877 67.8553 3.82035 64.4657 5.34987C61.0712 6.88158 57.098 9.76384 52.6859 14.0324L52.5054 14.207L52.6809 14.3867C55.8994 17.6824 58.7011 21.226 61.1073 24.7747L61.1736 24.8725L61.2914 24.8833C65.859 25.3027 70.3517 26.0715 74.9976 27.1286ZM29.8365 49.8744L29.5914 49.3467L29.3773 49.8876C28.2276 52.7915 27.1302 55.7163 26.086 58.6605L25.9875 58.9383L26.2777 58.9902C29.4987 59.5653 32.526 60.0055 35.3378 60.2957L35.8339 60.3469L35.578 59.9187C35.1715 59.2384 34.7348 58.5296 34.2821 57.7947C32.8077 55.4012 31.1634 52.7319 29.8365 49.8744ZM29.1435 39.8895L29.3477 40.3841L29.596 39.9101C31.4886 36.2968 33.4793 32.825 35.5746 29.505L35.8401 29.0844L35.3442 29.1223C32.5054 29.339 29.2372 29.9726 25.9181 30.6666L25.641 30.7245L25.7328 30.9923C26.6902 33.7862 27.8612 36.7852 29.1435 39.8895ZM31.6163 44.8943L31.5607 45.0068L31.6175 45.1186C34.3925 50.5738 37.3769 55.746 40.5549 60.6566L40.6233 60.7623L40.749 60.7703C47.0181 61.1664 53.1938 61.2301 59.2196 60.77L59.3442 60.7605L59.4113 60.6552C63.0133 55.0072 66.1437 49.7127 68.3502 45.1134L68.4026 45.0041L68.3493 44.8952C65.4063 38.8936 62.3405 33.3748 59.0519 28.7529L58.9838 28.6572L58.8667 28.6485C53.0112 28.2132 47.0882 28.1825 41.1025 28.5298L40.9799 28.5369L40.9106 28.6382C37.534 33.5714 34.4907 39.0884 31.6163 44.8943ZM70.5873 49.8851L70.385 49.3899L70.1348 49.8627C68.3013 53.3288 66.3976 56.6588 64.3913 59.7938L64.1106 60.2326L64.6285 60.1772C67.6338 59.8556 70.6209 59.3798 73.5783 58.7518L73.8531 58.6934L73.7632 58.4273C72.7851 55.5304 71.7296 52.6811 70.5873 49.8851ZM64.6361 29.1241L64.1032 29.0506L64.3906 29.5053C66.488 32.8247 68.4356 36.2973 70.2498 39.9064L70.4867 40.3775L70.7015 39.896C71.9824 37.0254 73.1219 34.0927 74.1157 31.1087L74.2032 30.8459L73.9328 30.7857C70.9439 30.12 67.8442 29.5669 64.6361 29.1241ZM55.5506 24.41L56.0738 24.4307L55.761 24.0109C53.9578 21.5902 52.0855 19.2745 50.1083 17.1218L49.9167 16.9132L49.7335 17.1292C47.7091 19.5159 45.8626 21.8114 44.2054 24.0097L43.8889 24.4295L44.4143 24.41C48.1864 24.2702 51.9003 24.2655 55.5506 24.41ZM47.2847 14.3861L47.4602 14.2064L47.2796 14.0318C42.8682 9.76375 38.9052 6.85145 35.5219 5.27976C32.1443 3.71068 29.2963 3.4573 27.1612 4.59833C25.0236 5.74069 23.691 8.23181 23.2291 11.9351C22.7666 15.6431 23.1684 20.618 24.5512 26.8201L24.6059 27.0652L24.8507 27.0095C29.4958 25.9527 34.1059 25.1838 38.6742 24.7643L38.7919 24.7535L38.8582 24.6557C41.263 21.1094 44.0643 17.6838 47.2847 14.3861ZM22.1393 57.9175L22.3766 57.9895L22.4505 57.7528C23.7233 53.6769 25.3821 49.2139 27.2559 44.8677L27.2999 44.7655L27.2535 44.6644C25.3257 40.4636 23.622 36.0887 22.2145 31.7814L22.139 31.5503L21.9059 31.6194C16.128 33.3311 11.702 35.3447 8.7003 37.5288C5.703 39.7096 4.08681 42.0907 4.02527 44.5403C3.96365 46.9931 5.46261 49.4158 8.46227 51.6731C11.465 53.9327 16.0095 56.0578 22.1393 57.9175ZM25.3248 62.41L25.0839 62.3504L25.0225 62.5909C23.4989 68.5621 22.9769 73.4544 23.343 77.1645C23.7085 80.8692 24.9663 83.4445 27.0545 84.6966C29.1443 85.9496 31.9792 85.8258 35.3759 84.3364C38.7766 82.8452 42.7871 79.967 47.2798 75.6236L47.4592 75.4502L47.2861 75.2705C44.2496 72.1172 41.3879 68.461 38.6211 64.5225L38.5559 64.4297L38.4432 64.4176C33.835 63.9231 29.4548 63.4318 25.3248 62.41ZM49.7436 72.6561L49.9245 72.845L50.105 72.6558C52.3346 70.3199 54.384 67.8157 56.2352 65.1649L56.5186 64.7591L56.0238 64.7718C52.1761 64.8706 48.1307 64.8608 43.9408 64.7718L43.4524 64.7614L43.7297 65.1636C45.6162 67.9005 47.6079 70.4256 49.7436 72.6561ZM52.6751 75.2756L52.5109 75.4554L52.6864 75.6243C56.9066 79.6835 60.7826 82.5064 64.1335 84.0526C67.478 85.5958 70.346 85.8871 72.5072 84.7957C74.6753 83.7009 76.0425 81.2614 76.4919 77.5581C76.9417 73.8518 76.4807 68.8298 74.9437 62.4759L74.8856 62.2356L74.6447 62.291C70.2158 63.3099 65.8444 63.9785 61.5307 64.2987L61.4113 64.3075L61.3433 64.4061C58.8148 68.0746 55.9385 71.6993 52.6751 75.2756ZM77.3974 57.5155L77.4711 57.7549L77.7104 57.6806C83.8588 55.7718 88.3786 53.6467 91.342 51.4144C94.3022 49.1844 95.7496 46.8143 95.6466 44.4178C95.5439 42.0272 93.9017 39.7119 90.9262 37.5799C87.9452 35.4439 83.5842 33.4602 77.9441 31.7387L77.7085 31.6668L77.6331 31.9013C76.2346 36.2471 74.5915 40.509 72.7116 44.6661L72.6665 44.766L72.7094 44.8669C74.5575 49.2144 76.1426 53.4406 77.3974 57.5155Z" fill="url(#paint0_linear_93_74)" stroke="#282828" stroke-width="0.5"/>
<path opacity="0.2" d="M49.9995 32.7027C50.3766 32.5899 50.7601 32.4938 51.149 32.415C53.7258 31.8929 56.3946 32.1628 58.809 33.1814C61.2212 34.199 63.2502 35.9083 64.6629 38.0617C65.7601 39.7342 66.4524 41.6226 66.7062 43.5784C66.7788 44.1382 66.8155 44.7035 66.8155 45.2709C66.8155 47.6484 66.1707 49.9773 64.9586 52.008H65.9846V54.1564C65.9846 55.3117 65.8158 56.4548 65.4886 57.5504M49.9995 32.7027L49.9998 57.8391C51.2034 58.1993 52.4619 58.3865 53.7384 58.3865C53.8771 58.3865 54.0156 58.3843 54.1538 58.3799C55.402 58.3402 56.6231 58.1222 57.7848 57.743C57.9081 57.7027 58.0307 57.6607 58.1526 57.6168L58.7704 58.7106L60.3944 61.5858C60.6688 61.4309 60.9396 61.2697 61.2065 61.1025C62.7816 60.116 64.2239 58.92 65.4886 57.5504M49.9995 32.7027C49.9995 32.7027 49.9995 32.7027 49.9995 32.7027L49.9995 32.7027ZM65.4886 57.5504C68.8602 53.8991 70.9698 49.0143 70.9698 43.5784C70.9698 31.8777 61.325 22.8467 49.9995 22.8467C38.674 22.8467 29.0293 31.8777 29.0293 43.5784C29.0293 49.0143 31.1388 53.8992 34.5105 57.5504M65.4886 57.5504C64.9443 59.3732 63.962 61.0644 62.5905 62.4613C60.388 64.7046 57.3573 66.0026 54.1538 66.0026H45.8453C42.6417 66.0026 39.6111 64.7046 37.4086 62.4613C36.0371 61.0644 35.0548 59.3732 34.5105 57.5504M34.5105 57.5504C34.1833 56.4548 34.0144 55.3117 34.0144 54.1564V52.008H35.0407L41.8465 57.6167L41.2287 58.7106L39.6047 61.5858C39.3303 61.4309 39.0595 61.2697 38.7925 61.1025C37.2174 60.116 35.7752 58.92 34.5105 57.5504ZM42.4271 37.2484C41.7503 38.019 41.1948 38.894 40.7895 39.8453C40.7787 39.8707 40.768 39.8961 40.7574 39.9216C40.2879 41.0506 40.0293 42.285 40.0293 43.5784C40.0293 43.7336 40.033 43.8879 40.0404 44.0412C40.0604 44.4585 40.1074 44.869 40.1796 45.2709C40.3146 46.0223 40.538 46.744 40.8389 47.4255C40.843 47.4503 40.8472 47.4751 40.8515 47.4999C40.916 47.8754 40.997 48.2484 41.0942 48.6179C41.2374 49.1622 41.416 49.6989 41.6298 50.2244C41.7877 50.6128 41.9639 50.9928 42.1577 51.3633C42.2719 51.5816 42.3921 51.7966 42.5183 52.008L42.4271 37.2484Z" fill="url(#paint1_linear_93_74)" stroke="#282828" stroke-width="22"/>
<path d="M54.4586 51.0494L54.4585 51.0494C54.2895 51.1449 54.1493 51.2843 54.0519 51.4528C53.9546 51.6213 53.9035 51.8128 53.9036 52.0076C53.9036 52.0076 53.9036 52.0077 53.9036 52.0077V53.906H52.7419V51.6172C52.7419 51.328 52.6291 51.0496 52.4269 50.8437C52.2246 50.6376 51.9492 50.521 51.661 50.521C51.3729 50.521 51.0975 50.6376 50.8951 50.8437C50.693 51.0496 50.5802 51.328 50.5802 51.6172V53.906H49.4185V51.6172C49.4185 51.328 49.3057 51.0496 49.1035 50.8437C48.9012 50.6376 48.6258 50.521 48.3376 50.521C48.0495 50.521 47.7741 50.6376 47.5717 50.8437C47.3695 51.0496 47.2568 51.328 47.2568 51.6172V53.906H46.0951V52.0077C46.0951 52.0077 46.0951 52.0076 46.0951 52.0076C46.0951 51.8128 46.044 51.6213 45.9467 51.4528C45.8493 51.2843 45.7091 51.1449 45.5401 51.0494L45.54 51.0494C42.805 49.5058 41.1099 46.6418 41.1099 43.578C41.1099 38.8229 45.0916 34.9425 49.9993 34.9425C54.9071 34.9425 58.8887 38.8229 58.8887 43.578C58.8887 46.6407 57.1936 49.5058 54.4586 51.0494ZM46.2605 42.0586C45.6349 42.0586 45.0237 42.2476 44.5042 42.6011C43.9849 42.9546 43.5807 43.4565 43.3423 44.0428C43.1038 44.6292 43.0415 45.2741 43.163 45.8962C43.2845 46.5184 43.5845 47.0905 44.0258 47.5399C44.4672 47.9895 45.0301 48.2961 45.6435 48.4204C46.257 48.5447 46.8929 48.4809 47.4705 48.2372C48.0481 47.9935 48.541 47.5812 48.8874 47.0531C49.2338 46.525 49.4185 45.9047 49.4185 45.2705C49.4185 44.4201 49.0869 43.6037 48.4951 43.001C47.9033 42.3981 47.0995 42.0586 46.2605 42.0586ZM46.2605 46.2898C46.0645 46.2898 45.8725 46.2306 45.7087 46.1192C45.545 46.0077 45.4166 45.8488 45.3407 45.662C45.2647 45.4752 45.2447 45.2694 45.2835 45.0707C45.3223 44.8721 45.4179 44.6903 45.5576 44.548C45.6973 44.4058 45.8746 44.3095 46.067 44.2705C46.2593 44.2315 46.4588 44.2515 46.6402 44.3281C46.8218 44.4046 46.9777 44.5347 47.0877 44.7024C47.1978 44.8701 47.2568 45.0678 47.2568 45.2705C47.2568 45.5423 47.1507 45.8021 46.9633 45.9929C46.7761 46.1836 46.5232 46.2898 46.2605 46.2898ZM53.7382 42.0586C53.1125 42.0586 52.5014 42.2476 51.9819 42.6011C51.4625 42.9546 51.0584 43.4565 50.82 44.0428C50.5815 44.6292 50.5192 45.2741 50.6407 45.8962C50.7622 46.5184 51.0622 47.0905 51.5035 47.5399C51.9449 47.9895 52.5077 48.2961 53.1212 48.4204C53.7347 48.5447 54.3706 48.4809 54.9482 48.2372C55.5257 47.9935 56.0186 47.5812 56.3651 47.0531C56.7115 46.525 56.8961 45.9047 56.8961 45.2705C56.8961 44.4201 56.5645 43.6037 55.9728 43.001C55.3809 42.3981 54.5772 42.0586 53.7382 42.0586ZM53.7382 46.2898C53.5421 46.2898 53.3501 46.2306 53.1864 46.1192C53.0226 46.0077 52.8943 45.8488 52.8183 45.662C52.7423 45.4752 52.7224 45.2694 52.7612 45.0707C52.8 44.8721 52.8956 44.6903 53.0353 44.548C53.1749 44.4058 53.3523 44.3095 53.5447 44.2705C53.737 44.2315 53.9364 44.2515 54.1179 44.3281C54.2994 44.4046 54.4553 44.5347 54.5654 44.7024C54.6754 44.8701 54.7344 45.0678 54.7344 45.2705C54.7344 45.5423 54.6284 45.8021 54.441 45.9929C54.2538 46.1836 54.0009 46.2898 53.7382 46.2898ZM49.9993 32.75C43.91 32.75 38.9482 37.6023 38.9482 43.578C38.9482 47.2271 40.8436 50.6407 43.9334 52.6305V54.156C43.9334 54.6697 44.1337 55.1632 44.4917 55.5279C44.8498 55.8926 45.3365 56.0984 45.8451 56.0984H54.1536C54.6621 56.0984 55.1488 55.8926 55.507 55.5279C55.865 55.1632 56.0653 54.6697 56.0653 54.156V52.6305C59.1551 50.6407 61.0504 47.2271 61.0504 43.578C61.0504 37.6023 56.0886 32.75 49.9993 32.75Z" fill="url(#paint2_linear_93_74)" stroke="#292929" stroke-width="0.5"/>
<defs>
<linearGradient id="paint0_linear_93_74" x1="0" y1="44.7632" x2="100" y2="44.7632" gradientUnits="userSpaceOnUse">
<stop stop-color="#434343"/>
<stop offset="1"/>
</linearGradient>
<linearGradient id="paint1_linear_93_74" x1="40.0293" y1="44.4247" x2="59.9698" y2="44.4247" gradientUnits="userSpaceOnUse">
<stop stop-color="#434343"/>
<stop offset="1"/>
</linearGradient>
<linearGradient id="paint2_linear_93_74" x1="39.1982" y1="44.4242" x2="60.8004" y2="44.4242" gradientUnits="userSpaceOnUse">
<stop stop-color="#434343"/>
<stop offset="1"/>
</linearGradient>
</defs>
</svg>
