<svg width="100" height="90" viewBox="0 0 100 90" fill="none" xmlns="http://www.w3.org/2000/svg">
<path d="M79.0455 27.9506C84.9166 -0.355879 72 -9.23888 50.0416 11.2508C29.3748 -8.29132 14.6575 -2.13259 20.9201 27.832C-7.95887 36.6134 -6.04559 53.1434 21.155 61.5869C14.9316 89.1828 26.5566 99.25 50.0416 78.4049C72.8218 99.013 84.9121 89.3643 78.6931 61.4685C108.362 51.3224 105.701 36.636 79.0455 27.9506ZM75.0531 26.8849C70.3986 25.8258 65.8949 25.055 61.3142 24.6344C58.9009 21.0752 56.09 17.5198 52.8597 14.2121C70.4648 -2.82032 80.8408 2.50157 75.0531 26.8849ZM29.6097 49.9796C31.3513 53.7303 33.6412 57.1649 35.3634 60.047C32.5589 59.7576 29.5378 59.3183 26.3216 58.744C27.3648 55.8027 28.4611 52.8807 29.6097 49.9796ZM29.3746 39.7941C28.0933 36.6922 26.9243 33.6984 25.9693 30.9113C29.2892 30.2171 32.5427 29.5869 35.3632 29.3716C33.264 32.6977 31.2701 36.1753 29.3746 39.7941ZM31.8404 45.0053C34.7119 39.2051 37.7494 33.6994 41.1169 28.7794C47.0923 28.4327 53.0043 28.4634 58.8482 28.8978C62.1258 33.5042 65.1847 39.0097 68.1248 45.0053C65.9248 49.591 62.8007 54.8756 59.2006 60.5208C53.1892 60.9798 47.0255 60.9163 40.7648 60.5208C37.5915 55.6175 34.6115 50.4528 31.8404 45.0053ZM70.3558 49.9796C71.4961 52.7705 72.5498 55.6149 73.5263 58.5073C70.5774 59.1335 67.5987 59.6079 64.6019 59.9286C66.6127 56.7865 68.5199 53.4503 70.3558 49.9796ZM64.6019 29.3718C67.8037 29.8136 70.8967 30.3656 73.8785 31.0297C72.8873 34.006 71.7508 36.931 70.4732 39.7941C68.6556 36.1784 66.7041 32.6987 64.6019 29.3718ZM55.5605 24.1602C51.9033 24.0154 48.183 24.0201 44.405 24.1602C46.0589 21.9663 47.9023 19.6746 49.9242 17.2909C51.8943 19.4358 53.7611 21.7446 55.5605 24.1602ZM47.1058 14.2115C43.8755 17.5192 41.0648 20.9562 38.6513 24.5154C34.0706 24.936 29.4495 25.7068 24.7952 26.7657C19.2761 2.01222 29.5009 -2.8211 47.1058 14.2115ZM22.2118 57.6783C-2.25164 50.2562 -1.07742 38.6889 21.9769 31.8591C23.3872 36.1753 25.0945 40.559 27.0263 44.7687C25.1494 49.1223 23.4874 53.5936 22.2118 57.6783ZM25.2648 62.6527C29.4138 63.6792 33.8107 64.1719 38.4165 64.6662C41.1876 68.6108 44.0576 72.2781 47.106 75.4439C29.1791 92.7753 19.1855 86.4783 25.2648 62.6527ZM49.9242 72.4832C47.7998 70.2644 45.8164 67.7504 43.9355 65.0218C48.1283 65.1108 52.1777 65.1206 56.0302 65.0218C54.1863 67.6621 52.145 70.1565 49.9242 72.4832ZM52.8597 75.4441C56.1306 71.8597 59.014 68.2261 61.5492 64.548C65.8761 64.2269 70.2601 63.5563 74.7008 62.5347C80.8351 87.8947 69.6968 91.6392 52.8597 75.4441ZM77.6363 57.4419C76.3785 53.3572 74.7902 49.1227 72.9394 44.7691C74.8232 40.6034 76.4697 36.3327 77.8711 31.9778C100.378 38.8471 102.178 49.8224 77.6363 57.4419Z" fill="url(#paint0_linear_93_68)"/>
<path opacity="0.2" d="M49.9995 34.1953C44.4951 34.1953 40.0293 38.5524 40.0293 43.9271C40.0293 47.5289 42.0348 50.6737 45.0144 52.3566V54.505C45.0144 54.7295 45.1019 54.9447 45.2578 55.1034C45.4136 55.2621 45.6249 55.3513 45.8453 55.3513H54.1538C54.3742 55.3513 54.5855 55.2621 54.7413 55.1034C54.8971 54.9447 54.9846 54.7295 54.9846 54.505V52.3566C57.9643 50.6737 59.9698 47.5289 59.9698 43.9271C59.9698 38.5524 55.5039 34.1953 49.9995 34.1953ZM46.2607 47.7351C45.8499 47.7351 45.4483 47.611 45.1067 47.3786C44.7651 47.1461 44.4989 46.8157 44.3417 46.4291C44.1845 46.0426 44.1433 45.6172 44.2235 45.2068C44.3036 44.7964 44.5014 44.4194 44.7919 44.1236C45.0824 43.8277 45.4525 43.6262 45.8555 43.5446C46.2584 43.463 46.676 43.5048 47.0556 43.665C47.4351 43.8251 47.7595 44.0963 47.9878 44.4442C48.216 44.7921 48.3378 45.2011 48.3378 45.6195C48.3378 46.1806 48.119 46.7187 47.7294 47.1155C47.3399 47.5122 46.8116 47.7351 46.2607 47.7351ZM53.7384 47.7351C53.3276 47.7351 52.926 47.611 52.5844 47.3786C52.2428 47.1461 51.9766 46.8157 51.8193 46.4291C51.6621 46.0426 51.621 45.6172 51.7011 45.2068C51.7813 44.7964 51.9791 44.4194 52.2696 44.1236C52.5601 43.8277 52.9302 43.6262 53.3331 43.5446C53.7361 43.463 54.1537 43.5048 54.5333 43.665C54.9128 43.8251 55.2372 44.0963 55.4654 44.4442C55.6937 44.7921 55.8155 45.2011 55.8155 45.6195C55.8155 46.1806 55.5967 46.7187 55.2071 47.1155C54.8176 47.5122 54.2893 47.7351 53.7384 47.7351Z" fill="url(#paint1_linear_93_68)"/>
<path d="M46.2605 42.6573C45.6853 42.6573 45.1231 42.831 44.6449 43.1564C44.1667 43.4819 43.794 43.9444 43.5739 44.4856C43.3538 45.0268 43.2962 45.6224 43.4084 46.1969C43.5206 46.7715 43.7975 47.2992 44.2042 47.7134C44.6109 48.1276 45.1291 48.4097 45.6932 48.524C46.2573 48.6383 46.842 48.5796 47.3733 48.3555C47.9047 48.1313 48.3589 47.7517 48.6784 47.2646C48.9979 46.7775 49.1685 46.2049 49.1685 45.6191C49.1685 44.8336 48.8621 44.0802 48.3167 43.5248C47.7714 42.9693 47.0317 42.6573 46.2605 42.6573ZM46.2605 46.8884C46.014 46.8884 45.773 46.814 45.5681 46.6745C45.3631 46.535 45.2034 46.3368 45.1091 46.1049C45.0147 45.8729 44.9901 45.6177 45.0382 45.3715C45.0862 45.1252 45.2049 44.899 45.3792 44.7215C45.5535 44.544 45.7756 44.4231 46.0174 44.3741C46.2591 44.3251 46.5097 44.3503 46.7374 44.4464C46.9651 44.5424 47.1598 44.7051 47.2967 44.9139C47.4337 45.1226 47.5068 45.368 47.5068 45.6191C47.5068 45.9557 47.3755 46.2786 47.1417 46.5167C46.908 46.7547 46.591 46.8884 46.2605 46.8884ZM53.7382 42.6573C53.163 42.6573 52.6008 42.831 52.1226 43.1564C51.6444 43.4819 51.2716 43.9444 51.0515 44.4856C50.8314 45.0268 50.7738 45.6224 50.8861 46.1969C50.9983 46.7715 51.2752 47.2992 51.6819 47.7134C52.0886 48.1276 52.6067 48.4097 53.1708 48.524C53.7349 48.6383 54.3196 48.5796 54.851 48.3555C55.3824 48.1313 55.8365 47.7517 56.1561 47.2646C56.4756 46.7775 56.6461 46.2049 56.6461 45.6191C56.6461 44.8336 56.3398 44.0802 55.7944 43.5248C55.2491 42.9693 54.5094 42.6573 53.7382 42.6573ZM53.7382 46.8884C53.4917 46.8884 53.2507 46.814 53.0458 46.6745C52.8408 46.535 52.6811 46.3368 52.5867 46.1049C52.4924 45.8729 52.4677 45.6177 52.5158 45.3715C52.5639 45.1252 52.6826 44.899 52.8569 44.7215C53.0312 44.544 53.2533 44.4231 53.495 44.3741C53.7368 44.3251 53.9874 44.3503 54.2151 44.4464C54.4428 44.5424 54.6375 44.7051 54.7744 44.9139C54.9113 45.1226 54.9844 45.368 54.9844 45.6191C54.9844 45.9557 54.8531 46.2786 54.6194 46.5167C54.3857 46.7547 54.0687 46.8884 53.7382 46.8884ZM49.9993 33.3486C44.0432 33.3486 39.1982 38.0939 39.1982 43.9266C39.1982 47.5337 41.0957 50.9081 44.1834 52.8417V54.5046C44.1834 54.9535 44.3584 55.384 44.6701 55.7014C44.9817 56.0188 45.4044 56.1971 45.8451 56.1971H54.1536C54.5943 56.1971 55.017 56.0188 55.3286 55.7014C55.6402 55.384 55.8153 54.9535 55.8153 54.5046V52.8417C58.9029 50.9081 60.8004 47.5337 60.8004 43.9266C60.8004 38.0939 55.9555 33.3486 49.9993 33.3486ZM54.5815 51.6157C54.4517 51.689 54.3436 51.7963 54.2684 51.9266C54.1932 52.0568 54.1535 52.2051 54.1536 52.3562V54.5046H52.4919V51.9659C52.4919 51.7414 52.4043 51.5262 52.2485 51.3675C52.0927 51.2088 51.8814 51.1196 51.661 51.1196C51.4407 51.1196 51.2293 51.2088 51.0735 51.3675C50.9177 51.5262 50.8302 51.7414 50.8302 51.9659V54.5046H49.1685V51.9659C49.1685 51.7414 49.0809 51.5262 48.9251 51.3675C48.7693 51.2088 48.558 51.1196 48.3376 51.1196C48.1173 51.1196 47.9059 51.2088 47.7501 51.3675C47.5943 51.5262 47.5068 51.7414 47.5068 51.9659V54.5046H45.8451V52.3562C45.8451 52.2051 45.8055 52.0568 45.7302 51.9266C45.655 51.7963 45.5469 51.689 45.4172 51.6157C42.6058 50.0291 40.8599 47.0831 40.8599 43.9266C40.8599 39.0269 44.9602 35.0411 49.9993 35.0411C55.0384 35.0411 59.1387 39.0269 59.1387 43.9266C59.1387 47.082 57.3929 50.0291 54.5815 51.6157Z" fill="url(#paint2_linear_93_68)"/>
<defs>
<linearGradient id="paint0_linear_93_68" x1="0" y1="44.7632" x2="100" y2="44.7632" gradientUnits="userSpaceOnUse">
<stop stop-color="#E52D27"/>
<stop offset="1" stop-color="#B31217"/>
</linearGradient>
<linearGradient id="paint1_linear_93_68" x1="42.6155" y1="37.5762" x2="53.2767" y2="53.7498" gradientUnits="userSpaceOnUse">
<stop stop-color="#D72623"/>
<stop offset="1" stop-color="#BE191B"/>
</linearGradient>
<linearGradient id="paint2_linear_93_68" x1="39.1982" y1="44.7729" x2="60.8004" y2="44.7729" gradientUnits="userSpaceOnUse">
<stop stop-color="#E52D27"/>
<stop offset="1" stop-color="#B31217"/>
</linearGradient>
</defs>
</svg>
