<svg width="100" height="90" viewBox="0 0 100 90" fill="none" xmlns="http://www.w3.org/2000/svg">
<path d="M79.0455 27.9506C84.9166 -0.355879 72 -9.23888 50.0416 11.2508C29.3748 -8.29132 14.6575 -2.13259 20.9201 27.832C-7.95887 36.6134 -6.04559 53.1434 21.155 61.5869C14.9316 89.1828 26.5566 99.25 50.0416 78.4049C72.8218 99.013 84.9121 89.3643 78.6931 61.4685C108.362 51.3224 105.701 36.636 79.0455 27.9506ZM75.0531 26.8849C70.3986 25.8258 65.8949 25.055 61.3142 24.6344C58.9009 21.0752 56.09 17.5198 52.8597 14.2121C70.4648 -2.82032 80.8408 2.50157 75.0531 26.8849ZM29.6097 49.9796C31.3513 53.7303 33.6412 57.1649 35.3634 60.047C32.5589 59.7576 29.5378 59.3183 26.3216 58.744C27.3648 55.8027 28.4611 52.8807 29.6097 49.9796ZM29.3746 39.7941C28.0933 36.6922 26.9243 33.6984 25.9693 30.9113C29.2892 30.2171 32.5427 29.5869 35.3632 29.3716C33.264 32.6977 31.2701 36.1753 29.3746 39.7941ZM31.8404 45.0053C34.7119 39.2051 37.7494 33.6994 41.1169 28.7794C47.0923 28.4327 53.0043 28.4634 58.8482 28.8978C62.1258 33.5042 65.1847 39.0097 68.1248 45.0053C65.9248 49.591 62.8007 54.8756 59.2006 60.5208C53.1892 60.9798 47.0255 60.9163 40.7648 60.5208C37.5915 55.6175 34.6115 50.4528 31.8404 45.0053ZM70.3558 49.9796C71.4961 52.7705 72.5498 55.6149 73.5263 58.5073C70.5774 59.1335 67.5987 59.6079 64.6019 59.9286C66.6127 56.7865 68.5199 53.4503 70.3558 49.9796ZM64.6019 29.3718C67.8037 29.8136 70.8967 30.3656 73.8785 31.0297C72.8873 34.006 71.7508 36.931 70.4732 39.7941C68.6556 36.1784 66.7041 32.6987 64.6019 29.3718ZM55.5605 24.1602C51.9033 24.0154 48.183 24.0201 44.405 24.1602C46.0589 21.9663 47.9023 19.6746 49.9242 17.2909C51.8943 19.4358 53.7611 21.7446 55.5605 24.1602ZM47.1058 14.2115C43.8755 17.5192 41.0648 20.9562 38.6513 24.5154C34.0706 24.936 29.4495 25.7068 24.7952 26.7657C19.2761 2.01222 29.5009 -2.8211 47.1058 14.2115ZM22.2118 57.6783C-2.25164 50.2562 -1.07742 38.6889 21.9769 31.8591C23.3872 36.1753 25.0945 40.559 27.0263 44.7687C25.1494 49.1223 23.4874 53.5936 22.2118 57.6783ZM25.2648 62.6527C29.4138 63.6792 33.8107 64.1719 38.4165 64.6662C41.1876 68.6108 44.0576 72.2781 47.106 75.4439C29.1791 92.7753 19.1855 86.4783 25.2648 62.6527ZM49.9242 72.4832C47.7998 70.2644 45.8164 67.7504 43.9355 65.0218C48.1283 65.1108 52.1777 65.1206 56.0302 65.0218C54.1863 67.6621 52.145 70.1565 49.9242 72.4832ZM52.8597 75.4441C56.1306 71.8597 59.014 68.2261 61.5492 64.548C65.8761 64.2269 70.2601 63.5563 74.7008 62.5347C80.8351 87.8947 69.6968 91.6392 52.8597 75.4441ZM77.6363 57.4419C76.3785 53.3572 74.7902 49.1227 72.9394 44.7691C74.8232 40.6034 76.4697 36.3327 77.8711 31.9778C100.378 38.8471 102.178 49.8224 77.6363 57.4419Z" fill="url(#paint0_linear_93_61)"/>
<path opacity="0.2" d="M49.9995 33.8467C44.4951 33.8467 40.0293 38.2037 40.0293 43.5784C40.0293 47.1802 42.0348 50.3251 45.0144 52.008V54.1564C45.0144 54.3808 45.1019 54.5961 45.2578 54.7548C45.4136 54.9135 45.6249 55.0026 45.8453 55.0026H54.1538C54.3742 55.0026 54.5855 54.9135 54.7413 54.7548C54.8971 54.5961 54.9846 54.3808 54.9846 54.1564V52.008C57.9643 50.3251 59.9698 47.1802 59.9698 43.5784C59.9698 38.2037 55.5039 33.8467 49.9995 33.8467ZM46.2607 47.3865C45.8499 47.3865 45.4483 47.2624 45.1067 47.03C44.7651 46.7975 44.4989 46.4671 44.3417 46.0805C44.1845 45.6939 44.1433 45.2686 44.2235 44.8582C44.3036 44.4478 44.5014 44.0708 44.7919 43.7749C45.0824 43.4791 45.4525 43.2776 45.8555 43.196C46.2584 43.1143 46.676 43.1562 47.0556 43.3163C47.4351 43.4765 47.7595 43.7476 47.9878 44.0955C48.216 44.4434 48.3378 44.8525 48.3378 45.2709C48.3378 45.832 48.119 46.3701 47.7294 46.7668C47.3399 47.1636 46.8116 47.3865 46.2607 47.3865ZM53.7384 47.3865C53.3276 47.3865 52.926 47.2624 52.5844 47.03C52.2428 46.7975 51.9766 46.4671 51.8193 46.0805C51.6621 45.6939 51.621 45.2686 51.7011 44.8582C51.7813 44.4478 51.9791 44.0708 52.2696 43.7749C52.5601 43.4791 52.9302 43.2776 53.3331 43.196C53.7361 43.1143 54.1537 43.1562 54.5333 43.3163C54.9128 43.4765 55.2372 43.7476 55.4654 44.0955C55.6937 44.4434 55.8155 44.8525 55.8155 45.2709C55.8155 45.832 55.5967 46.3701 55.2071 46.7668C54.8176 47.1636 54.2893 47.3865 53.7384 47.3865Z" fill="url(#paint1_linear_93_61)"/>
<path d="M46.2605 42.3086C45.6853 42.3086 45.1231 42.4823 44.6449 42.8078C44.1667 43.1332 43.794 43.5958 43.5739 44.137C43.3538 44.6782 43.2962 45.2737 43.4084 45.8483C43.5206 46.4228 43.7975 46.9506 44.2042 47.3648C44.6109 47.779 45.1291 48.0611 45.6932 48.1754C46.2573 48.2897 46.842 48.231 47.3733 48.0068C47.9047 47.7827 48.3589 47.403 48.6784 46.916C48.9979 46.4289 49.1685 45.8563 49.1685 45.2705C49.1685 44.4849 48.8621 43.7316 48.3167 43.1761C47.7714 42.6207 47.0317 42.3086 46.2605 42.3086ZM46.2605 46.5398C46.014 46.5398 45.773 46.4654 45.5681 46.3259C45.3631 46.1864 45.2034 45.9882 45.1091 45.7562C45.0147 45.5243 44.9901 45.269 45.0382 45.0228C45.0862 44.7766 45.2049 44.5504 45.3792 44.3729C45.5535 44.1954 45.7756 44.0745 46.0174 44.0255C46.2591 43.9765 46.5097 44.0016 46.7374 44.0977C46.9651 44.1938 47.1598 44.3565 47.2967 44.5652C47.4337 44.774 47.5068 45.0194 47.5068 45.2705C47.5068 45.6071 47.3755 45.93 47.1417 46.168C46.908 46.4061 46.591 46.5398 46.2605 46.5398ZM53.7382 42.3086C53.163 42.3086 52.6008 42.4823 52.1226 42.8078C51.6444 43.1332 51.2716 43.5958 51.0515 44.137C50.8314 44.6782 50.7738 45.2737 50.8861 45.8483C50.9983 46.4228 51.2752 46.9506 51.6819 47.3648C52.0886 47.779 52.6067 48.0611 53.1708 48.1754C53.7349 48.2897 54.3196 48.231 54.851 48.0068C55.3824 47.7827 55.8365 47.403 56.1561 46.916C56.4756 46.4289 56.6461 45.8563 56.6461 45.2705C56.6461 44.4849 56.3398 43.7316 55.7944 43.1761C55.2491 42.6207 54.5094 42.3086 53.7382 42.3086ZM53.7382 46.5398C53.4917 46.5398 53.2507 46.4654 53.0458 46.3259C52.8408 46.1864 52.6811 45.9882 52.5867 45.7562C52.4924 45.5243 52.4677 45.269 52.5158 45.0228C52.5639 44.7766 52.6826 44.5504 52.8569 44.3729C53.0312 44.1954 53.2533 44.0745 53.495 44.0255C53.7368 43.9765 53.9874 44.0016 54.2151 44.0977C54.4428 44.1938 54.6375 44.3565 54.7744 44.5652C54.9113 44.774 54.9844 45.0194 54.9844 45.2705C54.9844 45.6071 54.8531 45.93 54.6194 46.168C54.3857 46.4061 54.0687 46.5398 53.7382 46.5398ZM49.9993 33C44.0432 33 39.1982 37.7453 39.1982 43.578C39.1982 47.1851 41.0957 50.5594 44.1834 52.4931V54.156C44.1834 54.6048 44.3584 55.0353 44.6701 55.3527C44.9817 55.6701 45.4044 55.8484 45.8451 55.8484H54.1536C54.5943 55.8484 55.017 55.6701 55.3286 55.3527C55.6402 55.0353 55.8153 54.6048 55.8153 54.156V52.4931C58.9029 50.5594 60.8004 47.1851 60.8004 43.578C60.8004 37.7453 55.9555 33 49.9993 33ZM54.5815 51.2671C54.4517 51.3404 54.3436 51.4477 54.2684 51.5779C54.1932 51.7081 54.1535 51.8565 54.1536 52.0076V54.156H52.4919V51.6172C52.4919 51.3928 52.4043 51.1776 52.2485 51.0189C52.0927 50.8602 51.8814 50.771 51.661 50.771C51.4407 50.771 51.2293 50.8602 51.0735 51.0189C50.9177 51.1776 50.8302 51.3928 50.8302 51.6172V54.156H49.1685V51.6172C49.1685 51.3928 49.0809 51.1776 48.9251 51.0189C48.7693 50.8602 48.558 50.771 48.3376 50.771C48.1173 50.771 47.9059 50.8602 47.7501 51.0189C47.5943 51.1776 47.5068 51.3928 47.5068 51.6172V54.156H45.8451V52.0076C45.8451 51.8565 45.8055 51.7081 45.7302 51.5779C45.655 51.4477 45.5469 51.3404 45.4172 51.2671C42.6058 49.6804 40.8599 46.7344 40.8599 43.578C40.8599 38.6783 44.9602 34.6925 49.9993 34.6925C55.0384 34.6925 59.1387 38.6783 59.1387 43.578C59.1387 46.7334 57.3929 49.6804 54.5815 51.2671Z" fill="url(#paint2_linear_93_61)"/>
<defs>
<linearGradient id="paint0_linear_93_61" x1="0" y1="44.7632" x2="100" y2="44.7632" gradientUnits="userSpaceOnUse">
<stop stop-color="#E6DADA"/>
<stop offset="1" stop-color="#274046"/>
</linearGradient>
<linearGradient id="paint1_linear_93_61" x1="40.0293" y1="44.4247" x2="59.9698" y2="44.4247" gradientUnits="userSpaceOnUse">
<stop stop-color="#BCBCBC"/>
<stop offset="1" stop-color="#757575"/>
</linearGradient>
<linearGradient id="paint2_linear_93_61" x1="39.1982" y1="44.4242" x2="60.8004" y2="44.4242" gradientUnits="userSpaceOnUse">
<stop stop-color="#D7D2CC"/>
<stop offset="1" stop-color="#304352"/>
</linearGradient>
</defs>
</svg>
