<svg width="1846" height="245" viewBox="0 0 1846 245" fill="none" xmlns="http://www.w3.org/2000/svg">
<path d="M35.2372 210.08H0.3172V174.8H35.2372V210.08ZM140.357 104.96H0.3172V70.04H140.357V104.96ZM175.277 245H35.2372V210.08H140.357V174.8H35.2372V139.88H140.357V104.96H175.277V245ZM231.775 245H196.855V70.04H231.775V245ZM231.775 35.12H196.855V0.199997H231.775V35.12ZM323.31 245H288.39V104.96H253.47V70.04H288.39V35.12H323.31V70.04H393.51V104.96H323.31V245ZM428.43 35.12H323.31V0.199997H428.43V35.12ZM554.188 104.96H449.068V70.04H554.188V104.96ZM589.108 210.08H554.188V104.96H589.108V210.08ZM554.188 245H449.068V210.08H554.188V245ZM449.068 210.08H414.148V104.96H449.068V210.08ZM750.726 245H645.606V210.08H750.726V245ZM645.606 210.08H610.686V70.04H645.606V210.08ZM785.646 210.08H750.726V70.04H785.646V210.08ZM842.143 245H807.223V70.04H947.263V104.96H842.143V245ZM982.183 245H947.263V104.96H982.183V245ZM1038.68 210.08H1003.76V104.96H1038.68V210.08ZM1178.72 245H1038.68V210.08H1143.8V104.96H1038.68V70.04H1143.8V0.199997H1178.72V245ZM1235.22 245H1200.3V210.08H1235.22V245ZM1291.83 245H1256.91V70.04H1291.83V245ZM1291.83 35.12H1256.91V0.199997H1291.83V35.12ZM1348.45 245H1313.53V70.04H1453.57V104.96H1348.45V245ZM1488.49 245H1453.57V104.96H1488.49V245ZM1579.91 245H1544.99V104.96H1510.07V70.04H1544.99V35.12H1579.91V70.04H1650.11V104.96H1579.91V245ZM1685.03 35.12H1579.91V0.199997H1685.03V35.12ZM1810.79 104.96H1705.67V70.04H1810.79V104.96ZM1845.71 210.08H1810.79V104.96H1845.71V210.08ZM1810.79 245H1705.67V210.08H1810.79V245ZM1705.67 210.08H1670.75V104.96H1705.67V210.08Z" fill="url(#paint0_linear_2_96)"/>
<defs>
<linearGradient id="paint0_linear_2_96" x1="743.313" y1="-99.5796" x2="748.915" y2="439.214" gradientUnits="userSpaceOnUse">
<stop offset="0.0487289" stop-color="#2BA6FF"/>
<stop offset="1" stop-color="#014EBC"/>
</linearGradient>
</defs>
</svg>
