<svg width="1128" height="150" viewBox="0 0 1128 150" fill="none" xmlns="http://www.w3.org/2000/svg">
<path d="M21.4783 128.66H0.138306V107.1H21.4783V128.66ZM85.7183 64.42H0.138306V43.08H85.7183V64.42ZM107.058 150H21.4783V128.66H85.7183V107.1H21.4783V85.76H85.7183V64.42H107.058V150ZM141.585 150H120.245V43.08H141.585V150ZM141.585 21.74H120.245V0.399998H141.585V21.74ZM197.523 150H176.183V64.42H154.843V43.08H176.183V21.74H197.523V43.08H240.423V64.42H197.523V150ZM261.763 21.74H197.523V0.399998H261.763V21.74ZM338.615 64.42H274.375V43.08H338.615V64.42ZM359.955 128.66H338.615V64.42H359.955V128.66ZM338.615 150H274.375V128.66H338.615V150ZM274.375 128.66H253.035V64.42H274.375V128.66ZM458.721 150H394.481V128.66H458.721V150ZM394.481 128.66H373.141V43.08H394.481V128.66ZM480.061 128.66H458.721V43.08H480.061V128.66ZM514.588 150H493.248V43.08H578.828V64.42H514.588V150ZM600.168 150H578.828V64.42H600.168V150ZM634.694 128.66H613.354V64.42H634.694V128.66ZM720.274 150H634.694V128.66H698.934V64.42H634.694V43.08H698.934V0.399998H720.274V150ZM754.8 150H733.46V128.66H754.8V150ZM789.399 150H768.059V43.08H789.399V150ZM789.399 21.74H768.059V0.399998H789.399V21.74ZM823.997 150H802.657V43.08H888.237V64.42H823.997V150ZM909.577 150H888.237V64.42H909.577V150ZM965.443 150H944.103V64.42H922.763V43.08H944.103V21.74H965.443V43.08H1008.34V64.42H965.443V150ZM1029.68 21.74H965.443V0.399998H1029.68V21.74ZM1106.54 64.42H1042.3V43.08H1106.54V64.42ZM1127.88 128.66H1106.54V64.42H1127.88V128.66ZM1106.54 150H1042.3V128.66H1106.54V150ZM1042.3 128.66H1020.96V64.42H1042.3V128.66Z" fill="url(#paint0_linear_2_97)"/>
<defs>
<linearGradient id="paint0_linear_2_97" x1="436.765" y1="-70.7977" x2="440.114" y2="279.734" gradientUnits="userSpaceOnUse">
<stop offset="0.0487289" stop-color="#2BA6FF"/>
<stop offset="1" stop-color="#014EBC"/>
</linearGradient>
</defs>
</svg>
