<svg width="43" height="37" viewBox="0 0 43 37" fill="none" xmlns="http://www.w3.org/2000/svg">
<g filter="url(#filter0_b_86_17)">
<path d="M33.9896 11.329C36.5141 -0.144244 30.96 -3.74471 21.5179 4.56017C12.6311 -3.36064 6.30275 -0.864384 8.99562 11.2809C-3.42231 14.8402 -2.5996 21.5401 9.09666 24.9624C6.42058 36.1476 11.4193 40.2281 21.5179 31.7791C31.3134 40.132 36.5122 36.2212 33.8381 24.9144C46.5959 20.802 45.4514 14.8493 33.9896 11.329ZM32.2728 10.897C30.2714 10.4677 28.3348 10.1553 26.3651 9.98482C25.3274 8.54222 24.1187 7.10114 22.7297 5.76043C30.2999 -1.14313 34.7615 1.01394 32.2728 10.897ZM12.7322 20.2578C13.4811 21.778 14.4657 23.1701 15.2063 24.3383C14.0003 24.221 12.7013 24.0429 11.3183 23.8102C11.7668 22.618 12.2383 21.4336 12.7322 20.2578ZM12.6311 16.1294C12.0801 14.8721 11.5775 13.6587 11.1668 12.529C12.5944 12.2476 13.9934 11.9922 15.2062 11.9049C14.3035 13.253 13.4461 14.6626 12.6311 16.1294ZM13.6914 18.2416C14.9261 15.8906 16.2322 13.6591 17.6803 11.6649C20.2497 11.5243 22.7918 11.5368 25.3047 11.7129C26.7141 13.5799 28.0294 15.8114 29.2937 18.2416C28.3477 20.1002 27.0043 22.2422 25.4562 24.5303C22.8714 24.7163 20.221 24.6906 17.5289 24.5303C16.1644 22.5429 14.8829 20.4496 13.6914 18.2416ZM30.253 20.2578C30.7433 21.389 31.1964 22.5419 31.6163 23.7142C30.3483 23.968 29.0674 24.1603 27.7788 24.2903C28.6434 23.0167 29.4636 21.6645 30.253 20.2578ZM27.7788 11.905C29.1556 12.0841 30.4856 12.3078 31.7677 12.577C31.3415 13.7833 30.8528 14.9689 30.3035 16.1294C29.5219 14.6638 28.6828 13.2534 27.7788 11.905ZM23.891 9.79263C22.3184 9.73394 20.7187 9.73586 19.0942 9.79263C19.8053 8.90337 20.598 7.97451 21.4674 7.00836C22.3145 7.87774 23.1173 8.81354 23.891 9.79263ZM20.2555 5.7602C18.8665 7.1009 17.6579 8.494 16.6201 9.93659C14.6504 10.1071 12.6633 10.4195 10.662 10.8487C8.28872 0.815595 12.6854 -1.14345 20.2555 5.7602ZM9.5511 23.3782C-0.968206 20.3699 -0.463291 15.6814 9.45006 12.9131C10.0565 14.6626 10.7906 16.4394 11.6213 18.1457C10.8142 19.9103 10.0996 21.7226 9.5511 23.3782ZM10.8639 25.3944C12.6479 25.8105 14.5386 26.0102 16.5191 26.2105C17.7107 27.8094 18.9448 29.2958 20.2556 30.5789C12.547 37.6037 8.24976 35.0514 10.8639 25.3944ZM21.4674 29.3789C20.5539 28.4796 19.701 27.4606 18.8923 26.3546C20.6952 26.3907 22.4364 26.3947 24.093 26.3546C23.3001 27.4248 22.4223 28.4359 21.4674 29.3789ZM22.7297 30.579C24.1362 29.1262 25.376 27.6534 26.4662 26.1626C28.3267 26.0325 30.2119 25.7607 32.1213 25.3466C34.7591 35.6255 29.9696 37.1432 22.7297 30.579ZM33.3836 23.2824C32.8428 21.6267 32.1598 19.9104 31.364 18.1458C32.174 16.4574 32.882 14.7264 33.4846 12.9613C43.1624 15.7455 43.9366 20.194 33.3836 23.2824Z" fill="url(#paint0_linear_86_17)"/>
</g>
<path opacity="0.2" d="M21.4981 13.8599C19.1312 13.8599 17.2109 15.6259 17.2109 17.8043C17.2109 19.2642 18.0733 20.5389 19.3545 21.221V22.0918C19.3545 22.1828 19.3922 22.27 19.4592 22.3343C19.5262 22.3987 19.6171 22.4348 19.7118 22.4348H23.2845C23.3792 22.4348 23.4701 22.3987 23.5371 22.3343C23.6041 22.27 23.6417 22.1828 23.6417 22.0918V21.221C24.923 20.5389 25.7853 19.2642 25.7853 17.8043C25.7853 15.6259 23.865 13.8599 21.4981 13.8599ZM19.8904 19.3478C19.7138 19.3478 19.5411 19.2975 19.3942 19.2033C19.2473 19.1091 19.1329 18.9752 19.0653 18.8185C18.9977 18.6618 18.98 18.4894 19.0144 18.323C19.0489 18.1567 19.134 18.0039 19.2589 17.884C19.3838 17.7641 19.5429 17.6824 19.7162 17.6493C19.8894 17.6162 20.069 17.6332 20.2322 17.6981C20.3954 17.763 20.5349 17.8729 20.6331 18.0139C20.7312 18.1549 20.7836 18.3207 20.7836 18.4903C20.7836 18.7178 20.6895 18.9359 20.522 19.0967C20.3545 19.2575 20.1273 19.3478 19.8904 19.3478ZM23.1058 19.3478C22.9292 19.3478 22.7565 19.2975 22.6096 19.2033C22.4627 19.1091 22.3483 18.9752 22.2807 18.8185C22.2131 18.6618 22.1954 18.4894 22.2298 18.323C22.2643 18.1567 22.3494 18.0039 22.4743 17.884C22.5992 17.7641 22.7583 17.6824 22.9316 17.6493C23.1048 17.6162 23.2844 17.6332 23.4476 17.6981C23.6108 17.763 23.7503 17.8729 23.8485 18.0139C23.9466 18.1549 23.999 18.3207 23.999 18.4903C23.999 18.7178 23.9049 18.9359 23.7374 19.0967C23.5699 19.2575 23.3427 19.3478 23.1058 19.3478Z" fill="url(#paint1_linear_86_17)"/>
<path d="M19.8903 17.2891C19.643 17.2891 19.4012 17.3595 19.1956 17.4914C18.9899 17.6233 18.8297 17.8108 18.735 18.0302C18.6404 18.2495 18.6156 18.4909 18.6639 18.7238C18.7121 18.9567 18.8312 19.1706 19.0061 19.3385C19.181 19.5063 19.4038 19.6207 19.6463 19.667C19.8889 19.7133 20.1403 19.6896 20.3688 19.5987C20.5973 19.5078 20.7926 19.354 20.93 19.1565C21.0674 18.9591 21.1407 18.727 21.1407 18.4896C21.1407 18.1712 21.009 17.8658 20.7745 17.6407C20.54 17.4156 20.2219 17.2891 19.8903 17.2891ZM19.8903 19.0041C19.7843 19.0041 19.6807 18.9739 19.5926 18.9174C19.5044 18.8608 19.4357 18.7805 19.3952 18.6865C19.3546 18.5925 19.344 18.489 19.3647 18.3892C19.3854 18.2894 19.4364 18.1977 19.5113 18.1258C19.5863 18.0538 19.6818 18.0048 19.7857 17.985C19.8897 17.9651 19.9974 17.9753 20.0954 18.0142C20.1933 18.0532 20.277 18.1191 20.3359 18.2037C20.3948 18.2884 20.4262 18.3878 20.4262 18.4896C20.4262 18.626 20.3697 18.7569 20.2692 18.8534C20.1687 18.9499 20.0324 19.0041 19.8903 19.0041ZM23.1057 17.2891C22.8584 17.2891 22.6166 17.3595 22.411 17.4914C22.2053 17.6233 22.0451 17.8108 21.9504 18.0302C21.8558 18.2495 21.831 18.4909 21.8793 18.7238C21.9275 18.9567 22.0466 19.1706 22.2215 19.3385C22.3964 19.5063 22.6192 19.6207 22.8617 19.667C23.1043 19.7133 23.3557 19.6896 23.5842 19.5987C23.8127 19.5078 24.008 19.354 24.1454 19.1565C24.2828 18.9591 24.3561 18.727 24.3561 18.4896C24.3561 18.1712 24.2244 17.8658 23.9899 17.6407C23.7554 17.4156 23.4373 17.2891 23.1057 17.2891ZM23.1057 19.0041C22.9997 19.0041 22.8961 18.9739 22.808 18.9174C22.7198 18.8608 22.6511 18.7805 22.6106 18.6865C22.57 18.5925 22.5594 18.489 22.5801 18.3892C22.6008 18.2894 22.6518 18.1977 22.7267 18.1258C22.8017 18.0538 22.8972 18.0048 23.0011 17.985C23.1051 17.9651 23.2128 17.9753 23.3108 18.0142C23.4087 18.0532 23.4924 18.1191 23.5513 18.2037C23.6102 18.2884 23.6416 18.3878 23.6416 18.4896C23.6416 18.626 23.5851 18.7569 23.4846 18.8534C23.3841 18.9499 23.2478 19.0041 23.1057 19.0041ZM21.498 13.5161C18.9368 13.5161 16.8535 15.4395 16.8535 17.8036C16.8535 19.2656 17.6694 20.6333 18.9971 21.4171V22.0911C18.9971 22.273 19.0724 22.4475 19.2064 22.5761C19.3404 22.7048 19.5221 22.7771 19.7116 22.7771H23.2843C23.4738 22.7771 23.6556 22.7048 23.7896 22.5761C23.9236 22.4475 23.9988 22.273 23.9988 22.0911V21.4171C25.3265 20.6333 26.1424 19.2656 26.1424 17.8036C26.1424 15.4395 24.0591 13.5161 21.498 13.5161ZM23.4683 20.9201C23.4125 20.9499 23.366 20.9933 23.3337 21.0461C23.3013 21.0989 23.2843 21.159 23.2843 21.2203V22.0911H22.5698V21.0621C22.5698 20.9711 22.5321 20.8839 22.4651 20.8195C22.3981 20.7552 22.3073 20.7191 22.2125 20.7191C22.1178 20.7191 22.0269 20.7552 21.9599 20.8195C21.8929 20.8839 21.8552 20.9711 21.8552 21.0621V22.0911H21.1407V21.0621C21.1407 20.9711 21.1031 20.8839 21.0361 20.8195C20.9691 20.7552 20.8782 20.7191 20.7834 20.7191C20.6887 20.7191 20.5978 20.7552 20.5308 20.8195C20.4638 20.8839 20.4262 20.9711 20.4262 21.0621V22.0911H19.7116V21.2203C19.7117 21.159 19.6946 21.0989 19.6623 21.0461C19.6299 20.9933 19.5834 20.9499 19.5277 20.9201C18.3188 20.277 17.568 19.083 17.568 17.8036C17.568 15.8176 19.3312 14.2021 21.498 14.2021C23.6648 14.2021 25.4279 15.8176 25.4279 17.8036C25.4279 19.0825 24.6772 20.277 23.4683 20.9201Z" fill="url(#paint2_linear_86_17)"/>
<defs>
<filter id="filter0_b_86_17" x="-4" y="-4" width="51" height="44.2866" filterUnits="userSpaceOnUse" color-interpolation-filters="sRGB">
<feFlood flood-opacity="0" result="BackgroundImageFix"/>
<feGaussianBlur in="BackgroundImageFix" stdDeviation="2"/>
<feComposite in2="SourceAlpha" operator="in" result="effect1_backgroundBlur_86_17"/>
<feBlend mode="normal" in="SourceGraphic" in2="effect1_backgroundBlur_86_17" result="shape"/>
</filter>
<linearGradient id="paint0_linear_86_17" x1="12.7529" y1="1.23128" x2="26.3097" y2="35.0805" gradientUnits="userSpaceOnUse">
<stop stop-color="#FF00B8"/>
<stop offset="1" stop-color="#FF0000"/>
</linearGradient>
<linearGradient id="paint1_linear_86_17" x1="21.4771" y1="22.4348" x2="21.5145" y2="13.8598" gradientUnits="userSpaceOnUse">
<stop stop-color="#FF01B6"/>
<stop offset="1" stop-color="#FF0101"/>
</linearGradient>
<linearGradient id="paint2_linear_86_17" x1="16.8369" y1="12.1115" x2="24.3667" y2="25.6426" gradientUnits="userSpaceOnUse">
<stop stop-color="#FF0004"/>
<stop offset="1" stop-color="#FF3EA2"/>
</linearGradient>
</defs>
</svg>
