<svg width="1867" height="554" viewBox="0 0 1867 554" fill="none" xmlns="http://www.w3.org/2000/svg">
<path d="M638.478 335.66H617.138V314.1H638.478V335.66ZM702.718 271.42H617.138V250.08H702.718V271.42ZM724.058 357H638.478V335.66H702.718V314.1H638.478V292.76H702.718V271.42H724.058V357ZM758.585 357H737.245V250.08H758.585V357ZM758.585 228.74H737.245V207.4H758.585V228.74ZM814.523 357H793.183V271.42H771.843V250.08H793.183V228.74H814.523V250.08H857.423V271.42H814.523V357ZM878.763 228.74H814.523V207.4H878.763V228.74ZM955.615 271.42H891.375V250.08H955.615V271.42ZM976.955 335.66H955.615V271.42H976.955V335.66ZM955.615 357H891.375V335.66H955.615V357ZM891.375 335.66H870.035V271.42H891.375V335.66ZM1075.72 357H1011.48V335.66H1075.72V357ZM1011.48 335.66H990.141V250.08H1011.48V335.66ZM1097.06 335.66H1075.72V250.08H1097.06V335.66ZM1131.59 357H1110.25V250.08H1195.83V271.42H1131.59V357ZM1217.17 357H1195.83V271.42H1217.17V357ZM1251.69 335.66H1230.35V271.42H1251.69V335.66ZM1337.27 357H1251.69V335.66H1315.93V271.42H1251.69V250.08H1315.93V207.4H1337.27V357ZM1371.8 357H1350.46V335.66H1371.8V357ZM1406.4 357H1385.06V250.08H1406.4V357ZM1406.4 228.74H1385.06V207.4H1406.4V228.74ZM1441 357H1419.66V250.08H1505.24V271.42H1441V357ZM1526.58 357H1505.24V271.42H1526.58V357ZM1582.44 357H1561.1V271.42H1539.76V250.08H1561.1V228.74H1582.44V250.08H1625.34V271.42H1582.44V357ZM1646.68 228.74H1582.44V207.4H1646.68V228.74ZM1723.54 271.42H1659.3V250.08H1723.54V271.42ZM1744.88 335.66H1723.54V271.42H1744.88V335.66ZM1723.54 357H1659.3V335.66H1723.54V357ZM1659.3 335.66H1637.96V271.42H1659.3V335.66Z" fill="url(#paint0_linear_0_1)"/>
<path d="M530.779 138.214C470.485 77.9286 372.725 77.9286 312.431 138.214C256.43 194.227 252.53 282.512 300.571 343.111L287.951 355.731L277.471 345.251L191.837 430.877C186.81 427.683 182.937 426.317 181.357 427.91L176.67 432.583C169.05 440.203 228.79 499.956 236.41 492.329L241.097 487.649C242.684 486.069 241.304 482.189 238.124 477.149L323.751 391.531L313.264 381.051L325.891 368.438C386.498 416.484 474.765 412.577 530.786 356.571C591.066 296.272 591.079 198.52 530.779 138.214ZM512.585 338.371C462.332 388.611 380.871 388.624 330.631 338.371C280.384 288.139 280.384 206.653 330.631 156.421C380.858 106.175 462.345 106.175 512.585 156.421C562.826 206.667 562.812 288.125 512.585 338.371Z" fill="url(#paint1_linear_0_1)"/>
<g clip-path="url(#clip0_0_1)">
<path d="M488.75 159.812C511.868 178.087 527.181 203.617 531 233C533.195 265.805 525.813 295.875 504 321C485.949 341.229 460.036 355.392 432.694 357.221C399.021 358.332 370.412 349.999 345.098 327.41C325.535 308.726 312.562 282.45 311.664 255.215C311.247 221.462 320.771 192.895 344.25 168.312C383.089 130.835 445.659 126.971 488.75 159.812ZM384 193C382.327 196.121 380.662 199.248 379 202.375C378.523 203.264 378.046 204.154 377.555 205.07C377.104 205.921 376.652 206.772 376.188 207.648C375.769 208.434 375.35 209.219 374.918 210.029C373.859 211.94 373.859 211.94 374 214C372.895 214.03 372.895 214.03 371.769 214.06C368.429 214.155 365.089 214.265 361.75 214.375C360.591 214.406 359.432 214.437 358.238 214.469C357.123 214.507 356.008 214.546 354.859 214.586C353.32 214.633 353.32 214.633 351.749 214.681C349.031 214.996 347.331 215.61 345 217C346.535 220.912 348.936 222.85 352.188 225.438C353.109 226.179 354.031 226.92 354.98 227.684C358.268 230.205 361.616 232.61 365 235C364.783 236.181 364.567 237.362 364.344 238.578C364.062 240.135 363.781 241.693 363.5 243.25C363.285 244.416 363.285 244.416 363.066 245.605C362.931 246.36 362.796 247.114 362.656 247.891C362.468 248.928 362.468 248.928 362.275 249.985C361.91 252.322 361.91 252.322 362 256C367.941 254.232 367.941 254.232 373.449 251.477C376.908 249.39 379.851 247.678 384.005 248.301C389.204 249.683 394.1 251.805 399 254C400.02 254.432 401.039 254.864 402.09 255.309C404.078 256.166 406.043 257.075 408 258C406.173 250.224 406.173 250.224 403.75 242.625C402.797 239.291 403.142 237.357 404 234C405.82 231.438 405.82 231.438 408.125 229C408.931 228.145 409.736 227.291 410.566 226.41C413.582 223.424 416.736 220.709 420 218C420 217.67 420 217.34 420 217C418.854 216.951 417.708 216.902 416.527 216.852C414.997 216.776 413.467 216.701 411.938 216.625C411.185 216.594 410.433 216.563 409.658 216.531C407.429 216.415 405.221 216.224 403 216C401.159 215.814 401.159 215.814 399.281 215.625C394.071 213.045 392.764 208.557 390.562 203.375C390.117 202.382 389.672 201.39 389.213 200.367C388.119 197.921 387.049 195.466 386 193C385.34 193 384.68 193 384 193ZM464 194C462.376 196.351 460.955 198.642 459.562 201.125C458.414 203.124 457.262 205.119 456.087 207.102C455.092 208.839 454.208 210.639 453.336 212.441C450.697 215.332 450.133 215.428 446.41 215.77C444.628 215.813 442.845 215.827 441.062 215.812C439.283 215.837 437.503 215.864 435.723 215.895C434.485 215.907 434.485 215.907 433.223 215.92C430.734 216.01 428.41 216.371 426 217C427.114 220.343 427.975 221.06 430.625 223.25C434.128 226.211 437.372 229.316 440.555 232.617C441.971 234.109 441.971 234.109 444 235C442.162 243.222 439.716 251.098 436.894 259.031C436.209 261.003 435.598 263 435 265C435.33 265.66 435.66 266.32 436 267C438.065 265.691 440.127 264.378 442.188 263.062C442.815 262.664 443.443 262.265 444.09 261.854C447.341 259.772 450.533 257.645 453.648 255.363C454.223 254.946 454.798 254.529 455.39 254.099C456.988 252.929 458.575 251.742 460.16 250.555C463.564 248.691 464.373 248.941 468 250C470.356 251.199 470.356 251.199 472.758 252.688C473.631 253.221 474.503 253.755 475.402 254.305C476.301 254.864 477.199 255.424 478.125 256C479.918 257.107 481.712 258.211 483.508 259.312C484.298 259.804 485.089 260.295 485.903 260.801C488.076 262.134 488.076 262.134 491 263C489.312 253.486 486.649 244.281 484 235C484.66 235 485.32 235 486 235C486.371 234.319 486.743 233.639 487.125 232.938C489.333 229.478 491.941 227.338 495.059 224.715C497.352 222.689 499.202 220.472 501 218C496.108 216.795 491.197 216.665 486.188 216.438C484.862 216.373 484.862 216.373 483.51 216.307C481.34 216.201 479.17 216.1 477 216C475.894 213.646 474.791 211.292 473.688 208.938C473.379 208.281 473.07 207.624 472.752 206.947C470.748 202.665 468.84 198.355 467 194C466.01 194 465.02 194 464 194ZM359 271C357.568 275.465 359.066 278.399 360.938 282.5C361.257 283.21 361.576 283.92 361.905 284.651C371.052 304.389 385.847 319.659 406 328C423.041 333.646 441.362 329.883 457.06 322.196C474.988 312.881 490.413 293.711 497.207 274.605C497.469 273.746 497.73 272.886 498 272C496.966 270.744 496.966 270.744 494.722 270.877C493.705 270.878 492.688 270.879 491.641 270.88C490.478 270.878 489.316 270.877 488.118 270.876C486.188 270.881 486.188 270.881 484.219 270.886C482.859 270.887 481.499 270.887 480.139 270.886C476.437 270.886 472.735 270.892 469.032 270.899C465.167 270.905 461.302 270.905 457.437 270.907C450.113 270.91 442.789 270.918 435.465 270.928C427.129 270.939 418.793 270.945 410.457 270.95C393.305 270.96 376.152 270.978 359 271Z" fill="url(#paint2_linear_0_1)"/>
<path d="M375 299C375.99 299.495 375.99 299.495 377 300C376.67 300.66 376.34 301.32 376 302C375.67 301.01 375.34 300.02 375 299Z" fill="black"/>
<path d="M433 219C433.99 219.495 433.99 219.495 435 220C434.01 220.495 434.01 220.495 433 221C433 220.34 433 219.68 433 219Z" fill="black"/>
<path d="M369 217C372 218 372 218 372 218L369 217Z" fill="black"/>
<path d="M370 250C372 251 372 251 372 251L370 250Z" fill="black"/>
<path d="M495 221C497 222 497 222 497 222L495 221Z" fill="black"/>
</g>
<rect x="589" y="195" width="78.25" height="30" rx="3" fill="#444444"/>
<rect x="589.5" y="195.5" width="77.25" height="29" rx="2.5" stroke="white" stroke-opacity="0.0980392"/>
<path d="M597.609 213.141C597.229 213.141 596.884 213.069 596.574 212.926C596.264 212.78 596.018 212.57 595.836 212.297C595.654 212.021 595.563 211.687 595.563 211.297C595.563 210.953 595.63 210.674 595.766 210.461C595.901 210.245 596.082 210.076 596.309 209.953C596.535 209.831 596.785 209.74 597.059 209.68C597.335 209.617 597.612 209.568 597.891 209.531C598.255 209.484 598.551 209.449 598.777 209.426C599.007 209.4 599.173 209.357 599.277 209.297C599.384 209.237 599.438 209.133 599.438 208.984V208.953C599.438 208.568 599.332 208.268 599.121 208.055C598.913 207.841 598.596 207.734 598.172 207.734C597.732 207.734 597.387 207.831 597.137 208.023C596.887 208.216 596.711 208.422 596.609 208.641L595.734 208.328C595.891 207.964 596.099 207.68 596.359 207.477C596.622 207.271 596.909 207.128 597.219 207.047C597.531 206.964 597.839 206.922 598.141 206.922C598.333 206.922 598.555 206.945 598.805 206.992C599.057 207.036 599.301 207.129 599.535 207.27C599.772 207.41 599.969 207.622 600.125 207.906C600.281 208.19 600.359 208.57 600.359 209.047V213H599.438V212.187H599.391C599.328 212.318 599.224 212.457 599.078 212.605C598.932 212.754 598.738 212.88 598.496 212.984C598.254 213.089 597.958 213.141 597.609 213.141ZM597.75 212.312C598.115 212.312 598.422 212.241 598.672 212.098C598.924 211.954 599.115 211.77 599.242 211.543C599.372 211.316 599.438 211.078 599.438 210.828V209.984C599.398 210.031 599.313 210.074 599.18 210.113C599.049 210.15 598.898 210.182 598.727 210.211C598.557 210.237 598.392 210.26 598.23 210.281C598.072 210.299 597.943 210.315 597.844 210.328C597.604 210.359 597.38 210.41 597.172 210.48C596.966 210.548 596.799 210.651 596.672 210.789C596.547 210.924 596.484 211.109 596.484 211.344C596.484 211.664 596.603 211.906 596.84 212.07C597.079 212.232 597.383 212.312 597.75 212.312ZM602.042 213V207H602.964V213H602.042ZM602.511 206C602.331 206 602.176 205.939 602.046 205.816C601.918 205.694 601.854 205.547 601.854 205.375C601.854 205.203 601.918 205.056 602.046 204.934C602.176 204.811 602.331 204.75 602.511 204.75C602.69 204.75 602.844 204.811 602.972 204.934C603.102 205.056 603.167 205.203 603.167 205.375C603.167 205.547 603.102 205.694 602.972 205.816C602.844 205.939 602.69 206 602.511 206ZM607.324 207V207.781H604.09V207H607.324ZM605.059 213V206.172C605.059 205.828 605.139 205.542 605.301 205.312C605.462 205.083 605.672 204.911 605.93 204.797C606.188 204.682 606.46 204.625 606.746 204.625C606.973 204.625 607.158 204.643 607.301 204.68C607.444 204.716 607.551 204.75 607.621 204.781L607.355 205.578C607.309 205.562 607.243 205.543 607.16 205.52C607.079 205.496 606.973 205.484 606.84 205.484C606.535 205.484 606.315 205.561 606.18 205.715C606.047 205.868 605.98 206.094 605.98 206.391V213H605.059ZM610.807 213.125C610.265 213.125 609.79 212.996 609.381 212.738C608.975 212.48 608.657 212.12 608.428 211.656C608.201 211.193 608.088 210.651 608.088 210.031C608.088 209.406 608.201 208.861 608.428 208.395C608.657 207.928 608.975 207.566 609.381 207.309C609.79 207.051 610.265 206.922 610.807 206.922C611.348 206.922 611.822 207.051 612.229 207.309C612.637 207.566 612.955 207.928 613.182 208.395C613.411 208.861 613.525 209.406 613.525 210.031C613.525 210.651 613.411 211.193 613.182 211.656C612.955 212.12 612.637 212.48 612.229 212.738C611.822 212.996 611.348 213.125 610.807 213.125ZM610.807 212.297C611.218 212.297 611.557 212.191 611.822 211.98C612.088 211.77 612.285 211.492 612.412 211.148C612.54 210.805 612.604 210.432 612.604 210.031C612.604 209.63 612.54 209.257 612.412 208.91C612.285 208.564 612.088 208.284 611.822 208.07C611.557 207.857 611.218 207.75 610.807 207.75C610.395 207.75 610.057 207.857 609.791 208.07C609.525 208.284 609.329 208.564 609.201 208.91C609.074 209.257 609.01 209.63 609.01 210.031C609.01 210.432 609.074 210.805 609.201 211.148C609.329 211.492 609.525 211.77 609.791 211.98C610.057 212.191 610.395 212.297 610.807 212.297ZM618.714 210.547V207H619.636V213H618.714V211.984H618.651C618.511 212.289 618.292 212.548 617.995 212.762C617.698 212.973 617.323 213.078 616.87 213.078C616.495 213.078 616.162 212.996 615.87 212.832C615.578 212.665 615.349 212.415 615.183 212.082C615.016 211.746 614.933 211.323 614.933 210.812V207H615.854V210.75C615.854 211.187 615.977 211.536 616.222 211.797C616.469 212.057 616.784 212.187 617.167 212.187C617.396 212.187 617.629 212.129 617.866 212.012C618.106 211.895 618.306 211.715 618.468 211.473C618.632 211.23 618.714 210.922 618.714 210.547ZM622.246 209.391V213H621.324V207H622.215V207.937H622.293C622.434 207.633 622.647 207.388 622.934 207.203C623.22 207.016 623.59 206.922 624.043 206.922C624.449 206.922 624.805 207.005 625.109 207.172C625.414 207.336 625.651 207.586 625.82 207.922C625.99 208.255 626.074 208.677 626.074 209.188V213H625.152V209.25C625.152 208.779 625.03 208.411 624.785 208.148C624.54 207.883 624.204 207.75 623.777 207.75C623.483 207.75 623.22 207.814 622.988 207.941C622.759 208.069 622.578 208.255 622.445 208.5C622.313 208.745 622.246 209.042 622.246 209.391ZM630.024 213.125C629.524 213.125 629.083 212.999 628.7 212.746C628.317 212.491 628.018 212.132 627.802 211.668C627.586 211.202 627.478 210.651 627.478 210.016C627.478 209.385 627.586 208.839 627.802 208.375C628.018 207.911 628.319 207.553 628.704 207.301C629.09 207.048 629.535 206.922 630.04 206.922C630.431 206.922 630.739 206.987 630.966 207.117C631.195 207.245 631.369 207.391 631.489 207.555C631.612 207.716 631.707 207.849 631.774 207.953H631.853V205H632.774V213H631.884V212.078H631.774C631.707 212.187 631.61 212.326 631.485 212.492C631.36 212.656 631.182 212.803 630.95 212.934C630.718 213.061 630.41 213.125 630.024 213.125ZM630.149 212.297C630.519 212.297 630.832 212.201 631.087 212.008C631.342 211.812 631.536 211.543 631.669 211.199C631.802 210.853 631.868 210.453 631.868 210C631.868 209.552 631.803 209.16 631.673 208.824C631.543 208.486 631.35 208.223 631.095 208.035C630.84 207.845 630.524 207.75 630.149 207.75C629.759 207.75 629.433 207.85 629.173 208.051C628.915 208.249 628.721 208.518 628.591 208.859C628.463 209.198 628.399 209.578 628.399 210C628.399 210.427 628.465 210.815 628.595 211.164C628.728 211.51 628.923 211.786 629.181 211.992C629.441 212.195 629.764 212.297 630.149 212.297ZM638.028 209.141V210H634.528V209.141H638.028ZM640.572 205V213H639.65V205H640.572ZM644.698 213.125C644.157 213.125 643.681 212.996 643.272 212.738C642.866 212.48 642.549 212.12 642.319 211.656C642.093 211.193 641.979 210.651 641.979 210.031C641.979 209.406 642.093 208.861 642.319 208.395C642.549 207.928 642.866 207.566 643.272 207.309C643.681 207.051 644.157 206.922 644.698 206.922C645.24 206.922 645.714 207.051 646.12 207.309C646.529 207.566 646.847 207.928 647.073 208.395C647.302 208.861 647.417 209.406 647.417 210.031C647.417 210.651 647.302 211.193 647.073 211.656C646.847 212.12 646.529 212.48 646.12 212.738C645.714 212.996 645.24 213.125 644.698 213.125ZM644.698 212.297C645.11 212.297 645.448 212.191 645.714 211.98C645.979 211.77 646.176 211.492 646.304 211.148C646.431 210.805 646.495 210.432 646.495 210.031C646.495 209.63 646.431 209.257 646.304 208.91C646.176 208.564 645.979 208.284 645.714 208.07C645.448 207.857 645.11 207.75 644.698 207.75C644.287 207.75 643.948 207.857 643.683 208.07C643.417 208.284 643.22 208.564 643.093 208.91C642.965 209.257 642.901 209.63 642.901 210.031C642.901 210.432 642.965 210.805 643.093 211.148C643.22 211.492 643.417 211.77 643.683 211.98C643.948 212.191 644.287 212.297 644.698 212.297ZM651.246 215.375C650.801 215.375 650.418 215.318 650.098 215.203C649.777 215.091 649.51 214.943 649.297 214.758C649.086 214.576 648.918 214.38 648.793 214.172L649.527 213.656C649.611 213.766 649.716 213.891 649.844 214.031C649.971 214.174 650.146 214.298 650.367 214.402C650.591 214.509 650.884 214.562 651.246 214.562C651.73 214.562 652.13 214.445 652.445 214.211C652.76 213.977 652.918 213.609 652.918 213.109V211.891H652.84C652.772 212 652.676 212.135 652.551 212.297C652.428 212.456 652.251 212.598 652.02 212.723C651.79 212.845 651.48 212.906 651.09 212.906C650.605 212.906 650.171 212.792 649.785 212.563C649.402 212.333 649.099 212 648.875 211.562C648.654 211.125 648.543 210.594 648.543 209.969C648.543 209.354 648.651 208.819 648.867 208.363C649.083 207.905 649.384 207.551 649.77 207.301C650.155 207.048 650.6 206.922 651.105 206.922C651.496 206.922 651.806 206.987 652.035 207.117C652.267 207.245 652.444 207.391 652.566 207.555C652.691 207.716 652.788 207.849 652.855 207.953H652.949V207H653.84V213.172C653.84 213.688 653.723 214.107 653.488 214.43C653.257 214.755 652.944 214.993 652.551 215.145C652.16 215.298 651.725 215.375 651.246 215.375ZM651.215 212.078C651.585 212.078 651.897 211.993 652.152 211.824C652.408 211.655 652.602 211.411 652.734 211.094C652.867 210.776 652.934 210.396 652.934 209.953C652.934 209.521 652.868 209.139 652.738 208.809C652.608 208.478 652.415 208.219 652.16 208.031C651.905 207.844 651.59 207.75 651.215 207.75C650.824 207.75 650.499 207.849 650.238 208.047C649.98 208.245 649.786 208.51 649.656 208.844C649.529 209.177 649.465 209.547 649.465 209.953C649.465 210.37 649.53 210.738 649.66 211.059C649.793 211.376 649.988 211.626 650.246 211.809C650.507 211.988 650.829 212.078 651.215 212.078ZM657.965 213.125C657.423 213.125 656.948 212.996 656.539 212.738C656.133 212.48 655.815 212.12 655.586 211.656C655.359 211.193 655.246 210.651 655.246 210.031C655.246 209.406 655.359 208.861 655.586 208.395C655.815 207.928 656.133 207.566 656.539 207.309C656.948 207.051 657.423 206.922 657.965 206.922C658.507 206.922 658.98 207.051 659.387 207.309C659.796 207.566 660.113 207.928 660.34 208.395C660.569 208.861 660.684 209.406 660.684 210.031C660.684 210.651 660.569 211.193 660.34 211.656C660.113 212.12 659.796 212.48 659.387 212.738C658.98 212.996 658.507 213.125 657.965 213.125ZM657.965 212.297C658.376 212.297 658.715 212.191 658.98 211.98C659.246 211.77 659.443 211.492 659.57 211.148C659.698 210.805 659.762 210.432 659.762 210.031C659.762 209.63 659.698 209.257 659.57 208.91C659.443 208.564 659.246 208.284 658.98 208.07C658.715 207.857 658.376 207.75 657.965 207.75C657.553 207.75 657.215 207.857 656.949 208.07C656.684 208.284 656.487 208.564 656.359 208.91C656.232 209.257 656.168 209.63 656.168 210.031C656.168 210.432 656.232 210.805 656.359 211.148C656.487 211.492 656.684 211.77 656.949 211.98C657.215 212.191 657.553 212.297 657.965 212.297Z" fill="white"/>
<rect x="179" y="96" width="103.438" height="30" rx="3" fill="#444444"/>
<rect x="179.5" y="96.5" width="102.438" height="29" rx="2.5" stroke="white" stroke-opacity="0.0980392"/>
<path d="M187.609 114.141C187.229 114.141 186.884 114.069 186.574 113.926C186.264 113.78 186.018 113.57 185.836 113.297C185.654 113.021 185.563 112.687 185.563 112.297C185.563 111.953 185.63 111.674 185.766 111.461C185.901 111.245 186.082 111.076 186.309 110.953C186.535 110.831 186.785 110.74 187.059 110.68C187.335 110.617 187.612 110.568 187.891 110.531C188.255 110.484 188.551 110.449 188.777 110.426C189.007 110.4 189.173 110.357 189.277 110.297C189.384 110.237 189.438 110.133 189.438 109.984V109.953C189.438 109.568 189.332 109.268 189.121 109.055C188.913 108.841 188.596 108.734 188.172 108.734C187.732 108.734 187.387 108.831 187.137 109.023C186.887 109.216 186.711 109.422 186.609 109.641L185.734 109.328C185.891 108.964 186.099 108.68 186.359 108.477C186.622 108.271 186.909 108.128 187.219 108.047C187.531 107.964 187.839 107.922 188.141 107.922C188.333 107.922 188.555 107.945 188.805 107.992C189.057 108.036 189.301 108.129 189.535 108.27C189.772 108.41 189.969 108.622 190.125 108.906C190.281 109.19 190.359 109.57 190.359 110.047V114H189.438V113.187H189.391C189.328 113.318 189.224 113.457 189.078 113.605C188.932 113.754 188.738 113.88 188.496 113.984C188.254 114.089 187.958 114.141 187.609 114.141ZM187.75 113.312C188.115 113.312 188.422 113.241 188.672 113.098C188.924 112.954 189.115 112.77 189.242 112.543C189.372 112.316 189.438 112.078 189.438 111.828V110.984C189.398 111.031 189.313 111.074 189.18 111.113C189.049 111.15 188.898 111.182 188.727 111.211C188.557 111.237 188.392 111.26 188.23 111.281C188.072 111.299 187.943 111.315 187.844 111.328C187.604 111.359 187.38 111.41 187.172 111.48C186.966 111.548 186.799 111.651 186.672 111.789C186.547 111.924 186.484 112.109 186.484 112.344C186.484 112.664 186.603 112.906 186.84 113.07C187.079 113.232 187.383 113.312 187.75 113.312ZM192.042 114V108H192.964V114H192.042ZM192.511 107C192.331 107 192.176 106.939 192.046 106.816C191.918 106.694 191.854 106.547 191.854 106.375C191.854 106.203 191.918 106.056 192.046 105.934C192.176 105.811 192.331 105.75 192.511 105.75C192.69 105.75 192.844 105.811 192.972 105.934C193.102 106.056 193.167 106.203 193.167 106.375C193.167 106.547 193.102 106.694 192.972 106.816C192.844 106.939 192.69 107 192.511 107ZM197.324 108V108.781H194.09V108H197.324ZM195.059 114V107.172C195.059 106.828 195.139 106.542 195.301 106.312C195.462 106.083 195.672 105.911 195.93 105.797C196.188 105.682 196.46 105.625 196.746 105.625C196.973 105.625 197.158 105.643 197.301 105.68C197.444 105.716 197.551 105.75 197.621 105.781L197.355 106.578C197.309 106.562 197.243 106.543 197.16 106.52C197.079 106.496 196.973 106.484 196.84 106.484C196.535 106.484 196.315 106.561 196.18 106.715C196.047 106.868 195.98 107.094 195.98 107.391V114H195.059ZM200.807 114.125C200.265 114.125 199.79 113.996 199.381 113.738C198.975 113.48 198.657 113.12 198.428 112.656C198.201 112.193 198.088 111.651 198.088 111.031C198.088 110.406 198.201 109.861 198.428 109.395C198.657 108.928 198.975 108.566 199.381 108.309C199.79 108.051 200.265 107.922 200.807 107.922C201.348 107.922 201.822 108.051 202.229 108.309C202.637 108.566 202.955 108.928 203.182 109.395C203.411 109.861 203.525 110.406 203.525 111.031C203.525 111.651 203.411 112.193 203.182 112.656C202.955 113.12 202.637 113.48 202.229 113.738C201.822 113.996 201.348 114.125 200.807 114.125ZM200.807 113.297C201.218 113.297 201.557 113.191 201.822 112.98C202.088 112.77 202.285 112.492 202.412 112.148C202.54 111.805 202.604 111.432 202.604 111.031C202.604 110.63 202.54 110.257 202.412 109.91C202.285 109.564 202.088 109.284 201.822 109.07C201.557 108.857 201.218 108.75 200.807 108.75C200.395 108.75 200.057 108.857 199.791 109.07C199.525 109.284 199.329 109.564 199.201 109.91C199.074 110.257 199.01 110.63 199.01 111.031C199.01 111.432 199.074 111.805 199.201 112.148C199.329 112.492 199.525 112.77 199.791 112.98C200.057 113.191 200.395 113.297 200.807 113.297ZM208.714 111.547V108H209.636V114H208.714V112.984H208.651C208.511 113.289 208.292 113.548 207.995 113.762C207.698 113.973 207.323 114.078 206.87 114.078C206.495 114.078 206.162 113.996 205.87 113.832C205.578 113.665 205.349 113.415 205.183 113.082C205.016 112.746 204.933 112.323 204.933 111.812V108H205.854V111.75C205.854 112.187 205.977 112.536 206.222 112.797C206.469 113.057 206.784 113.187 207.167 113.187C207.396 113.187 207.629 113.129 207.866 113.012C208.106 112.895 208.306 112.715 208.468 112.473C208.632 112.23 208.714 111.922 208.714 111.547ZM212.246 110.391V114H211.324V108H212.215V108.937H212.293C212.434 108.633 212.647 108.388 212.934 108.203C213.22 108.016 213.59 107.922 214.043 107.922C214.449 107.922 214.805 108.005 215.109 108.172C215.414 108.336 215.651 108.586 215.82 108.922C215.99 109.255 216.074 109.677 216.074 110.188V114H215.152V110.25C215.152 109.779 215.03 109.411 214.785 109.148C214.54 108.883 214.204 108.75 213.777 108.75C213.483 108.75 213.22 108.814 212.988 108.941C212.759 109.069 212.578 109.255 212.445 109.5C212.313 109.745 212.246 110.042 212.246 110.391ZM220.024 114.125C219.524 114.125 219.083 113.999 218.7 113.746C218.317 113.491 218.018 113.132 217.802 112.668C217.586 112.202 217.478 111.651 217.478 111.016C217.478 110.385 217.586 109.839 217.802 109.375C218.018 108.911 218.319 108.553 218.704 108.301C219.09 108.048 219.535 107.922 220.04 107.922C220.431 107.922 220.739 107.987 220.966 108.117C221.195 108.245 221.369 108.391 221.489 108.555C221.612 108.716 221.707 108.849 221.774 108.953H221.853V106H222.774V114H221.884V113.078H221.774C221.707 113.187 221.61 113.326 221.485 113.492C221.36 113.656 221.182 113.803 220.95 113.934C220.718 114.061 220.41 114.125 220.024 114.125ZM220.149 113.297C220.519 113.297 220.832 113.201 221.087 113.008C221.342 112.812 221.536 112.543 221.669 112.199C221.802 111.853 221.868 111.453 221.868 111C221.868 110.552 221.803 110.16 221.673 109.824C221.543 109.486 221.35 109.223 221.095 109.035C220.84 108.845 220.524 108.75 220.149 108.75C219.759 108.75 219.433 108.85 219.173 109.051C218.915 109.249 218.721 109.518 218.591 109.859C218.463 110.198 218.399 110.578 218.399 111C218.399 111.427 218.465 111.815 218.595 112.164C218.728 112.51 218.923 112.786 219.181 112.992C219.441 113.195 219.764 113.297 220.149 113.297ZM228.028 110.141V111H224.528V110.141H228.028ZM230.572 106V114H229.65V106H230.572ZM234.698 114.125C234.157 114.125 233.681 113.996 233.272 113.738C232.866 113.48 232.549 113.12 232.319 112.656C232.093 112.193 231.979 111.651 231.979 111.031C231.979 110.406 232.093 109.861 232.319 109.395C232.549 108.928 232.866 108.566 233.272 108.309C233.681 108.051 234.157 107.922 234.698 107.922C235.24 107.922 235.714 108.051 236.12 108.309C236.529 108.566 236.847 108.928 237.073 109.395C237.302 109.861 237.417 110.406 237.417 111.031C237.417 111.651 237.302 112.193 237.073 112.656C236.847 113.12 236.529 113.48 236.12 113.738C235.714 113.996 235.24 114.125 234.698 114.125ZM234.698 113.297C235.11 113.297 235.448 113.191 235.714 112.98C235.979 112.77 236.176 112.492 236.304 112.148C236.431 111.805 236.495 111.432 236.495 111.031C236.495 110.63 236.431 110.257 236.304 109.91C236.176 109.564 235.979 109.284 235.714 109.07C235.448 108.857 235.11 108.75 234.698 108.75C234.287 108.75 233.948 108.857 233.683 109.07C233.417 109.284 233.22 109.564 233.093 109.91C232.965 110.257 232.901 110.63 232.901 111.031C232.901 111.432 232.965 111.805 233.093 112.148C233.22 112.492 233.417 112.77 233.683 112.98C233.948 113.191 234.287 113.297 234.698 113.297ZM241.246 116.375C240.801 116.375 240.418 116.318 240.098 116.203C239.777 116.091 239.51 115.943 239.297 115.758C239.086 115.576 238.918 115.38 238.793 115.172L239.527 114.656C239.611 114.766 239.716 114.891 239.844 115.031C239.971 115.174 240.146 115.298 240.367 115.402C240.591 115.509 240.884 115.562 241.246 115.562C241.73 115.562 242.13 115.445 242.445 115.211C242.76 114.977 242.918 114.609 242.918 114.109V112.891H242.84C242.772 113 242.676 113.135 242.551 113.297C242.428 113.456 242.251 113.598 242.02 113.723C241.79 113.845 241.48 113.906 241.09 113.906C240.605 113.906 240.171 113.792 239.785 113.563C239.402 113.333 239.099 113 238.875 112.562C238.654 112.125 238.543 111.594 238.543 110.969C238.543 110.354 238.651 109.819 238.867 109.363C239.083 108.905 239.384 108.551 239.77 108.301C240.155 108.048 240.6 107.922 241.105 107.922C241.496 107.922 241.806 107.987 242.035 108.117C242.267 108.245 242.444 108.391 242.566 108.555C242.691 108.716 242.788 108.849 242.855 108.953H242.949V108H243.84V114.172C243.84 114.688 243.723 115.107 243.488 115.43C243.257 115.755 242.944 115.993 242.551 116.145C242.16 116.298 241.725 116.375 241.246 116.375ZM241.215 113.078C241.585 113.078 241.897 112.993 242.152 112.824C242.408 112.655 242.602 112.411 242.734 112.094C242.867 111.776 242.934 111.396 242.934 110.953C242.934 110.521 242.868 110.139 242.738 109.809C242.608 109.478 242.415 109.219 242.16 109.031C241.905 108.844 241.59 108.75 241.215 108.75C240.824 108.75 240.499 108.849 240.238 109.047C239.98 109.245 239.786 109.51 239.656 109.844C239.529 110.177 239.465 110.547 239.465 110.953C239.465 111.37 239.53 111.738 239.66 112.059C239.793 112.376 239.988 112.626 240.246 112.809C240.507 112.988 240.829 113.078 241.215 113.078ZM247.965 114.125C247.423 114.125 246.948 113.996 246.539 113.738C246.133 113.48 245.815 113.12 245.586 112.656C245.359 112.193 245.246 111.651 245.246 111.031C245.246 110.406 245.359 109.861 245.586 109.395C245.815 108.928 246.133 108.566 246.539 108.309C246.948 108.051 247.423 107.922 247.965 107.922C248.507 107.922 248.98 108.051 249.387 108.309C249.796 108.566 250.113 108.928 250.34 109.395C250.569 109.861 250.684 110.406 250.684 111.031C250.684 111.651 250.569 112.193 250.34 112.656C250.113 113.12 249.796 113.48 249.387 113.738C248.98 113.996 248.507 114.125 247.965 114.125ZM247.965 113.297C248.376 113.297 248.715 113.191 248.98 112.98C249.246 112.77 249.443 112.492 249.57 112.148C249.698 111.805 249.762 111.432 249.762 111.031C249.762 110.63 249.698 110.257 249.57 109.91C249.443 109.564 249.246 109.284 248.98 109.07C248.715 108.857 248.376 108.75 247.965 108.75C247.553 108.75 247.215 108.857 246.949 109.07C246.684 109.284 246.487 109.564 246.359 109.91C246.232 110.257 246.168 110.63 246.168 111.031C246.168 111.432 246.232 111.805 246.359 112.148C246.487 112.492 246.684 112.77 246.949 112.98C247.215 113.191 247.553 113.297 247.965 113.297ZM255.528 110.141V111H252.028V110.141H255.528ZM259.76 108V108.781H256.65V108H259.76ZM257.557 106.562H258.479V112.281C258.479 112.542 258.516 112.737 258.592 112.867C258.67 112.995 258.769 113.081 258.889 113.125C259.011 113.167 259.14 113.187 259.275 113.187C259.377 113.187 259.46 113.182 259.525 113.172C259.59 113.159 259.643 113.148 259.682 113.141L259.869 113.969C259.807 113.992 259.719 114.016 259.607 114.039C259.495 114.065 259.354 114.078 259.182 114.078C258.921 114.078 258.666 114.022 258.416 113.91C258.169 113.798 257.963 113.628 257.799 113.398C257.637 113.169 257.557 112.88 257.557 112.531V106.562ZM263.598 114.125C263.02 114.125 262.521 113.997 262.102 113.742C261.685 113.484 261.363 113.125 261.137 112.664C260.913 112.201 260.801 111.661 260.801 111.047C260.801 110.432 260.913 109.891 261.137 109.422C261.363 108.951 261.678 108.583 262.082 108.32C262.488 108.055 262.962 107.922 263.504 107.922C263.816 107.922 264.125 107.974 264.43 108.078C264.734 108.182 265.012 108.352 265.262 108.586C265.512 108.818 265.711 109.125 265.859 109.508C266.008 109.891 266.082 110.362 266.082 110.922V111.312H261.457V110.516H265.145C265.145 110.177 265.077 109.875 264.941 109.609C264.809 109.344 264.618 109.134 264.371 108.98C264.126 108.827 263.837 108.75 263.504 108.75C263.137 108.75 262.819 108.841 262.551 109.023C262.285 109.203 262.081 109.437 261.938 109.727C261.794 110.016 261.723 110.326 261.723 110.656V111.188C261.723 111.641 261.801 112.025 261.957 112.34C262.116 112.652 262.336 112.891 262.617 113.055C262.898 113.216 263.225 113.297 263.598 113.297C263.84 113.297 264.059 113.263 264.254 113.195C264.452 113.125 264.622 113.021 264.766 112.883C264.909 112.742 265.02 112.568 265.098 112.359L265.988 112.609C265.895 112.911 265.737 113.177 265.516 113.406C265.294 113.633 265.021 113.81 264.695 113.937C264.37 114.063 264.004 114.125 263.598 114.125ZM268.011 108L269.448 110.453L270.886 108H271.948L270.011 111L271.948 114H270.886L269.448 111.672L268.011 114H266.948L268.854 111L266.948 108H268.011ZM275.873 108V108.781H272.764V108H275.873ZM273.67 106.562H274.592V112.281C274.592 112.542 274.63 112.737 274.705 112.867C274.783 112.995 274.882 113.081 275.002 113.125C275.124 113.167 275.253 113.187 275.389 113.187C275.49 113.187 275.574 113.182 275.639 113.172C275.704 113.159 275.756 113.148 275.795 113.141L275.982 113.969C275.92 113.992 275.833 114.016 275.721 114.039C275.609 114.065 275.467 114.078 275.295 114.078C275.035 114.078 274.779 114.022 274.529 113.91C274.282 113.798 274.076 113.628 273.912 113.398C273.751 113.169 273.67 112.88 273.67 112.531V106.562Z" fill="white"/>
<rect x="40" y="4" width="97.5781" height="30" rx="3" fill="#444444"/>
<rect x="40.5" y="4.5" width="96.5781" height="29" rx="2.5" stroke="white" stroke-opacity="0.0980392"/>
<path d="M48.6094 22.1406C48.2292 22.1406 47.8841 22.069 47.5742 21.9258C47.2643 21.7799 47.0182 21.5703 46.8359 21.2969C46.6536 21.0208 46.5625 20.6875 46.5625 20.2969C46.5625 19.9531 46.6302 19.6745 46.7656 19.4609C46.901 19.2448 47.082 19.0755 47.3086 18.9531C47.5352 18.8307 47.7852 18.7396 48.0586 18.6797C48.3346 18.6172 48.612 18.5677 48.8906 18.5313C49.2552 18.4844 49.5508 18.4492 49.7773 18.4258C50.0065 18.3997 50.1732 18.3568 50.2773 18.2969C50.3841 18.237 50.4375 18.1328 50.4375 17.9844V17.9531C50.4375 17.5677 50.332 17.2682 50.1211 17.0547C49.9128 16.8411 49.5964 16.7344 49.1719 16.7344C48.7318 16.7344 48.3867 16.8307 48.1367 17.0234C47.8867 17.2161 47.7109 17.4219 47.6094 17.6406L46.7344 17.3281C46.8906 16.9635 47.099 16.6797 47.3594 16.4766C47.6224 16.2708 47.9089 16.1276 48.2188 16.0469C48.5313 15.9635 48.8385 15.9219 49.1406 15.9219C49.3333 15.9219 49.5547 15.9453 49.8047 15.9922C50.0573 16.0365 50.3008 16.1289 50.5352 16.2695C50.7721 16.4102 50.9688 16.6224 51.125 16.9062C51.2813 17.1901 51.3594 17.5703 51.3594 18.0469V22H50.4375V21.1875H50.3906C50.3281 21.3177 50.224 21.457 50.0781 21.6055C49.9323 21.7539 49.7383 21.8802 49.4961 21.9844C49.2539 22.0885 48.9583 22.1406 48.6094 22.1406ZM48.75 21.3125C49.1146 21.3125 49.4219 21.2409 49.6719 21.0977C49.9245 20.9544 50.1146 20.7695 50.2422 20.543C50.3724 20.3164 50.4375 20.0781 50.4375 19.8281V18.9844C50.3984 19.0312 50.3125 19.0742 50.1797 19.1133C50.0495 19.1497 49.8984 19.1823 49.7266 19.2109C49.5573 19.237 49.3919 19.2604 49.2305 19.2812C49.0716 19.2995 48.9427 19.3151 48.8438 19.3281C48.6042 19.3594 48.3802 19.4102 48.1719 19.4805C47.9661 19.5482 47.7995 19.651 47.6719 19.7891C47.5469 19.9245 47.4844 20.1094 47.4844 20.3437C47.4844 20.6641 47.6029 20.9062 47.8398 21.0703C48.0794 21.2318 48.3828 21.3125 48.75 21.3125ZM53.042 22V16H53.9639V22H53.042ZM53.5107 15C53.3311 15 53.1761 14.9388 53.0459 14.8164C52.9183 14.694 52.8545 14.5469 52.8545 14.375C52.8545 14.2031 52.9183 14.056 53.0459 13.9336C53.1761 13.8112 53.3311 13.75 53.5107 13.75C53.6904 13.75 53.8441 13.8112 53.9717 13.9336C54.1019 14.056 54.167 14.2031 54.167 14.375C54.167 14.5469 54.1019 14.694 53.9717 14.8164C53.8441 14.9388 53.6904 15 53.5107 15ZM58.3242 16V16.7812H55.0898V16H58.3242ZM56.0586 22V15.1719C56.0586 14.8281 56.1393 14.5417 56.3008 14.3125C56.4622 14.0833 56.6719 13.9115 56.9297 13.7969C57.1875 13.6823 57.4596 13.625 57.7461 13.625C57.9727 13.625 58.1576 13.6432 58.3008 13.6797C58.444 13.7161 58.5508 13.75 58.6211 13.7812L58.3555 14.5781C58.3086 14.5625 58.2435 14.543 58.1602 14.5195C58.0794 14.4961 57.9727 14.4844 57.8398 14.4844C57.5352 14.4844 57.3151 14.5612 57.1797 14.7148C57.0469 14.8685 56.9805 15.0937 56.9805 15.3906V22H56.0586ZM61.8066 22.125C61.265 22.125 60.7897 21.9961 60.3809 21.7383C59.9746 21.4805 59.6569 21.1198 59.4277 20.6562C59.2012 20.1927 59.0879 19.651 59.0879 19.0312C59.0879 18.4062 59.2012 17.8607 59.4277 17.3945C59.6569 16.9284 59.9746 16.5664 60.3809 16.3086C60.7897 16.0508 61.265 15.9219 61.8066 15.9219C62.3483 15.9219 62.8223 16.0508 63.2285 16.3086C63.6374 16.5664 63.9551 16.9284 64.1816 17.3945C64.4108 17.8607 64.5254 18.4062 64.5254 19.0312C64.5254 19.651 64.4108 20.1927 64.1816 20.6562C63.9551 21.1198 63.6374 21.4805 63.2285 21.7383C62.8223 21.9961 62.3483 22.125 61.8066 22.125ZM61.8066 21.2969C62.2181 21.2969 62.5566 21.1914 62.8223 20.9805C63.0879 20.7695 63.2845 20.4922 63.4121 20.1484C63.5397 19.8047 63.6035 19.4323 63.6035 19.0312C63.6035 18.6302 63.5397 18.2565 63.4121 17.9102C63.2845 17.5638 63.0879 17.2839 62.8223 17.0703C62.5566 16.8568 62.2181 16.75 61.8066 16.75C61.3952 16.75 61.0566 16.8568 60.791 17.0703C60.5254 17.2839 60.3288 17.5638 60.2012 17.9102C60.0736 18.2565 60.0098 18.6302 60.0098 19.0312C60.0098 19.4323 60.0736 19.8047 60.2012 20.1484C60.3288 20.4922 60.5254 20.7695 60.791 20.9805C61.0566 21.1914 61.3952 21.2969 61.8066 21.2969ZM69.7139 19.5469V16H70.6357V22H69.7139V20.9844H69.6514C69.5107 21.2891 69.292 21.5482 68.9951 21.7617C68.6982 21.9727 68.3232 22.0781 67.8701 22.0781C67.4951 22.0781 67.1618 21.9961 66.8701 21.832C66.5785 21.6654 66.3493 21.4154 66.1826 21.082C66.016 20.7461 65.9326 20.3229 65.9326 19.8125V16H66.8545V19.75C66.8545 20.1875 66.9769 20.5365 67.2217 20.7969C67.4691 21.0573 67.7842 21.1875 68.167 21.1875C68.3962 21.1875 68.6292 21.1289 68.8662 21.0117C69.1058 20.8945 69.3063 20.7148 69.4678 20.4727C69.6318 20.2305 69.7139 19.9219 69.7139 19.5469ZM73.2461 18.3906V22H72.3242V16H73.2148V16.9375H73.293C73.4336 16.6328 73.6471 16.388 73.9336 16.2031C74.2201 16.0156 74.5898 15.9219 75.043 15.9219C75.4492 15.9219 75.8047 16.0052 76.1094 16.1719C76.4141 16.3359 76.651 16.5859 76.8203 16.9219C76.9896 17.2552 77.0742 17.6771 77.0742 18.1875V22H76.1523V18.25C76.1523 17.7786 76.0299 17.4115 75.7852 17.1484C75.5404 16.8828 75.2044 16.75 74.7773 16.75C74.4831 16.75 74.2201 16.8138 73.9883 16.9414C73.7591 17.069 73.5781 17.2552 73.4453 17.5C73.3125 17.7448 73.2461 18.0417 73.2461 18.3906ZM81.0244 22.125C80.5244 22.125 80.083 21.9987 79.7002 21.7461C79.3174 21.4909 79.0179 21.1315 78.8018 20.668C78.5856 20.2018 78.4775 19.651 78.4775 19.0156C78.4775 18.3854 78.5856 17.8385 78.8018 17.375C79.0179 16.9115 79.3187 16.5534 79.7041 16.3008C80.0895 16.0482 80.5348 15.9219 81.04 15.9219C81.4307 15.9219 81.7393 15.987 81.9658 16.1172C82.195 16.2448 82.3695 16.3906 82.4893 16.5547C82.6117 16.7161 82.7067 16.849 82.7744 16.9531H82.8525V14H83.7744V22H82.8838V21.0781H82.7744C82.7067 21.1875 82.6104 21.3255 82.4854 21.4922C82.3604 21.6562 82.182 21.8034 81.9502 21.9336C81.7184 22.0612 81.4098 22.125 81.0244 22.125ZM81.1494 21.2969C81.5192 21.2969 81.8317 21.2005 82.0869 21.0078C82.3421 20.8125 82.5361 20.543 82.6689 20.1992C82.8018 19.8529 82.8682 19.4531 82.8682 19C82.8682 18.5521 82.8031 18.1602 82.6729 17.8242C82.5426 17.4857 82.3499 17.2227 82.0947 17.0352C81.8395 16.8451 81.5244 16.75 81.1494 16.75C80.7588 16.75 80.4333 16.8503 80.1729 17.0508C79.915 17.2487 79.721 17.5182 79.5908 17.8594C79.4632 18.1979 79.3994 18.5781 79.3994 19C79.3994 19.4271 79.4645 19.8151 79.5947 20.1641C79.7275 20.5104 79.9229 20.7865 80.1807 20.9922C80.4411 21.1953 80.764 21.2969 81.1494 21.2969ZM85.5908 22V16H86.5127V22H85.5908ZM86.0596 15C85.8799 15 85.7249 14.9388 85.5947 14.8164C85.4671 14.694 85.4033 14.5469 85.4033 14.375C85.4033 14.2031 85.4671 14.056 85.5947 13.9336C85.7249 13.8112 85.8799 13.75 86.0596 13.75C86.2393 13.75 86.3929 13.8112 86.5205 13.9336C86.6507 14.056 86.7158 14.2031 86.7158 14.375C86.7158 14.5469 86.6507 14.694 86.5205 14.8164C86.3929 14.9388 86.2393 15 86.0596 15ZM89.123 18.3906V22H88.2012V16H89.0918V16.9375H89.1699C89.3105 16.6328 89.5241 16.388 89.8105 16.2031C90.097 16.0156 90.4668 15.9219 90.9199 15.9219C91.3262 15.9219 91.6816 16.0052 91.9863 16.1719C92.291 16.3359 92.528 16.5859 92.6973 16.9219C92.8665 17.2552 92.9512 17.6771 92.9512 18.1875V22H92.0293V18.25C92.0293 17.7786 91.9069 17.4115 91.6621 17.1484C91.4173 16.8828 91.0814 16.75 90.6543 16.75C90.36 16.75 90.097 16.8138 89.8652 16.9414C89.6361 17.069 89.4551 17.2552 89.3223 17.5C89.1895 17.7448 89.123 18.0417 89.123 18.3906ZM97.3076 16V16.7812H94.0732V16H97.3076ZM95.042 22V15.1719C95.042 14.8281 95.1227 14.5417 95.2842 14.3125C95.4456 14.0833 95.6553 13.9115 95.9131 13.7969C96.1709 13.6823 96.443 13.625 96.7295 13.625C96.9561 13.625 97.141 13.6432 97.2842 13.6797C97.4274 13.7161 97.5342 13.75 97.6045 13.7812L97.3389 14.5781C97.292 14.5625 97.2269 14.543 97.1436 14.5195C97.0628 14.4961 96.9561 14.4844 96.8232 14.4844C96.5186 14.4844 96.2985 14.5612 96.1631 14.7148C96.0303 14.8685 95.9639 15.0937 95.9639 15.3906V22H95.042ZM100.79 22.125C100.248 22.125 99.7731 21.9961 99.3643 21.7383C98.958 21.4805 98.6403 21.1198 98.4111 20.6562C98.1846 20.1927 98.0713 19.651 98.0713 19.0312C98.0713 18.4062 98.1846 17.8607 98.4111 17.3945C98.6403 16.9284 98.958 16.5664 99.3643 16.3086C99.7731 16.0508 100.248 15.9219 100.79 15.9219C101.332 15.9219 101.806 16.0508 102.212 16.3086C102.621 16.5664 102.938 16.9284 103.165 17.3945C103.394 17.8607 103.509 18.4062 103.509 19.0312C103.509 19.651 103.394 20.1927 103.165 20.6562C102.938 21.1198 102.621 21.4805 102.212 21.7383C101.806 21.9961 101.332 22.125 100.79 22.125ZM100.79 21.2969C101.201 21.2969 101.54 21.1914 101.806 20.9805C102.071 20.7695 102.268 20.4922 102.396 20.1484C102.523 19.8047 102.587 19.4323 102.587 19.0312C102.587 18.6302 102.523 18.2565 102.396 17.9102C102.268 17.5638 102.071 17.2839 101.806 17.0703C101.54 16.8568 101.201 16.75 100.79 16.75C100.379 16.75 100.04 16.8568 99.7744 17.0703C99.5088 17.2839 99.3122 17.5638 99.1846 17.9102C99.057 18.2565 98.9932 18.6302 98.9932 19.0312C98.9932 19.4323 99.057 19.8047 99.1846 20.1484C99.3122 20.4922 99.5088 20.7695 99.7744 20.9805C100.04 21.1914 100.379 21.2969 100.79 21.2969ZM108.354 18.1406V19H104.854V18.1406H108.354ZM110.897 14V22H109.976V14H110.897ZM115.023 22.125C114.482 22.125 114.007 21.9961 113.598 21.7383C113.191 21.4805 112.874 21.1198 112.645 20.6562C112.418 20.1927 112.305 19.651 112.305 19.0312C112.305 18.4062 112.418 17.8607 112.645 17.3945C112.874 16.9284 113.191 16.5664 113.598 16.3086C114.007 16.0508 114.482 15.9219 115.023 15.9219C115.565 15.9219 116.039 16.0508 116.445 16.3086C116.854 16.5664 117.172 16.9284 117.398 17.3945C117.628 17.8607 117.742 18.4062 117.742 19.0312C117.742 19.651 117.628 20.1927 117.398 20.6562C117.172 21.1198 116.854 21.4805 116.445 21.7383C116.039 21.9961 115.565 22.125 115.023 22.125ZM115.023 21.2969C115.435 21.2969 115.773 21.1914 116.039 20.9805C116.305 20.7695 116.501 20.4922 116.629 20.1484C116.757 19.8047 116.82 19.4323 116.82 19.0312C116.82 18.6302 116.757 18.2565 116.629 17.9102C116.501 17.5638 116.305 17.2839 116.039 17.0703C115.773 16.8568 115.435 16.75 115.023 16.75C114.612 16.75 114.273 16.8568 114.008 17.0703C113.742 17.2839 113.546 17.5638 113.418 17.9102C113.29 18.2565 113.227 18.6302 113.227 19.0312C113.227 19.4323 113.29 19.8047 113.418 20.1484C113.546 20.4922 113.742 20.7695 114.008 20.9805C114.273 21.1914 114.612 21.2969 115.023 21.2969ZM121.571 24.375C121.126 24.375 120.743 24.3177 120.423 24.2031C120.103 24.0911 119.836 23.9427 119.622 23.7578C119.411 23.5755 119.243 23.3802 119.118 23.1719L119.853 22.6563C119.936 22.7656 120.041 22.8906 120.169 23.0312C120.297 23.1745 120.471 23.2982 120.692 23.4023C120.916 23.5091 121.209 23.5625 121.571 23.5625C122.056 23.5625 122.455 23.4453 122.771 23.2109C123.086 22.9766 123.243 22.6094 123.243 22.1094V20.8906H123.165C123.097 21 123.001 21.1354 122.876 21.2969C122.754 21.4557 122.576 21.5977 122.345 21.7227C122.116 21.8451 121.806 21.9062 121.415 21.9062C120.931 21.9062 120.496 21.7917 120.11 21.5625C119.728 21.3333 119.424 21 119.2 20.5625C118.979 20.125 118.868 19.5937 118.868 18.9687C118.868 18.3542 118.976 17.819 119.192 17.3633C119.409 16.9049 119.709 16.5508 120.095 16.3008C120.48 16.0482 120.925 15.9219 121.431 15.9219C121.821 15.9219 122.131 15.987 122.36 16.1172C122.592 16.2448 122.769 16.3906 122.892 16.5547C123.017 16.7161 123.113 16.849 123.181 16.9531H123.274V16H124.165V22.1719C124.165 22.6875 124.048 23.1068 123.813 23.4297C123.582 23.7552 123.269 23.9935 122.876 24.1445C122.485 24.2982 122.05 24.375 121.571 24.375ZM121.54 21.0781C121.91 21.0781 122.222 20.9935 122.478 20.8242C122.733 20.6549 122.927 20.4115 123.06 20.0938C123.192 19.776 123.259 19.3958 123.259 18.9531C123.259 18.5208 123.194 18.1393 123.063 17.8086C122.933 17.4779 122.741 17.2187 122.485 17.0312C122.23 16.8437 121.915 16.75 121.54 16.75C121.149 16.75 120.824 16.849 120.563 17.0469C120.306 17.2448 120.112 17.5104 119.981 17.8438C119.854 18.1771 119.79 18.5469 119.79 18.9531C119.79 19.3698 119.855 19.7383 119.985 20.0586C120.118 20.3763 120.313 20.6263 120.571 20.8086C120.832 20.9883 121.155 21.0781 121.54 21.0781ZM128.29 22.125C127.748 22.125 127.273 21.9961 126.864 21.7383C126.458 21.4805 126.14 21.1198 125.911 20.6562C125.685 20.1927 125.571 19.651 125.571 19.0312C125.571 18.4062 125.685 17.8607 125.911 17.3945C126.14 16.9284 126.458 16.5664 126.864 16.3086C127.273 16.0508 127.748 15.9219 128.29 15.9219C128.832 15.9219 129.306 16.0508 129.712 16.3086C130.121 16.5664 130.438 16.9284 130.665 17.3945C130.894 17.8607 131.009 18.4062 131.009 19.0312C131.009 19.651 130.894 20.1927 130.665 20.6562C130.438 21.1198 130.121 21.4805 129.712 21.7383C129.306 21.9961 128.832 22.125 128.29 22.125ZM128.29 21.2969C128.701 21.2969 129.04 21.1914 129.306 20.9805C129.571 20.7695 129.768 20.4922 129.896 20.1484C130.023 19.8047 130.087 19.4323 130.087 19.0312C130.087 18.6302 130.023 18.2565 129.896 17.9102C129.768 17.5638 129.571 17.2839 129.306 17.0703C129.04 16.8568 128.701 16.75 128.29 16.75C127.879 16.75 127.54 16.8568 127.274 17.0703C127.009 17.2839 126.812 17.5638 126.685 17.9102C126.557 18.2565 126.493 18.6302 126.493 19.0312C126.493 19.4323 126.557 19.8047 126.685 20.1484C126.812 20.4922 127.009 20.7695 127.274 20.9805C127.54 21.1914 127.879 21.2969 128.29 21.2969Z" fill="white"/>
<defs>
<linearGradient id="paint0_linear_0_1" x1="1078" y1="173.5" x2="1080.5" y2="446" gradientUnits="userSpaceOnUse">
<stop offset="0.0487289" stop-color="#2BA6FF"/>
<stop offset="1" stop-color="#014EBC"/>
</linearGradient>
<linearGradient id="paint1_linear_0_1" x1="376" y1="93" x2="376" y2="493" gradientUnits="userSpaceOnUse">
<stop stop-color="#2BA5FF"/>
<stop offset="0.869355" stop-color="#004EBB"/>
</linearGradient>
<linearGradient id="paint2_linear_0_1" x1="421.511" y1="137.489" x2="421.511" y2="357.318" gradientUnits="userSpaceOnUse">
<stop offset="0.229355" stop-color="#167EE6"/>
<stop offset="1" stop-color="#014EBC"/>
</linearGradient>
<clipPath id="clip0_0_1">
<rect width="219" height="219" fill="white" transform="translate(312 138)"/>
</clipPath>
</defs>
</svg>
