<svg width="336" height="336" viewBox="0 0 336 336" fill="none" xmlns="http://www.w3.org/2000/svg">
<path d="M267.058 68.9372C228.47 30.3543 165.904 30.3543 127.316 68.9372C91.4755 104.785 88.9795 161.288 119.725 200.071L111.648 208.148L104.941 201.441L50.1355 256.241C46.9184 254.197 44.4395 253.323 43.4282 254.342L40.4288 257.333C35.5519 262.21 73.7858 300.452 78.6626 295.571L81.6621 292.575C82.6776 291.564 81.7944 289.081 79.7591 285.856L134.561 231.06L127.849 224.352L135.93 216.28C174.719 247.029 231.21 244.529 267.063 208.686C305.642 170.094 305.651 107.533 267.058 68.9372ZM255.415 197.038C223.252 229.191 171.118 229.199 138.964 197.038C106.806 164.889 106.806 112.738 138.964 80.5893C171.109 48.4319 223.261 48.4319 255.415 80.5893C287.568 112.747 287.56 164.88 255.415 197.038Z" fill="url(#paint0_linear_0_1)"/>
<g clip-path="url(#clip0_0_1)">
<path d="M204.48 119.973C205.114 120.29 205.114 120.29 205.76 120.613C205.126 120.93 205.126 120.93 204.48 121.253C204.48 120.831 204.48 120.409 204.48 119.973Z" fill="black"/>
<path d="M163.52 118.693C165.44 119.333 165.44 119.333 165.44 119.333L163.52 118.693Z" fill="black"/>
<path d="M240.16 82.0932C254.955 93.7891 264.756 110.128 267.2 128.933C268.605 149.928 263.88 169.173 249.92 185.253C238.367 198.2 221.783 207.264 204.284 208.435C182.734 209.146 164.424 203.812 148.223 189.356C135.703 177.398 127.4 160.581 126.825 143.151C126.558 121.549 132.653 103.266 147.68 87.5332C172.537 63.5477 212.582 61.0746 240.16 82.0932ZM173.12 103.333C172.049 105.331 170.984 107.332 169.92 109.333C169.615 109.902 169.31 110.472 168.995 111.058C168.706 111.603 168.418 112.147 168.12 112.708C167.852 113.211 167.584 113.714 167.308 114.232C166.63 115.455 166.63 115.455 166.72 116.773C166.013 116.792 166.013 116.792 165.292 116.812C163.154 116.873 161.017 116.943 158.88 117.013C158.138 117.033 157.397 117.053 156.633 117.073C155.919 117.098 155.205 117.123 154.47 117.148C153.485 117.178 153.485 117.178 152.479 117.209C150.74 117.411 149.652 117.804 148.16 118.693C149.142 121.197 150.679 122.437 152.76 124.093C153.35 124.568 153.94 125.042 154.548 125.531C156.651 127.145 158.794 128.684 160.96 130.213C160.821 130.969 160.683 131.725 160.54 132.503C160.36 133.5 160.18 134.497 160 135.493C159.863 136.239 159.863 136.239 159.723 137.001C159.636 137.483 159.549 137.966 159.46 138.463C159.339 139.127 159.339 139.127 159.216 139.804C158.982 141.299 158.982 141.299 159.04 143.653C162.842 142.521 162.842 142.521 166.368 140.758C168.581 139.423 170.465 138.327 173.123 138.726C176.451 139.611 179.584 140.969 182.72 142.373C183.373 142.65 184.025 142.926 184.698 143.211C185.97 143.759 187.228 144.341 188.48 144.933C187.311 139.957 187.311 139.957 185.76 135.093C185.15 132.959 185.371 131.722 185.92 129.573C187.085 127.933 187.085 127.933 188.56 126.373C189.076 125.826 189.591 125.279 190.123 124.716C192.052 122.805 194.071 121.067 196.16 119.333C196.16 119.122 196.16 118.911 196.16 118.693C195.427 118.662 194.693 118.631 193.938 118.598C192.958 118.55 191.979 118.502 191 118.453C190.519 118.433 190.037 118.414 189.541 118.393C188.115 118.319 186.701 118.197 185.28 118.053C184.102 117.934 184.102 117.934 182.9 117.813C179.566 116.162 178.729 113.29 177.32 109.973C177.035 109.338 176.75 108.703 176.456 108.048C175.756 106.482 175.072 104.911 174.4 103.333C173.978 103.333 173.555 103.333 173.12 103.333ZM224.32 103.973C223.28 105.478 222.371 106.944 221.48 108.533C220.745 109.812 220.008 111.089 219.255 112.358C218.619 113.47 218.053 114.622 217.495 115.776C215.806 117.626 215.445 117.687 213.063 117.906C211.922 117.934 210.781 117.942 209.64 117.933C208.501 117.949 207.362 117.966 206.223 117.986C205.431 117.994 205.431 117.994 204.623 118.002C203.03 118.059 201.542 118.291 200 118.693C200.713 120.833 201.264 121.292 202.96 122.693C205.202 124.588 207.278 126.576 209.315 128.688C210.222 129.643 210.222 129.643 211.52 130.213C210.344 135.475 208.778 140.516 206.972 145.593C206.534 146.855 206.143 148.133 205.76 149.413C205.971 149.836 206.182 150.258 206.4 150.693C207.721 149.855 209.041 149.015 210.36 148.173C210.762 147.918 211.163 147.663 211.577 147.4C213.658 146.067 215.701 144.706 217.695 143.246C218.063 142.979 218.431 142.712 218.81 142.437C219.833 141.688 220.848 140.928 221.863 140.168C224.041 138.976 224.559 139.135 226.88 139.813C228.388 140.581 228.388 140.581 229.925 141.533C230.484 141.875 231.042 142.216 231.618 142.568C232.193 142.926 232.768 143.284 233.36 143.653C234.507 144.362 235.656 145.068 236.805 145.773C237.311 146.088 237.817 146.402 238.338 146.726C239.728 147.579 239.728 147.579 241.6 148.133C240.52 142.044 238.815 136.153 237.12 130.213C237.542 130.213 237.965 130.213 238.4 130.213C238.638 129.778 238.875 129.342 239.12 128.893C240.533 126.679 242.202 125.31 244.198 123.631C245.665 122.334 246.849 120.915 248 119.333C244.869 118.562 241.726 118.479 238.52 118.333C237.672 118.292 237.672 118.292 236.806 118.249C235.418 118.182 234.029 118.117 232.64 118.053C231.932 116.547 231.226 115.04 230.52 113.533C230.322 113.113 230.125 112.693 229.921 112.259C228.639 109.519 227.418 106.76 226.24 103.973C225.606 103.973 224.973 103.973 224.32 103.973ZM157.12 153.253C156.203 156.111 157.162 157.988 158.36 160.613C158.564 161.067 158.769 161.522 158.979 161.99C164.833 174.622 174.302 184.395 187.2 189.733C198.106 193.347 209.832 190.939 219.878 186.018C231.352 180.057 241.225 167.788 245.573 155.561C245.74 155.01 245.907 154.46 246.08 153.893C245.419 153.089 245.419 153.089 243.982 153.174C243.331 153.175 242.681 153.176 242.01 153.176C241.266 153.175 240.522 153.175 239.755 153.174C238.52 153.177 238.52 153.177 237.26 153.181C236.39 153.181 235.519 153.181 234.649 153.18C232.28 153.18 229.91 153.184 227.541 153.188C225.067 153.192 222.593 153.193 220.12 153.193C215.432 153.195 210.745 153.201 206.058 153.207C200.723 153.214 195.388 153.218 190.053 153.221C179.075 153.228 168.098 153.239 157.12 153.253Z" fill="url(#paint1_linear_0_1)"/>
<path d="M167.36 171.173C167.994 171.49 167.994 171.49 168.64 171.813C168.429 172.236 168.218 172.658 168 173.093C167.789 172.46 167.578 171.826 167.36 171.173Z" fill="black"/>
<path d="M164.16 139.813C165.44 140.453 165.44 140.453 165.44 140.453L164.16 139.813Z" fill="black"/>
<path d="M244.16 121.253C245.44 121.893 245.44 121.893 245.44 121.893L244.16 121.253Z" fill="black"/>
</g>
<rect x="40" y="4" width="90.3281" height="30" rx="3" fill="#444444"/>
<rect x="40.5" y="4.5" width="89.3281" height="29" rx="2.5" stroke="white" stroke-opacity="0.0980392"/>
<path d="M48.6094 22.1406C48.2292 22.1406 47.8841 22.069 47.5742 21.9258C47.2643 21.7799 47.0182 21.5703 46.8359 21.2969C46.6536 21.0208 46.5625 20.6875 46.5625 20.2969C46.5625 19.9531 46.6302 19.6745 46.7656 19.4609C46.901 19.2448 47.082 19.0755 47.3086 18.9531C47.5352 18.8307 47.7852 18.7396 48.0586 18.6797C48.3346 18.6172 48.612 18.5677 48.8906 18.5313C49.2552 18.4844 49.5508 18.4492 49.7773 18.4258C50.0065 18.3997 50.1732 18.3568 50.2773 18.2969C50.3841 18.237 50.4375 18.1328 50.4375 17.9844V17.9531C50.4375 17.5677 50.332 17.2682 50.1211 17.0547C49.9128 16.8411 49.5964 16.7344 49.1719 16.7344C48.7318 16.7344 48.3867 16.8307 48.1367 17.0234C47.8867 17.2161 47.7109 17.4219 47.6094 17.6406L46.7344 17.3281C46.8906 16.9635 47.099 16.6797 47.3594 16.4766C47.6224 16.2708 47.9089 16.1276 48.2188 16.0469C48.5313 15.9635 48.8385 15.9219 49.1406 15.9219C49.3333 15.9219 49.5547 15.9453 49.8047 15.9922C50.0573 16.0365 50.3008 16.1289 50.5352 16.2695C50.7721 16.4102 50.9688 16.6224 51.125 16.9062C51.2813 17.1901 51.3594 17.5703 51.3594 18.0469V22H50.4375V21.1875H50.3906C50.3281 21.3177 50.224 21.457 50.0781 21.6055C49.9323 21.7539 49.7383 21.8802 49.4961 21.9844C49.2539 22.0885 48.9583 22.1406 48.6094 22.1406ZM48.75 21.3125C49.1146 21.3125 49.4219 21.2409 49.6719 21.0977C49.9245 20.9544 50.1146 20.7695 50.2422 20.543C50.3724 20.3164 50.4375 20.0781 50.4375 19.8281V18.9844C50.3984 19.0312 50.3125 19.0742 50.1797 19.1133C50.0495 19.1497 49.8984 19.1823 49.7266 19.2109C49.5573 19.237 49.3919 19.2604 49.2305 19.2812C49.0716 19.2995 48.9427 19.3151 48.8438 19.3281C48.6042 19.3594 48.3802 19.4102 48.1719 19.4805C47.9661 19.5482 47.7995 19.651 47.6719 19.7891C47.5469 19.9245 47.4844 20.1094 47.4844 20.3437C47.4844 20.6641 47.6029 20.9062 47.8398 21.0703C48.0794 21.2318 48.3828 21.3125 48.75 21.3125ZM53.042 22V16H53.9639V22H53.042ZM53.5107 15C53.3311 15 53.1761 14.9388 53.0459 14.8164C52.9183 14.694 52.8545 14.5469 52.8545 14.375C52.8545 14.2031 52.9183 14.056 53.0459 13.9336C53.1761 13.8112 53.3311 13.75 53.5107 13.75C53.6904 13.75 53.8441 13.8112 53.9717 13.9336C54.1019 14.056 54.167 14.2031 54.167 14.375C54.167 14.5469 54.1019 14.694 53.9717 14.8164C53.8441 14.9388 53.6904 15 53.5107 15ZM58.3242 16V16.7812H55.0898V16H58.3242ZM56.0586 22V15.1719C56.0586 14.8281 56.1393 14.5417 56.3008 14.3125C56.4622 14.0833 56.6719 13.9115 56.9297 13.7969C57.1875 13.6823 57.4596 13.625 57.7461 13.625C57.9727 13.625 58.1576 13.6432 58.3008 13.6797C58.444 13.7161 58.5508 13.75 58.6211 13.7812L58.3555 14.5781C58.3086 14.5625 58.2435 14.543 58.1602 14.5195C58.0794 14.4961 57.9727 14.4844 57.8398 14.4844C57.5352 14.4844 57.3151 14.5612 57.1797 14.7148C57.0469 14.8685 56.9805 15.0937 56.9805 15.3906V22H56.0586ZM61.8066 22.125C61.265 22.125 60.7897 21.9961 60.3809 21.7383C59.9746 21.4805 59.6569 21.1198 59.4277 20.6562C59.2012 20.1927 59.0879 19.651 59.0879 19.0312C59.0879 18.4062 59.2012 17.8607 59.4277 17.3945C59.6569 16.9284 59.9746 16.5664 60.3809 16.3086C60.7897 16.0508 61.265 15.9219 61.8066 15.9219C62.3483 15.9219 62.8223 16.0508 63.2285 16.3086C63.6374 16.5664 63.9551 16.9284 64.1816 17.3945C64.4108 17.8607 64.5254 18.4062 64.5254 19.0312C64.5254 19.651 64.4108 20.1927 64.1816 20.6562C63.9551 21.1198 63.6374 21.4805 63.2285 21.7383C62.8223 21.9961 62.3483 22.125 61.8066 22.125ZM61.8066 21.2969C62.2181 21.2969 62.5566 21.1914 62.8223 20.9805C63.0879 20.7695 63.2845 20.4922 63.4121 20.1484C63.5397 19.8047 63.6035 19.4323 63.6035 19.0312C63.6035 18.6302 63.5397 18.2565 63.4121 17.9102C63.2845 17.5638 63.0879 17.2839 62.8223 17.0703C62.5566 16.8568 62.2181 16.75 61.8066 16.75C61.3952 16.75 61.0566 16.8568 60.791 17.0703C60.5254 17.2839 60.3288 17.5638 60.2012 17.9102C60.0736 18.2565 60.0098 18.6302 60.0098 19.0312C60.0098 19.4323 60.0736 19.8047 60.2012 20.1484C60.3288 20.4922 60.5254 20.7695 60.791 20.9805C61.0566 21.1914 61.3952 21.2969 61.8066 21.2969ZM69.7139 19.5469V16H70.6357V22H69.7139V20.9844H69.6514C69.5107 21.2891 69.292 21.5482 68.9951 21.7617C68.6982 21.9727 68.3232 22.0781 67.8701 22.0781C67.4951 22.0781 67.1618 21.9961 66.8701 21.832C66.5785 21.6654 66.3493 21.4154 66.1826 21.082C66.016 20.7461 65.9326 20.3229 65.9326 19.8125V16H66.8545V19.75C66.8545 20.1875 66.9769 20.5365 67.2217 20.7969C67.4691 21.0573 67.7842 21.1875 68.167 21.1875C68.3962 21.1875 68.6292 21.1289 68.8662 21.0117C69.1058 20.8945 69.3063 20.7148 69.4678 20.4727C69.6318 20.2305 69.7139 19.9219 69.7139 19.5469ZM73.2461 18.3906V22H72.3242V16H73.2148V16.9375H73.293C73.4336 16.6328 73.6471 16.388 73.9336 16.2031C74.2201 16.0156 74.5898 15.9219 75.043 15.9219C75.4492 15.9219 75.8047 16.0052 76.1094 16.1719C76.4141 16.3359 76.651 16.5859 76.8203 16.9219C76.9896 17.2552 77.0742 17.6771 77.0742 18.1875V22H76.1523V18.25C76.1523 17.7786 76.0299 17.4115 75.7852 17.1484C75.5404 16.8828 75.2044 16.75 74.7773 16.75C74.4831 16.75 74.2201 16.8138 73.9883 16.9414C73.7591 17.069 73.5781 17.2552 73.4453 17.5C73.3125 17.7448 73.2461 18.0417 73.2461 18.3906ZM81.0244 22.125C80.5244 22.125 80.083 21.9987 79.7002 21.7461C79.3174 21.4909 79.0179 21.1315 78.8018 20.668C78.5856 20.2018 78.4775 19.651 78.4775 19.0156C78.4775 18.3854 78.5856 17.8385 78.8018 17.375C79.0179 16.9115 79.3187 16.5534 79.7041 16.3008C80.0895 16.0482 80.5348 15.9219 81.04 15.9219C81.4307 15.9219 81.7393 15.987 81.9658 16.1172C82.195 16.2448 82.3695 16.3906 82.4893 16.5547C82.6117 16.7161 82.7067 16.849 82.7744 16.9531H82.8525V14H83.7744V22H82.8838V21.0781H82.7744C82.7067 21.1875 82.6104 21.3255 82.4854 21.4922C82.3604 21.6562 82.182 21.8034 81.9502 21.9336C81.7184 22.0612 81.4098 22.125 81.0244 22.125ZM81.1494 21.2969C81.5192 21.2969 81.8317 21.2005 82.0869 21.0078C82.3421 20.8125 82.5361 20.543 82.6689 20.1992C82.8018 19.8529 82.8682 19.4531 82.8682 19C82.8682 18.5521 82.8031 18.1602 82.6729 17.8242C82.5426 17.4857 82.3499 17.2227 82.0947 17.0352C81.8395 16.8451 81.5244 16.75 81.1494 16.75C80.7588 16.75 80.4333 16.8503 80.1729 17.0508C79.915 17.2487 79.721 17.5182 79.5908 17.8594C79.4632 18.1979 79.3994 18.5781 79.3994 19C79.3994 19.4271 79.4645 19.8151 79.5947 20.1641C79.7275 20.5104 79.9229 20.7865 80.1807 20.9922C80.4411 21.1953 80.764 21.2969 81.1494 21.2969ZM89.0283 18.1406V19H85.5283V18.1406H89.0283ZM91.5723 14V22H90.6504V14H91.5723ZM95.6982 22.125C95.1566 22.125 94.6813 21.9961 94.2725 21.7383C93.8662 21.4805 93.5485 21.1198 93.3193 20.6562C93.0928 20.1927 92.9795 19.651 92.9795 19.0312C92.9795 18.4062 93.0928 17.8607 93.3193 17.3945C93.5485 16.9284 93.8662 16.5664 94.2725 16.3086C94.6813 16.0508 95.1566 15.9219 95.6982 15.9219C96.2399 15.9219 96.7139 16.0508 97.1201 16.3086C97.529 16.5664 97.8467 16.9284 98.0732 17.3945C98.3024 17.8607 98.417 18.4062 98.417 19.0312C98.417 19.651 98.3024 20.1927 98.0732 20.6562C97.8467 21.1198 97.529 21.4805 97.1201 21.7383C96.7139 21.9961 96.2399 22.125 95.6982 22.125ZM95.6982 21.2969C96.1097 21.2969 96.4482 21.1914 96.7139 20.9805C96.9795 20.7695 97.1761 20.4922 97.3037 20.1484C97.4313 19.8047 97.4951 19.4323 97.4951 19.0312C97.4951 18.6302 97.4313 18.2565 97.3037 17.9102C97.1761 17.5638 96.9795 17.2839 96.7139 17.0703C96.4482 16.8568 96.1097 16.75 95.6982 16.75C95.2868 16.75 94.9482 16.8568 94.6826 17.0703C94.417 17.2839 94.2204 17.5638 94.0928 17.9102C93.9652 18.2565 93.9014 18.6302 93.9014 19.0312C93.9014 19.4323 93.9652 19.8047 94.0928 20.1484C94.2204 20.4922 94.417 20.7695 94.6826 20.9805C94.9482 21.1914 95.2868 21.2969 95.6982 21.2969ZM102.246 24.375C101.801 24.375 101.418 24.3177 101.098 24.2031C100.777 24.0911 100.51 23.9427 100.297 23.7578C100.086 23.5755 99.918 23.3802 99.793 23.1719L100.527 22.6563C100.611 22.7656 100.716 22.8906 100.844 23.0312C100.971 23.1745 101.146 23.2982 101.367 23.4023C101.591 23.5091 101.884 23.5625 102.246 23.5625C102.73 23.5625 103.13 23.4453 103.445 23.2109C103.76 22.9766 103.918 22.6094 103.918 22.1094V20.8906H103.84C103.772 21 103.676 21.1354 103.551 21.2969C103.428 21.4557 103.251 21.5977 103.02 21.7227C102.79 21.8451 102.48 21.9062 102.09 21.9062C101.605 21.9062 101.171 21.7917 100.785 21.5625C100.402 21.3333 100.099 21 99.875 20.5625C99.6536 20.125 99.543 19.5937 99.543 18.9687C99.543 18.3542 99.651 17.819 99.8672 17.3633C100.083 16.9049 100.384 16.5508 100.77 16.3008C101.155 16.0482 101.6 15.9219 102.105 15.9219C102.496 15.9219 102.806 15.987 103.035 16.1172C103.267 16.2448 103.444 16.3906 103.566 16.5547C103.691 16.7161 103.788 16.849 103.855 16.9531H103.949V16H104.84V22.1719C104.84 22.6875 104.723 23.1068 104.488 23.4297C104.257 23.7552 103.944 23.9935 103.551 24.1445C103.16 24.2982 102.725 24.375 102.246 24.375ZM102.215 21.0781C102.585 21.0781 102.897 20.9935 103.152 20.8242C103.408 20.6549 103.602 20.4115 103.734 20.0938C103.867 19.776 103.934 19.3958 103.934 18.9531C103.934 18.5208 103.868 18.1393 103.738 17.8086C103.608 17.4779 103.415 17.2187 103.16 17.0312C102.905 16.8437 102.59 16.75 102.215 16.75C101.824 16.75 101.499 16.849 101.238 17.0469C100.98 17.2448 100.786 17.5104 100.656 17.8438C100.529 18.1771 100.465 18.5469 100.465 18.9531C100.465 19.3698 100.53 19.7383 100.66 20.0586C100.793 20.3763 100.988 20.6263 101.246 20.8086C101.507 20.9883 101.829 21.0781 102.215 21.0781ZM108.965 22.125C108.423 22.125 107.948 21.9961 107.539 21.7383C107.133 21.4805 106.815 21.1198 106.586 20.6562C106.359 20.1927 106.246 19.651 106.246 19.0312C106.246 18.4062 106.359 17.8607 106.586 17.3945C106.815 16.9284 107.133 16.5664 107.539 16.3086C107.948 16.0508 108.423 15.9219 108.965 15.9219C109.507 15.9219 109.98 16.0508 110.387 16.3086C110.796 16.5664 111.113 16.9284 111.34 17.3945C111.569 17.8607 111.684 18.4062 111.684 19.0312C111.684 19.651 111.569 20.1927 111.34 20.6562C111.113 21.1198 110.796 21.4805 110.387 21.7383C109.98 21.9961 109.507 22.125 108.965 22.125ZM108.965 21.2969C109.376 21.2969 109.715 21.1914 109.98 20.9805C110.246 20.7695 110.443 20.4922 110.57 20.1484C110.698 19.8047 110.762 19.4323 110.762 19.0312C110.762 18.6302 110.698 18.2565 110.57 17.9102C110.443 17.5638 110.246 17.2839 109.98 17.0703C109.715 16.8568 109.376 16.75 108.965 16.75C108.553 16.75 108.215 16.8568 107.949 17.0703C107.684 17.2839 107.487 17.5638 107.359 17.9102C107.232 18.2565 107.168 18.6302 107.168 19.0312C107.168 19.4323 107.232 19.8047 107.359 20.1484C107.487 20.4922 107.684 20.7695 107.949 20.9805C108.215 21.1914 108.553 21.2969 108.965 21.2969ZM116.528 18.1406V19H113.028V18.1406H116.528ZM122.65 16C122.604 15.6042 122.413 15.2969 122.08 15.0781C121.747 14.8594 121.338 14.75 120.854 14.75C120.499 14.75 120.189 14.8073 119.924 14.9219C119.661 15.0365 119.455 15.194 119.307 15.3945C119.161 15.5951 119.088 15.8229 119.088 16.0781C119.088 16.2917 119.139 16.4753 119.24 16.6289C119.344 16.7799 119.477 16.9062 119.639 17.0078C119.8 17.1068 119.969 17.1888 120.146 17.2539C120.324 17.3164 120.486 17.3672 120.635 17.4062L121.447 17.625C121.656 17.6797 121.887 17.7552 122.143 17.8516C122.4 17.9479 122.646 18.0794 122.881 18.2461C123.118 18.4102 123.313 18.6211 123.467 18.8789C123.62 19.1367 123.697 19.4531 123.697 19.8281C123.697 20.2604 123.584 20.651 123.357 21C123.133 21.349 122.805 21.6263 122.373 21.832C121.943 22.0378 121.421 22.1406 120.807 22.1406C120.234 22.1406 119.738 22.0482 119.318 21.8633C118.902 21.6784 118.574 21.4206 118.334 21.0898C118.097 20.7591 117.963 20.375 117.932 19.9375H118.932C118.958 20.2396 119.059 20.4896 119.236 20.6875C119.416 20.8828 119.643 21.0286 119.916 21.125C120.192 21.2187 120.489 21.2656 120.807 21.2656C121.176 21.2656 121.508 21.2057 121.803 21.0859C122.097 20.9635 122.33 20.7943 122.502 20.5781C122.674 20.3594 122.76 20.1042 122.76 19.8125C122.76 19.5469 122.686 19.3307 122.537 19.1641C122.389 18.9974 122.193 18.862 121.951 18.7578C121.709 18.6536 121.447 18.5625 121.166 18.4844L120.182 18.2031C119.557 18.0234 119.062 17.7669 118.697 17.4336C118.333 17.1003 118.15 16.6641 118.15 16.125C118.15 15.6771 118.271 15.2865 118.514 14.9531C118.758 14.6172 119.087 14.3568 119.498 14.1719C119.912 13.9844 120.374 13.8906 120.885 13.8906C121.4 13.8906 121.859 13.9831 122.26 14.168C122.661 14.3503 122.979 14.6003 123.213 14.918C123.45 15.2357 123.575 15.5964 123.588 16H122.65Z" fill="white"/>
<defs>
<linearGradient id="paint0_linear_0_1" x1="168" y1="40" x2="168" y2="296" gradientUnits="userSpaceOnUse">
<stop stop-color="#2BA5FF"/>
<stop offset="0.869355" stop-color="#004EBB"/>
</linearGradient>
<linearGradient id="paint1_linear_0_1" x1="197.127" y1="67.8064" x2="197.127" y2="208.497" gradientUnits="userSpaceOnUse">
<stop offset="0.229355" stop-color="#167EE6"/>
<stop offset="1" stop-color="#014EBC"/>
</linearGradient>
<clipPath id="clip0_0_1">
<rect width="140.16" height="140.16" fill="white" transform="translate(127.04 68.1333)"/>
</clipPath>
</defs>
</svg>
