<svg width="821" height="109" viewBox="0 0 821 109" fill="none" xmlns="http://www.w3.org/2000/svg">
<path d="M15.9388 93.48H0.418762V77.8H15.9388V93.48ZM62.6588 46.76H0.418762V31.24H62.6588V46.76ZM78.1788 109H15.9388V93.48H62.6588V77.8H15.9388V62.28H62.6588V46.76H78.1788V109ZM103.289 109H87.7688V31.24H103.289V109ZM103.289 15.72H87.7688V0.199999H103.289V15.72ZM143.971 109H128.451V46.76H112.931V31.24H128.451V15.72H143.971V31.24H175.171V46.76H143.971V109ZM190.691 15.72H143.971V0.199999H190.691V15.72ZM246.584 46.76H199.864V31.24H246.584V46.76ZM262.104 93.48H246.584V46.76H262.104V93.48ZM246.584 109H199.864V93.48H246.584V109ZM199.864 93.48H184.344V46.76H199.864V93.48ZM333.934 109H287.214V93.48H333.934V109ZM287.214 93.48H271.694V31.24H287.214V93.48ZM349.454 93.48H333.934V31.24H349.454V93.48ZM374.564 109H359.044V31.24H421.284V46.76H374.564V109ZM436.804 109H421.284V46.76H436.804V109ZM461.914 93.48H446.394V46.76H461.914V93.48ZM524.154 109H461.914V93.48H508.634V46.76H461.914V31.24H508.634V0.199999H524.154V109ZM549.264 109H533.744V93.48H549.264V109ZM574.426 109H558.906V31.24H574.426V109ZM574.426 15.72H558.906V0.199999H574.426V15.72ZM599.589 109H584.069V31.24H646.309V46.76H599.589V109ZM661.829 109H646.309V46.76H661.829V109ZM702.459 109H686.939V46.76H671.419V31.24H686.939V15.72H702.459V31.24H733.659V46.76H702.459V109ZM749.179 15.72H702.459V0.199999H749.179V15.72ZM805.071 46.76H758.351V31.24H805.071V46.76ZM820.591 93.48H805.071V46.76H820.591V93.48ZM805.071 109H758.351V93.48H805.071V109ZM758.351 93.48H742.831V46.76H758.351V93.48Z" fill="url(#paint0_linear_2_98)"/>
<defs>
<linearGradient id="paint0_linear_2_98" x1="325.244" y1="-59.4159" x2="328.237" y2="211.835" gradientUnits="userSpaceOnUse">
<stop offset="0.0487289" stop-color="#2BA6FF"/>
<stop offset="1" stop-color="#014EBC"/>
</linearGradient>
</defs>
</svg>
