<svg width="592" height="592" viewBox="0 0 592 592" fill="none" xmlns="http://www.w3.org/2000/svg">
<path d="M494.117 97.8743C416.941 20.7086 291.807 20.7086 214.631 97.8743C142.951 169.57 137.959 282.576 199.451 360.142L183.297 376.296L169.882 362.882L60.271 472.482C53.8368 468.395 48.8789 466.645 46.8565 468.685L40.8575 474.667C31.1039 484.42 107.572 560.903 117.325 551.141L123.324 545.151C125.355 543.129 123.589 538.162 119.518 531.711L229.121 422.119L215.698 408.705L231.86 392.56C309.437 454.059 422.419 449.058 494.125 377.371C571.284 300.188 571.301 175.066 494.117 97.8743ZM470.829 354.075C406.505 418.382 302.235 418.399 237.928 354.075C173.611 289.778 173.611 185.476 237.928 121.179C302.218 56.8638 406.522 56.8638 470.829 121.179C535.137 185.493 535.12 289.761 470.829 354.075Z" fill="url(#paint0_linear_0_1)"/>
<g clip-path="url(#clip0_0_1)">
<path d="M440.32 124.187C469.911 147.578 489.512 180.257 494.4 217.867C497.209 259.857 487.76 298.347 459.84 330.507C436.734 356.4 403.566 374.528 368.568 376.87C325.467 378.291 288.847 367.625 256.445 338.712C231.405 314.796 214.8 281.163 213.65 246.302C213.117 203.098 225.306 166.533 255.36 135.067C305.074 87.0957 385.164 82.1494 440.32 124.187ZM306.24 166.667C304.098 170.662 301.968 174.664 299.84 178.667C299.23 179.805 298.619 180.944 297.99 182.117C297.413 183.206 296.835 184.295 296.24 185.417C295.704 186.422 295.168 187.428 294.615 188.464C293.26 190.91 293.26 190.91 293.44 193.547C292.026 193.585 292.026 193.585 290.584 193.624C286.309 193.746 282.034 193.886 277.76 194.027C276.277 194.066 274.793 194.106 273.265 194.147C271.838 194.196 270.411 194.246 268.94 194.297C266.969 194.357 266.969 194.357 264.959 194.419C261.48 194.822 259.303 195.608 256.32 197.387C258.285 202.394 261.359 204.875 265.52 208.187C266.7 209.135 267.88 210.084 269.095 211.062C273.303 214.29 277.588 217.368 281.92 220.427C281.643 221.938 281.366 223.45 281.08 225.007C280.72 227 280.36 228.993 280 230.987C279.725 232.479 279.725 232.479 279.445 234.002C279.272 234.967 279.099 235.932 278.92 236.927C278.679 238.254 278.679 238.254 278.433 239.608C277.964 242.598 277.964 242.598 278.08 247.307C285.685 245.043 285.685 245.043 292.735 241.517C297.162 238.845 300.93 236.654 306.246 237.452C312.901 239.222 319.168 241.938 325.44 244.747C326.745 245.299 328.05 245.852 329.395 246.422C331.939 247.519 334.455 248.683 336.96 249.867C334.622 239.913 334.622 239.913 331.52 230.187C330.301 225.919 330.742 223.444 331.84 219.147C334.17 215.867 334.17 215.867 337.12 212.747C338.151 211.653 339.183 210.559 340.245 209.432C344.105 205.609 348.142 202.134 352.32 198.667C352.32 198.244 352.32 197.822 352.32 197.387C350.853 197.324 349.386 197.261 347.875 197.197C345.917 197.101 343.958 197.004 342 196.907C341.037 196.867 340.074 196.828 339.083 196.787C336.229 196.638 333.403 196.394 330.56 196.107C328.204 195.869 328.204 195.869 325.8 195.627C319.132 192.324 317.458 186.58 314.64 179.947C314.07 178.676 313.5 177.406 312.913 176.097C311.512 172.965 310.143 169.823 308.8 166.667C307.955 166.667 307.11 166.667 306.24 166.667ZM408.64 167.947C406.561 170.956 404.743 173.888 402.96 177.067C401.49 179.625 400.016 182.179 398.511 184.717C397.238 186.941 396.106 189.245 394.99 191.552C391.612 195.252 390.89 195.375 386.125 195.812C383.844 195.868 381.562 195.885 379.28 195.867C377.002 195.898 374.723 195.933 372.445 195.972C370.861 195.988 370.861 195.988 369.246 196.005C366.06 196.119 363.085 196.582 360 197.387C361.426 201.666 362.528 202.584 365.92 205.387C370.404 209.177 374.556 213.151 378.63 217.377C380.443 219.286 380.443 219.286 383.04 220.427C380.688 230.951 377.557 241.033 373.944 251.186C373.067 253.71 372.285 256.267 371.52 258.827C371.942 259.672 372.365 260.516 372.8 261.387C375.443 259.711 378.082 258.03 380.72 256.347C381.523 255.836 382.327 255.326 383.155 254.8C387.317 252.134 391.402 249.412 395.39 246.492C396.126 245.958 396.861 245.424 397.619 244.874C399.665 243.376 401.696 241.857 403.725 240.337C408.082 237.951 409.118 238.271 413.76 239.627C416.776 241.162 416.776 241.162 419.85 243.067C420.967 243.75 422.084 244.433 423.235 245.137C424.385 245.853 425.535 246.569 426.72 247.307C429.015 248.723 431.311 250.137 433.61 251.547C434.622 252.175 435.633 252.804 436.676 253.452C439.457 255.159 439.457 255.159 443.2 256.267C441.039 244.089 437.631 232.307 434.24 220.427C435.085 220.427 435.93 220.427 436.8 220.427C437.275 219.556 437.75 218.684 438.24 217.787C441.066 213.359 444.405 210.62 448.395 207.262C451.331 204.668 453.699 201.831 456 198.667C449.739 197.124 443.453 196.958 437.04 196.667C435.343 196.584 435.343 196.584 433.613 196.499C430.835 196.364 428.058 196.235 425.28 196.107C423.865 193.094 422.452 190.081 421.04 187.067C420.645 186.226 420.25 185.385 419.843 184.519C417.278 179.038 414.836 173.521 412.48 167.947C411.213 167.947 409.946 167.947 408.64 167.947ZM274.24 266.507C272.407 272.222 274.325 275.977 276.72 281.227C277.129 282.135 277.537 283.044 277.958 283.98C289.666 309.245 308.604 328.79 334.4 339.467C356.212 346.694 379.663 341.877 399.757 332.037C422.704 320.114 442.449 295.577 451.145 271.122C451.48 270.021 451.815 268.921 452.16 267.787C450.837 266.179 450.837 266.179 447.964 266.349C446.662 266.35 445.361 266.352 444.02 266.353C442.532 266.351 441.044 266.349 439.511 266.347C437.04 266.354 437.04 266.354 434.52 266.361C432.779 266.362 431.039 266.362 429.298 266.361C424.559 266.36 419.82 266.368 415.081 266.377C410.134 266.385 405.187 266.386 400.24 266.387C390.865 266.391 381.49 266.402 372.115 266.415C361.445 266.429 350.775 266.436 340.105 266.442C318.15 266.456 296.195 266.478 274.24 266.507Z" fill="url(#paint1_linear_0_1)"/>
<path d="M294.72 302.347C295.987 302.98 295.987 302.98 297.28 303.627C296.858 304.471 296.435 305.316 296 306.187C295.578 304.919 295.155 303.652 294.72 302.347Z" fill="black"/>
<path d="M368.96 199.947C370.227 200.58 370.227 200.58 371.52 201.227C370.253 201.86 370.253 201.86 368.96 202.507C368.96 201.662 368.96 200.817 368.96 199.947Z" fill="black"/>
<path d="M287.04 197.387C290.88 198.667 290.88 198.667 290.88 198.667L287.04 197.387Z" fill="black"/>
<path d="M288.32 239.627C290.88 240.907 290.88 240.907 290.88 240.907L288.32 239.627Z" fill="black"/>
<path d="M448.32 202.507C450.88 203.787 450.88 203.787 450.88 203.787L448.32 202.507Z" fill="black"/>
</g>
<rect x="40" y="4" width="93.0938" height="30" rx="3" fill="#444444"/>
<rect x="40.5" y="4.5" width="92.0938" height="29" rx="2.5" stroke="white" stroke-opacity="0.0980392"/>
<path d="M48.6094 22.1406C48.2292 22.1406 47.8841 22.069 47.5742 21.9258C47.2643 21.7799 47.0182 21.5703 46.8359 21.2969C46.6536 21.0208 46.5625 20.6875 46.5625 20.2969C46.5625 19.9531 46.6302 19.6745 46.7656 19.4609C46.901 19.2448 47.082 19.0755 47.3086 18.9531C47.5352 18.8307 47.7852 18.7396 48.0586 18.6797C48.3346 18.6172 48.612 18.5677 48.8906 18.5313C49.2552 18.4844 49.5508 18.4492 49.7773 18.4258C50.0065 18.3997 50.1732 18.3568 50.2773 18.2969C50.3841 18.237 50.4375 18.1328 50.4375 17.9844V17.9531C50.4375 17.5677 50.332 17.2682 50.1211 17.0547C49.9128 16.8411 49.5964 16.7344 49.1719 16.7344C48.7318 16.7344 48.3867 16.8307 48.1367 17.0234C47.8867 17.2161 47.7109 17.4219 47.6094 17.6406L46.7344 17.3281C46.8906 16.9635 47.099 16.6797 47.3594 16.4766C47.6224 16.2708 47.9089 16.1276 48.2188 16.0469C48.5313 15.9635 48.8385 15.9219 49.1406 15.9219C49.3333 15.9219 49.5547 15.9453 49.8047 15.9922C50.0573 16.0365 50.3008 16.1289 50.5352 16.2695C50.7721 16.4102 50.9688 16.6224 51.125 16.9062C51.2813 17.1901 51.3594 17.5703 51.3594 18.0469V22H50.4375V21.1875H50.3906C50.3281 21.3177 50.224 21.457 50.0781 21.6055C49.9323 21.7539 49.7383 21.8802 49.4961 21.9844C49.2539 22.0885 48.9583 22.1406 48.6094 22.1406ZM48.75 21.3125C49.1146 21.3125 49.4219 21.2409 49.6719 21.0977C49.9245 20.9544 50.1146 20.7695 50.2422 20.543C50.3724 20.3164 50.4375 20.0781 50.4375 19.8281V18.9844C50.3984 19.0312 50.3125 19.0742 50.1797 19.1133C50.0495 19.1497 49.8984 19.1823 49.7266 19.2109C49.5573 19.237 49.3919 19.2604 49.2305 19.2812C49.0716 19.2995 48.9427 19.3151 48.8438 19.3281C48.6042 19.3594 48.3802 19.4102 48.1719 19.4805C47.9661 19.5482 47.7995 19.651 47.6719 19.7891C47.5469 19.9245 47.4844 20.1094 47.4844 20.3437C47.4844 20.6641 47.6029 20.9062 47.8398 21.0703C48.0794 21.2318 48.3828 21.3125 48.75 21.3125ZM53.042 22V16H53.9639V22H53.042ZM53.5107 15C53.3311 15 53.1761 14.9388 53.0459 14.8164C52.9183 14.694 52.8545 14.5469 52.8545 14.375C52.8545 14.2031 52.9183 14.056 53.0459 13.9336C53.1761 13.8112 53.3311 13.75 53.5107 13.75C53.6904 13.75 53.8441 13.8112 53.9717 13.9336C54.1019 14.056 54.167 14.2031 54.167 14.375C54.167 14.5469 54.1019 14.694 53.9717 14.8164C53.8441 14.9388 53.6904 15 53.5107 15ZM58.3242 16V16.7812H55.0898V16H58.3242ZM56.0586 22V15.1719C56.0586 14.8281 56.1393 14.5417 56.3008 14.3125C56.4622 14.0833 56.6719 13.9115 56.9297 13.7969C57.1875 13.6823 57.4596 13.625 57.7461 13.625C57.9727 13.625 58.1576 13.6432 58.3008 13.6797C58.444 13.7161 58.5508 13.75 58.6211 13.7812L58.3555 14.5781C58.3086 14.5625 58.2435 14.543 58.1602 14.5195C58.0794 14.4961 57.9727 14.4844 57.8398 14.4844C57.5352 14.4844 57.3151 14.5612 57.1797 14.7148C57.0469 14.8685 56.9805 15.0937 56.9805 15.3906V22H56.0586ZM61.8066 22.125C61.265 22.125 60.7897 21.9961 60.3809 21.7383C59.9746 21.4805 59.6569 21.1198 59.4277 20.6562C59.2012 20.1927 59.0879 19.651 59.0879 19.0312C59.0879 18.4062 59.2012 17.8607 59.4277 17.3945C59.6569 16.9284 59.9746 16.5664 60.3809 16.3086C60.7897 16.0508 61.265 15.9219 61.8066 15.9219C62.3483 15.9219 62.8223 16.0508 63.2285 16.3086C63.6374 16.5664 63.9551 16.9284 64.1816 17.3945C64.4108 17.8607 64.5254 18.4062 64.5254 19.0312C64.5254 19.651 64.4108 20.1927 64.1816 20.6562C63.9551 21.1198 63.6374 21.4805 63.2285 21.7383C62.8223 21.9961 62.3483 22.125 61.8066 22.125ZM61.8066 21.2969C62.2181 21.2969 62.5566 21.1914 62.8223 20.9805C63.0879 20.7695 63.2845 20.4922 63.4121 20.1484C63.5397 19.8047 63.6035 19.4323 63.6035 19.0312C63.6035 18.6302 63.5397 18.2565 63.4121 17.9102C63.2845 17.5638 63.0879 17.2839 62.8223 17.0703C62.5566 16.8568 62.2181 16.75 61.8066 16.75C61.3952 16.75 61.0566 16.8568 60.791 17.0703C60.5254 17.2839 60.3288 17.5638 60.2012 17.9102C60.0736 18.2565 60.0098 18.6302 60.0098 19.0312C60.0098 19.4323 60.0736 19.8047 60.2012 20.1484C60.3288 20.4922 60.5254 20.7695 60.791 20.9805C61.0566 21.1914 61.3952 21.2969 61.8066 21.2969ZM69.7139 19.5469V16H70.6357V22H69.7139V20.9844H69.6514C69.5107 21.2891 69.292 21.5482 68.9951 21.7617C68.6982 21.9727 68.3232 22.0781 67.8701 22.0781C67.4951 22.0781 67.1618 21.9961 66.8701 21.832C66.5785 21.6654 66.3493 21.4154 66.1826 21.082C66.016 20.7461 65.9326 20.3229 65.9326 19.8125V16H66.8545V19.75C66.8545 20.1875 66.9769 20.5365 67.2217 20.7969C67.4691 21.0573 67.7842 21.1875 68.167 21.1875C68.3962 21.1875 68.6292 21.1289 68.8662 21.0117C69.1058 20.8945 69.3063 20.7148 69.4678 20.4727C69.6318 20.2305 69.7139 19.9219 69.7139 19.5469ZM73.2461 18.3906V22H72.3242V16H73.2148V16.9375H73.293C73.4336 16.6328 73.6471 16.388 73.9336 16.2031C74.2201 16.0156 74.5898 15.9219 75.043 15.9219C75.4492 15.9219 75.8047 16.0052 76.1094 16.1719C76.4141 16.3359 76.651 16.5859 76.8203 16.9219C76.9896 17.2552 77.0742 17.6771 77.0742 18.1875V22H76.1523V18.25C76.1523 17.7786 76.0299 17.4115 75.7852 17.1484C75.5404 16.8828 75.2044 16.75 74.7773 16.75C74.4831 16.75 74.2201 16.8138 73.9883 16.9414C73.7591 17.069 73.5781 17.2552 73.4453 17.5C73.3125 17.7448 73.2461 18.0417 73.2461 18.3906ZM81.0244 22.125C80.5244 22.125 80.083 21.9987 79.7002 21.7461C79.3174 21.4909 79.0179 21.1315 78.8018 20.668C78.5856 20.2018 78.4775 19.651 78.4775 19.0156C78.4775 18.3854 78.5856 17.8385 78.8018 17.375C79.0179 16.9115 79.3187 16.5534 79.7041 16.3008C80.0895 16.0482 80.5348 15.9219 81.04 15.9219C81.4307 15.9219 81.7393 15.987 81.9658 16.1172C82.195 16.2448 82.3695 16.3906 82.4893 16.5547C82.6117 16.7161 82.7067 16.849 82.7744 16.9531H82.8525V14H83.7744V22H82.8838V21.0781H82.7744C82.7067 21.1875 82.6104 21.3255 82.4854 21.4922C82.3604 21.6562 82.182 21.8034 81.9502 21.9336C81.7184 22.0612 81.4098 22.125 81.0244 22.125ZM81.1494 21.2969C81.5192 21.2969 81.8317 21.2005 82.0869 21.0078C82.3421 20.8125 82.5361 20.543 82.6689 20.1992C82.8018 19.8529 82.8682 19.4531 82.8682 19C82.8682 18.5521 82.8031 18.1602 82.6729 17.8242C82.5426 17.4857 82.3499 17.2227 82.0947 17.0352C81.8395 16.8451 81.5244 16.75 81.1494 16.75C80.7588 16.75 80.4333 16.8503 80.1729 17.0508C79.915 17.2487 79.721 17.5182 79.5908 17.8594C79.4632 18.1979 79.3994 18.5781 79.3994 19C79.3994 19.4271 79.4645 19.8151 79.5947 20.1641C79.7275 20.5104 79.9229 20.7865 80.1807 20.9922C80.4411 21.1953 80.764 21.2969 81.1494 21.2969ZM89.0283 18.1406V19H85.5283V18.1406H89.0283ZM91.5723 14V22H90.6504V14H91.5723ZM95.6982 22.125C95.1566 22.125 94.6813 21.9961 94.2725 21.7383C93.8662 21.4805 93.5485 21.1198 93.3193 20.6562C93.0928 20.1927 92.9795 19.651 92.9795 19.0312C92.9795 18.4062 93.0928 17.8607 93.3193 17.3945C93.5485 16.9284 93.8662 16.5664 94.2725 16.3086C94.6813 16.0508 95.1566 15.9219 95.6982 15.9219C96.2399 15.9219 96.7139 16.0508 97.1201 16.3086C97.529 16.5664 97.8467 16.9284 98.0732 17.3945C98.3024 17.8607 98.417 18.4062 98.417 19.0312C98.417 19.651 98.3024 20.1927 98.0732 20.6562C97.8467 21.1198 97.529 21.4805 97.1201 21.7383C96.7139 21.9961 96.2399 22.125 95.6982 22.125ZM95.6982 21.2969C96.1097 21.2969 96.4482 21.1914 96.7139 20.9805C96.9795 20.7695 97.1761 20.4922 97.3037 20.1484C97.4313 19.8047 97.4951 19.4323 97.4951 19.0312C97.4951 18.6302 97.4313 18.2565 97.3037 17.9102C97.1761 17.5638 96.9795 17.2839 96.7139 17.0703C96.4482 16.8568 96.1097 16.75 95.6982 16.75C95.2868 16.75 94.9482 16.8568 94.6826 17.0703C94.417 17.2839 94.2204 17.5638 94.0928 17.9102C93.9652 18.2565 93.9014 18.6302 93.9014 19.0312C93.9014 19.4323 93.9652 19.8047 94.0928 20.1484C94.2204 20.4922 94.417 20.7695 94.6826 20.9805C94.9482 21.1914 95.2868 21.2969 95.6982 21.2969ZM102.246 24.375C101.801 24.375 101.418 24.3177 101.098 24.2031C100.777 24.0911 100.51 23.9427 100.297 23.7578C100.086 23.5755 99.918 23.3802 99.793 23.1719L100.527 22.6563C100.611 22.7656 100.716 22.8906 100.844 23.0312C100.971 23.1745 101.146 23.2982 101.367 23.4023C101.591 23.5091 101.884 23.5625 102.246 23.5625C102.73 23.5625 103.13 23.4453 103.445 23.2109C103.76 22.9766 103.918 22.6094 103.918 22.1094V20.8906H103.84C103.772 21 103.676 21.1354 103.551 21.2969C103.428 21.4557 103.251 21.5977 103.02 21.7227C102.79 21.8451 102.48 21.9062 102.09 21.9062C101.605 21.9062 101.171 21.7917 100.785 21.5625C100.402 21.3333 100.099 21 99.875 20.5625C99.6536 20.125 99.543 19.5937 99.543 18.9687C99.543 18.3542 99.651 17.819 99.8672 17.3633C100.083 16.9049 100.384 16.5508 100.77 16.3008C101.155 16.0482 101.6 15.9219 102.105 15.9219C102.496 15.9219 102.806 15.987 103.035 16.1172C103.267 16.2448 103.444 16.3906 103.566 16.5547C103.691 16.7161 103.788 16.849 103.855 16.9531H103.949V16H104.84V22.1719C104.84 22.6875 104.723 23.1068 104.488 23.4297C104.257 23.7552 103.944 23.9935 103.551 24.1445C103.16 24.2982 102.725 24.375 102.246 24.375ZM102.215 21.0781C102.585 21.0781 102.897 20.9935 103.152 20.8242C103.408 20.6549 103.602 20.4115 103.734 20.0938C103.867 19.776 103.934 19.3958 103.934 18.9531C103.934 18.5208 103.868 18.1393 103.738 17.8086C103.608 17.4779 103.415 17.2187 103.16 17.0312C102.905 16.8437 102.59 16.75 102.215 16.75C101.824 16.75 101.499 16.849 101.238 17.0469C100.98 17.2448 100.786 17.5104 100.656 17.8438C100.529 18.1771 100.465 18.5469 100.465 18.9531C100.465 19.3698 100.53 19.7383 100.66 20.0586C100.793 20.3763 100.988 20.6263 101.246 20.8086C101.507 20.9883 101.829 21.0781 102.215 21.0781ZM108.965 22.125C108.423 22.125 107.948 21.9961 107.539 21.7383C107.133 21.4805 106.815 21.1198 106.586 20.6562C106.359 20.1927 106.246 19.651 106.246 19.0312C106.246 18.4062 106.359 17.8607 106.586 17.3945C106.815 16.9284 107.133 16.5664 107.539 16.3086C107.948 16.0508 108.423 15.9219 108.965 15.9219C109.507 15.9219 109.98 16.0508 110.387 16.3086C110.796 16.5664 111.113 16.9284 111.34 17.3945C111.569 17.8607 111.684 18.4062 111.684 19.0312C111.684 19.651 111.569 20.1927 111.34 20.6562C111.113 21.1198 110.796 21.4805 110.387 21.7383C109.98 21.9961 109.507 22.125 108.965 22.125ZM108.965 21.2969C109.376 21.2969 109.715 21.1914 109.98 20.9805C110.246 20.7695 110.443 20.4922 110.57 20.1484C110.698 19.8047 110.762 19.4323 110.762 19.0312C110.762 18.6302 110.698 18.2565 110.57 17.9102C110.443 17.5638 110.246 17.2839 109.98 17.0703C109.715 16.8568 109.376 16.75 108.965 16.75C108.553 16.75 108.215 16.8568 107.949 17.0703C107.684 17.2839 107.487 17.5638 107.359 17.9102C107.232 18.2565 107.168 18.6302 107.168 19.0312C107.168 19.4323 107.232 19.8047 107.359 20.1484C107.487 20.4922 107.684 20.7695 107.949 20.9805C108.215 21.1914 108.553 21.2969 108.965 21.2969ZM116.528 18.1406V19H113.028V18.1406H116.528ZM118.275 14H119.432L122.15 20.6406H122.244L124.963 14H126.119V22H125.213V15.9219H125.135L122.635 22H121.76L119.26 15.9219H119.182V22H118.275V14Z" fill="white"/>
<defs>
<linearGradient id="paint0_linear_0_1" x1="296" y1="40" x2="296" y2="552" gradientUnits="userSpaceOnUse">
<stop stop-color="#2BA5FF"/>
<stop offset="0.869355" stop-color="#004EBB"/>
</linearGradient>
<linearGradient id="paint1_linear_0_1" x1="354.254" y1="95.613" x2="354.254" y2="376.994" gradientUnits="userSpaceOnUse">
<stop offset="0.229355" stop-color="#167EE6"/>
<stop offset="1" stop-color="#014EBC"/>
</linearGradient>
<clipPath id="clip0_0_1">
<rect width="280.32" height="280.32" fill="white" transform="translate(214.08 96.2667)"/>
</clipPath>
</defs>
</svg>
