<svg width="848" height="848" viewBox="0 0 848 848" fill="none" xmlns="http://www.w3.org/2000/svg">
<path d="M721.175 126.812C605.411 11.0628 417.711 11.0628 301.947 126.812C194.426 234.356 186.938 403.863 279.176 520.214L254.945 544.444L234.824 524.322L70.4065 688.723C60.7552 682.592 53.3184 679.968 50.2847 683.027L41.2863 692C26.6558 706.63 141.357 821.355 155.988 806.712L164.986 797.726C168.033 794.693 165.383 787.243 159.277 777.567L323.682 613.179L303.547 593.057L327.791 568.84C444.156 661.088 613.629 653.588 721.188 546.057C836.927 430.282 836.952 242.599 721.175 126.812ZM686.244 511.113C589.757 607.572 433.353 607.598 336.891 511.113C240.417 414.666 240.417 258.214 336.891 161.768C433.327 65.2956 589.783 65.2956 686.244 161.768C782.705 258.24 782.68 414.641 686.244 511.113Z" fill="url(#paint0_linear_0_1)"/>
<g clip-path="url(#clip0_0_1)">
<path d="M640.48 166.28C684.866 201.368 714.268 250.385 721.6 306.8C725.814 369.785 711.641 427.52 669.76 475.76C635.102 514.6 585.35 541.793 532.852 545.305C468.201 547.437 413.271 531.438 364.667 488.068C327.108 452.193 302.2 401.744 300.475 349.453C299.675 284.648 317.959 229.799 363.04 182.6C437.611 110.644 557.746 103.224 640.48 166.28ZM439.36 230C436.147 235.993 432.952 241.996 429.76 248C428.844 249.708 427.928 251.416 426.985 253.175C426.119 254.809 425.252 256.442 424.36 258.125C423.556 259.633 422.751 261.141 421.922 262.695C419.89 266.364 419.89 266.364 420.16 270.32C418.039 270.377 418.039 270.377 415.876 270.435C409.463 270.618 403.052 270.829 396.64 271.04C394.415 271.099 392.19 271.159 389.897 271.22C387.757 271.294 385.616 271.369 383.41 271.445C380.454 271.536 380.454 271.536 377.438 271.628C372.22 272.233 368.955 273.412 364.48 276.08C367.427 283.592 372.038 287.312 378.28 292.28C380.05 293.703 381.819 295.126 383.642 296.593C389.954 301.435 396.382 306.052 402.88 310.64C402.464 312.907 402.048 315.174 401.62 317.51C401.08 320.5 400.54 323.49 400 326.48C399.588 328.719 399.588 328.719 399.167 331.003C398.908 332.45 398.648 333.898 398.38 335.39C398.018 337.381 398.018 337.381 397.649 339.412C396.947 343.898 396.947 343.898 397.12 350.96C408.527 347.565 408.527 347.565 419.102 342.275C425.744 338.268 431.395 334.981 439.369 336.178C449.352 338.832 458.753 342.906 468.16 347.12C470.118 347.949 472.075 348.778 474.092 349.633C477.909 351.278 481.682 353.024 485.44 354.8C481.933 339.87 481.933 339.87 477.28 325.28C475.451 318.878 476.113 315.165 477.76 308.72C481.255 303.8 481.255 303.8 485.68 299.12C487.227 297.479 488.774 295.838 490.367 294.148C496.157 288.414 502.212 283.201 508.48 278C508.48 277.366 508.48 276.733 508.48 276.08C506.28 275.986 504.079 275.892 501.812 275.795C498.875 275.651 495.937 275.506 493 275.36C491.556 275.301 490.112 275.241 488.624 275.18C484.344 274.958 480.104 274.591 475.84 274.16C472.306 273.804 472.306 273.804 468.7 273.44C458.697 268.486 456.186 259.87 451.96 249.92C451.105 248.014 450.25 246.108 449.369 244.145C447.268 239.447 445.215 234.735 443.2 230C441.933 230 440.666 230 439.36 230ZM592.96 231.92C589.841 236.434 587.114 240.832 584.44 245.6C582.235 249.437 580.023 253.268 577.766 257.075C575.857 260.412 574.158 263.867 572.485 267.328C567.418 272.878 566.335 273.063 559.187 273.718C555.766 273.801 552.342 273.827 548.92 273.8C545.502 273.847 542.085 273.899 538.667 273.958C536.292 273.982 536.292 273.982 533.868 274.007C529.09 274.178 524.627 274.873 520 276.08C522.14 282.499 523.791 283.876 528.88 288.08C535.606 293.766 541.834 299.727 547.945 306.065C550.664 308.928 550.664 308.928 554.56 310.64C551.031 326.426 546.335 341.549 540.917 356.779C539.601 360.565 538.428 364.4 537.28 368.24C537.914 369.507 538.547 370.774 539.2 372.08C543.164 369.566 547.123 367.045 551.08 364.52C552.285 363.754 553.49 362.989 554.732 362.2C560.975 358.202 567.103 354.118 573.085 349.738C574.188 348.937 575.292 348.136 576.429 347.311C579.498 345.064 582.543 342.785 585.587 340.505C592.123 336.927 593.677 337.406 600.64 339.44C605.163 341.743 605.163 341.743 609.775 344.6C611.451 345.625 613.126 346.649 614.852 347.705C616.578 348.779 618.303 349.853 620.08 350.96C623.522 353.085 626.967 355.205 630.415 357.32C631.932 358.263 633.45 359.206 635.013 360.178C639.185 362.738 639.185 362.738 644.8 364.4C641.559 346.133 636.446 328.46 631.36 310.64C632.627 310.64 633.894 310.64 635.2 310.64C635.913 309.333 636.626 308.026 637.36 306.68C641.599 300.039 646.607 295.93 652.592 290.893C656.996 287.003 660.548 282.746 664 278C654.608 275.686 645.179 275.438 635.56 275C633.015 274.876 633.015 274.876 630.419 274.749C626.253 274.546 622.086 274.352 617.92 274.16C615.797 269.641 613.678 265.121 611.56 260.6C610.967 259.339 610.374 258.078 609.764 256.779C605.916 248.557 602.254 240.281 598.72 231.92C596.819 231.92 594.918 231.92 592.96 231.92ZM391.36 379.76C388.61 388.333 391.487 393.965 395.08 401.84C395.693 403.203 396.306 404.566 396.937 405.97C414.5 443.867 442.906 473.186 481.6 489.2C514.318 500.041 549.495 492.816 579.635 478.055C614.056 460.171 643.674 423.365 656.717 386.683C657.22 385.032 657.722 383.381 658.24 381.68C656.256 379.268 656.256 379.268 651.946 379.524C649.994 379.526 648.041 379.527 646.03 379.529C643.798 379.526 641.566 379.524 639.266 379.521C635.56 379.531 635.56 379.531 631.78 379.542C629.169 379.543 626.558 379.542 623.947 379.541C616.839 379.541 609.731 379.552 602.622 379.565C595.201 379.577 587.78 379.578 580.359 379.581C566.297 379.587 552.235 379.602 538.173 379.622C522.168 379.643 506.163 379.654 490.158 379.663C457.225 379.683 424.293 379.717 391.36 379.76Z" fill="url(#paint1_linear_0_1)"/>
<path d="M422.08 433.52C423.981 434.47 423.981 434.47 425.92 435.44C425.286 436.707 424.653 437.974 424 439.28C423.366 437.379 422.733 435.478 422.08 433.52Z" fill="black"/>
<path d="M533.44 279.92C535.341 280.87 535.341 280.87 537.28 281.84C535.379 282.79 535.379 282.79 533.44 283.76C533.44 282.493 533.44 281.226 533.44 279.92Z" fill="black"/>
<path d="M410.56 276.08C416.32 278 416.32 278 416.32 278L410.56 276.08Z" fill="black"/>
<path d="M412.48 339.44C416.32 341.36 416.32 341.36 416.32 341.36L412.48 339.44Z" fill="black"/>
<path d="M652.48 283.76C656.32 285.68 656.32 285.68 656.32 285.68L652.48 283.76Z" fill="black"/>
</g>
<rect x="40" y="4" width="89.5" height="30" rx="3" fill="#444444"/>
<rect x="40.5" y="4.5" width="88.5" height="29" rx="2.5" stroke="white" stroke-opacity="0.0980392"/>
<path d="M48.6094 22.1406C48.2292 22.1406 47.8841 22.069 47.5742 21.9258C47.2643 21.7799 47.0182 21.5703 46.8359 21.2969C46.6536 21.0208 46.5625 20.6875 46.5625 20.2969C46.5625 19.9531 46.6302 19.6745 46.7656 19.4609C46.901 19.2448 47.082 19.0755 47.3086 18.9531C47.5352 18.8307 47.7852 18.7396 48.0586 18.6797C48.3346 18.6172 48.612 18.5677 48.8906 18.5313C49.2552 18.4844 49.5508 18.4492 49.7773 18.4258C50.0065 18.3997 50.1732 18.3568 50.2773 18.2969C50.3841 18.237 50.4375 18.1328 50.4375 17.9844V17.9531C50.4375 17.5677 50.332 17.2682 50.1211 17.0547C49.9128 16.8411 49.5964 16.7344 49.1719 16.7344C48.7318 16.7344 48.3867 16.8307 48.1367 17.0234C47.8867 17.2161 47.7109 17.4219 47.6094 17.6406L46.7344 17.3281C46.8906 16.9635 47.099 16.6797 47.3594 16.4766C47.6224 16.2708 47.9089 16.1276 48.2188 16.0469C48.5313 15.9635 48.8385 15.9219 49.1406 15.9219C49.3333 15.9219 49.5547 15.9453 49.8047 15.9922C50.0573 16.0365 50.3008 16.1289 50.5352 16.2695C50.7721 16.4102 50.9688 16.6224 51.125 16.9062C51.2813 17.1901 51.3594 17.5703 51.3594 18.0469V22H50.4375V21.1875H50.3906C50.3281 21.3177 50.224 21.457 50.0781 21.6055C49.9323 21.7539 49.7383 21.8802 49.4961 21.9844C49.2539 22.0885 48.9583 22.1406 48.6094 22.1406ZM48.75 21.3125C49.1146 21.3125 49.4219 21.2409 49.6719 21.0977C49.9245 20.9544 50.1146 20.7695 50.2422 20.543C50.3724 20.3164 50.4375 20.0781 50.4375 19.8281V18.9844C50.3984 19.0312 50.3125 19.0742 50.1797 19.1133C50.0495 19.1497 49.8984 19.1823 49.7266 19.2109C49.5573 19.237 49.3919 19.2604 49.2305 19.2812C49.0716 19.2995 48.9427 19.3151 48.8438 19.3281C48.6042 19.3594 48.3802 19.4102 48.1719 19.4805C47.9661 19.5482 47.7995 19.651 47.6719 19.7891C47.5469 19.9245 47.4844 20.1094 47.4844 20.3437C47.4844 20.6641 47.6029 20.9062 47.8398 21.0703C48.0794 21.2318 48.3828 21.3125 48.75 21.3125ZM53.042 22V16H53.9639V22H53.042ZM53.5107 15C53.3311 15 53.1761 14.9388 53.0459 14.8164C52.9183 14.694 52.8545 14.5469 52.8545 14.375C52.8545 14.2031 52.9183 14.056 53.0459 13.9336C53.1761 13.8112 53.3311 13.75 53.5107 13.75C53.6904 13.75 53.8441 13.8112 53.9717 13.9336C54.1019 14.056 54.167 14.2031 54.167 14.375C54.167 14.5469 54.1019 14.694 53.9717 14.8164C53.8441 14.9388 53.6904 15 53.5107 15ZM58.3242 16V16.7812H55.0898V16H58.3242ZM56.0586 22V15.1719C56.0586 14.8281 56.1393 14.5417 56.3008 14.3125C56.4622 14.0833 56.6719 13.9115 56.9297 13.7969C57.1875 13.6823 57.4596 13.625 57.7461 13.625C57.9727 13.625 58.1576 13.6432 58.3008 13.6797C58.444 13.7161 58.5508 13.75 58.6211 13.7812L58.3555 14.5781C58.3086 14.5625 58.2435 14.543 58.1602 14.5195C58.0794 14.4961 57.9727 14.4844 57.8398 14.4844C57.5352 14.4844 57.3151 14.5612 57.1797 14.7148C57.0469 14.8685 56.9805 15.0937 56.9805 15.3906V22H56.0586ZM61.8066 22.125C61.265 22.125 60.7897 21.9961 60.3809 21.7383C59.9746 21.4805 59.6569 21.1198 59.4277 20.6562C59.2012 20.1927 59.0879 19.651 59.0879 19.0312C59.0879 18.4062 59.2012 17.8607 59.4277 17.3945C59.6569 16.9284 59.9746 16.5664 60.3809 16.3086C60.7897 16.0508 61.265 15.9219 61.8066 15.9219C62.3483 15.9219 62.8223 16.0508 63.2285 16.3086C63.6374 16.5664 63.9551 16.9284 64.1816 17.3945C64.4108 17.8607 64.5254 18.4062 64.5254 19.0312C64.5254 19.651 64.4108 20.1927 64.1816 20.6562C63.9551 21.1198 63.6374 21.4805 63.2285 21.7383C62.8223 21.9961 62.3483 22.125 61.8066 22.125ZM61.8066 21.2969C62.2181 21.2969 62.5566 21.1914 62.8223 20.9805C63.0879 20.7695 63.2845 20.4922 63.4121 20.1484C63.5397 19.8047 63.6035 19.4323 63.6035 19.0312C63.6035 18.6302 63.5397 18.2565 63.4121 17.9102C63.2845 17.5638 63.0879 17.2839 62.8223 17.0703C62.5566 16.8568 62.2181 16.75 61.8066 16.75C61.3952 16.75 61.0566 16.8568 60.791 17.0703C60.5254 17.2839 60.3288 17.5638 60.2012 17.9102C60.0736 18.2565 60.0098 18.6302 60.0098 19.0312C60.0098 19.4323 60.0736 19.8047 60.2012 20.1484C60.3288 20.4922 60.5254 20.7695 60.791 20.9805C61.0566 21.1914 61.3952 21.2969 61.8066 21.2969ZM69.7139 19.5469V16H70.6357V22H69.7139V20.9844H69.6514C69.5107 21.2891 69.292 21.5482 68.9951 21.7617C68.6982 21.9727 68.3232 22.0781 67.8701 22.0781C67.4951 22.0781 67.1618 21.9961 66.8701 21.832C66.5785 21.6654 66.3493 21.4154 66.1826 21.082C66.016 20.7461 65.9326 20.3229 65.9326 19.8125V16H66.8545V19.75C66.8545 20.1875 66.9769 20.5365 67.2217 20.7969C67.4691 21.0573 67.7842 21.1875 68.167 21.1875C68.3962 21.1875 68.6292 21.1289 68.8662 21.0117C69.1058 20.8945 69.3063 20.7148 69.4678 20.4727C69.6318 20.2305 69.7139 19.9219 69.7139 19.5469ZM73.2461 18.3906V22H72.3242V16H73.2148V16.9375H73.293C73.4336 16.6328 73.6471 16.388 73.9336 16.2031C74.2201 16.0156 74.5898 15.9219 75.043 15.9219C75.4492 15.9219 75.8047 16.0052 76.1094 16.1719C76.4141 16.3359 76.651 16.5859 76.8203 16.9219C76.9896 17.2552 77.0742 17.6771 77.0742 18.1875V22H76.1523V18.25C76.1523 17.7786 76.0299 17.4115 75.7852 17.1484C75.5404 16.8828 75.2044 16.75 74.7773 16.75C74.4831 16.75 74.2201 16.8138 73.9883 16.9414C73.7591 17.069 73.5781 17.2552 73.4453 17.5C73.3125 17.7448 73.2461 18.0417 73.2461 18.3906ZM81.0244 22.125C80.5244 22.125 80.083 21.9987 79.7002 21.7461C79.3174 21.4909 79.0179 21.1315 78.8018 20.668C78.5856 20.2018 78.4775 19.651 78.4775 19.0156C78.4775 18.3854 78.5856 17.8385 78.8018 17.375C79.0179 16.9115 79.3187 16.5534 79.7041 16.3008C80.0895 16.0482 80.5348 15.9219 81.04 15.9219C81.4307 15.9219 81.7393 15.987 81.9658 16.1172C82.195 16.2448 82.3695 16.3906 82.4893 16.5547C82.6117 16.7161 82.7067 16.849 82.7744 16.9531H82.8525V14H83.7744V22H82.8838V21.0781H82.7744C82.7067 21.1875 82.6104 21.3255 82.4854 21.4922C82.3604 21.6562 82.182 21.8034 81.9502 21.9336C81.7184 22.0612 81.4098 22.125 81.0244 22.125ZM81.1494 21.2969C81.5192 21.2969 81.8317 21.2005 82.0869 21.0078C82.3421 20.8125 82.5361 20.543 82.6689 20.1992C82.8018 19.8529 82.8682 19.4531 82.8682 19C82.8682 18.5521 82.8031 18.1602 82.6729 17.8242C82.5426 17.4857 82.3499 17.2227 82.0947 17.0352C81.8395 16.8451 81.5244 16.75 81.1494 16.75C80.7588 16.75 80.4333 16.8503 80.1729 17.0508C79.915 17.2487 79.721 17.5182 79.5908 17.8594C79.4632 18.1979 79.3994 18.5781 79.3994 19C79.3994 19.4271 79.4645 19.8151 79.5947 20.1641C79.7275 20.5104 79.9229 20.7865 80.1807 20.9922C80.4411 21.1953 80.764 21.2969 81.1494 21.2969ZM89.0283 18.1406V19H85.5283V18.1406H89.0283ZM91.5723 14V22H90.6504V14H91.5723ZM95.6982 22.125C95.1566 22.125 94.6813 21.9961 94.2725 21.7383C93.8662 21.4805 93.5485 21.1198 93.3193 20.6562C93.0928 20.1927 92.9795 19.651 92.9795 19.0312C92.9795 18.4062 93.0928 17.8607 93.3193 17.3945C93.5485 16.9284 93.8662 16.5664 94.2725 16.3086C94.6813 16.0508 95.1566 15.9219 95.6982 15.9219C96.2399 15.9219 96.7139 16.0508 97.1201 16.3086C97.529 16.5664 97.8467 16.9284 98.0732 17.3945C98.3024 17.8607 98.417 18.4062 98.417 19.0312C98.417 19.651 98.3024 20.1927 98.0732 20.6562C97.8467 21.1198 97.529 21.4805 97.1201 21.7383C96.7139 21.9961 96.2399 22.125 95.6982 22.125ZM95.6982 21.2969C96.1097 21.2969 96.4482 21.1914 96.7139 20.9805C96.9795 20.7695 97.1761 20.4922 97.3037 20.1484C97.4313 19.8047 97.4951 19.4323 97.4951 19.0312C97.4951 18.6302 97.4313 18.2565 97.3037 17.9102C97.1761 17.5638 96.9795 17.2839 96.7139 17.0703C96.4482 16.8568 96.1097 16.75 95.6982 16.75C95.2868 16.75 94.9482 16.8568 94.6826 17.0703C94.417 17.2839 94.2204 17.5638 94.0928 17.9102C93.9652 18.2565 93.9014 18.6302 93.9014 19.0312C93.9014 19.4323 93.9652 19.8047 94.0928 20.1484C94.2204 20.4922 94.417 20.7695 94.6826 20.9805C94.9482 21.1914 95.2868 21.2969 95.6982 21.2969ZM102.246 24.375C101.801 24.375 101.418 24.3177 101.098 24.2031C100.777 24.0911 100.51 23.9427 100.297 23.7578C100.086 23.5755 99.918 23.3802 99.793 23.1719L100.527 22.6563C100.611 22.7656 100.716 22.8906 100.844 23.0312C100.971 23.1745 101.146 23.2982 101.367 23.4023C101.591 23.5091 101.884 23.5625 102.246 23.5625C102.73 23.5625 103.13 23.4453 103.445 23.2109C103.76 22.9766 103.918 22.6094 103.918 22.1094V20.8906H103.84C103.772 21 103.676 21.1354 103.551 21.2969C103.428 21.4557 103.251 21.5977 103.02 21.7227C102.79 21.8451 102.48 21.9062 102.09 21.9062C101.605 21.9062 101.171 21.7917 100.785 21.5625C100.402 21.3333 100.099 21 99.875 20.5625C99.6536 20.125 99.543 19.5937 99.543 18.9687C99.543 18.3542 99.651 17.819 99.8672 17.3633C100.083 16.9049 100.384 16.5508 100.77 16.3008C101.155 16.0482 101.6 15.9219 102.105 15.9219C102.496 15.9219 102.806 15.987 103.035 16.1172C103.267 16.2448 103.444 16.3906 103.566 16.5547C103.691 16.7161 103.788 16.849 103.855 16.9531H103.949V16H104.84V22.1719C104.84 22.6875 104.723 23.1068 104.488 23.4297C104.257 23.7552 103.944 23.9935 103.551 24.1445C103.16 24.2982 102.725 24.375 102.246 24.375ZM102.215 21.0781C102.585 21.0781 102.897 20.9935 103.152 20.8242C103.408 20.6549 103.602 20.4115 103.734 20.0938C103.867 19.776 103.934 19.3958 103.934 18.9531C103.934 18.5208 103.868 18.1393 103.738 17.8086C103.608 17.4779 103.415 17.2187 103.16 17.0312C102.905 16.8437 102.59 16.75 102.215 16.75C101.824 16.75 101.499 16.849 101.238 17.0469C100.98 17.2448 100.786 17.5104 100.656 17.8438C100.529 18.1771 100.465 18.5469 100.465 18.9531C100.465 19.3698 100.53 19.7383 100.66 20.0586C100.793 20.3763 100.988 20.6263 101.246 20.8086C101.507 20.9883 101.829 21.0781 102.215 21.0781ZM108.965 22.125C108.423 22.125 107.948 21.9961 107.539 21.7383C107.133 21.4805 106.815 21.1198 106.586 20.6562C106.359 20.1927 106.246 19.651 106.246 19.0312C106.246 18.4062 106.359 17.8607 106.586 17.3945C106.815 16.9284 107.133 16.5664 107.539 16.3086C107.948 16.0508 108.423 15.9219 108.965 15.9219C109.507 15.9219 109.98 16.0508 110.387 16.3086C110.796 16.5664 111.113 16.9284 111.34 17.3945C111.569 17.8607 111.684 18.4062 111.684 19.0312C111.684 19.651 111.569 20.1927 111.34 20.6562C111.113 21.1198 110.796 21.4805 110.387 21.7383C109.98 21.9961 109.507 22.125 108.965 22.125ZM108.965 21.2969C109.376 21.2969 109.715 21.1914 109.98 20.9805C110.246 20.7695 110.443 20.4922 110.57 20.1484C110.698 19.8047 110.762 19.4323 110.762 19.0312C110.762 18.6302 110.698 18.2565 110.57 17.9102C110.443 17.5638 110.246 17.2839 109.98 17.0703C109.715 16.8568 109.376 16.75 108.965 16.75C108.553 16.75 108.215 16.8568 107.949 17.0703C107.684 17.2839 107.487 17.5638 107.359 17.9102C107.232 18.2565 107.168 18.6302 107.168 19.0312C107.168 19.4323 107.232 19.8047 107.359 20.1484C107.487 20.4922 107.684 20.7695 107.949 20.9805C108.215 21.1914 108.553 21.2969 108.965 21.2969ZM116.528 18.1406V19H113.028V18.1406H116.528ZM118.275 22V14H119.244V21.1406H122.963V22H118.275Z" fill="white"/>
<defs>
<linearGradient id="paint0_linear_0_1" x1="424" y1="40" x2="424" y2="808" gradientUnits="userSpaceOnUse">
<stop stop-color="#2BA5FF"/>
<stop offset="0.869355" stop-color="#004EBB"/>
</linearGradient>
<linearGradient id="paint1_linear_0_1" x1="511.38" y1="123.419" x2="511.38" y2="545.491" gradientUnits="userSpaceOnUse">
<stop offset="0.229355" stop-color="#167EE6"/>
<stop offset="1" stop-color="#014EBC"/>
</linearGradient>
<clipPath id="clip0_0_1">
<rect width="420.48" height="420.48" fill="white" transform="translate(301.12 124.4)"/>
</clipPath>
</defs>
</svg>
