<svg width="300" height="300" viewBox="0 0 300 300" fill="none" xmlns="http://www.w3.org/2000/svg">
<path d="M33.9159 33.9108C79.1361 -11.3036 152.457 -11.3036 197.677 33.9108C239.677 75.9201 242.602 142.134 206.572 187.583L216.037 197.048L223.897 189.188L288.122 253.408C291.892 251.013 294.798 249.988 295.983 251.183L299.498 254.687C305.213 260.402 260.407 305.217 254.692 299.497L251.177 295.987C249.987 294.802 251.022 291.892 253.407 288.112L189.187 223.898L197.052 216.038L187.582 206.578C142.127 242.613 75.9261 239.683 33.9109 197.678C-11.2994 152.454 -11.3094 79.1401 33.9159 33.9108ZM47.5609 184.029C85.2512 221.708 146.347 221.718 184.027 184.029C221.712 146.354 221.712 85.24 184.027 47.5655C146.357 9.8811 85.2412 9.8811 47.5609 47.5655C9.88071 85.25 9.89071 146.344 47.5609 184.029Z" fill="url(#paint0_linear_4_171)"/>
<path d="M163.74 53.8415C180.153 66.81 191.026 84.9273 193.737 105.778C195.295 129.058 190.054 150.397 174.567 168.227C161.751 182.583 143.353 192.633 123.94 193.931C100.033 194.719 79.72 188.806 61.747 172.776C47.8577 159.517 38.6471 140.87 38.0093 121.543C37.7135 97.5908 44.4749 77.3184 61.1452 59.8734C88.7209 33.2779 133.146 30.5356 163.74 53.8415ZM89.3676 77.3928C88.1795 79.6079 86.998 81.8264 85.8176 84.0457C85.479 84.6769 85.1403 85.308 84.7914 85.9584C84.4711 86.5621 84.1508 87.1659 83.8207 87.7879C83.5233 88.3454 83.2258 88.9028 82.9194 89.4771C82.1677 90.8332 82.1677 90.8332 82.2676 92.2953C81.4834 92.3164 81.4834 92.3164 80.6833 92.3379C78.312 92.4055 75.9411 92.4833 73.5701 92.5614C72.7474 92.5833 71.9246 92.6053 71.0768 92.6279C70.2852 92.6553 69.4935 92.6828 68.6778 92.7111C67.5847 92.7445 67.5847 92.7445 66.4695 92.7786C64.5399 93.0023 63.3325 93.438 61.6777 94.4242C62.7674 97.2005 64.4726 98.5757 66.7808 100.412C67.4352 100.938 68.0896 101.464 68.7638 102.006C71.0978 103.795 73.4747 105.502 75.8776 107.198C75.7239 108.036 75.5701 108.874 75.4117 109.737C75.2119 110.842 75.0122 111.947 74.8126 113.052C74.6603 113.88 74.6603 113.88 74.5048 114.724C74.4087 115.259 74.3126 115.794 74.2136 116.345C74.0797 117.081 74.0797 117.081 73.9432 117.832C73.6835 119.49 73.6835 119.49 73.7476 122.1C77.9659 120.845 77.9659 120.845 81.8766 118.89C84.3324 117.409 86.4221 116.194 89.3711 116.637C93.0625 117.618 96.5388 119.124 100.018 120.681C100.741 120.987 101.465 121.294 102.211 121.61C103.623 122.218 105.018 122.863 106.408 123.52C105.111 118.001 105.111 118.001 103.39 112.609C102.714 110.243 102.958 108.87 103.568 106.488C104.86 104.67 104.86 104.67 106.496 102.94C107.068 102.333 107.64 101.727 108.23 101.102C110.37 98.9829 112.61 97.0561 114.927 95.1338C114.927 94.8996 114.927 94.6655 114.927 94.4242C114.114 94.3894 113.3 94.3547 112.462 94.3188C111.376 94.2656 110.289 94.2119 109.203 94.1581C108.669 94.1361 108.135 94.1142 107.585 94.0915C106.002 94.0094 104.434 93.8738 102.858 93.7145C101.551 93.5828 101.551 93.5828 100.217 93.4484C96.5183 91.6175 95.5898 88.433 94.0269 84.7553C93.7107 84.0509 93.3945 83.3465 93.0687 82.6208C92.292 80.8846 91.5327 79.1427 90.7876 77.3928C90.319 77.3928 89.8504 77.3928 89.3676 77.3928ZM146.167 78.1024C145.014 79.7709 144.006 81.3964 143.017 83.1586C142.201 84.577 141.384 85.9928 140.549 87.4C139.843 88.6331 139.215 89.9101 138.596 91.1892C136.722 93.2406 136.322 93.3089 133.679 93.551C132.413 93.582 131.147 93.5915 129.882 93.5815C128.618 93.5988 127.354 93.6181 126.091 93.6397C125.212 93.6488 125.212 93.6488 124.316 93.6581C122.549 93.7213 120.898 93.9779 119.187 94.4242C119.979 96.7967 120.59 97.3055 122.471 98.8595C124.958 100.961 127.262 103.164 129.521 105.507C130.527 106.565 130.527 106.565 131.967 107.198C130.663 113.033 128.926 118.622 126.922 124.251C126.436 125.65 126.002 127.068 125.577 128.487C125.812 128.955 126.046 129.424 126.287 129.906C127.753 128.977 129.217 128.046 130.681 127.112C131.126 126.829 131.572 126.546 132.031 126.255C134.34 124.777 136.606 123.268 138.818 121.648C139.226 121.352 139.634 121.056 140.054 120.751C141.189 119.921 142.315 119.079 143.441 118.236C145.858 116.914 146.432 117.091 149.007 117.842C150.68 118.693 150.68 118.693 152.385 119.75C153.005 120.128 153.625 120.507 154.263 120.897C154.901 121.294 155.539 121.691 156.196 122.1C157.469 122.886 158.743 123.669 160.018 124.451C160.579 124.799 161.14 125.148 161.718 125.507C163.261 126.453 163.261 126.453 165.337 127.068C164.139 120.316 162.248 113.784 160.367 107.198C160.836 107.198 161.304 107.198 161.787 107.198C162.051 106.715 162.314 106.232 162.586 105.734C164.154 103.279 166.006 101.761 168.219 99.899C169.847 98.4612 171.161 96.8881 172.437 95.1338C168.964 94.2786 165.477 94.1867 161.92 94.025C160.979 93.979 160.979 93.979 160.019 93.9321C158.479 93.8572 156.938 93.7856 155.397 93.7145C154.612 92.0444 153.829 90.3737 153.045 88.7027C152.826 88.2366 152.607 87.7705 152.381 87.2903C150.958 84.2517 149.604 81.1927 148.297 78.1024C147.594 78.1024 146.892 78.1024 146.167 78.1024ZM71.6177 132.745C70.6007 135.914 71.6648 137.995 72.9933 140.906C73.2199 141.409 73.4465 141.913 73.68 142.432C80.1745 156.439 90.6788 167.276 104.988 173.195C117.087 177.201 130.094 174.531 141.24 169.075C153.969 162.465 164.921 148.862 169.744 135.303C169.93 134.693 170.116 134.083 170.307 133.455C169.573 132.563 169.573 132.563 167.98 132.658C167.258 132.658 166.536 132.659 165.792 132.66C164.967 132.659 164.141 132.658 163.291 132.657C161.921 132.66 161.921 132.66 160.522 132.664C159.557 132.665 158.592 132.664 157.626 132.664C154.998 132.664 152.369 132.668 149.74 132.673C146.996 132.677 144.252 132.678 141.508 132.679C136.308 132.681 131.108 132.687 125.908 132.694C119.989 132.702 114.071 132.706 108.152 132.709C95.9739 132.717 83.7958 132.729 71.6177 132.745Z" fill="url(#paint1_linear_4_171)"/>
<defs>
<linearGradient id="paint0_linear_4_171" x1="150" y1="0" x2="150" y2="300" gradientUnits="userSpaceOnUse">
<stop stop-color="#2AA2FC"/>
<stop offset="0.869355" stop-color="#075CC8"/>
</linearGradient>
<linearGradient id="paint1_linear_4_171" x1="116" y1="38" x2="116" y2="194" gradientUnits="userSpaceOnUse">
<stop offset="0.229355" stop-color="#167EE6"/>
<stop offset="1" stop-color="#014EBC"/>
</linearGradient>
</defs>
</svg>
