<svg width="380" height="380" viewBox="0 0 380 380" fill="none" xmlns="http://www.w3.org/2000/svg">
<path d="M73.9159 73.9108C119.136 28.6964 192.457 28.6964 237.677 73.9108C279.677 115.92 282.602 182.134 246.572 227.583L256.037 237.048L263.897 229.188L328.122 293.408C331.892 291.013 334.798 289.988 335.983 291.183L339.498 294.687C345.213 300.402 300.407 345.217 294.692 339.497L291.177 335.987C289.987 334.802 291.022 331.892 293.407 328.112L229.187 263.898L237.052 256.038L227.582 246.578C182.127 282.613 115.926 279.683 73.9109 237.678C28.7006 192.454 28.6906 119.14 73.9159 73.9108ZM87.5609 224.029C125.251 261.708 186.347 261.718 224.027 224.029C261.712 186.354 261.712 125.24 224.027 87.5655C186.357 49.8811 125.241 49.8811 87.5609 87.5655C49.8807 125.25 49.8907 186.344 87.5609 224.029Z" fill="url(#paint0_linear_0_1)"/>
<path d="M203.74 92.8415C220.153 105.81 231.026 123.927 233.737 144.778C235.295 168.058 230.054 189.397 214.567 207.227C201.751 221.583 183.353 231.633 163.94 232.931C140.033 233.719 119.72 227.806 101.747 211.776C87.8577 198.517 78.6471 179.87 78.0093 160.543C77.7135 136.591 84.4749 116.318 101.145 98.8734C128.721 72.2779 173.146 69.5356 203.74 92.8415ZM129.368 116.393C128.18 118.608 126.998 120.826 125.818 123.046C125.479 123.677 125.14 124.308 124.791 124.958C124.471 125.562 124.151 126.166 123.821 126.788C123.523 127.345 123.226 127.903 122.919 128.477C122.168 129.833 122.168 129.833 122.268 131.295C121.483 131.316 121.483 131.316 120.683 131.338C118.312 131.406 115.941 131.483 113.57 131.561C112.747 131.583 111.925 131.605 111.077 131.628C110.285 131.655 109.493 131.683 108.678 131.711C107.585 131.745 107.585 131.745 106.469 131.779C104.54 132.002 103.333 132.438 101.678 133.424C102.767 136.201 104.473 137.576 106.781 139.412C107.435 139.938 108.09 140.464 108.764 141.006C111.098 142.795 113.475 144.502 115.878 146.198C115.724 147.036 115.57 147.874 115.412 148.737C115.212 149.842 115.012 150.947 114.813 152.052C114.66 152.88 114.66 152.88 114.505 153.724C114.409 154.259 114.313 154.794 114.214 155.345C114.08 156.081 114.08 156.081 113.943 156.832C113.684 158.49 113.684 158.49 113.748 161.1C117.966 159.845 117.966 159.845 121.877 157.89C124.332 156.409 126.422 155.194 129.371 155.637C133.062 156.618 136.539 158.124 140.018 159.681C140.741 159.987 141.465 160.294 142.211 160.61C143.623 161.218 145.018 161.863 146.408 162.52C145.111 157.001 145.111 157.001 143.39 151.609C142.714 149.243 142.958 147.87 143.568 145.488C144.86 143.67 144.86 143.67 146.496 141.94C147.068 141.333 147.64 140.727 148.23 140.102C150.37 137.983 152.61 136.056 154.927 134.134C154.927 133.9 154.927 133.665 154.927 133.424C154.114 133.389 153.3 133.355 152.462 133.319C151.376 133.266 150.289 133.212 149.203 133.158C148.669 133.136 148.135 133.114 147.585 133.092C146.002 133.009 144.434 132.874 142.858 132.715C141.551 132.583 141.551 132.583 140.217 132.448C136.518 130.617 135.59 127.433 134.027 123.755C133.711 123.051 133.395 122.347 133.069 121.621C132.292 119.885 131.533 118.143 130.788 116.393C130.319 116.393 129.85 116.393 129.368 116.393ZM186.167 117.102C185.014 118.771 184.006 120.396 183.017 122.159C182.201 123.577 181.384 124.993 180.549 126.4C179.843 127.633 179.215 128.91 178.596 130.189C176.722 132.241 176.322 132.309 173.679 132.551C172.413 132.582 171.147 132.591 169.882 132.581C168.618 132.599 167.354 132.618 166.091 132.64C165.212 132.649 165.212 132.649 164.316 132.658C162.549 132.721 160.898 132.978 159.187 133.424C159.979 135.797 160.59 136.305 162.471 137.859C164.958 139.961 167.262 142.164 169.521 144.507C170.527 145.565 170.527 145.565 171.967 146.198C170.663 152.033 168.926 157.622 166.922 163.251C166.436 164.65 166.002 166.068 165.577 167.487C165.812 167.955 166.046 168.424 166.287 168.906C167.753 167.977 169.217 167.046 170.681 166.112C171.126 165.829 171.572 165.546 172.031 165.255C174.34 163.777 176.606 162.268 178.818 160.648C179.226 160.352 179.634 160.056 180.054 159.751C181.189 158.921 182.315 158.079 183.441 157.236C185.858 155.914 186.432 156.091 189.007 156.842C190.68 157.693 190.68 157.693 192.385 158.75C193.005 159.128 193.625 159.507 194.263 159.897C194.901 160.294 195.539 160.691 196.196 161.1C197.469 161.886 198.743 162.669 200.018 163.451C200.579 163.799 201.14 164.148 201.718 164.507C203.261 165.453 203.261 165.453 205.337 166.068C204.139 159.316 202.248 152.784 200.367 146.198C200.836 146.198 201.304 146.198 201.787 146.198C202.051 145.715 202.314 145.232 202.586 144.734C204.154 142.279 206.006 140.761 208.219 138.899C209.847 137.461 211.161 135.888 212.437 134.134C208.964 133.279 205.477 133.187 201.92 133.025C200.979 132.979 200.979 132.979 200.019 132.932C198.479 132.857 196.938 132.786 195.397 132.715C194.612 131.044 193.829 129.374 193.045 127.703C192.826 127.237 192.607 126.771 192.381 126.29C190.958 123.252 189.604 120.193 188.297 117.102C187.594 117.102 186.892 117.102 186.167 117.102ZM111.618 171.745C110.601 174.914 111.665 176.995 112.993 179.906C113.22 180.409 113.447 180.913 113.68 181.432C120.174 195.439 130.679 206.276 144.988 212.195C157.087 216.201 170.094 213.531 181.24 208.075C193.969 201.465 204.921 187.862 209.744 174.303C209.93 173.693 210.116 173.083 210.307 172.455C209.573 171.563 209.573 171.563 207.98 171.658C207.258 171.658 206.536 171.659 205.792 171.66C204.967 171.659 204.141 171.658 203.291 171.657C201.921 171.66 201.921 171.66 200.522 171.664C199.557 171.665 198.592 171.664 197.626 171.664C194.998 171.664 192.369 171.668 189.74 171.673C186.996 171.677 184.252 171.678 181.508 171.679C176.308 171.681 171.108 171.687 165.908 171.694C159.989 171.702 154.071 171.706 148.152 171.709C135.974 171.717 123.796 171.729 111.618 171.745Z" fill="url(#paint1_linear_0_1)"/>
<rect x="40" y="4" width="104.188" height="30" rx="3" fill="#444444"/>
<rect x="40.5" y="4.5" width="103.188" height="29" rx="2.5" stroke="white" stroke-opacity="0.0980392"/>
<path d="M51.0938 17.3437L50.2656 17.5781C50.2135 17.4401 50.1367 17.306 50.0352 17.1758C49.9362 17.043 49.8008 16.9336 49.6289 16.8477C49.457 16.7617 49.237 16.7187 48.9688 16.7187C48.6016 16.7187 48.2956 16.8034 48.0508 16.9727C47.8086 17.1393 47.6875 17.3516 47.6875 17.6094C47.6875 17.8385 47.7708 18.0195 47.9375 18.1523C48.1042 18.2852 48.3646 18.3958 48.7188 18.4844L49.6094 18.7031C50.1458 18.8333 50.5456 19.0326 50.8086 19.3008C51.0716 19.5664 51.2031 19.9089 51.2031 20.3281C51.2031 20.6719 51.1042 20.9792 50.9063 21.25C50.7109 21.5208 50.4375 21.7344 50.0859 21.8906C49.7344 22.0469 49.3255 22.125 48.8594 22.125C48.2474 22.125 47.7409 21.9922 47.3398 21.7266C46.9388 21.4609 46.6849 21.0729 46.5781 20.5625L47.4531 20.3437C47.5365 20.6667 47.694 20.9089 47.9258 21.0703C48.1602 21.2318 48.4661 21.3125 48.8438 21.3125C49.2734 21.3125 49.6146 21.2214 49.8672 21.0391C50.1224 20.8542 50.25 20.6328 50.25 20.375C50.25 20.1667 50.1771 19.9922 50.0313 19.8516C49.8854 19.7083 49.6615 19.6016 49.3594 19.5312L48.3594 19.2969C47.8099 19.1667 47.4062 18.9648 47.1484 18.6914C46.8932 18.4154 46.7656 18.0703 46.7656 17.6562C46.7656 17.3177 46.8607 17.0182 47.0508 16.7578C47.2435 16.4974 47.5052 16.293 47.8359 16.1445C48.1693 15.9961 48.5469 15.9219 48.9688 15.9219C49.5625 15.9219 50.0286 16.0521 50.3672 16.3125C50.7083 16.5729 50.9505 16.9167 51.0938 17.3437ZM55.1064 22.125C54.5283 22.125 54.0296 21.9974 53.6104 21.7422C53.1937 21.4844 52.8721 21.125 52.6455 20.6641C52.4215 20.2005 52.3096 19.6615 52.3096 19.0469C52.3096 18.4323 52.4215 17.8906 52.6455 17.4219C52.8721 16.9505 53.1872 16.5833 53.5908 16.3203C53.9971 16.0547 54.471 15.9219 55.0127 15.9219C55.3252 15.9219 55.6338 15.974 55.9385 16.0781C56.2432 16.1823 56.5205 16.3516 56.7705 16.5859C57.0205 16.8177 57.2197 17.125 57.3682 17.5078C57.5166 17.8906 57.5908 18.362 57.5908 18.9219V19.3125H52.9658V18.5156H56.6533C56.6533 18.1771 56.5856 17.875 56.4502 17.6094C56.3174 17.3437 56.1273 17.1341 55.8799 16.9805C55.6351 16.8268 55.346 16.75 55.0127 16.75C54.6455 16.75 54.3278 16.8411 54.0596 17.0234C53.7939 17.2031 53.5895 17.4375 53.4463 17.7266C53.3031 18.0156 53.2314 18.3255 53.2314 18.6562V19.1875C53.2314 19.6406 53.3096 20.0247 53.4658 20.3398C53.6247 20.6523 53.8447 20.8906 54.126 21.0547C54.4072 21.2161 54.734 21.2969 55.1064 21.2969C55.3486 21.2969 55.5674 21.263 55.7627 21.1953C55.9606 21.125 56.1312 21.0208 56.2744 20.8828C56.4176 20.7422 56.5283 20.5677 56.6064 20.3594L57.4971 20.6094C57.4033 20.9115 57.2458 21.1771 57.0244 21.4062C56.8031 21.6328 56.5296 21.8099 56.2041 21.9375C55.8786 22.0625 55.5127 22.125 55.1064 22.125ZM60.7588 22.1406C60.3786 22.1406 60.0335 22.069 59.7236 21.9258C59.4137 21.7799 59.1676 21.5703 58.9854 21.2969C58.8031 21.0208 58.7119 20.6875 58.7119 20.2969C58.7119 19.9531 58.7796 19.6745 58.915 19.4609C59.0505 19.2448 59.2314 19.0755 59.458 18.9531C59.6846 18.8307 59.9346 18.7396 60.208 18.6797C60.484 18.6172 60.7614 18.5677 61.04 18.5313C61.4046 18.4844 61.7002 18.4492 61.9268 18.4258C62.1559 18.3997 62.3226 18.3568 62.4268 18.2969C62.5335 18.237 62.5869 18.1328 62.5869 17.9844V17.9531C62.5869 17.5677 62.4814 17.2682 62.2705 17.0547C62.0622 16.8411 61.7458 16.7344 61.3213 16.7344C60.8812 16.7344 60.5361 16.8307 60.2861 17.0234C60.0361 17.2161 59.8604 17.4219 59.7588 17.6406L58.8838 17.3281C59.04 16.9635 59.2484 16.6797 59.5088 16.4766C59.7718 16.2708 60.0583 16.1276 60.3682 16.0469C60.6807 15.9635 60.988 15.9219 61.29 15.9219C61.4827 15.9219 61.7041 15.9453 61.9541 15.9922C62.2067 16.0365 62.4502 16.1289 62.6846 16.2695C62.9215 16.4102 63.1182 16.6224 63.2744 16.9062C63.4307 17.1901 63.5088 17.5703 63.5088 18.0469V22H62.5869V21.1875H62.54C62.4775 21.3177 62.3734 21.457 62.2275 21.6055C62.0817 21.7539 61.8877 21.8802 61.6455 21.9844C61.4033 22.0885 61.1077 22.1406 60.7588 22.1406ZM60.8994 21.3125C61.264 21.3125 61.5713 21.2409 61.8213 21.0977C62.0739 20.9544 62.264 20.7695 62.3916 20.543C62.5218 20.3164 62.5869 20.0781 62.5869 19.8281V18.9844C62.5479 19.0312 62.4619 19.0742 62.3291 19.1133C62.1989 19.1497 62.0479 19.1823 61.876 19.2109C61.7067 19.237 61.5413 19.2604 61.3799 19.2812C61.221 19.2995 61.0921 19.3151 60.9932 19.3281C60.7536 19.3594 60.5296 19.4102 60.3213 19.4805C60.1156 19.5482 59.9489 19.651 59.8213 19.7891C59.6963 19.9245 59.6338 20.1094 59.6338 20.3437C59.6338 20.6641 59.7523 20.9062 59.9893 21.0703C60.2288 21.2318 60.5322 21.3125 60.8994 21.3125ZM65.1914 22V16H66.082V16.9062H66.1445C66.2539 16.6094 66.4518 16.3685 66.7383 16.1836C67.0247 15.9987 67.3477 15.9062 67.707 15.9062C67.7747 15.9062 67.8594 15.9076 67.9609 15.9102C68.0625 15.9128 68.1393 15.9167 68.1914 15.9219V16.8594C68.1602 16.8516 68.0885 16.8398 67.9766 16.8242C67.8672 16.806 67.7513 16.7969 67.6289 16.7969C67.3372 16.7969 67.0768 16.8581 66.8477 16.9805C66.6211 17.1003 66.4414 17.2669 66.3086 17.4805C66.1784 17.6914 66.1133 17.9323 66.1133 18.2031V22H65.1914ZM71.5391 22.125C70.9766 22.125 70.4922 21.9922 70.0859 21.7266C69.6797 21.4609 69.3672 21.0951 69.1484 20.6289C68.9297 20.1628 68.8203 19.6302 68.8203 19.0312C68.8203 18.4219 68.9323 17.8841 69.1563 17.418C69.3828 16.9492 69.6979 16.5833 70.1016 16.3203C70.5078 16.0547 70.9818 15.9219 71.5234 15.9219C71.9453 15.9219 72.3255 16 72.6641 16.1562C73.0026 16.3125 73.2799 16.5312 73.4961 16.8125C73.7122 17.0937 73.8464 17.4219 73.8984 17.7969H72.9766C72.9063 17.5234 72.75 17.2812 72.5078 17.0703C72.2682 16.8568 71.9453 16.75 71.5391 16.75C71.1797 16.75 70.8646 16.8437 70.5938 17.0312C70.3255 17.2161 70.1159 17.4779 69.9648 17.8164C69.8164 18.1523 69.7422 18.5469 69.7422 19C69.7422 19.4635 69.8151 19.8672 69.9609 20.2109C70.1094 20.5547 70.3177 20.8216 70.5859 21.0117C70.8568 21.2018 71.1745 21.2969 71.5391 21.2969C71.7786 21.2969 71.9961 21.2552 72.1914 21.1719C72.3867 21.0885 72.5521 20.9688 72.6875 20.8125C72.8229 20.6562 72.9193 20.4687 72.9766 20.25H73.8984C73.8464 20.6042 73.7174 20.9232 73.5117 21.207C73.3086 21.4883 73.0391 21.7122 72.7031 21.8789C72.3698 22.043 71.9818 22.125 71.5391 22.125ZM76.168 18.3906V22H75.2461V14H76.168V16.9375H76.2461C76.3867 16.6276 76.5977 16.3815 76.8789 16.1992C77.1628 16.0143 77.5404 15.9219 78.0117 15.9219C78.4206 15.9219 78.7786 16.0039 79.0859 16.168C79.3932 16.3294 79.6315 16.5781 79.8008 16.9141C79.9727 17.2474 80.0586 17.6719 80.0586 18.1875V22H79.1367V18.25C79.1367 17.7734 79.013 17.4049 78.7656 17.1445C78.5208 16.8815 78.181 16.75 77.7461 16.75C77.444 16.75 77.1732 16.8138 76.9336 16.9414C76.6966 17.069 76.5091 17.2552 76.3711 17.5C76.2357 17.7448 76.168 18.0417 76.168 18.3906ZM85.1826 18.1406V19H81.6826V18.1406H85.1826ZM86.9297 22V14H87.8516V16.9531H87.9297C87.9974 16.849 88.0911 16.7161 88.2109 16.5547C88.3333 16.3906 88.5078 16.2448 88.7344 16.1172C88.9635 15.987 89.2734 15.9219 89.6641 15.9219C90.1693 15.9219 90.6146 16.0482 91 16.3008C91.3854 16.5534 91.6862 16.9115 91.9023 17.375C92.1185 17.8385 92.2266 18.3854 92.2266 19.0156C92.2266 19.651 92.1185 20.2018 91.9023 20.668C91.6862 21.1315 91.3867 21.4909 91.0039 21.7461C90.6211 21.9987 90.1797 22.125 89.6797 22.125C89.2943 22.125 88.9857 22.0612 88.7539 21.9336C88.5221 21.8034 88.3438 21.6562 88.2188 21.4922C88.0938 21.3255 87.9974 21.1875 87.9297 21.0781H87.8203V22H86.9297ZM87.8359 19C87.8359 19.4531 87.9023 19.8529 88.0352 20.1992C88.168 20.543 88.362 20.8125 88.6172 21.0078C88.8724 21.2005 89.1849 21.2969 89.5547 21.2969C89.9401 21.2969 90.2617 21.1953 90.5195 20.9922C90.7799 20.7865 90.9753 20.5104 91.1055 20.1641C91.2383 19.8151 91.3047 19.4271 91.3047 19C91.3047 18.5781 91.2396 18.1979 91.1094 17.8594C90.9818 17.5182 90.7878 17.2487 90.5273 17.0508C90.2695 16.8503 89.9453 16.75 89.5547 16.75C89.1797 16.75 88.8646 16.8451 88.6094 17.0352C88.3542 17.2227 88.1615 17.4857 88.0313 17.8242C87.901 18.1602 87.8359 18.5521 87.8359 19ZM97.418 19.5469V16H98.3398V22H97.418V20.9844H97.3555C97.2148 21.2891 96.9961 21.5482 96.6992 21.7617C96.4023 21.9727 96.0273 22.0781 95.5742 22.0781C95.1992 22.0781 94.8659 21.9961 94.5742 21.832C94.2826 21.6654 94.0534 21.4154 93.8867 21.082C93.7201 20.7461 93.6367 20.3229 93.6367 19.8125V16H94.5586V19.75C94.5586 20.1875 94.681 20.5365 94.9258 20.7969C95.1732 21.0573 95.4883 21.1875 95.8711 21.1875C96.1003 21.1875 96.3333 21.1289 96.5703 21.0117C96.8099 20.8945 97.0104 20.7148 97.1719 20.4727C97.3359 20.2305 97.418 19.9219 97.418 19.5469ZM102.638 16V16.7812H99.5283V16H102.638ZM100.435 14.5625H101.356V20.2812C101.356 20.5417 101.394 20.737 101.47 20.8672C101.548 20.9948 101.647 21.0807 101.767 21.125C101.889 21.1667 102.018 21.1875 102.153 21.1875C102.255 21.1875 102.338 21.1823 102.403 21.1719C102.468 21.1589 102.521 21.1484 102.56 21.1406L102.747 21.9687C102.685 21.9922 102.597 22.0156 102.485 22.0391C102.373 22.0651 102.231 22.0781 102.06 22.0781C101.799 22.0781 101.544 22.0221 101.294 21.9102C101.047 21.7982 100.841 21.6276 100.677 21.3984C100.515 21.1693 100.435 20.8802 100.435 20.5312V14.5625ZM106.634 16V16.7812H103.524V16H106.634ZM104.431 14.5625H105.353V20.2812C105.353 20.5417 105.39 20.737 105.466 20.8672C105.544 20.9948 105.643 21.0807 105.763 21.125C105.885 21.1667 106.014 21.1875 106.149 21.1875C106.251 21.1875 106.334 21.1823 106.399 21.1719C106.465 21.1589 106.517 21.1484 106.556 21.1406L106.743 21.9687C106.681 21.9922 106.593 22.0156 106.481 22.0391C106.369 22.0651 106.228 22.0781 106.056 22.0781C105.795 22.0781 105.54 22.0221 105.29 21.9102C105.043 21.7982 104.837 21.6276 104.673 21.3984C104.511 21.1693 104.431 20.8802 104.431 20.5312V14.5625ZM110.394 22.125C109.852 22.125 109.377 21.9961 108.968 21.7383C108.562 21.4805 108.244 21.1198 108.015 20.6562C107.788 20.1927 107.675 19.651 107.675 19.0312C107.675 18.4062 107.788 17.8607 108.015 17.3945C108.244 16.9284 108.562 16.5664 108.968 16.3086C109.377 16.0508 109.852 15.9219 110.394 15.9219C110.935 15.9219 111.409 16.0508 111.815 16.3086C112.224 16.5664 112.542 16.9284 112.769 17.3945C112.998 17.8607 113.112 18.4062 113.112 19.0312C113.112 19.651 112.998 20.1927 112.769 20.6562C112.542 21.1198 112.224 21.4805 111.815 21.7383C111.409 21.9961 110.935 22.125 110.394 22.125ZM110.394 21.2969C110.805 21.2969 111.144 21.1914 111.409 20.9805C111.675 20.7695 111.871 20.4922 111.999 20.1484C112.127 19.8047 112.19 19.4323 112.19 19.0312C112.19 18.6302 112.127 18.2565 111.999 17.9102C111.871 17.5638 111.675 17.2839 111.409 17.0703C111.144 16.8568 110.805 16.75 110.394 16.75C109.982 16.75 109.644 16.8568 109.378 17.0703C109.112 17.2839 108.916 17.5638 108.788 17.9102C108.66 18.2565 108.597 18.6302 108.597 19.0312C108.597 19.4323 108.66 19.8047 108.788 20.1484C108.916 20.4922 109.112 20.7695 109.378 20.9805C109.644 21.1914 109.982 21.2969 110.394 21.2969ZM115.441 18.3906V22H114.52V16H115.41V16.9375H115.488C115.629 16.6328 115.842 16.388 116.129 16.2031C116.415 16.0156 116.785 15.9219 117.238 15.9219C117.645 15.9219 118 16.0052 118.305 16.1719C118.609 16.3359 118.846 16.5859 119.016 16.9219C119.185 17.2552 119.27 17.6771 119.27 18.1875V22H118.348V18.25C118.348 17.7786 118.225 17.4115 117.98 17.1484C117.736 16.8828 117.4 16.75 116.973 16.75C116.678 16.75 116.415 16.8138 116.184 16.9414C115.954 17.069 115.773 17.2552 115.641 17.5C115.508 17.7448 115.441 18.0417 115.441 18.3906ZM124.392 18.1406V19H120.892V18.1406H124.392ZM128.451 22.125C127.91 22.125 127.434 21.9961 127.025 21.7383C126.619 21.4805 126.301 21.1198 126.072 20.6562C125.846 20.1927 125.732 19.651 125.732 19.0312C125.732 18.4062 125.846 17.8607 126.072 17.3945C126.301 16.9284 126.619 16.5664 127.025 16.3086C127.434 16.0508 127.91 15.9219 128.451 15.9219C128.993 15.9219 129.467 16.0508 129.873 16.3086C130.282 16.5664 130.6 16.9284 130.826 17.3945C131.055 17.8607 131.17 18.4062 131.17 19.0312C131.17 19.651 131.055 20.1927 130.826 20.6562C130.6 21.1198 130.282 21.4805 129.873 21.7383C129.467 21.9961 128.993 22.125 128.451 22.125ZM128.451 21.2969C128.863 21.2969 129.201 21.1914 129.467 20.9805C129.732 20.7695 129.929 20.4922 130.057 20.1484C130.184 19.8047 130.248 19.4323 130.248 19.0312C130.248 18.6302 130.184 18.2565 130.057 17.9102C129.929 17.5638 129.732 17.2839 129.467 17.0703C129.201 16.8568 128.863 16.75 128.451 16.75C128.04 16.75 127.701 16.8568 127.436 17.0703C127.17 17.2839 126.973 17.5638 126.846 17.9102C126.718 18.2565 126.654 18.6302 126.654 19.0312C126.654 19.4323 126.718 19.8047 126.846 20.1484C126.973 20.4922 127.17 20.7695 127.436 20.9805C127.701 21.1914 128.04 21.2969 128.451 21.2969ZM133.499 18.3906V22H132.577V16H133.468V16.9375H133.546C133.687 16.6328 133.9 16.388 134.187 16.2031C134.473 16.0156 134.843 15.9219 135.296 15.9219C135.702 15.9219 136.058 16.0052 136.362 16.1719C136.667 16.3359 136.904 16.5859 137.073 16.9219C137.243 17.2552 137.327 17.6771 137.327 18.1875V22H136.405V18.25C136.405 17.7786 136.283 17.4115 136.038 17.1484C135.793 16.8828 135.457 16.75 135.03 16.75C134.736 16.75 134.473 16.8138 134.241 16.9414C134.012 17.069 133.831 17.2552 133.698 17.5C133.565 17.7448 133.499 18.0417 133.499 18.3906Z" fill="white"/>
<defs>
<linearGradient id="paint0_linear_0_1" x1="190" y1="40" x2="190" y2="340" gradientUnits="userSpaceOnUse">
<stop stop-color="#70FF87"/>
<stop offset="0.869355" stop-color="#00A71B"/>
</linearGradient>
<linearGradient id="paint1_linear_0_1" x1="156" y1="77" x2="156" y2="233" gradientUnits="userSpaceOnUse">
<stop stop-color="#6BFB82"/>
<stop offset="1" stop-color="#01A81B"/>
</linearGradient>
</defs>
</svg>
