<svg width="155" height="55" viewBox="0 0 155 55" fill="none" xmlns="http://www.w3.org/2000/svg">
<g filter="url(#filter0_b_87_17)">
<path d="M37.9896 21.329C40.5141 9.85576 34.96 6.25529 25.5179 14.5602C16.6311 6.63936 10.3027 9.13562 12.9956 21.2809C0.577685 24.8402 1.4004 31.5401 13.0967 34.9624C10.4206 46.1476 15.4193 50.2281 25.5179 41.7791C35.3134 50.132 40.5122 46.2212 37.8381 34.9144C50.5959 30.802 49.4514 24.8493 37.9896 21.329ZM36.2728 20.897C34.2714 20.4677 32.3348 20.1553 30.3651 19.9848C29.3274 18.5422 28.1187 17.1011 26.7297 15.7604C34.2999 8.85687 38.7615 11.0139 36.2728 20.897ZM16.7322 30.2578C17.4811 31.778 18.4657 33.1701 19.2063 34.3383C18.0003 34.221 16.7013 34.0429 15.3183 33.8102C15.7668 32.618 16.2383 31.4336 16.7322 30.2578ZM16.6311 26.1294C16.0801 24.8721 15.5775 23.6587 15.1668 22.529C16.5944 22.2476 17.9934 21.9922 19.2062 21.9049C18.3035 23.253 17.4461 24.6626 16.6311 26.1294ZM17.6914 28.2416C18.9261 25.8906 20.2322 23.6591 21.6803 21.6649C24.2497 21.5243 26.7918 21.5368 29.3047 21.7129C30.7141 23.5799 32.0294 25.8114 33.2937 28.2416C32.3477 30.1002 31.0043 32.2422 29.4562 34.5303C26.8714 34.7163 24.221 34.6906 21.5289 34.5303C20.1644 32.5429 18.8829 30.4496 17.6914 28.2416ZM34.253 30.2578C34.7433 31.389 35.1964 32.5419 35.6163 33.7142C34.3483 33.968 33.0674 34.1603 31.7788 34.2903C32.6434 33.0167 33.4636 31.6645 34.253 30.2578ZM31.7788 21.905C33.1556 22.0841 34.4856 22.3078 35.7677 22.577C35.3415 23.7833 34.8528 24.9689 34.3035 26.1294C33.5219 24.6639 32.6828 23.2534 31.7788 21.905ZM27.891 19.7926C26.3184 19.7339 24.7187 19.7359 23.0942 19.7926C23.8053 18.9034 24.598 17.9745 25.4674 17.0084C26.3145 17.8777 27.1173 18.8135 27.891 19.7926ZM24.2555 15.7602C22.8665 17.1009 21.6579 18.494 20.6201 19.9366C18.6504 20.1071 16.6633 20.4195 14.662 20.8487C12.2887 10.8156 16.6854 8.85655 24.2555 15.7602ZM13.5511 33.3782C3.03179 30.3699 3.53671 25.6814 13.4501 22.9131C14.0565 24.6626 14.7906 26.4394 15.6213 28.1457C14.8142 29.9103 14.0996 31.7226 13.5511 33.3782ZM14.8639 35.3944C16.6479 35.8105 18.5386 36.0102 20.5191 36.2105C21.7107 37.8094 22.9448 39.2958 24.2556 40.579C16.547 47.6037 12.2498 45.0514 14.8639 35.3944ZM25.4674 39.3789C24.5539 38.4796 23.701 37.4606 22.8923 36.3546C24.6952 36.3907 26.4364 36.3947 28.093 36.3546C27.3001 37.4248 26.4223 38.4359 25.4674 39.3789ZM26.7297 40.579C28.1362 39.1262 29.376 37.6534 30.4662 36.1626C32.3267 36.0325 34.2119 35.7607 36.1213 35.3466C38.7591 45.6255 33.9696 47.1432 26.7297 40.579ZM37.3836 33.2824C36.8428 31.6267 36.1598 29.9104 35.364 28.1458C36.174 26.4574 36.882 24.7264 37.4846 22.9613C47.1624 25.7455 47.9366 30.1941 37.3836 33.2824Z" fill="url(#paint0_linear_87_17)"/>
</g>
<path opacity="0.2" d="M25.4981 23.8599C23.1312 23.8599 21.2109 25.6259 21.2109 27.8043C21.2109 29.2642 22.0733 30.5389 23.3545 31.221V32.0918C23.3545 32.1828 23.3922 32.27 23.4592 32.3343C23.5262 32.3987 23.6171 32.4348 23.7118 32.4348H27.2845C27.3792 32.4348 27.4701 32.3987 27.5371 32.3343C27.6041 32.27 27.6417 32.1828 27.6417 32.0918V31.221C28.923 30.5389 29.7853 29.2642 29.7853 27.8043C29.7853 25.6259 27.865 23.8599 25.4981 23.8599ZM23.8904 29.3478C23.7138 29.3478 23.5411 29.2975 23.3942 29.2033C23.2473 29.1091 23.1329 28.9752 23.0653 28.8185C22.9977 28.6618 22.98 28.4894 23.0144 28.323C23.0489 28.1567 23.134 28.0039 23.2589 27.884C23.3838 27.7641 23.5429 27.6824 23.7162 27.6493C23.8894 27.6162 24.069 27.6332 24.2322 27.6981C24.3954 27.763 24.5349 27.8729 24.6331 28.0139C24.7312 28.1549 24.7836 28.3207 24.7836 28.4903C24.7836 28.7178 24.6895 28.9359 24.522 29.0967C24.3545 29.2575 24.1273 29.3478 23.8904 29.3478ZM27.1058 29.3478C26.9292 29.3478 26.7565 29.2975 26.6096 29.2033C26.4627 29.1091 26.3483 28.9752 26.2807 28.8185C26.2131 28.6618 26.1954 28.4894 26.2298 28.323C26.2643 28.1567 26.3494 28.0039 26.4743 27.884C26.5992 27.7641 26.7583 27.6824 26.9316 27.6493C27.1048 27.6162 27.2844 27.6332 27.4476 27.6981C27.6108 27.763 27.7503 27.8729 27.8485 28.0139C27.9466 28.1549 27.999 28.3207 27.999 28.4903C27.999 28.7178 27.9049 28.9359 27.7374 29.0967C27.5699 29.2575 27.3427 29.3478 27.1058 29.3478Z" fill="url(#paint1_linear_87_17)" fill-opacity="0.8"/>
<path d="M23.8903 27.2891C23.643 27.2891 23.4012 27.3595 23.1956 27.4914C22.9899 27.6233 22.8297 27.8108 22.735 28.0302C22.6404 28.2495 22.6156 28.4909 22.6639 28.7238C22.7121 28.9567 22.8312 29.1706 23.0061 29.3385C23.181 29.5063 23.4038 29.6207 23.6463 29.667C23.8889 29.7133 24.1403 29.6896 24.3688 29.5987C24.5973 29.5078 24.7926 29.354 24.93 29.1565C25.0674 28.9591 25.1407 28.727 25.1407 28.4896C25.1407 28.1712 25.009 27.8658 24.7745 27.6407C24.54 27.4156 24.2219 27.2891 23.8903 27.2891ZM23.8903 29.0041C23.7843 29.0041 23.6807 28.9739 23.5926 28.9174C23.5044 28.8608 23.4357 28.7805 23.3952 28.6865C23.3546 28.5925 23.344 28.489 23.3647 28.3892C23.3854 28.2894 23.4364 28.1977 23.5113 28.1258C23.5863 28.0538 23.6818 28.0048 23.7857 27.985C23.8897 27.9651 23.9974 27.9753 24.0954 28.0142C24.1933 28.0532 24.277 28.1191 24.3359 28.2037C24.3948 28.2884 24.4262 28.3878 24.4262 28.4896C24.4262 28.626 24.3697 28.7569 24.2692 28.8534C24.1687 28.9499 24.0324 29.0041 23.8903 29.0041ZM27.1057 27.2891C26.8584 27.2891 26.6166 27.3595 26.411 27.4914C26.2053 27.6233 26.0451 27.8108 25.9504 28.0302C25.8558 28.2495 25.831 28.4909 25.8793 28.7238C25.9275 28.9567 26.0466 29.1706 26.2215 29.3385C26.3964 29.5063 26.6192 29.6207 26.8617 29.667C27.1043 29.7133 27.3557 29.6896 27.5842 29.5987C27.8127 29.5078 28.008 29.354 28.1454 29.1565C28.2828 28.9591 28.3561 28.727 28.3561 28.4896C28.3561 28.1712 28.2244 27.8658 27.9899 27.6407C27.7554 27.4156 27.4373 27.2891 27.1057 27.2891ZM27.1057 29.0041C26.9997 29.0041 26.8961 28.9739 26.808 28.9174C26.7198 28.8608 26.6511 28.7805 26.6106 28.6865C26.57 28.5925 26.5594 28.489 26.5801 28.3892C26.6008 28.2894 26.6518 28.1977 26.7267 28.1258C26.8017 28.0538 26.8972 28.0048 27.0011 27.985C27.1051 27.9651 27.2128 27.9753 27.3108 28.0142C27.4087 28.0532 27.4924 28.1191 27.5513 28.2037C27.6102 28.2884 27.6416 28.3878 27.6416 28.4896C27.6416 28.626 27.5851 28.7569 27.4846 28.8534C27.3841 28.9499 27.2478 29.0041 27.1057 29.0041ZM25.498 23.5161C22.9368 23.5161 20.8535 25.4395 20.8535 27.8036C20.8535 29.2656 21.6694 30.6333 22.9971 31.4171V32.0911C22.9971 32.273 23.0724 32.4475 23.2064 32.5761C23.3404 32.7048 23.5221 32.7771 23.7116 32.7771H27.2843C27.4738 32.7771 27.6556 32.7048 27.7896 32.5761C27.9236 32.4475 27.9988 32.273 27.9988 32.0911V31.4171C29.3265 30.6333 30.1424 29.2656 30.1424 27.8036C30.1424 25.4395 28.0591 23.5161 25.498 23.5161ZM27.4683 30.9201C27.4125 30.9498 27.366 30.9933 27.3337 31.0461C27.3013 31.0989 27.2843 31.159 27.2843 31.2203V32.0911H26.5698V31.0621C26.5698 30.9711 26.5321 30.8839 26.4651 30.8195C26.3981 30.7552 26.3073 30.7191 26.2125 30.7191C26.1178 30.7191 26.0269 30.7552 25.9599 30.8195C25.8929 30.8839 25.8552 30.9711 25.8552 31.0621V32.0911H25.1407V31.0621C25.1407 30.9711 25.1031 30.8839 25.0361 30.8195C24.9691 30.7552 24.8782 30.7191 24.7834 30.7191C24.6887 30.7191 24.5978 30.7552 24.5308 30.8195C24.4638 30.8839 24.4262 30.9711 24.4262 31.0621V32.0911H23.7116V31.2203C23.7117 31.159 23.6946 31.0989 23.6623 31.0461C23.6299 30.9933 23.5834 30.9498 23.5277 30.9201C22.3188 30.277 21.568 29.083 21.568 27.8036C21.568 25.8176 23.3312 24.2021 25.498 24.2021C27.6648 24.2021 29.4279 25.8176 29.4279 27.8036C29.4279 29.0825 28.6772 30.277 27.4683 30.9201Z" fill="url(#paint2_linear_87_17)" fill-opacity="0.8"/>
<mask id="path-4-outside-1_87_17" maskUnits="userSpaceOnUse" x="49" y="12" width="70" height="23" fill="black">
<rect fill="white" x="49" y="12" width="70" height="23"/>
<path d="M60.4017 19.02C59.9084 19.3267 59.0817 19.48 57.9217 19.48C58.5617 19.7467 59.0284 20.1 59.3217 20.54C59.6151 20.98 59.7617 21.56 59.7617 22.28C59.7617 22.96 59.5951 23.5667 59.2617 24.1C58.9284 24.6333 58.4484 25.0533 57.8217 25.36C57.1951 25.6667 56.4617 25.82 55.6217 25.82C55.3417 25.82 55.0417 25.7933 54.7217 25.74C54.5617 25.8333 54.4817 25.9867 54.4817 26.2C54.4817 26.4 54.5417 26.5467 54.6617 26.64C54.7817 26.72 55.0217 26.76 55.3817 26.76H56.4017C57.6551 26.76 58.6217 27.0467 59.3017 27.62C59.9951 28.18 60.3417 28.9333 60.3417 29.88C60.3417 31 59.8951 31.8867 59.0017 32.54C58.1217 33.2067 56.8684 33.54 55.2417 33.54C54.0151 33.54 53.0551 33.3933 52.3617 33.1C51.6817 32.82 51.2084 32.42 50.9417 31.9C50.6884 31.3933 50.5617 30.76 50.5617 30H53.9617C53.9617 30.4133 54.0484 30.7133 54.2217 30.9C54.3951 31.0867 54.7417 31.18 55.2617 31.18C55.7417 31.18 56.0751 31.0867 56.2617 30.9C56.4484 30.7133 56.5417 30.46 56.5417 30.14C56.5417 29.8333 56.4617 29.6067 56.3017 29.46C56.1417 29.3133 55.8817 29.24 55.5217 29.24H54.6817C53.5751 29.24 52.7684 29.0533 52.2617 28.68C51.7551 28.2933 51.5017 27.7667 51.5017 27.1C51.5017 26.6733 51.6084 26.2867 51.8217 25.94C52.0351 25.58 52.3151 25.28 52.6617 25.04C52.0617 24.6533 51.6284 24.2267 51.3617 23.76C51.1084 23.28 50.9817 22.6733 50.9817 21.94C50.9817 20.66 51.3751 19.6733 52.1617 18.98C52.9617 18.2867 54.0884 17.9533 55.5417 17.98C56.0751 17.98 56.5684 17.9133 57.0217 17.78C57.4884 17.6467 57.8884 17.4867 58.2217 17.3C58.5684 17.1133 59.0084 16.8467 59.5417 16.5L60.4017 19.02ZM55.4617 20.38C55.2084 20.38 55.0151 20.4933 54.8817 20.72C54.7484 20.9333 54.6817 21.3133 54.6817 21.86C54.6817 22.4467 54.7417 22.8533 54.8617 23.08C54.9951 23.2933 55.1884 23.4 55.4417 23.4C55.7084 23.4 55.9017 23.2867 56.0217 23.06C56.1417 22.82 56.2017 22.4 56.2017 21.8C56.2017 21.2533 56.1417 20.88 56.0217 20.68C55.9017 20.48 55.7151 20.38 55.4617 20.38ZM64.2898 17.92C65.7698 17.92 66.9232 18.4 67.7498 19.36C68.5898 20.3067 69.0098 21.7467 69.0098 23.68C69.0098 25.5333 68.5898 26.9533 67.7498 27.94C66.9232 28.9133 65.7698 29.4 64.2898 29.4C62.8098 29.4 61.6498 28.9267 60.8098 27.98C59.9832 27.0333 59.5698 25.5867 59.5698 23.64C59.5698 21.7867 59.9832 20.3733 60.8098 19.4C61.6498 18.4133 62.8098 17.92 64.2898 17.92ZM64.2898 20.66C63.9832 20.66 63.7632 20.8733 63.6298 21.3C63.5098 21.7267 63.4498 22.5067 63.4498 23.64C63.4498 24.44 63.4765 25.06 63.5298 25.5C63.5832 25.94 63.6698 26.2467 63.7898 26.42C63.9098 26.5933 64.0765 26.68 64.2898 26.68C64.5965 26.68 64.8098 26.4667 64.9298 26.04C65.0632 25.6 65.1298 24.8133 65.1298 23.68C65.1298 22.88 65.1032 22.2667 65.0498 21.84C64.9965 21.4 64.9098 21.0933 64.7898 20.92C64.6698 20.7467 64.5032 20.66 64.2898 20.66ZM77.3922 25.82C77.3922 26.14 77.4189 26.3733 77.4722 26.52C77.5389 26.6533 77.6655 26.7667 77.8522 26.86L77.0922 29.32C76.4522 29.2667 75.9255 29.1333 75.5122 28.92C75.0989 28.7067 74.7789 28.3733 74.5522 27.92C73.8989 28.9067 72.9989 29.4 71.8522 29.4C70.9589 29.4 70.2455 29.0933 69.7122 28.48C69.1922 27.8533 68.9322 27.0267 68.9322 26C68.9322 24.8267 69.2989 23.9267 70.0322 23.3C70.7789 22.6733 71.8655 22.36 73.2922 22.36H73.6922V22.06C73.6922 21.46 73.6189 21.06 73.4722 20.86C73.3389 20.66 73.0455 20.56 72.5922 20.56C72.0455 20.56 71.3055 20.7333 70.3722 21.08L69.5522 18.76C70.0989 18.4933 70.7189 18.2867 71.4122 18.14C72.1055 17.9933 72.7589 17.92 73.3722 17.92C74.7322 17.92 75.7389 18.2333 76.3922 18.86C77.0589 19.4733 77.3922 20.4667 77.3922 21.84V25.82ZM73.1122 26.74C73.2189 26.74 73.3255 26.6933 73.4322 26.6C73.5389 26.4933 73.6255 26.36 73.6922 26.2V24.36H73.6122C73.2522 24.36 72.9922 24.4667 72.8322 24.68C72.6722 24.88 72.5922 25.2 72.5922 25.64C72.5922 26 72.6389 26.2733 72.7322 26.46C72.8255 26.6467 72.9522 26.74 73.1122 26.74ZM87.1714 14.12V29H83.7914L83.6914 28C83.3847 28.44 83.0381 28.78 82.6514 29.02C82.2781 29.2733 81.8047 29.4 81.2314 29.4C80.1381 29.4 79.3047 28.9067 78.7314 27.92C78.1581 26.9333 77.8714 25.5 77.8714 23.62C77.8714 22.46 78.0247 21.4533 78.3314 20.6C78.6514 19.7333 79.0914 19.0733 79.6514 18.62C80.2114 18.1533 80.8514 17.92 81.5714 17.92C82.2914 17.92 82.8914 18.2 83.3714 18.76V13.74L87.1714 14.12ZM82.5914 26.68C82.8981 26.68 83.1581 26.44 83.3714 25.96V21.14C83.2647 20.9667 83.1581 20.84 83.0514 20.76C82.9581 20.68 82.8514 20.64 82.7314 20.64C82.0781 20.64 81.7514 21.64 81.7514 23.64C81.7514 24.8667 81.8247 25.68 81.9714 26.08C82.1314 26.48 82.3381 26.68 82.5914 26.68ZM89.5686 25.38C90.1419 25.38 90.6086 25.58 90.9686 25.98C91.3419 26.38 91.5286 26.8533 91.5286 27.4C91.5286 27.9467 91.3419 28.42 90.9686 28.82C90.6086 29.2067 90.1419 29.4 89.5686 29.4C88.9953 29.4 88.5219 29.2067 88.1486 28.82C87.7886 28.42 87.6086 27.9467 87.6086 27.4C87.6086 26.8533 87.7886 26.38 88.1486 25.98C88.5219 25.58 88.9953 25.38 89.5686 25.38ZM98.1203 17.92C98.867 17.92 99.4536 18.1933 99.8803 18.74C100.307 19.2733 100.52 20.0067 100.52 20.94V29H96.7203V21.3C96.7203 20.9667 96.647 20.8 96.5003 20.8C96.3403 20.8 96.0936 21.0867 95.7603 21.66V29H91.9603V18.32H95.2803L95.5403 19.38C95.9003 18.8733 96.2803 18.5067 96.6803 18.28C97.0936 18.04 97.5736 17.92 98.1203 17.92ZM110.011 23.52C110.011 23.8533 109.984 24.26 109.931 24.74H104.631C104.697 25.5133 104.844 26.0333 105.071 26.3C105.311 26.5667 105.657 26.7 106.111 26.7C106.444 26.7 106.771 26.6333 107.091 26.5C107.411 26.3533 107.771 26.1333 108.171 25.84L109.671 27.84C109.204 28.3067 108.644 28.6867 107.991 28.98C107.337 29.26 106.611 29.4 105.811 29.4C104.171 29.4 102.937 28.8933 102.111 27.88C101.284 26.8533 100.871 25.46 100.871 23.7C100.871 21.9533 101.264 20.5533 102.051 19.5C102.837 18.4467 103.977 17.92 105.471 17.92C106.857 17.92 107.957 18.3933 108.771 19.34C109.597 20.2867 110.011 21.68 110.011 23.52ZM106.311 22.44C106.311 21.68 106.257 21.1333 106.151 20.8C106.044 20.4667 105.831 20.3 105.511 20.3C105.217 20.3 104.997 20.46 104.851 20.78C104.717 21.0867 104.637 21.6933 104.611 22.6H106.311V22.44ZM116.9 28.5C116.527 28.7933 116.087 29.0133 115.58 29.16C115.073 29.32 114.573 29.4 114.08 29.4C112.907 29.4 112.033 29.0733 111.46 28.42C110.887 27.7533 110.6 26.8667 110.6 25.76V20.9H109.7V18.32H110.6V16.06L114.4 15.62V18.32H116.34L115.96 20.9H114.4V25.72C114.4 25.9467 114.453 26.12 114.56 26.24C114.667 26.36 114.807 26.42 114.98 26.42C115.193 26.42 115.433 26.3467 115.7 26.2L116.9 28.5Z"/>
</mask>
<path d="M60.4017 19.02L60.9297 19.8693L61.6049 19.4495L61.3481 18.697L60.4017 19.02ZM57.9217 19.48V18.48L57.5371 20.4031L57.9217 19.48ZM59.3217 20.54L58.4897 21.0947L58.4897 21.0947L59.3217 20.54ZM59.2617 24.1L60.1097 24.63L60.1097 24.63L59.2617 24.1ZM54.7217 25.74L54.8861 24.7536L54.5298 24.6942L54.2178 24.8762L54.7217 25.74ZM54.6617 26.64L54.0478 27.4294L54.0766 27.4518L54.107 27.4721L54.6617 26.64ZM59.3017 27.62L58.6571 28.3845L58.6652 28.3913L58.6734 28.3979L59.3017 27.62ZM59.0017 32.54L58.4114 31.7328L58.4046 31.7378L58.3979 31.7429L59.0017 32.54ZM52.3617 33.1L52.7514 32.179L52.7425 32.1753L52.3617 33.1ZM50.9417 31.9L50.0472 32.3472L50.0519 32.3563L50.9417 31.9ZM50.5617 30V29H49.5617V30H50.5617ZM53.9617 30H54.9617V29H53.9617V30ZM54.2217 30.9L54.9545 30.2195L54.9545 30.2195L54.2217 30.9ZM56.2617 30.9L56.9688 31.6071L56.9688 31.6071L56.2617 30.9ZM56.3017 29.46L55.626 30.1972L55.626 30.1972L56.3017 29.46ZM52.2617 28.68L51.655 29.475L51.6617 29.4801L51.6685 29.4851L52.2617 28.68ZM51.8217 25.94L52.6734 26.4641L52.6778 26.457L52.682 26.4498L51.8217 25.94ZM52.6617 25.04L53.2309 25.8622L54.4615 25.0102L53.2034 24.1994L52.6617 25.04ZM51.3617 23.76L50.4773 24.2268L50.4852 24.2416L50.4935 24.2561L51.3617 23.76ZM52.1617 18.98L51.5068 18.2243L51.5005 18.2298L52.1617 18.98ZM55.5417 17.98L55.5234 18.9798L55.5325 18.98H55.5417V17.98ZM57.0217 17.78L56.747 16.8184L56.7396 16.8206L57.0217 17.78ZM58.2217 17.3L57.7476 16.4195L57.7403 16.4235L57.7331 16.4275L58.2217 17.3ZM59.5417 16.5L60.4881 16.177L60.0734 14.9617L58.9967 15.6616L59.5417 16.5ZM54.8817 20.72L55.7297 21.25L55.7368 21.2386L55.7437 21.227L54.8817 20.72ZM54.8617 23.08L53.9779 23.5479L53.9947 23.5796L54.0137 23.61L54.8617 23.08ZM56.0217 23.06L56.9055 23.5279L56.9109 23.5176L56.9161 23.5072L56.0217 23.06ZM56.0217 20.68L55.1642 21.1945L55.1642 21.1945L56.0217 20.68ZM59.8738 18.1707C59.6318 18.3211 59.048 18.48 57.9217 18.48V20.48C59.1155 20.48 60.185 20.3322 60.9297 19.8693L59.8738 18.1707ZM57.5371 20.4031C58.0508 20.6171 58.3352 20.863 58.4897 21.0947L60.1538 19.9853C59.7216 19.337 59.0727 18.8762 58.3063 18.5569L57.5371 20.4031ZM58.4897 21.0947C58.6404 21.3209 58.7617 21.688 58.7617 22.28H60.7617C60.7617 21.432 60.5897 20.6391 60.1538 19.9853L58.4897 21.0947ZM58.7617 22.28C58.7617 22.7884 58.6397 23.2085 58.4137 23.57L60.1097 24.63C60.5504 23.9248 60.7617 23.1316 60.7617 22.28H58.7617ZM58.4137 23.57C58.1901 23.9279 57.8599 24.228 57.3822 24.4618L58.2613 26.2582C59.0369 25.8787 59.6667 25.3388 60.1097 24.63L58.4137 23.57ZM57.3822 24.4618C56.9175 24.6892 56.34 24.82 55.6217 24.82V26.82C56.5834 26.82 57.4726 26.6441 58.2613 26.2582L57.3822 24.4618ZM55.6217 24.82C55.4046 24.82 55.1601 24.7993 54.8861 24.7536L54.5573 26.7264C54.9233 26.7874 55.2788 26.82 55.6217 26.82V24.82ZM54.2178 24.8762C53.6988 25.179 53.4817 25.6954 53.4817 26.2H55.4817C55.4817 26.2174 55.4782 26.2919 55.4283 26.3876C55.3749 26.49 55.2964 26.5625 55.2256 26.6038L54.2178 24.8762ZM53.4817 26.2C53.4817 26.6032 53.6116 27.0901 54.0478 27.4294L55.2757 25.8506C55.3596 25.9159 55.419 26.0001 55.4523 26.0814C55.4675 26.1186 55.4748 26.1492 55.4783 26.1695C55.4801 26.1796 55.4809 26.1874 55.4813 26.1924C55.4815 26.1949 55.4816 26.1969 55.4817 26.1981C55.4817 26.1987 55.4817 26.1992 55.4817 26.1995C55.4817 26.1997 55.4817 26.1998 55.4817 26.1999C55.4817 26.1999 55.4817 26.2 55.4817 26.2C55.4817 26.2 55.4817 26.2 55.4817 26.2C55.4817 26.1999 55.4817 26.2001 55.4817 26.2C55.4817 26.1999 55.4817 26.2001 55.4817 26.2H53.4817ZM54.107 27.4721C54.339 27.6267 54.5909 27.687 54.7673 27.7164C54.9607 27.7486 55.1701 27.76 55.3817 27.76V25.76C55.2333 25.76 55.1427 25.7514 55.0961 25.7436C55.074 25.7399 55.0743 25.7384 55.0904 25.7438C55.1049 25.7486 55.1534 25.766 55.2164 25.8079L54.107 27.4721ZM55.3817 27.76H56.4017V25.76H55.3817V27.76ZM56.4017 27.76C57.5145 27.76 58.219 28.0151 58.6571 28.3845L59.9463 26.8555C59.0245 26.0782 57.7956 25.76 56.4017 25.76V27.76ZM58.6734 28.3979C59.1154 28.7549 59.3417 29.2139 59.3417 29.88H61.3417C61.3417 28.6528 60.8748 27.6051 59.9301 26.8421L58.6734 28.3979ZM59.3417 29.88C59.3417 30.6855 59.0436 31.2705 58.4114 31.7328L59.592 33.3472C60.7465 32.5029 61.3417 31.3145 61.3417 29.88H59.3417ZM58.3979 31.7429C57.7567 32.2286 56.7493 32.54 55.2417 32.54V34.54C56.9875 34.54 58.4867 34.1847 59.6056 33.3371L58.3979 31.7429ZM55.2417 32.54C54.075 32.54 53.2679 32.3976 52.7514 32.179L51.9721 34.021C52.8422 34.3891 53.9551 34.54 55.2417 34.54V32.54ZM52.7425 32.1753C52.2239 31.9618 51.9639 31.7017 51.8315 31.4437L50.0519 32.3563C50.4529 33.1383 51.1395 33.6782 51.981 34.0247L52.7425 32.1753ZM51.8361 31.4528C51.6718 31.1241 51.5617 30.6554 51.5617 30H49.5617C49.5617 30.8646 49.705 31.6626 50.0473 32.3472L51.8361 31.4528ZM50.5617 31H53.9617V29H50.5617V31ZM52.9617 30C52.9617 30.517 53.0641 31.1229 53.4889 31.5805L54.9545 30.2195C54.9957 30.2639 54.997 30.2906 54.9874 30.2575C54.977 30.2214 54.9617 30.1412 54.9617 30H52.9617ZM53.4889 31.5805C53.7454 31.8567 54.068 31.9992 54.3517 32.0756C54.6384 32.1528 54.9495 32.18 55.2617 32.18V30.18C55.054 30.18 54.9317 30.1605 54.8717 30.1444C54.8088 30.1274 54.8713 30.13 54.9545 30.2195L53.4889 31.5805ZM55.2617 32.18C55.8097 32.18 56.4904 32.0855 56.9688 31.6071L55.5546 30.1929C55.6148 30.1327 55.6533 30.1327 55.6021 30.147C55.5497 30.1617 55.4429 30.18 55.2617 30.18V32.18ZM56.9688 31.6071C57.3816 31.1943 57.5417 30.6652 57.5417 30.14H55.5417C55.5417 30.2034 55.5325 30.2267 55.5334 30.2243C55.5338 30.2231 55.5359 30.2179 55.5406 30.2106C55.5452 30.2033 55.5503 30.1972 55.5546 30.1929L56.9688 31.6071ZM57.5417 30.14C57.5417 29.6717 57.4178 29.1265 56.9774 28.7228L55.626 30.1972C55.6012 30.1744 55.581 30.1498 55.5655 30.1258C55.5504 30.1021 55.5424 30.0832 55.5387 30.0728C55.5322 30.0544 55.5417 30.0703 55.5417 30.14H57.5417ZM56.9774 28.7228C56.5444 28.3259 55.9777 28.24 55.5217 28.24V30.24C55.6384 30.24 55.6973 30.2524 55.7153 30.2574C55.7308 30.2618 55.686 30.2522 55.626 30.1972L56.9774 28.7228ZM55.5217 28.24H54.6817V30.24H55.5217V28.24ZM54.6817 28.24C53.6449 28.24 53.102 28.057 52.8549 27.8749L51.6685 29.4851C52.4348 30.0497 53.5052 30.24 54.6817 30.24V28.24ZM52.8684 27.885C52.6226 27.6975 52.5017 27.4716 52.5017 27.1H50.5017C50.5017 28.0618 50.8875 28.8892 51.655 29.475L52.8684 27.885ZM52.5017 27.1C52.5017 26.8491 52.5618 26.6454 52.6734 26.4641L50.9701 25.4159C50.655 25.9279 50.5017 26.4976 50.5017 27.1H52.5017ZM52.682 26.4498C52.8214 26.2146 53.0017 26.0209 53.2309 25.8622L52.0925 24.2178C51.6284 24.5391 51.2487 24.9454 50.9614 25.4302L52.682 26.4498ZM53.2034 24.1994C52.6958 23.8723 52.3952 23.5531 52.23 23.2639L50.4935 24.2561C50.8615 24.9003 51.4276 25.4343 52.12 25.8806L53.2034 24.1994ZM52.2461 23.2932C52.0906 22.9987 51.9817 22.5652 51.9817 21.94H49.9817C49.9817 22.7814 50.1261 23.5613 50.4773 24.2268L52.2461 23.2932ZM51.9817 21.94C51.9817 20.8783 52.2984 20.1925 52.8229 19.7302L51.5005 18.2298C50.4517 19.1542 49.9817 20.4417 49.9817 21.94H51.9817ZM52.8166 19.7357C53.3702 19.2559 54.2242 18.956 55.5234 18.9798L55.5601 16.9802C53.9525 16.9507 52.5532 17.3174 51.5068 18.2243L52.8166 19.7357ZM55.5417 18.98C56.1585 18.98 56.748 18.9029 57.3039 18.7394L56.7396 16.8206C56.3888 16.9238 55.9916 16.98 55.5417 16.98V18.98ZM57.2964 18.7415C57.8186 18.5923 58.2941 18.4056 58.7103 18.1725L57.7331 16.4275C57.4827 16.5677 57.1582 16.701 56.747 16.8185L57.2964 18.7415ZM58.6958 18.1805C59.0767 17.9754 59.5425 17.6922 60.0867 17.3384L58.9967 15.6616C58.4743 16.0011 58.06 16.2513 57.7476 16.4195L58.6958 18.1805ZM58.5953 16.823L59.4553 19.343L61.3481 18.697L60.4881 16.177L58.5953 16.823ZM55.4617 19.38C54.8378 19.38 54.3244 19.6951 54.0198 20.213L55.7437 21.227C55.7389 21.2351 55.7066 21.2842 55.6324 21.3277C55.5565 21.3722 55.4892 21.38 55.4617 21.38V19.38ZM54.0337 20.19C53.7378 20.6634 53.6817 21.2991 53.6817 21.86H55.6817C55.6817 21.6228 55.6965 21.4527 55.7167 21.3378C55.7384 21.2139 55.7577 21.2053 55.7297 21.25L54.0337 20.19ZM53.6817 21.86C53.6817 22.4508 53.7315 23.0825 53.9779 23.5479L55.7455 22.6121C55.761 22.6414 55.7382 22.6092 55.716 22.459C55.6954 22.3196 55.6817 22.1233 55.6817 21.86H53.6817ZM54.0137 23.61C54.3313 24.1182 54.8465 24.4 55.4417 24.4V22.4C55.4588 22.4 55.518 22.4048 55.5898 22.4444C55.6619 22.4842 55.6989 22.5327 55.7097 22.55L54.0137 23.61ZM55.4417 24.4C55.7189 24.4 56.0156 24.34 56.2924 24.1777C56.5715 24.0141 56.7714 23.7812 56.9055 23.5279L55.1379 22.5921C55.152 22.5655 55.1953 22.5025 55.281 22.4523C55.3645 22.4033 55.4312 22.4 55.4417 22.4V24.4ZM56.9161 23.5072C57.1501 23.0393 57.2017 22.4088 57.2017 21.8H55.2017C55.2017 22.0704 55.188 22.2752 55.1668 22.4236C55.1442 22.5815 55.1196 22.6281 55.1273 22.6128L56.9161 23.5072ZM57.2017 21.8C57.2017 21.4948 57.1853 21.2079 57.144 20.9513C57.1048 20.7073 57.0329 20.4216 56.8792 20.1655L55.1642 21.1945C55.1306 21.1384 55.1486 21.1393 55.1694 21.2687C55.1881 21.3854 55.2017 21.5586 55.2017 21.8H57.2017ZM56.8792 20.1655C56.5604 19.6342 56.0298 19.38 55.4617 19.38V21.38C55.4558 21.38 55.3974 21.3782 55.3195 21.3365C55.2378 21.2927 55.1874 21.2332 55.1642 21.1945L56.8792 20.1655ZM67.7498 19.36L66.9921 20.0125L66.9969 20.0182L67.0019 20.0237L67.7498 19.36ZM67.7498 27.94L66.9884 27.2918L66.9876 27.2927L67.7498 27.94ZM60.8098 27.98L60.0566 28.6378L60.0619 28.6437L60.8098 27.98ZM60.8098 19.4L60.0484 18.7518L60.0476 18.7527L60.8098 19.4ZM63.6298 21.3L62.6754 21.0017L62.6711 21.0154L62.6672 21.0293L63.6298 21.3ZM63.5298 25.5L64.5226 25.3797L64.5226 25.3797L63.5298 25.5ZM63.7898 26.42L64.612 25.8508L64.612 25.8508L63.7898 26.42ZM64.9298 26.04L63.9728 25.75L63.9699 25.7596L63.9672 25.7693L64.9298 26.04ZM65.0498 21.84L64.0571 21.9603L64.0576 21.964L65.0498 21.84ZM64.7898 20.92L63.9677 21.4892L63.9677 21.4892L64.7898 20.92ZM64.2898 18.92C65.5329 18.92 66.3881 19.3111 66.9921 20.0125L68.5076 18.7075C67.4583 17.4889 66.0068 16.92 64.2898 16.92V18.92ZM67.0019 20.0237C67.6125 20.7119 68.0098 21.8669 68.0098 23.68H70.0098C70.0098 21.6265 69.5672 19.9014 68.4978 18.6963L67.0019 20.0237ZM68.0098 23.68C68.0098 25.3963 67.6198 26.5501 66.9884 27.2918L68.5113 28.5882C69.5599 27.3566 70.0098 25.6704 70.0098 23.68H68.0098ZM66.9876 27.2927C66.3822 28.0056 65.5282 28.4 64.2898 28.4V30.4C66.0115 30.4 67.4642 29.8211 68.512 28.5873L66.9876 27.2927ZM64.2898 28.4C63.0425 28.4 62.1753 28.0122 61.5578 27.3163L60.0619 28.6437C61.1243 29.8411 62.5772 30.4 64.2898 30.4V28.4ZM61.5631 27.3222C60.9628 26.6349 60.5698 25.4718 60.5698 23.64H58.5698C58.5698 25.7015 59.0035 27.4318 60.0566 28.6378L61.5631 27.3222ZM60.5698 23.64C60.5698 21.9192 60.9552 20.7736 61.572 20.0473L60.0476 18.7527C59.0111 19.9731 58.5698 21.6542 58.5698 23.64H60.5698ZM61.5713 20.0482C62.1931 19.3179 63.0564 18.92 64.2898 18.92V16.92C62.5632 16.92 61.1066 17.5088 60.0484 18.7518L61.5713 20.0482ZM64.2898 19.66C63.8768 19.66 63.4954 19.8144 63.1987 20.1021C62.9265 20.366 62.7705 20.6972 62.6754 21.0017L64.5843 21.5983C64.6225 21.4762 64.6432 21.4873 64.591 21.5379C64.5609 21.5671 64.5142 21.6015 64.4515 21.6268C64.3889 21.6522 64.3316 21.66 64.2898 21.66V19.66ZM62.6672 21.0293C62.5052 21.6051 62.4498 22.514 62.4498 23.64H64.4498C64.4498 22.4993 64.5144 21.8483 64.5925 21.5707L62.6672 21.0293ZM62.4498 23.64C62.4498 24.4538 62.4766 25.1207 62.5371 25.6203L64.5226 25.3797C64.4765 24.9993 64.4498 24.4262 64.4498 23.64H62.4498ZM62.5371 25.6203C62.593 26.081 62.6989 26.601 62.9677 26.9892L64.612 25.8508C64.6382 25.8887 64.6242 25.8838 64.5972 25.788C64.5721 25.6994 64.5452 25.5666 64.5226 25.3797L62.5371 25.6203ZM62.9677 26.9892C63.2771 27.4362 63.7531 27.68 64.2898 27.68V25.68C64.3218 25.68 64.3887 25.6875 64.4662 25.7278C64.5441 25.7683 64.5909 25.8203 64.612 25.8508L62.9677 26.9892ZM64.2898 27.68C64.7035 27.68 65.0893 27.5247 65.3869 27.2271C65.6585 26.9555 65.8064 26.617 65.8925 26.3107L63.9672 25.7693C63.9333 25.8897 63.9145 25.8711 63.9727 25.8129C64.0061 25.7795 64.0564 25.742 64.1228 25.7148C64.1888 25.6877 64.2483 25.68 64.2898 25.68V27.68ZM65.8869 26.33C66.068 25.7323 66.1298 24.8095 66.1298 23.68H64.1298C64.1298 24.8172 64.0584 25.4677 63.9728 25.75L65.8869 26.33ZM66.1298 23.68C66.1298 22.8673 66.1032 22.2049 66.0421 21.716L64.0576 21.964C64.1031 22.3285 64.1298 22.8927 64.1298 23.68H66.1298ZM66.0426 21.7197C65.9867 21.259 65.8808 20.739 65.612 20.3508L63.9677 21.4892C63.9414 21.4513 63.9555 21.4562 63.9825 21.552C64.0076 21.6406 64.0344 21.7734 64.0571 21.9603L66.0426 21.7197ZM65.612 20.3508C65.3026 19.9038 64.8266 19.66 64.2898 19.66V21.66C64.2579 21.66 64.191 21.6525 64.1135 21.6122C64.0356 21.5717 63.9888 21.5197 63.9677 21.4892L65.612 20.3508ZM77.4722 26.52L76.5324 26.8617L76.552 26.9158L76.5778 26.9672L77.4722 26.52ZM77.8522 26.86L78.8076 27.1552L79.058 26.3449L78.2994 25.9656L77.8522 26.86ZM77.0922 29.32L77.0091 30.3165L77.8103 30.3833L78.0476 29.6152L77.0922 29.32ZM75.5122 28.92L75.9708 28.0314L75.9708 28.0314L75.5122 28.92ZM74.5522 27.92L75.4466 27.4728L74.6732 25.926L73.7184 27.3679L74.5522 27.92ZM69.7122 28.48L68.9426 29.1186L68.95 29.1275L68.9576 29.1362L69.7122 28.48ZM70.0322 23.3L69.3893 22.534L69.3825 22.5398L70.0322 23.3ZM73.6922 22.36V23.36H74.6922V22.36H73.6922ZM73.4722 20.86L72.6401 21.4147L72.6525 21.4333L72.6658 21.4514L73.4722 20.86ZM70.3722 21.08L69.4293 21.4132L69.7679 22.3712L70.7204 22.0174L70.3722 21.08ZM69.5522 18.76L69.1138 17.8612L68.3121 18.2523L68.6093 19.0932L69.5522 18.76ZM71.4122 18.14L71.2052 17.1616L71.2052 17.1616L71.4122 18.14ZM76.3922 18.86L75.7 19.5817L75.7075 19.5889L75.7151 19.5959L76.3922 18.86ZM73.4322 26.6L74.0907 27.3526L74.1157 27.3307L74.1393 27.3071L73.4322 26.6ZM73.6922 26.2L74.6153 26.5846L74.6922 26.4V26.2H73.6922ZM73.6922 24.36H74.6922V23.36H73.6922V24.36ZM72.8322 24.68L73.6131 25.3047L73.6228 25.2925L73.6322 25.28L72.8322 24.68ZM72.7322 26.46L71.8378 26.9072L72.7322 26.46ZM76.3922 25.82C76.3922 26.1605 76.416 26.5417 76.5324 26.8617L78.412 26.1783C78.4219 26.2056 78.4141 26.1951 78.4057 26.1215C78.3979 26.0532 78.3922 25.9546 78.3922 25.82H76.3922ZM76.5778 26.9672C76.7732 27.358 77.1003 27.6021 77.405 27.7544L78.2994 25.9656C78.2682 25.95 78.268 25.9455 78.284 25.9598C78.3016 25.9755 78.3362 26.012 78.3666 26.0728L76.5778 26.9672ZM76.8967 26.5648L76.1367 29.0248L78.0476 29.6152L78.8076 27.1552L76.8967 26.5648ZM77.1752 28.3235C76.6197 28.2772 76.2319 28.1661 75.9708 28.0314L75.0535 29.8086C75.6192 30.1005 76.2847 30.2562 77.0091 30.3165L77.1752 28.3235ZM75.9708 28.0314C75.7629 27.9241 75.5874 27.7544 75.4466 27.4728L73.6578 28.3672C73.9703 28.9922 74.4348 29.4893 75.0535 29.8086L75.9708 28.0314ZM73.7184 27.3679C73.2432 28.0856 72.6507 28.4 71.8522 28.4V30.4C73.347 30.4 74.5546 29.7277 75.386 28.4721L73.7184 27.3679ZM71.8522 28.4C71.216 28.4 70.79 28.1955 70.4668 27.8238L68.9576 29.1362C69.701 29.9911 70.7017 30.4 71.8522 30.4V28.4ZM70.4817 27.8414C70.1461 27.437 69.9322 26.8558 69.9322 26H67.9322C67.9322 27.1975 68.2382 28.2697 68.9426 29.1186L70.4817 27.8414ZM69.9322 26C69.9322 25.0499 70.2185 24.4561 70.6818 24.0602L69.3825 22.5398C68.3792 23.3972 67.9322 24.6034 67.9322 26H69.9322ZM70.6751 24.066C71.1743 23.647 71.9946 23.36 73.2922 23.36V21.36C71.7365 21.36 70.3834 21.6997 69.3893 22.534L70.6751 24.066ZM73.2922 23.36H73.6922V21.36H73.2922V23.36ZM74.6922 22.36V22.06H72.6922V22.36H74.6922ZM74.6922 22.06C74.6922 21.7251 74.6722 21.4099 74.6208 21.1297C74.5722 20.8648 74.4808 20.5444 74.2786 20.2686L72.6658 21.4514C72.6102 21.3756 72.6288 21.3552 72.6536 21.4903C72.6755 21.6101 72.6922 21.7949 72.6922 22.06H74.6922ZM74.3042 20.3053C73.8702 19.6542 73.0973 19.56 72.5922 19.56V21.56C72.6697 21.56 72.7279 21.5643 72.7694 21.5699C72.7899 21.5726 72.8049 21.5755 72.8152 21.5778C72.8254 21.5801 72.8299 21.5816 72.8295 21.5815C72.8294 21.5815 72.8043 21.573 72.767 21.5468C72.7278 21.5192 72.681 21.476 72.6401 21.4147L74.3042 20.3053ZM72.5922 19.56C71.8662 19.56 70.9928 19.7827 70.024 20.1426L70.7204 22.0174C71.6183 21.6839 72.2249 21.56 72.5922 21.56V19.56ZM71.315 20.7468L70.495 18.4268L68.6093 19.0932L69.4293 21.4132L71.315 20.7468ZM69.9906 19.6588C70.4528 19.4333 70.9931 19.2508 71.6191 19.1183L71.2052 17.1616C70.4446 17.3226 69.745 17.5533 69.1138 17.8612L69.9906 19.6588ZM71.6191 19.1183C72.2547 18.9839 72.8382 18.92 73.3722 18.92V16.92C72.6796 16.92 71.9564 17.0028 71.2052 17.1616L71.6191 19.1183ZM73.3722 18.92C74.6014 18.92 75.3079 19.2056 75.7 19.5817L77.0844 18.1383C76.1698 17.261 74.863 16.92 73.3722 16.92V18.92ZM75.7151 19.5959C76.0898 19.9406 76.3922 20.6025 76.3922 21.84H78.3922C78.3922 20.3309 78.028 19.0061 77.0692 18.1241L75.7151 19.5959ZM76.3922 21.84V25.82H78.3922V21.84H76.3922ZM73.1122 27.74C73.5312 27.74 73.8625 27.5522 74.0907 27.3526L72.7737 25.8474C72.7885 25.8344 72.9065 25.74 73.1122 25.74V27.74ZM74.1393 27.3071C74.351 27.0954 74.5058 26.8474 74.6153 26.5846L72.7691 25.8154C72.7453 25.8726 72.7267 25.8913 72.7251 25.8929L74.1393 27.3071ZM74.6922 26.2V24.36H72.6922V26.2H74.6922ZM73.6922 23.36H73.6122V25.36H73.6922V23.36ZM73.6122 23.36C73.0564 23.36 72.4425 23.5329 72.0322 24.08L73.6322 25.28C73.6174 25.2997 73.5986 25.319 73.577 25.3354C73.5556 25.3517 73.5374 25.3608 73.5267 25.3652C73.5077 25.373 73.5273 25.36 73.6122 25.36V23.36ZM72.0513 24.0553C71.6788 24.521 71.5922 25.1205 71.5922 25.64H73.5922C73.5922 25.4764 73.6075 25.3719 73.6223 25.3125C73.6371 25.2534 73.6448 25.265 73.6131 25.3047L72.0513 24.0553ZM71.5922 25.64C71.5922 26.058 71.6417 26.5151 71.8378 26.9072L73.6266 26.0128C73.6357 26.0309 73.6248 26.0162 73.6129 25.9467C73.6014 25.8792 73.5922 25.7793 73.5922 25.64H71.5922ZM71.8378 26.9072C72.0397 27.3111 72.4543 27.74 73.1122 27.74V25.74C73.2418 25.74 73.3788 25.7827 73.4904 25.8649C73.589 25.9376 73.6247 26.009 73.6266 26.0128L71.8378 26.9072ZM87.1714 14.12H88.1714V13.215L87.2709 13.125L87.1714 14.12ZM87.1714 29V30H88.1714V29H87.1714ZM83.7914 29L82.7964 29.0995L82.8864 30H83.7914V29ZM83.6914 28L84.6864 27.9005L84.4173 25.2095L82.871 27.4282L83.6914 28ZM82.6514 29.02L82.124 28.1704L82.1067 28.1811L82.0899 28.1925L82.6514 29.02ZM78.7314 27.92L79.596 27.4176L79.596 27.4176L78.7314 27.92ZM78.3314 20.6L77.3933 20.2536L77.3903 20.2618L78.3314 20.6ZM79.6514 18.62L80.2806 19.3972L80.2861 19.3928L80.2916 19.3882L79.6514 18.62ZM83.3714 18.76L82.6121 19.4108L84.3714 21.4633V18.76H83.3714ZM83.3714 13.74L83.4709 12.745L82.3714 12.635V13.74H83.3714ZM83.3714 25.96L84.2852 26.3661L84.3714 26.1722V25.96H83.3714ZM83.3714 21.14H84.3714V20.857L84.2231 20.6159L83.3714 21.14ZM83.0514 20.76L82.4006 21.5193L82.4253 21.5405L82.4514 21.56L83.0514 20.76ZM81.9714 26.08L81.0325 26.4243L81.0375 26.4379L81.0429 26.4514L81.9714 26.08ZM86.1714 14.12V29H88.1714V14.12H86.1714ZM87.1714 28H83.7914V30H87.1714V28ZM84.7864 28.9005L84.6864 27.9005L82.6964 28.0995L82.7964 29.0995L84.7864 28.9005ZM82.871 27.4282C82.6284 27.7763 82.3764 28.0137 82.124 28.1704L83.1788 29.8696C83.6997 29.5463 84.1411 29.1037 84.5118 28.5718L82.871 27.4282ZM82.0899 28.1925C81.922 28.3065 81.6586 28.4 81.2314 28.4V30.4C81.9508 30.4 82.6342 30.2402 83.2129 29.8475L82.0899 28.1925ZM81.2314 28.4C80.5131 28.4 80 28.1128 79.596 27.4176L77.8668 28.4224C78.6095 29.7006 79.7631 30.4 81.2314 30.4V28.4ZM79.596 27.4176C79.1514 26.6524 78.8714 25.4254 78.8714 23.62H76.8714C76.8714 25.5746 77.1647 27.2142 77.8668 28.4224L79.596 27.4176ZM78.8714 23.62C78.8714 22.5446 79.014 21.6575 79.2725 20.9382L77.3903 20.2618C77.0355 21.2491 76.8714 22.3754 76.8714 23.62H78.8714ZM79.2695 20.9464C79.5445 20.2017 79.8947 19.7096 80.2806 19.3972L79.0222 17.8428C78.2881 18.437 77.7584 19.265 77.3933 20.2536L79.2695 20.9464ZM80.2916 19.3882C80.6743 19.0693 81.0885 18.92 81.5714 18.92V16.92C80.6143 16.92 79.7485 17.2374 79.0112 17.8518L80.2916 19.3882ZM81.5714 18.92C81.9914 18.92 82.3168 19.0662 82.6121 19.4108L84.1307 18.1092C83.466 17.3338 82.5914 16.92 81.5714 16.92V18.92ZM84.3714 18.76V13.74H82.3714V18.76H84.3714ZM83.2719 14.735L87.0719 15.115L87.2709 13.125L83.4709 12.745L83.2719 14.735ZM82.5914 27.68C83.526 27.68 84.0343 26.9308 84.2852 26.3661L82.4576 25.5539C82.4218 25.6345 82.3906 25.6898 82.3671 25.7257C82.3433 25.7618 82.332 25.7708 82.3381 25.7652C82.3453 25.7586 82.3728 25.7353 82.4227 25.7142C82.4748 25.6921 82.5336 25.68 82.5914 25.68V27.68ZM84.3714 25.96V21.14H82.3714V25.96H84.3714ZM84.2231 20.6159C84.0817 20.3861 83.897 20.1442 83.6514 19.96L82.4514 21.56C82.4315 21.5451 82.4308 21.5405 82.4465 21.5591C82.4617 21.5773 82.4867 21.6104 82.5197 21.6641L84.2231 20.6159ZM83.7022 20.0007C83.4325 19.7695 83.0964 19.64 82.7314 19.64V21.64C82.678 21.64 82.6151 21.6306 82.5503 21.6063C82.4858 21.5821 82.4357 21.5493 82.4006 21.5193L83.7022 20.0007ZM82.7314 19.64C81.7287 19.64 81.2481 20.4604 81.0458 21.0795C80.8323 21.7333 80.7514 22.6116 80.7514 23.64H82.7514C82.7514 22.6684 82.8339 22.0467 82.947 21.7005C83.0714 21.3196 83.0808 21.64 82.7314 21.64V19.64ZM80.7514 23.64C80.7514 24.2701 80.7701 24.8125 80.8104 25.2598C80.8492 25.6894 80.913 26.0983 81.0325 26.4243L82.9103 25.7357C82.8831 25.6617 82.837 25.4639 82.8024 25.0802C82.7694 24.7142 82.7514 24.2366 82.7514 23.64H80.7514ZM81.0429 26.4514C81.238 26.9391 81.6865 27.68 82.5914 27.68V25.68C82.6638 25.68 82.7393 25.6952 82.8089 25.7254C82.8763 25.7547 82.9198 25.7901 82.9418 25.8114C82.9626 25.8315 82.9646 25.8393 82.9534 25.8211C82.9425 25.8031 82.9235 25.7677 82.8999 25.7086L81.0429 26.4514ZM90.9686 25.98L90.2253 26.649L90.2314 26.6557L90.2375 26.6623L90.9686 25.98ZM90.9686 28.82L90.2375 28.1377L90.2367 28.1386L90.9686 28.82ZM88.1486 28.82L87.4053 29.489L87.417 29.502L87.4292 29.5146L88.1486 28.82ZM88.1486 25.98L87.4175 25.2977L87.4114 25.3043L87.4053 25.311L88.1486 25.98ZM89.5686 26.38C89.8793 26.38 90.0685 26.4747 90.2253 26.649L91.7119 25.311C91.1487 24.6853 90.4045 24.38 89.5686 24.38V26.38ZM90.2375 26.6623C90.4382 26.8773 90.5286 27.1069 90.5286 27.4H92.5286C92.5286 26.5998 92.2456 25.8827 91.6996 25.2977L90.2375 26.6623ZM90.5286 27.4C90.5286 27.6931 90.4382 27.9227 90.2375 28.1377L91.6996 29.5023C92.2456 28.9173 92.5286 28.2002 92.5286 27.4H90.5286ZM90.2367 28.1386C90.0831 28.3035 89.8907 28.4 89.5686 28.4V30.4C90.3931 30.4 91.1341 30.1098 91.7005 29.5014L90.2367 28.1386ZM89.5686 28.4C89.2464 28.4 89.0393 28.3029 88.868 28.1254L87.4292 29.5146C88.0045 30.1105 88.7441 30.4 89.5686 30.4V28.4ZM88.8919 28.151C88.7 27.9378 88.6086 27.7039 88.6086 27.4H86.6086C86.6086 28.1894 86.8772 28.9022 87.4053 29.489L88.8919 28.151ZM88.6086 27.4C88.6086 27.0961 88.7 26.8622 88.8919 26.649L87.4053 25.311C86.8772 25.8978 86.6086 26.6106 86.6086 27.4H88.6086ZM88.8796 26.6623C89.0539 26.4756 89.2575 26.38 89.5686 26.38V24.38C88.733 24.38 87.99 24.6844 87.4175 25.2977L88.8796 26.6623ZM99.8803 18.74L99.0919 19.3553L99.0994 19.3647L99.8803 18.74ZM100.52 29V30H101.52V29H100.52ZM96.7203 29H95.7203V30H96.7203V29ZM95.7603 21.66L94.8958 21.1574L94.7603 21.3904V21.66H95.7603ZM95.7603 29V30H96.7603V29H95.7603ZM91.9603 29H90.9603V30H91.9603V29ZM91.9603 18.32V17.32H90.9603V18.32H91.9603ZM95.2803 18.32L96.2515 18.0818L96.0647 17.32H95.2803V18.32ZM95.5403 19.38L94.5691 19.6182L95.0897 21.7407L96.3555 19.9592L95.5403 19.38ZM96.6803 18.28L97.1734 19.1501L97.1824 19.1448L96.6803 18.28ZM98.1203 18.92C98.5862 18.92 98.871 19.0721 99.092 19.3553L100.669 18.1247C100.036 17.3146 99.1477 16.92 98.1203 16.92V18.92ZM99.0994 19.3647C99.3401 19.6655 99.5203 20.1512 99.5203 20.94H101.52C101.52 19.8622 101.274 18.8812 100.661 18.1153L99.0994 19.3647ZM99.5203 20.94V29H101.52V20.94H99.5203ZM100.52 28H96.7203V30H100.52V28ZM97.7203 29V21.3H95.7203V29H97.7203ZM97.7203 21.3C97.7203 21.0909 97.702 20.7981 97.5806 20.5223C97.5149 20.3729 97.4001 20.1855 97.2004 20.0342C96.9878 19.8731 96.7404 19.8 96.5003 19.8V21.8C96.3336 21.8 96.1503 21.7477 95.9927 21.6283C95.848 21.5187 95.779 21.3937 95.75 21.3277C95.702 21.2186 95.7203 21.1758 95.7203 21.3H97.7203ZM96.5003 19.8C96.1684 19.8 95.9203 19.9431 95.7879 20.0364C95.6448 20.1373 95.5279 20.2575 95.4373 20.3628C95.2549 20.5747 95.074 20.8509 94.8958 21.1574L96.6248 22.1626C96.78 21.8958 96.889 21.742 96.9533 21.6672C96.9861 21.6292 96.9817 21.6418 96.9402 21.6711C96.9174 21.6872 96.8714 21.7168 96.8032 21.7437C96.7341 21.7709 96.6303 21.8 96.5003 21.8V19.8ZM94.7603 21.66V29H96.7603V21.66H94.7603ZM95.7603 28H91.9603V30H95.7603V28ZM92.9603 29V18.32H90.9603V29H92.9603ZM91.9603 19.32H95.2803V17.32H91.9603V19.32ZM94.3091 18.5582L94.5691 19.6182L96.5115 19.1418L96.2515 18.0818L94.3091 18.5582ZM96.3555 19.9592C96.659 19.5321 96.9373 19.2838 97.1733 19.15L96.1873 17.41C95.6234 17.7295 95.1417 18.2146 94.7251 18.8008L96.3555 19.9592ZM97.1824 19.1448C97.4224 19.0054 97.7243 18.92 98.1203 18.92V16.92C97.423 16.92 96.7649 17.0745 96.1782 17.4152L97.1824 19.1448ZM109.931 24.74V25.74H110.826L110.925 24.8504L109.931 24.74ZM104.631 24.74V23.74H103.541L103.634 24.8259L104.631 24.74ZM105.071 26.3L104.309 26.9476L104.318 26.9584L104.327 26.969L105.071 26.3ZM107.091 26.5L107.475 27.4231L107.491 27.4164L107.507 27.4091L107.091 26.5ZM108.171 25.84L108.971 25.24L108.377 24.4486L107.579 25.0336L108.171 25.84ZM109.671 27.84L110.378 28.5471L110.991 27.9338L110.471 27.24L109.671 27.84ZM107.991 28.98L108.385 29.8991L108.392 29.8958L108.4 29.8923L107.991 28.98ZM102.111 27.88L101.332 28.5072L101.336 28.5121L102.111 27.88ZM102.051 19.5L102.852 20.0984L102.852 20.0984L102.051 19.5ZM108.771 19.34L108.012 19.9917L108.017 19.9978L108.771 19.34ZM106.151 20.8L107.103 20.4952L107.103 20.4952L106.151 20.8ZM104.851 20.78L103.942 20.3633L103.937 20.3723L103.934 20.3813L104.851 20.78ZM104.611 22.6L103.611 22.5706L103.581 23.6H104.611V22.6ZM106.311 22.6V23.6H107.311V22.6H106.311ZM109.011 23.52C109.011 23.8041 108.988 24.1715 108.937 24.6296L110.925 24.8504C110.98 24.3485 111.011 23.9025 111.011 23.52H109.011ZM109.931 23.74H104.631V25.74H109.931V23.74ZM103.634 24.8259C103.671 25.2507 103.732 25.6409 103.828 25.9815C103.921 26.3121 104.065 26.6615 104.309 26.9476L105.833 25.6524C105.849 25.6718 105.806 25.6279 105.753 25.4385C105.702 25.2591 105.657 25.0027 105.627 24.6541L103.634 24.8259ZM104.327 26.969C104.805 27.4993 105.454 27.7 106.111 27.7V25.7C105.861 25.7 105.817 25.6341 105.814 25.631L104.327 26.969ZM106.111 27.7C106.581 27.7 107.038 27.6051 107.475 27.4231L106.706 25.5769C106.503 25.6615 106.307 25.7 106.111 25.7V27.7ZM107.507 27.4091C107.908 27.2253 108.328 26.9649 108.762 26.6464L107.579 25.0336C107.214 25.3018 106.913 25.4813 106.674 25.5909L107.507 27.4091ZM107.371 26.44L108.871 28.44L110.471 27.24L108.971 25.24L107.371 26.44ZM108.964 27.1329C108.59 27.5066 108.133 27.8199 107.581 28.0677L108.4 29.8923C109.155 29.5534 109.818 29.1067 110.378 28.5471L108.964 27.1329ZM107.597 28.0609C107.083 28.2812 106.492 28.4 105.811 28.4V30.4C106.729 30.4 107.592 30.2388 108.385 29.8991L107.597 28.0609ZM105.811 28.4C104.388 28.4 103.475 27.9707 102.885 27.2479L101.336 28.5121C102.399 29.8159 103.953 30.4 105.811 30.4V28.4ZM102.89 27.2528C102.248 26.4556 101.871 25.3084 101.871 23.7H99.8706C99.8706 25.6116 100.32 27.2511 101.332 28.5072L102.89 27.2528ZM101.871 23.7C101.871 22.0986 102.231 20.9299 102.852 20.0984L101.249 18.9016C100.297 20.1768 99.8706 21.8081 99.8706 23.7H101.871ZM102.852 20.0984C103.422 19.3347 104.244 18.92 105.471 18.92V16.92C103.711 16.92 102.252 17.5586 101.249 18.9016L102.852 20.0984ZM105.471 18.92C106.602 18.92 107.411 19.2923 108.012 19.9917L109.529 18.6883C108.503 17.4944 107.112 16.92 105.471 16.92V18.92ZM108.017 19.9978C108.625 20.6937 109.011 21.8121 109.011 23.52H111.011C111.011 21.5479 110.569 19.8796 109.524 18.6822L108.017 19.9978ZM107.311 22.44C107.311 21.6686 107.261 20.9874 107.103 20.4952L105.198 21.1048C105.254 21.2793 105.311 21.6914 105.311 22.44H107.311ZM107.103 20.4952C107.006 20.1929 106.832 19.8755 106.526 19.637C106.213 19.3924 105.852 19.3 105.511 19.3V21.3C105.49 21.3 105.395 21.2909 105.295 21.213C105.203 21.1411 105.188 21.0738 105.198 21.1048L107.103 20.4952ZM105.511 19.3C105.17 19.3 104.832 19.397 104.537 19.6113C104.254 19.8177 104.066 20.092 103.942 20.3633L105.76 21.1967C105.782 21.148 105.778 21.1823 105.714 21.2287C105.682 21.2521 105.643 21.2718 105.602 21.2847C105.561 21.2973 105.529 21.3 105.511 21.3V19.3ZM103.934 20.3813C103.811 20.6634 103.743 21.0015 103.699 21.3343C103.653 21.683 103.625 22.0979 103.611 22.5706L105.61 22.6294C105.623 22.1955 105.648 21.8536 105.682 21.5957C105.699 21.4674 105.717 21.368 105.734 21.2937C105.743 21.257 105.751 21.2292 105.757 21.209C105.76 21.1991 105.763 21.1916 105.765 21.1864C105.766 21.1838 105.766 21.1819 105.767 21.1806C105.767 21.1793 105.768 21.1787 105.768 21.1787L103.934 20.3813ZM104.611 23.6H106.311V21.6H104.611V23.6ZM107.311 22.6V22.44H105.311V22.6H107.311ZM116.9 28.5L117.518 29.2863L118.171 28.7734L117.787 28.0374L116.9 28.5ZM115.58 29.16L115.302 28.1994L115.29 28.2028L115.279 28.2064L115.58 29.16ZM111.46 28.42L110.702 29.0721L110.708 29.0796L111.46 28.42ZM110.6 20.9H111.6V19.9H110.6V20.9ZM109.7 20.9H108.7V21.9H109.7V20.9ZM109.7 18.32V17.32H108.7V18.32H109.7ZM110.6 18.32V19.32H111.6V18.32H110.6ZM110.6 16.06L110.485 15.0666L109.6 15.1691V16.06H110.6ZM114.4 15.62H115.4V14.4975L114.285 14.6266L114.4 15.62ZM114.4 18.32H113.4V19.32H114.4V18.32ZM116.34 18.32L117.329 18.4657L117.498 17.32H116.34V18.32ZM115.96 20.9V21.9H116.824L116.949 21.0457L115.96 20.9ZM114.4 20.9V19.9H113.4V20.9H114.4ZM114.56 26.24L115.307 25.5756L115.307 25.5756L114.56 26.24ZM115.7 26.2L116.587 25.7374L116.114 24.8312L115.218 25.3238L115.7 26.2ZM116.282 27.7137C116.02 27.9193 115.699 28.0845 115.302 28.1994L115.858 30.1206C116.474 29.9421 117.033 29.6674 117.518 29.2863L116.282 27.7137ZM115.279 28.2064C114.862 28.338 114.464 28.4 114.08 28.4V30.4C114.683 30.4 115.285 30.302 115.881 30.1136L115.279 28.2064ZM114.08 28.4C113.089 28.4 112.535 28.1289 112.212 27.7604L110.708 29.0796C111.532 30.0178 112.725 30.4 114.08 30.4V28.4ZM112.218 27.768C111.838 27.3258 111.6 26.6912 111.6 25.76H109.6C109.6 27.0422 109.935 28.1808 110.702 29.072L112.218 27.768ZM111.6 25.76V20.9H109.6V25.76H111.6ZM110.6 19.9H109.7V21.9H110.6V19.9ZM110.7 20.9V18.32H108.7V20.9H110.7ZM109.7 19.32H110.6V17.32H109.7V19.32ZM111.6 18.32V16.06H109.6V18.32H111.6ZM110.715 17.0534L114.515 16.6134L114.285 14.6266L110.485 15.0666L110.715 17.0534ZM113.4 15.62V18.32H115.4V15.62H113.4ZM114.4 19.32H116.34V17.32H114.4V19.32ZM115.351 18.1743L114.971 20.7543L116.949 21.0457L117.329 18.4657L115.351 18.1743ZM115.96 19.9H114.4V21.9H115.96V19.9ZM113.4 20.9V25.72H115.4V20.9H113.4ZM113.4 25.72C113.4 26.0913 113.487 26.5381 113.813 26.9044L115.307 25.5756C115.361 25.6358 115.386 25.6934 115.396 25.7259C115.405 25.7548 115.4 25.7574 115.4 25.72H113.4ZM113.813 26.9044C114.125 27.2563 114.547 27.42 114.98 27.42V25.42C115.01 25.42 115.068 25.4256 115.139 25.4559C115.211 25.4869 115.268 25.5318 115.307 25.5756L113.813 26.9044ZM114.98 27.42C115.418 27.42 115.827 27.2715 116.182 27.0762L115.218 25.3238C115.04 25.4218 114.968 25.42 114.98 25.42V27.42ZM114.813 26.6626L116.013 28.9626L117.787 28.0374L116.587 25.7374L114.813 26.6626Z" fill="white" fill-opacity="0.8" mask="url(#path-4-outside-1_87_17)"/>
<path d="M63.2079 36.072C62.8199 36.072 62.5359 35.94 62.3559 35.676C62.1799 35.408 62.0919 34.99 62.0919 34.422C62.0919 33.854 62.1819 33.438 62.3619 33.174C62.5459 32.906 62.8239 32.772 63.1959 32.772C63.5399 32.772 63.7939 32.876 63.9579 33.084C64.1259 33.292 64.2099 33.604 64.2099 34.02H63.6279C63.6279 33.764 63.5959 33.574 63.5319 33.45C63.4679 33.326 63.3559 33.264 63.1959 33.264C63.0159 33.264 62.8839 33.352 62.7999 33.528C62.7199 33.704 62.6799 33.964 62.6799 34.308V34.536C62.6799 34.88 62.7199 35.14 62.7999 35.316C62.8839 35.492 63.0199 35.58 63.2079 35.58C63.3679 35.58 63.4819 35.516 63.5499 35.388C63.6179 35.26 63.6519 35.072 63.6519 34.824H64.2099C64.2099 35.068 64.1739 35.284 64.1019 35.472C64.0299 35.656 63.9199 35.802 63.7719 35.91C63.6239 36.018 63.4359 36.072 63.2079 36.072ZM69.1227 36.072C68.7387 36.072 68.4467 35.94 68.2467 35.676C68.0507 35.408 67.9527 34.99 67.9527 34.422C67.9527 33.854 68.0507 33.438 68.2467 33.174C68.4467 32.906 68.7387 32.772 69.1227 32.772C69.5067 32.772 69.7967 32.906 69.9927 33.174C70.1927 33.438 70.2927 33.854 70.2927 34.422C70.2927 34.99 70.1927 35.408 69.9927 35.676C69.7967 35.94 69.5067 36.072 69.1227 36.072ZM69.1227 35.58C69.3227 35.58 69.4687 35.492 69.5607 35.316C69.6567 35.14 69.7047 34.88 69.7047 34.536V34.308C69.7047 33.964 69.6567 33.704 69.5607 33.528C69.4687 33.352 69.3227 33.264 69.1227 33.264C68.9267 33.264 68.7807 33.352 68.6847 33.528C68.5927 33.704 68.5467 33.964 68.5467 34.308V34.536C68.5467 34.88 68.5927 35.14 68.6847 35.316C68.7807 35.492 68.9267 35.58 69.1227 35.58ZM74.1791 36V32.844H74.6231L74.6951 33.216H74.7311C74.8151 33.072 74.9231 32.962 75.0551 32.886C75.1871 32.81 75.3371 32.772 75.5051 32.772C75.7411 32.772 75.9331 32.846 76.0811 32.994C76.2291 33.138 76.3031 33.388 76.3031 33.744V36H75.7391V33.834C75.7391 33.618 75.6991 33.472 75.6191 33.396C75.5391 33.316 75.4331 33.276 75.3011 33.276C75.1531 33.276 75.0231 33.348 74.9111 33.492C74.7991 33.636 74.7431 33.828 74.7431 34.068V36H74.1791ZM80.9274 36.066C80.7714 36.066 80.6474 36.028 80.5554 35.952C80.4674 35.876 80.4034 35.78 80.3634 35.664C80.3274 35.548 80.3094 35.426 80.3094 35.298V33.336H80.0214V32.844H80.3094L80.4174 31.962H80.8734V32.844H81.3114V33.336H80.8734V35.304C80.8734 35.488 80.9634 35.58 81.1434 35.58H81.3114V35.982C81.2674 36.006 81.2074 36.026 81.1314 36.042C81.0594 36.058 80.9914 36.066 80.9274 36.066ZM85.6865 36.072C85.6105 36.072 85.5245 36.06 85.4285 36.036C85.3365 36.016 85.2465 35.974 85.1585 35.91C85.0745 35.846 85.0045 35.756 84.9485 35.64C84.8965 35.524 84.8705 35.372 84.8705 35.184C84.8705 34.896 84.9385 34.676 85.0745 34.524C85.2105 34.368 85.3985 34.26 85.6385 34.2C85.8785 34.14 86.1505 34.11 86.4545 34.11V33.732C86.4545 33.592 86.4245 33.478 86.3645 33.39C86.3085 33.302 86.1905 33.258 86.0105 33.258C85.8385 33.258 85.7205 33.306 85.6565 33.402C85.5925 33.498 85.5605 33.598 85.5605 33.702V33.78H85.0025C84.9985 33.76 84.9965 33.74 84.9965 33.72C84.9965 33.7 84.9965 33.676 84.9965 33.648C84.9965 33.368 85.0925 33.152 85.2845 33C85.4765 32.848 85.7245 32.772 86.0285 32.772C86.3645 32.772 86.6125 32.85 86.7725 33.006C86.9365 33.162 87.0185 33.384 87.0185 33.672V35.37C87.0185 35.446 87.0365 35.5 87.0725 35.532C87.1085 35.564 87.1465 35.58 87.1865 35.58H87.3665V35.976C87.3345 35.992 87.2885 36.008 87.2285 36.024C87.1725 36.044 87.1005 36.054 87.0125 36.054C86.8765 36.054 86.7645 36.018 86.6765 35.946C86.5885 35.874 86.5265 35.778 86.4905 35.658H86.4605C86.3805 35.786 86.2765 35.888 86.1485 35.964C86.0205 36.036 85.8665 36.072 85.6865 36.072ZM85.8605 35.58C85.9685 35.58 86.0665 35.552 86.1545 35.496C86.2425 35.436 86.3145 35.35 86.3705 35.238C86.4265 35.122 86.4545 34.986 86.4545 34.83V34.578C86.2625 34.578 86.0905 34.594 85.9385 34.626C85.7905 34.654 85.6725 34.708 85.5845 34.788C85.4965 34.868 85.4525 34.986 85.4525 35.142C85.4525 35.298 85.4865 35.41 85.5545 35.478C85.6265 35.546 85.7285 35.58 85.8605 35.58ZM91.1409 36V32.844H91.7049V36H91.1409ZM91.1289 32.268V31.662H91.7049V32.268H91.1289ZM95.7521 36V32.844H96.1961L96.2681 33.216H96.3041C96.3881 33.072 96.4961 32.962 96.6281 32.886C96.7601 32.81 96.9101 32.772 97.0781 32.772C97.3141 32.772 97.5061 32.846 97.6541 32.994C97.8021 33.138 97.8761 33.388 97.8761 33.744V36H97.3121V33.834C97.3121 33.618 97.2721 33.472 97.1921 33.396C97.1121 33.316 97.0061 33.276 96.8741 33.276C96.7261 33.276 96.5961 33.348 96.4841 33.492C96.3721 33.636 96.3161 33.828 96.3161 34.068V36H95.7521ZM102.962 36.072C102.566 36.072 102.266 35.942 102.062 35.682C101.858 35.422 101.756 35.002 101.756 34.422C101.756 33.854 101.856 33.438 102.056 33.174C102.256 32.906 102.554 32.772 102.95 32.772C103.306 32.772 103.572 32.894 103.748 33.138C103.928 33.378 104.018 33.768 104.018 34.308V34.578H102.344C102.348 34.918 102.4 35.172 102.5 35.34C102.6 35.504 102.756 35.586 102.968 35.586C103.116 35.586 103.234 35.526 103.322 35.406C103.414 35.286 103.46 35.122 103.46 34.914H104.018C104.018 35.282 103.92 35.568 103.724 35.772C103.528 35.972 103.274 36.072 102.962 36.072ZM102.35 34.11H103.43C103.43 33.834 103.39 33.624 103.31 33.48C103.23 33.332 103.11 33.258 102.95 33.258C102.75 33.258 102.604 33.33 102.512 33.474C102.42 33.618 102.366 33.83 102.35 34.11ZM107.907 36V32.844H108.351L108.423 33.276H108.459C108.503 33.152 108.565 33.038 108.645 32.934C108.729 32.826 108.847 32.772 108.999 32.772C109.075 32.772 109.135 32.78 109.179 32.796C109.227 32.812 109.251 32.82 109.251 32.82V33.39H109.059C108.955 33.39 108.857 33.412 108.765 33.456C108.677 33.5 108.605 33.576 108.549 33.684C108.497 33.792 108.471 33.94 108.471 34.128V36H107.907ZM113.841 36.072C113.601 36.072 113.401 36.028 113.241 35.94C113.085 35.852 112.969 35.736 112.893 35.592C112.821 35.448 112.785 35.292 112.785 35.124C112.785 35.088 112.785 35.062 112.785 35.046C112.789 35.026 112.791 35.014 112.791 35.01H113.373V35.064C113.377 35.252 113.427 35.388 113.523 35.472C113.619 35.552 113.733 35.592 113.865 35.592C113.981 35.592 114.085 35.558 114.177 35.49C114.273 35.418 114.321 35.308 114.321 35.16C114.321 35.036 114.285 34.94 114.213 34.872C114.141 34.804 114.049 34.748 113.937 34.704C113.829 34.66 113.711 34.618 113.583 34.578C113.459 34.538 113.341 34.486 113.229 34.422C113.117 34.358 113.025 34.268 112.953 34.152C112.885 34.036 112.851 33.882 112.851 33.69C112.851 33.494 112.893 33.328 112.977 33.192C113.065 33.056 113.187 32.952 113.343 32.88C113.499 32.808 113.677 32.772 113.877 32.772C114.077 32.772 114.247 32.81 114.387 32.886C114.531 32.958 114.641 33.06 114.717 33.192C114.797 33.324 114.837 33.472 114.837 33.636C114.837 33.66 114.835 33.684 114.831 33.708C114.831 33.732 114.831 33.748 114.831 33.756H114.249V33.714C114.249 33.586 114.217 33.478 114.153 33.39C114.093 33.298 113.989 33.252 113.841 33.252C113.737 33.252 113.655 33.274 113.595 33.318C113.535 33.358 113.491 33.408 113.463 33.468C113.439 33.528 113.427 33.588 113.427 33.648C113.427 33.76 113.463 33.846 113.535 33.906C113.607 33.966 113.699 34.014 113.811 34.05C113.923 34.086 114.041 34.124 114.165 34.164C114.293 34.204 114.411 34.258 114.519 34.326C114.631 34.394 114.723 34.488 114.795 34.608C114.867 34.728 114.903 34.886 114.903 35.082C114.903 35.318 114.857 35.51 114.765 35.658C114.673 35.802 114.547 35.908 114.387 35.976C114.227 36.04 114.045 36.072 113.841 36.072Z" fill="white" fill-opacity="0.8"/>
<defs>
<filter id="filter0_b_87_17" x="0" y="6" width="51" height="44.2866" filterUnits="userSpaceOnUse" color-interpolation-filters="sRGB">
<feFlood flood-opacity="0" result="BackgroundImageFix"/>
<feGaussianBlur in="BackgroundImageFix" stdDeviation="2"/>
<feComposite in2="SourceAlpha" operator="in" result="effect1_backgroundBlur_87_17"/>
<feBlend mode="normal" in="SourceGraphic" in2="effect1_backgroundBlur_87_17" result="shape"/>
</filter>
<linearGradient id="paint0_linear_87_17" x1="16.7529" y1="11.2313" x2="30.3097" y2="45.0805" gradientUnits="userSpaceOnUse">
<stop stop-color="white" stop-opacity="0.85"/>
<stop offset="1" stop-color="#EDEDED" stop-opacity="0.69"/>
</linearGradient>
<linearGradient id="paint1_linear_87_17" x1="25.4771" y1="32.4348" x2="25.5145" y2="23.8598" gradientUnits="userSpaceOnUse">
<stop stop-color="white"/>
<stop offset="1" stop-color="white"/>
</linearGradient>
<linearGradient id="paint2_linear_87_17" x1="20.8369" y1="22.1115" x2="28.3667" y2="35.6426" gradientUnits="userSpaceOnUse">
<stop stop-color="white"/>
<stop offset="1" stop-color="#DBDBDB"/>
</linearGradient>
</defs>
</svg>
